0
SECTION
2
HEADER
9
$INSUNITS
70
4
9
$ACADVER
1
AC1014
9
$HANDSEED
5
FFFF
0
ENDSEC
0
SECTION
2
TABLES
0
TABLE
2
VPORT
5
8
100
AcDbSymbolTable
0
ENDTAB
0
TABLE
2
LTYPE
5
5
100
AcDbSymbolTable
0
LTYPE
5
14
100
AcDbSymbolTableRecord
100
AcDbLinetypeTableRecord
2
BYBLOCK
70
0
0
LTYPE
5
15
100
AcDbSymbolTableRecord
100
AcDbLinetypeTableRecord
2
BYLAYER
70
0
0
ENDTAB
0
TABLE
2
LAYER
5
2
100
AcDbSymbolTable
70
2
0
LAYER
5
50
100
AcDbSymbolTableRecord
100
AcDbLayerTableRecord
2
0
70
0
6
CONTINUOUS
0
ENDTAB
0
TABLE
2
STYLE
5
3
100
AcDbSymbolTable
70
1
0
STYLE
5
11
100
AcDbSymbolTableRecord
100
AcDbTextStyleTableRecord
2
STANDARD
70
0
0
ENDTAB
0
TABLE
2
VIEW
5
6
100
AcDbSymbolTable
70
0
0
ENDTAB
0
TABLE
2
UCS
5
7
100
AcDbSymbolTable
70
0
0
ENDTAB
0
TABLE
2
APPID
5
9
100
AcDbSymbolTable
70
2
0
APPID
5
12
100
AcDbSymbolTableRecord
100
AcDbRegAppTableRecord
2
ACAD
70
0
0
ENDTAB
0
TABLE
2
DIMSTYLE
5
A
100
AcDbSymbolTable
70
1
0
ENDTAB
0
TABLE
2
BLOCK_RECORD
5
1
100
AcDbSymbolTable
70
1
0
BLOCK_RECORD
5
1F
100
AcDbSymbolTableRecord
100
AcDbBlockTableRecord
2
*MODEL_SPACE
0
BLOCK_RECORD
5
1B
100
AcDbSymbolTableRecord
100
AcDbBlockTableRecord
2
*PAPER_SPACE
0
ENDTAB
0
ENDSEC
0
SECTION
2
BLOCKS
0
BLOCK
5
20
100
AcDbEntity
100
AcDbBlockBegin
2
*MODEL_SPACE
0
ENDBLK
5
21
100
AcDbEntity
100
AcDbBlockEnd
0
BLOCK
5
1C
100
AcDbEntity
100
AcDbBlockBegin
2
*PAPER_SPACE
0
ENDBLK
5
1D
100
AcDbEntity
100
AcDbBlockEnd
0
ENDSEC
0
SECTION
2
ENTITIES
0
LINE
5
100
100
AcDbEntity
8
0
100
AcDbLine
10
0
20
0
30
0
11
396
21
0
31
0
0
LINE
5
101
100
AcDbEntity
8
0
100
AcDbLine
10
0
20
23.700000000000003
30
0
11
396
21
23.700000000000003
31
0
0
LINE
5
102
100
AcDbEntity
8
0
100
AcDbLine
10
0
20
47.400000000000006
30
0
11
396
21
47.400000000000006
31
0
0
LINE
5
103
100
AcDbEntity
8
0
100
AcDbLine
10
0
20
71.100000000000009
30
0
11
396
21
71.100000000000009
31
0
0
LINE
5
104
100
AcDbEntity
8
0
100
AcDbLine
10
0
20
94.800000000000011
30
0
11
396
21
94.800000000000011
31
0
0
LINE
5
105
100
AcDbEntity
8
0
100
AcDbLine
10
0
20
118.50000000000001
30
0
11
396
21
118.50000000000001
31
0
0
LINE
5
106
100
AcDbEntity
8
0
100
AcDbLine
10
0
20
142.20000000000002
30
0
11
396
21
142.20000000000002
31
0
0
LINE
5
107
100
AcDbEntity
8
0
100
AcDbLine
10
0
20
165.90000000000001
30
0
11
396
21
165.90000000000001
31
0
0
LINE
5
108
100
AcDbEntity
8
0
100
AcDbLine
10
0
20
189.60000000000002
30
0
11
396
21
189.60000000000002
31
0
0
LINE
5
109
100
AcDbEntity
8
0
100
AcDbLine
10
0
20
213.30000000000001
30
0
11
396
21
213.30000000000001
31
0
0
LINE
5
110
100
AcDbEntity
8
0
100
AcDbLine
10
0
20
237.00000000000003
30
0
11
396
21
237.00000000000003
31
0
0
LINE
5
111
100
AcDbEntity
8
0
100
AcDbLine
10
0
20
260.69999999999999
30
0
11
396
21
260.69999999999999
31
0
0
LINE
5
112
100
AcDbEntity
8
0
100
AcDbLine
10
0
20
284.40000000000003
30
0
11
396
21
284.40000000000003
31
0
0
LINE
5
113
100
AcDbEntity
8
0
100
AcDbLine
10
0
20
308.10000000000002
30
0
11
396
21
308.10000000000002
31
0
0
LINE
5
114
100
AcDbEntity
8
0
100
AcDbLine
10
0
20
331.80000000000001
30
0
11
396
21
331.80000000000001
31
0
0
LINE
5
115
100
AcDbEntity
8
0
100
AcDbLine
10
0
20
355.50000000000006
30
0
11
396
21
355.50000000000006
31
0
0
LINE
5
116
100
AcDbEntity
8
0
100
AcDbLine
10
0
20
379.20000000000005
30
0
11
396
21
379.20000000000005
31
0
0
LINE
5
117
100
AcDbEntity
8
0
100
AcDbLine
10
0
20
402.89999999999998
30
0
11
396
21
402.89999999999998
31
0
0
LINE
5
118
100
AcDbEntity
8
0
100
AcDbLine
10
0
20
426.60000000000002
30
0
11
396
21
426.60000000000002
31
0
0
LINE
5
119
100
AcDbEntity
8
0
100
AcDbLine
10
0
20
0
30
0
11
0
21
426.60000000000002
31
0
0
LINE
5
120
100
AcDbEntity
8
0
100
AcDbLine
10
22
20
0
30
0
11
22
21
426.60000000000002
31
0
0
LINE
5
121
100
AcDbEntity
8
0
100
AcDbLine
10
44
20
0
30
0
11
44
21
426.60000000000002
31
0
0
LINE
5
122
100
AcDbEntity
8
0
100
AcDbLine
10
66
20
0
30
0
11
66
21
426.60000000000002
31
0
0
LINE
5
123
100
AcDbEntity
8
0
100
AcDbLine
10
88
20
0
30
0
11
88
21
426.60000000000002
31
0
0
LINE
5
124
100
AcDbEntity
8
0
100
AcDbLine
10
110
20
0
30
0
11
110
21
426.60000000000002
31
0
0
LINE
5
125
100
AcDbEntity
8
0
100
AcDbLine
10
132
20
0
30
0
11
132
21
426.60000000000002
31
0
0
LINE
5
126
100
AcDbEntity
8
0
100
AcDbLine
10
154.00000000000003
20
0
30
0
11
154.00000000000003
21
426.60000000000002
31
0
0
LINE
5
127
100
AcDbEntity
8
0
100
AcDbLine
10
176
20
0
30
0
11
176
21
426.60000000000002
31
0
0
LINE
5
128
100
AcDbEntity
8
0
100
AcDbLine
10
198
20
0
30
0
11
198
21
426.60000000000002
31
0
0
LINE
5
129
100
AcDbEntity
8
0
100
AcDbLine
10
220
20
0
30
0
11
220
21
426.60000000000002
31
0
0
LINE
5
130
100
AcDbEntity
8
0
100
AcDbLine
10
242.00000000000003
20
0
30
0
11
242.00000000000003
21
426.60000000000002
31
0
0
LINE
5
131
100
AcDbEntity
8
0
100
AcDbLine
10
264
20
0
30
0
11
264
21
426.60000000000002
31
0
0
LINE
5
132
100
AcDbEntity
8
0
100
AcDbLine
10
286
20
0
30
0
11
286
21
426.60000000000002
31
0
0
LINE
5
133
100
AcDbEntity
8
0
100
AcDbLine
10
308.00000000000006
20
0
30
0
11
308.00000000000006
21
426.60000000000002
31
0
0
LINE
5
134
100
AcDbEntity
8
0
100
AcDbLine
10
330
20
0
30
0
11
330
21
426.60000000000002
31
0
0
LINE
5
135
100
AcDbEntity
8
0
100
AcDbLine
10
352
20
0
30
0
11
352
21
426.60000000000002
31
0
0
LINE
5
136
100
AcDbEntity
8
0
100
AcDbLine
10
374.00000000000006
20
0
30
0
11
374.00000000000006
21
426.60000000000002
31
0
0
LINE
5
137
100
AcDbEntity
8
0
100
AcDbLine
10
396
20
0
30
0
11
396
21
426.60000000000002
31
0
0
CIRCLE
5
138
100
AcDbEntity
8
0
100
AcDbCircle
10
66
20
71.100000000000009
30
0
40
2.0000000000000018
210
0
220
0
230
1
0
ENDSEC
0
SECTION
2
OBJECTS
0
DICTIONARY
5
C
100
AcDbDictionary
3
ACAD_GROUP
350
D
3
ACAD_MLINESTYLE
350
17
0
DICTIONARY
5
D
100
AcDbDictionary
0
DICTIONARY
5
1A
330
C
100
AcDbDictionary
0
DICTIONARY
5
17
100
AcDbDictionary
0
ENDSEC
0
EOF
