M48
; DRILL file {KiCad (6.0.7-1)-1} date 2022 December 02, Friday 15:51:44
; FORMAT={-:-/ absolute / metric / decimal}
; #@! TF.CreationDate,2022-12-02T15:51:44+01:00
; #@! TF.GenerationSoftware,Kicad,Pcbnew,(6.0.7-1)-1
; #@! TF.FileFunction,Plated,1,2,PTH
FMAT,2
METRIC
; #@! TA.AperFunction,Plated,PTH,ViaDrill
T1C0.400
%
G90
G05
T1
X25.46Y-46.13
X25.526Y-43.074
X25.62Y-212.0
X27.86Y-61.39
X27.86Y-85.09
X27.89Y-203.54
X27.95Y-41.45
X27.95Y-112.55
X27.95Y-136.25
X27.95Y-159.95
X28.0Y-179.85
X28.87Y-71.13
X28.92Y-189.61
X28.95Y-94.89
X29.64Y-135.15
X30.83Y-88.85
X30.97Y-156.13
X31.097Y-65.147
X31.19Y-183.65
X31.34Y-207.327
X31.376Y-143.246
X31.5Y-108.72
X31.52Y-132.41
X31.56Y-37.7
X31.594Y-119.546
X31.614Y-165.996
X31.664Y-48.446
X32.256Y-214.346
X32.842Y-42.35
X32.842Y-65.997
X32.842Y-89.772
X32.842Y-113.546
X32.842Y-137.143
X32.842Y-160.892
X32.842Y-184.615
X32.842Y-208.187
X46.48Y-43.25
X46.48Y-90.65
X46.48Y-138.05
X46.48Y-185.45
X46.54Y-37.7
X46.576Y-67.046
X46.576Y-114.446
X46.576Y-161.846
X46.576Y-209.246
X46.64Y-85.11
X46.64Y-132.51
X46.64Y-179.91
X46.65Y-61.36
X46.65Y-108.76
X46.65Y-156.16
X46.65Y-203.56
X49.9Y-61.42
X49.92Y-85.05
X49.92Y-132.45
X49.92Y-179.85
X49.93Y-108.77
X49.93Y-156.17
X49.93Y-203.57
X50.03Y-37.7
X51.284Y-48.446
X51.476Y-72.146
X51.476Y-95.846
X51.476Y-119.546
X51.476Y-143.246
X51.476Y-166.946
X51.476Y-190.646
X51.476Y-214.346
X54.686Y-42.35
X54.686Y-66.048
X54.686Y-89.772
X54.686Y-113.47
X54.686Y-137.117
X54.686Y-160.866
X54.686Y-184.539
X54.686Y-208.263
X68.48Y-43.25
X68.48Y-90.65
X68.48Y-138.05
X68.48Y-185.45
X68.54Y-37.7
X68.576Y-67.046
X68.576Y-114.446
X68.576Y-161.846
X68.576Y-209.246
X68.64Y-85.11
X68.64Y-132.51
X68.64Y-179.91
X68.65Y-61.36
X68.65Y-108.76
X68.65Y-156.16
X68.65Y-203.56
X71.9Y-61.42
X71.92Y-85.05
X71.92Y-132.45
X71.92Y-179.85
X71.93Y-108.77
X71.93Y-156.17
X71.93Y-203.57
X72.03Y-37.7
X73.284Y-48.446
X73.476Y-72.146
X73.476Y-95.846
X73.476Y-119.546
X73.476Y-143.246
X73.476Y-166.946
X73.476Y-190.646
X73.476Y-214.346
X76.676Y-42.35
X76.676Y-66.08
X76.676Y-113.502
X76.676Y-137.124
X76.676Y-160.822
X76.676Y-184.546
X76.676Y-208.295
X76.692Y-89.712
X90.48Y-43.25
X90.48Y-90.65
X90.48Y-138.05
X90.48Y-185.45
X90.54Y-37.7
X90.576Y-67.046
X90.576Y-114.446
X90.576Y-161.846
X90.576Y-209.246
X90.64Y-85.11
X90.64Y-132.51
X90.64Y-179.91
X90.65Y-61.36
X90.65Y-108.76
X90.65Y-156.16
X90.65Y-203.56
X93.9Y-61.42
X93.92Y-85.05
X93.92Y-132.45
X93.92Y-179.85
X93.93Y-108.77
X93.93Y-156.17
X93.93Y-203.57
X94.03Y-37.7
X95.284Y-48.446
X95.476Y-72.146
X95.476Y-95.846
X95.476Y-119.546
X95.476Y-143.246
X95.476Y-166.946
X95.476Y-190.646
X95.476Y-214.346
X98.545Y-42.35
X98.545Y-66.004
X98.545Y-89.753
X98.545Y-113.477
X98.545Y-137.2
X98.545Y-160.873
X98.545Y-184.495
X98.545Y-208.219
X100.976Y-214.346
X101.45Y-138.12
X101.464Y-43.346
X101.464Y-166.966
X101.464Y-185.546
X101.484Y-72.146
X101.486Y-90.746
X101.496Y-119.546
X104.72Y-206.25
X104.84Y-40.35
X104.85Y-87.75
X104.85Y-135.15
X104.85Y-182.55
X104.87Y-111.45
X104.89Y-64.05
X104.89Y-158.85
X109.264Y-48.446
X109.374Y-66.954
X109.374Y-95.846
X109.374Y-143.314
X109.374Y-161.816
X109.374Y-190.626
X109.374Y-209.246
X109.38Y-114.446
X112.48Y-43.25
X112.48Y-90.65
X112.48Y-138.05
X112.48Y-185.45
X112.54Y-37.7
X112.576Y-67.046
X112.576Y-114.446
X112.576Y-161.846
X112.576Y-209.246
X112.64Y-85.11
X112.64Y-132.51
X112.64Y-179.91
X112.65Y-61.36
X112.65Y-108.76
X112.65Y-156.16
X112.65Y-203.56
X115.9Y-61.42
X115.92Y-85.05
X115.92Y-132.45
X115.92Y-179.85
X115.93Y-108.77
X115.93Y-156.17
X115.93Y-203.57
X116.03Y-37.7
X117.284Y-48.446
X117.476Y-72.146
X117.476Y-95.846
X117.476Y-119.546
X117.476Y-143.246
X117.476Y-166.946
X117.476Y-190.646
X117.476Y-214.346
X120.777Y-42.35
X120.777Y-66.074
X120.777Y-89.746
X120.777Y-113.546
X120.777Y-137.168
X120.777Y-160.841
X120.777Y-184.59
X120.777Y-208.263
X134.48Y-43.25
X134.48Y-90.65
X134.48Y-138.05
X134.48Y-185.45
X134.54Y-37.7
X134.576Y-67.046
X134.576Y-114.446
X134.576Y-161.846
X134.576Y-209.246
X134.64Y-85.11
X134.64Y-132.51
X134.64Y-179.91
X134.65Y-61.36
X134.65Y-108.76
X134.65Y-156.16
X134.65Y-203.56
X137.9Y-61.42
X137.92Y-85.05
X137.92Y-132.45
X137.92Y-179.85
X137.93Y-108.77
X137.93Y-156.17
X137.93Y-203.57
X138.03Y-37.7
X139.284Y-48.446
X139.476Y-72.146
X139.476Y-95.846
X139.476Y-119.546
X139.476Y-143.246
X139.476Y-166.946
X139.476Y-190.646
X139.476Y-214.346
X143.459Y-42.35
X143.459Y-66.074
X143.459Y-89.797
X143.459Y-113.521
X143.459Y-137.143
X143.459Y-160.892
X143.459Y-184.565
X143.459Y-208.263
X156.48Y-43.25
X156.48Y-90.65
X156.48Y-138.05
X156.48Y-185.45
X156.54Y-37.7
X156.576Y-67.046
X156.576Y-114.446
X156.576Y-161.846
X156.576Y-209.246
X156.64Y-85.11
X156.64Y-132.51
X156.64Y-179.91
X156.65Y-61.36
X156.65Y-108.76
X156.65Y-156.16
X156.65Y-203.56
X159.9Y-61.42
X159.92Y-85.05
X159.92Y-132.45
X159.92Y-179.85
X159.93Y-108.77
X159.93Y-156.17
X159.93Y-203.57
X160.03Y-37.7
X161.284Y-48.446
X161.476Y-72.146
X161.476Y-95.846
X161.476Y-119.546
X161.476Y-143.246
X161.476Y-166.946
X161.476Y-190.646
X161.476Y-214.346
X165.125Y-42.35
X165.125Y-66.15
X165.125Y-89.797
X165.125Y-113.495
X165.125Y-137.219
X165.125Y-160.866
X165.125Y-184.565
X165.125Y-208.212
X169.72Y-207.35
X170.05Y-41.45
X174.29Y-88.85
X174.59Y-65.15
X175.19Y-112.55
X175.39Y-136.25
X175.55Y-159.95
X175.77Y-183.65
X175.91Y-135.15
X177.605Y-48.395
X178.48Y-43.25
X178.48Y-90.65
X178.48Y-138.05
X178.48Y-185.45
X178.54Y-37.7
X178.576Y-67.046
X178.576Y-114.446
X178.576Y-161.846
X178.576Y-209.246
X178.64Y-85.11
X178.64Y-132.51
X178.64Y-179.91
X178.65Y-61.36
X178.65Y-108.76
X178.65Y-156.16
X178.65Y-203.56
X181.9Y-61.42
X181.92Y-85.05
X181.92Y-132.45
X181.92Y-179.85
X181.93Y-108.77
X181.93Y-156.17
X182.731Y-71.641
X183.476Y-95.846
X183.476Y-119.546
X183.476Y-143.246
X183.476Y-166.946
X183.476Y-190.646
X184.42Y-39.8
X184.44Y-46.06
X184.82Y-203.61
X184.82Y-211.85
X186.639Y-42.35
X186.639Y-66.074
X186.639Y-89.848
X186.639Y-113.47
X186.639Y-137.194
X186.639Y-160.866
X186.639Y-184.539
X186.639Y-208.237
T0
M30
