%TF.GenerationSoftware,KiCad,Pcbnew,(6.0.7-1)-1*%
%TF.CreationDate,2022-12-02T15:51:38+01:00*%
%TF.ProjectId,8x8,3878382e-6b69-4636-9164-5f7063625858,rev?*%
%TF.SameCoordinates,Original*%
%TF.FileFunction,Copper,L1,Top*%
%TF.FilePolarity,Positive*%
%FSLAX46Y46*%
G04 Gerber Fmt 4.6, Leading zero omitted, Abs format (unit mm)*
G04 Created by KiCad (PCBNEW (6.0.7-1)-1) date 2022-12-02 15:51:38*
%MOMM*%
%LPD*%
G01*
G04 APERTURE LIST*
G04 Aperture macros list*
%AMRoundRect*
0 Rectangle with rounded corners*
0 $1 Rounding radius*
0 $2 $3 $4 $5 $6 $7 $8 $9 X,Y pos of 4 corners*
0 Add a 4 corners polygon primitive as box body*
4,1,4,$2,$3,$4,$5,$6,$7,$8,$9,$2,$3,0*
0 Add four circle primitives for the rounded corners*
1,1,$1+$1,$2,$3*
1,1,$1+$1,$4,$5*
1,1,$1+$1,$6,$7*
1,1,$1+$1,$8,$9*
0 Add four rect primitives between the rounded corners*
20,1,$1+$1,$2,$3,$4,$5,0*
20,1,$1+$1,$4,$5,$6,$7,0*
20,1,$1+$1,$6,$7,$8,$9,0*
20,1,$1+$1,$8,$9,$2,$3,0*%
G04 Aperture macros list end*
%TA.AperFunction,SMDPad,CuDef*%
%ADD10R,1.500000X1.000000*%
%TD*%
%TA.AperFunction,SMDPad,CuDef*%
%ADD11R,0.800000X0.900000*%
%TD*%
%TA.AperFunction,SMDPad,CuDef*%
%ADD12RoundRect,0.250000X0.325000X0.650000X-0.325000X0.650000X-0.325000X-0.650000X0.325000X-0.650000X0*%
%TD*%
%TA.AperFunction,SMDPad,CuDef*%
%ADD13RoundRect,0.250000X-0.325000X-0.650000X0.325000X-0.650000X0.325000X0.650000X-0.325000X0.650000X0*%
%TD*%
%TA.AperFunction,ViaPad*%
%ADD14C,0.800000*%
%TD*%
%TA.AperFunction,Conductor*%
%ADD15C,0.500000*%
%TD*%
G04 APERTURE END LIST*
D10*
%TO.P,D1,1,VSS*%
%TO.N,GND*%
X25526201Y-44296401D03*
%TO.P,D1,2,DIN*%
%TO.N,LedIn*%
X25526201Y-47496401D03*
%TO.P,D1,3,VDD*%
%TO.N,P*%
X30426201Y-47496401D03*
%TO.P,D1,4,DOUT*%
%TO.N,Net-(D1-Pad4)*%
X30426201Y-44296401D03*
%TD*%
%TO.P,D2,1,VSS*%
%TO.N,GND*%
X47526201Y-44296401D03*
%TO.P,D2,2,DIN*%
%TO.N,Net-(D1-Pad4)*%
X47526201Y-47496401D03*
%TO.P,D2,3,VDD*%
%TO.N,P*%
X52426201Y-47496401D03*
%TO.P,D2,4,DOUT*%
%TO.N,Net-(D2-Pad4)*%
X52426201Y-44296401D03*
%TD*%
%TO.P,D3,1,VSS*%
%TO.N,GND*%
X69526201Y-44296401D03*
%TO.P,D3,2,DIN*%
%TO.N,Net-(D2-Pad4)*%
X69526201Y-47496401D03*
%TO.P,D3,3,VDD*%
%TO.N,P*%
X74426201Y-47496401D03*
%TO.P,D3,4,DOUT*%
%TO.N,Net-(D3-Pad4)*%
X74426201Y-44296401D03*
%TD*%
%TO.P,D4,1,VSS*%
%TO.N,GND*%
X91526201Y-44296401D03*
%TO.P,D4,2,DIN*%
%TO.N,Net-(D3-Pad4)*%
X91526201Y-47496401D03*
%TO.P,D4,3,VDD*%
%TO.N,P*%
X96426201Y-47496401D03*
%TO.P,D4,4,DOUT*%
%TO.N,Net-(D4-Pad4)*%
X96426201Y-44296401D03*
%TD*%
%TO.P,D5,1,VSS*%
%TO.N,GND*%
X113526201Y-44296401D03*
%TO.P,D5,2,DIN*%
%TO.N,Net-(D4-Pad4)*%
X113526201Y-47496401D03*
%TO.P,D5,3,VDD*%
%TO.N,P*%
X118426201Y-47496401D03*
%TO.P,D5,4,DOUT*%
%TO.N,Net-(D5-Pad4)*%
X118426201Y-44296401D03*
%TD*%
%TO.P,D6,1,VSS*%
%TO.N,GND*%
X135526201Y-44296401D03*
%TO.P,D6,2,DIN*%
%TO.N,Net-(D5-Pad4)*%
X135526201Y-47496401D03*
%TO.P,D6,3,VDD*%
%TO.N,P*%
X140426201Y-47496401D03*
%TO.P,D6,4,DOUT*%
%TO.N,Net-(D6-Pad4)*%
X140426201Y-44296401D03*
%TD*%
%TO.P,D7,1,VSS*%
%TO.N,GND*%
X157526201Y-44296401D03*
%TO.P,D7,2,DIN*%
%TO.N,Net-(D6-Pad4)*%
X157526201Y-47496401D03*
%TO.P,D7,3,VDD*%
%TO.N,P*%
X162426201Y-47496401D03*
%TO.P,D7,4,DOUT*%
%TO.N,Net-(D7-Pad4)*%
X162426201Y-44296401D03*
%TD*%
%TO.P,D8,1,VSS*%
%TO.N,GND*%
X179526201Y-44296401D03*
%TO.P,D8,2,DIN*%
%TO.N,Net-(D7-Pad4)*%
X179526201Y-47496401D03*
%TO.P,D8,3,VDD*%
%TO.N,P*%
X184426201Y-47496401D03*
%TO.P,D8,4,DOUT*%
%TO.N,Net-(D16-Pad2)*%
X184426201Y-44296401D03*
%TD*%
%TO.P,D9,1,VSS*%
%TO.N,GND*%
X30426201Y-71196401D03*
%TO.P,D9,2,DIN*%
%TO.N,Net-(D10-Pad4)*%
X30426201Y-67996401D03*
%TO.P,D9,3,VDD*%
%TO.N,P*%
X25526201Y-67996401D03*
%TO.P,D9,4,DOUT*%
%TO.N,Net-(D17-Pad2)*%
X25526201Y-71196401D03*
%TD*%
%TO.P,D10,1,VSS*%
%TO.N,GND*%
X52426201Y-71196401D03*
%TO.P,D10,2,DIN*%
%TO.N,Net-(D10-Pad2)*%
X52426201Y-67996401D03*
%TO.P,D10,3,VDD*%
%TO.N,P*%
X47526201Y-67996401D03*
%TO.P,D10,4,DOUT*%
%TO.N,Net-(D10-Pad4)*%
X47526201Y-71196401D03*
%TD*%
%TO.P,D11,1,VSS*%
%TO.N,GND*%
X74426201Y-71196401D03*
%TO.P,D11,2,DIN*%
%TO.N,Net-(D11-Pad2)*%
X74426201Y-67996401D03*
%TO.P,D11,3,VDD*%
%TO.N,P*%
X69526201Y-67996401D03*
%TO.P,D11,4,DOUT*%
%TO.N,Net-(D10-Pad2)*%
X69526201Y-71196401D03*
%TD*%
%TO.P,D12,1,VSS*%
%TO.N,GND*%
X96426201Y-71196401D03*
%TO.P,D12,2,DIN*%
%TO.N,Net-(D12-Pad2)*%
X96426201Y-67996401D03*
%TO.P,D12,3,VDD*%
%TO.N,P*%
X91526201Y-67996401D03*
%TO.P,D12,4,DOUT*%
%TO.N,Net-(D11-Pad2)*%
X91526201Y-71196401D03*
%TD*%
%TO.P,D13,1,VSS*%
%TO.N,GND*%
X118426201Y-71196401D03*
%TO.P,D13,2,DIN*%
%TO.N,Net-(D13-Pad2)*%
X118426201Y-67996401D03*
%TO.P,D13,3,VDD*%
%TO.N,P*%
X113526201Y-67996401D03*
%TO.P,D13,4,DOUT*%
%TO.N,Net-(D12-Pad2)*%
X113526201Y-71196401D03*
%TD*%
%TO.P,D14,1,VSS*%
%TO.N,GND*%
X140426201Y-71196401D03*
%TO.P,D14,2,DIN*%
%TO.N,Net-(D14-Pad2)*%
X140426201Y-67996401D03*
%TO.P,D14,3,VDD*%
%TO.N,P*%
X135526201Y-67996401D03*
%TO.P,D14,4,DOUT*%
%TO.N,Net-(D13-Pad2)*%
X135526201Y-71196401D03*
%TD*%
%TO.P,D15,1,VSS*%
%TO.N,GND*%
X162426201Y-71196401D03*
%TO.P,D15,2,DIN*%
%TO.N,Net-(D15-Pad2)*%
X162426201Y-67996401D03*
%TO.P,D15,3,VDD*%
%TO.N,P*%
X157526201Y-67996401D03*
%TO.P,D15,4,DOUT*%
%TO.N,Net-(D14-Pad2)*%
X157526201Y-71196401D03*
%TD*%
%TO.P,D16,1,VSS*%
%TO.N,GND*%
X184426201Y-71196401D03*
%TO.P,D16,2,DIN*%
%TO.N,Net-(D16-Pad2)*%
X184426201Y-67996401D03*
%TO.P,D16,3,VDD*%
%TO.N,P*%
X179526201Y-67996401D03*
%TO.P,D16,4,DOUT*%
%TO.N,Net-(D15-Pad2)*%
X179526201Y-71196401D03*
%TD*%
%TO.P,D17,1,VSS*%
%TO.N,GND*%
X25526201Y-91696401D03*
%TO.P,D17,2,DIN*%
%TO.N,Net-(D17-Pad2)*%
X25526201Y-94896401D03*
%TO.P,D17,3,VDD*%
%TO.N,P*%
X30426201Y-94896401D03*
%TO.P,D17,4,DOUT*%
%TO.N,Net-(D17-Pad4)*%
X30426201Y-91696401D03*
%TD*%
%TO.P,D18,1,VSS*%
%TO.N,GND*%
X47526201Y-91696401D03*
%TO.P,D18,2,DIN*%
%TO.N,Net-(D17-Pad4)*%
X47526201Y-94896401D03*
%TO.P,D18,3,VDD*%
%TO.N,P*%
X52426201Y-94896401D03*
%TO.P,D18,4,DOUT*%
%TO.N,Net-(D18-Pad4)*%
X52426201Y-91696401D03*
%TD*%
%TO.P,D19,1,VSS*%
%TO.N,GND*%
X69526201Y-91696401D03*
%TO.P,D19,2,DIN*%
%TO.N,Net-(D18-Pad4)*%
X69526201Y-94896401D03*
%TO.P,D19,3,VDD*%
%TO.N,P*%
X74426201Y-94896401D03*
%TO.P,D19,4,DOUT*%
%TO.N,Net-(D19-Pad4)*%
X74426201Y-91696401D03*
%TD*%
%TO.P,D20,1,VSS*%
%TO.N,GND*%
X91526201Y-91696401D03*
%TO.P,D20,2,DIN*%
%TO.N,Net-(D19-Pad4)*%
X91526201Y-94896401D03*
%TO.P,D20,3,VDD*%
%TO.N,P*%
X96426201Y-94896401D03*
%TO.P,D20,4,DOUT*%
%TO.N,Net-(D20-Pad4)*%
X96426201Y-91696401D03*
%TD*%
%TO.P,D21,1,VSS*%
%TO.N,GND*%
X113526201Y-91696401D03*
%TO.P,D21,2,DIN*%
%TO.N,Net-(D20-Pad4)*%
X113526201Y-94896401D03*
%TO.P,D21,3,VDD*%
%TO.N,P*%
X118426201Y-94896401D03*
%TO.P,D21,4,DOUT*%
%TO.N,Net-(D21-Pad4)*%
X118426201Y-91696401D03*
%TD*%
%TO.P,D22,1,VSS*%
%TO.N,GND*%
X135526201Y-91696401D03*
%TO.P,D22,2,DIN*%
%TO.N,Net-(D21-Pad4)*%
X135526201Y-94896401D03*
%TO.P,D22,3,VDD*%
%TO.N,P*%
X140426201Y-94896401D03*
%TO.P,D22,4,DOUT*%
%TO.N,Net-(D22-Pad4)*%
X140426201Y-91696401D03*
%TD*%
%TO.P,D23,1,VSS*%
%TO.N,GND*%
X157526201Y-91696401D03*
%TO.P,D23,2,DIN*%
%TO.N,Net-(D22-Pad4)*%
X157526201Y-94896401D03*
%TO.P,D23,3,VDD*%
%TO.N,P*%
X162426201Y-94896401D03*
%TO.P,D23,4,DOUT*%
%TO.N,Net-(D23-Pad4)*%
X162426201Y-91696401D03*
%TD*%
%TO.P,D24,1,VSS*%
%TO.N,GND*%
X179526201Y-91696401D03*
%TO.P,D24,2,DIN*%
%TO.N,Net-(D23-Pad4)*%
X179526201Y-94896401D03*
%TO.P,D24,3,VDD*%
%TO.N,P*%
X184426201Y-94896401D03*
%TO.P,D24,4,DOUT*%
%TO.N,Net-(D24-Pad4)*%
X184426201Y-91696401D03*
%TD*%
%TO.P,D25,1,VSS*%
%TO.N,GND*%
X30426201Y-118596401D03*
%TO.P,D25,2,DIN*%
%TO.N,Net-(D25-Pad2)*%
X30426201Y-115396401D03*
%TO.P,D25,3,VDD*%
%TO.N,P*%
X25526201Y-115396401D03*
%TO.P,D25,4,DOUT*%
%TO.N,Net-(D25-Pad4)*%
X25526201Y-118596401D03*
%TD*%
%TO.P,D26,1,VSS*%
%TO.N,GND*%
X52426201Y-118596401D03*
%TO.P,D26,2,DIN*%
%TO.N,Net-(D26-Pad2)*%
X52426201Y-115396401D03*
%TO.P,D26,3,VDD*%
%TO.N,P*%
X47526201Y-115396401D03*
%TO.P,D26,4,DOUT*%
%TO.N,Net-(D25-Pad2)*%
X47526201Y-118596401D03*
%TD*%
%TO.P,D27,1,VSS*%
%TO.N,GND*%
X74426201Y-118596401D03*
%TO.P,D27,2,DIN*%
%TO.N,Net-(D27-Pad2)*%
X74426201Y-115396401D03*
%TO.P,D27,3,VDD*%
%TO.N,P*%
X69526201Y-115396401D03*
%TO.P,D27,4,DOUT*%
%TO.N,Net-(D26-Pad2)*%
X69526201Y-118596401D03*
%TD*%
%TO.P,D28,1,VSS*%
%TO.N,GND*%
X96426201Y-118596401D03*
%TO.P,D28,2,DIN*%
%TO.N,Net-(D28-Pad2)*%
X96426201Y-115396401D03*
%TO.P,D28,3,VDD*%
%TO.N,P*%
X91526201Y-115396401D03*
%TO.P,D28,4,DOUT*%
%TO.N,Net-(D27-Pad2)*%
X91526201Y-118596401D03*
%TD*%
%TO.P,D29,1,VSS*%
%TO.N,GND*%
X118426201Y-118596401D03*
%TO.P,D29,2,DIN*%
%TO.N,Net-(D29-Pad2)*%
X118426201Y-115396401D03*
%TO.P,D29,3,VDD*%
%TO.N,P*%
X113526201Y-115396401D03*
%TO.P,D29,4,DOUT*%
%TO.N,Net-(D28-Pad2)*%
X113526201Y-118596401D03*
%TD*%
%TO.P,D30,1,VSS*%
%TO.N,GND*%
X140426201Y-118596401D03*
%TO.P,D30,2,DIN*%
%TO.N,Net-(D30-Pad2)*%
X140426201Y-115396401D03*
%TO.P,D30,3,VDD*%
%TO.N,P*%
X135526201Y-115396401D03*
%TO.P,D30,4,DOUT*%
%TO.N,Net-(D29-Pad2)*%
X135526201Y-118596401D03*
%TD*%
%TO.P,D31,1,VSS*%
%TO.N,GND*%
X162426201Y-118596401D03*
%TO.P,D31,2,DIN*%
%TO.N,Net-(D31-Pad2)*%
X162426201Y-115396401D03*
%TO.P,D31,3,VDD*%
%TO.N,P*%
X157526201Y-115396401D03*
%TO.P,D31,4,DOUT*%
%TO.N,Net-(D30-Pad2)*%
X157526201Y-118596401D03*
%TD*%
%TO.P,D32,1,VSS*%
%TO.N,GND*%
X184426201Y-118596401D03*
%TO.P,D32,2,DIN*%
%TO.N,Net-(D24-Pad4)*%
X184426201Y-115396401D03*
%TO.P,D32,3,VDD*%
%TO.N,P*%
X179526201Y-115396401D03*
%TO.P,D32,4,DOUT*%
%TO.N,Net-(D31-Pad2)*%
X179526201Y-118596401D03*
%TD*%
%TO.P,D33,1,VSS*%
%TO.N,GND*%
X25526201Y-139096401D03*
%TO.P,D33,2,DIN*%
%TO.N,Net-(D25-Pad4)*%
X25526201Y-142296401D03*
%TO.P,D33,3,VDD*%
%TO.N,P*%
X30426201Y-142296401D03*
%TO.P,D33,4,DOUT*%
%TO.N,Net-(D33-Pad4)*%
X30426201Y-139096401D03*
%TD*%
%TO.P,D34,1,VSS*%
%TO.N,GND*%
X47526201Y-139096401D03*
%TO.P,D34,2,DIN*%
%TO.N,Net-(D33-Pad4)*%
X47526201Y-142296401D03*
%TO.P,D34,3,VDD*%
%TO.N,P*%
X52426201Y-142296401D03*
%TO.P,D34,4,DOUT*%
%TO.N,Net-(D34-Pad4)*%
X52426201Y-139096401D03*
%TD*%
%TO.P,D35,1,VSS*%
%TO.N,GND*%
X69526201Y-139096401D03*
%TO.P,D35,2,DIN*%
%TO.N,Net-(D34-Pad4)*%
X69526201Y-142296401D03*
%TO.P,D35,3,VDD*%
%TO.N,P*%
X74426201Y-142296401D03*
%TO.P,D35,4,DOUT*%
%TO.N,Net-(D35-Pad4)*%
X74426201Y-139096401D03*
%TD*%
%TO.P,D36,1,VSS*%
%TO.N,GND*%
X91526201Y-139096401D03*
%TO.P,D36,2,DIN*%
%TO.N,Net-(D35-Pad4)*%
X91526201Y-142296401D03*
%TO.P,D36,3,VDD*%
%TO.N,P*%
X96426201Y-142296401D03*
%TO.P,D36,4,DOUT*%
%TO.N,Net-(D36-Pad4)*%
X96426201Y-139096401D03*
%TD*%
%TO.P,D37,1,VSS*%
%TO.N,GND*%
X113526201Y-139096401D03*
%TO.P,D37,2,DIN*%
%TO.N,Net-(D36-Pad4)*%
X113526201Y-142296401D03*
%TO.P,D37,3,VDD*%
%TO.N,P*%
X118426201Y-142296401D03*
%TO.P,D37,4,DOUT*%
%TO.N,Net-(D37-Pad4)*%
X118426201Y-139096401D03*
%TD*%
%TO.P,D38,1,VSS*%
%TO.N,GND*%
X135526201Y-139096401D03*
%TO.P,D38,2,DIN*%
%TO.N,Net-(D37-Pad4)*%
X135526201Y-142296401D03*
%TO.P,D38,3,VDD*%
%TO.N,P*%
X140426201Y-142296401D03*
%TO.P,D38,4,DOUT*%
%TO.N,Net-(D38-Pad4)*%
X140426201Y-139096401D03*
%TD*%
%TO.P,D39,1,VSS*%
%TO.N,GND*%
X157526201Y-139096401D03*
%TO.P,D39,2,DIN*%
%TO.N,Net-(D38-Pad4)*%
X157526201Y-142296401D03*
%TO.P,D39,3,VDD*%
%TO.N,P*%
X162426201Y-142296401D03*
%TO.P,D39,4,DOUT*%
%TO.N,Net-(D39-Pad4)*%
X162426201Y-139096401D03*
%TD*%
%TO.P,D40,1,VSS*%
%TO.N,GND*%
X179526201Y-139096401D03*
%TO.P,D40,2,DIN*%
%TO.N,Net-(D39-Pad4)*%
X179526201Y-142296401D03*
%TO.P,D40,3,VDD*%
%TO.N,P*%
X184426201Y-142296401D03*
%TO.P,D40,4,DOUT*%
%TO.N,Net-(D40-Pad4)*%
X184426201Y-139096401D03*
%TD*%
%TO.P,D41,1,VSS*%
%TO.N,GND*%
X30426201Y-165996401D03*
%TO.P,D41,2,DIN*%
%TO.N,Net-(D41-Pad2)*%
X30426201Y-162796401D03*
%TO.P,D41,3,VDD*%
%TO.N,P*%
X25526201Y-162796401D03*
%TO.P,D41,4,DOUT*%
%TO.N,Net-(D41-Pad4)*%
X25526201Y-165996401D03*
%TD*%
%TO.P,D42,1,VSS*%
%TO.N,GND*%
X52426201Y-165996401D03*
%TO.P,D42,2,DIN*%
%TO.N,Net-(D42-Pad2)*%
X52426201Y-162796401D03*
%TO.P,D42,3,VDD*%
%TO.N,P*%
X47526201Y-162796401D03*
%TO.P,D42,4,DOUT*%
%TO.N,Net-(D41-Pad2)*%
X47526201Y-165996401D03*
%TD*%
%TO.P,D43,1,VSS*%
%TO.N,GND*%
X74426201Y-165996401D03*
%TO.P,D43,2,DIN*%
%TO.N,Net-(D43-Pad2)*%
X74426201Y-162796401D03*
%TO.P,D43,3,VDD*%
%TO.N,P*%
X69526201Y-162796401D03*
%TO.P,D43,4,DOUT*%
%TO.N,Net-(D42-Pad2)*%
X69526201Y-165996401D03*
%TD*%
%TO.P,D44,1,VSS*%
%TO.N,GND*%
X96426201Y-165996401D03*
%TO.P,D44,2,DIN*%
%TO.N,Net-(D44-Pad2)*%
X96426201Y-162796401D03*
%TO.P,D44,3,VDD*%
%TO.N,P*%
X91526201Y-162796401D03*
%TO.P,D44,4,DOUT*%
%TO.N,Net-(D43-Pad2)*%
X91526201Y-165996401D03*
%TD*%
%TO.P,D45,1,VSS*%
%TO.N,GND*%
X118426201Y-165996401D03*
%TO.P,D45,2,DIN*%
%TO.N,Net-(D45-Pad2)*%
X118426201Y-162796401D03*
%TO.P,D45,3,VDD*%
%TO.N,P*%
X113526201Y-162796401D03*
%TO.P,D45,4,DOUT*%
%TO.N,Net-(D44-Pad2)*%
X113526201Y-165996401D03*
%TD*%
%TO.P,D46,1,VSS*%
%TO.N,GND*%
X140426201Y-165996401D03*
%TO.P,D46,2,DIN*%
%TO.N,Net-(D46-Pad2)*%
X140426201Y-162796401D03*
%TO.P,D46,3,VDD*%
%TO.N,P*%
X135526201Y-162796401D03*
%TO.P,D46,4,DOUT*%
%TO.N,Net-(D45-Pad2)*%
X135526201Y-165996401D03*
%TD*%
%TO.P,D47,1,VSS*%
%TO.N,GND*%
X162426201Y-165996401D03*
%TO.P,D47,2,DIN*%
%TO.N,Net-(D47-Pad2)*%
X162426201Y-162796401D03*
%TO.P,D47,3,VDD*%
%TO.N,P*%
X157526201Y-162796401D03*
%TO.P,D47,4,DOUT*%
%TO.N,Net-(D46-Pad2)*%
X157526201Y-165996401D03*
%TD*%
%TO.P,D48,1,VSS*%
%TO.N,GND*%
X184426201Y-165996401D03*
%TO.P,D48,2,DIN*%
%TO.N,Net-(D40-Pad4)*%
X184426201Y-162796401D03*
%TO.P,D48,3,VDD*%
%TO.N,P*%
X179526201Y-162796401D03*
%TO.P,D48,4,DOUT*%
%TO.N,Net-(D47-Pad2)*%
X179526201Y-165996401D03*
%TD*%
%TO.P,D49,1,VSS*%
%TO.N,GND*%
X25526201Y-186496401D03*
%TO.P,D49,2,DIN*%
%TO.N,Net-(D41-Pad4)*%
X25526201Y-189696401D03*
%TO.P,D49,3,VDD*%
%TO.N,P*%
X30426201Y-189696401D03*
%TO.P,D49,4,DOUT*%
%TO.N,Net-(D49-Pad4)*%
X30426201Y-186496401D03*
%TD*%
%TO.P,D50,1,VSS*%
%TO.N,GND*%
X47526201Y-186496401D03*
%TO.P,D50,2,DIN*%
%TO.N,Net-(D49-Pad4)*%
X47526201Y-189696401D03*
%TO.P,D50,3,VDD*%
%TO.N,P*%
X52426201Y-189696401D03*
%TO.P,D50,4,DOUT*%
%TO.N,Net-(D50-Pad4)*%
X52426201Y-186496401D03*
%TD*%
%TO.P,D51,1,VSS*%
%TO.N,GND*%
X69526201Y-186496401D03*
%TO.P,D51,2,DIN*%
%TO.N,Net-(D50-Pad4)*%
X69526201Y-189696401D03*
%TO.P,D51,3,VDD*%
%TO.N,P*%
X74426201Y-189696401D03*
%TO.P,D51,4,DOUT*%
%TO.N,Net-(D51-Pad4)*%
X74426201Y-186496401D03*
%TD*%
%TO.P,D52,1,VSS*%
%TO.N,GND*%
X91526201Y-186496401D03*
%TO.P,D52,2,DIN*%
%TO.N,Net-(D51-Pad4)*%
X91526201Y-189696401D03*
%TO.P,D52,3,VDD*%
%TO.N,P*%
X96426201Y-189696401D03*
%TO.P,D52,4,DOUT*%
%TO.N,Net-(D52-Pad4)*%
X96426201Y-186496401D03*
%TD*%
%TO.P,D53,1,VSS*%
%TO.N,GND*%
X113526201Y-186496401D03*
%TO.P,D53,2,DIN*%
%TO.N,Net-(D52-Pad4)*%
X113526201Y-189696401D03*
%TO.P,D53,3,VDD*%
%TO.N,P*%
X118426201Y-189696401D03*
%TO.P,D53,4,DOUT*%
%TO.N,Net-(D53-Pad4)*%
X118426201Y-186496401D03*
%TD*%
%TO.P,D54,1,VSS*%
%TO.N,GND*%
X135526201Y-186496401D03*
%TO.P,D54,2,DIN*%
%TO.N,Net-(D53-Pad4)*%
X135526201Y-189696401D03*
%TO.P,D54,3,VDD*%
%TO.N,P*%
X140426201Y-189696401D03*
%TO.P,D54,4,DOUT*%
%TO.N,Net-(D54-Pad4)*%
X140426201Y-186496401D03*
%TD*%
%TO.P,D55,1,VSS*%
%TO.N,GND*%
X157526201Y-186496401D03*
%TO.P,D55,2,DIN*%
%TO.N,Net-(D54-Pad4)*%
X157526201Y-189696401D03*
%TO.P,D55,3,VDD*%
%TO.N,P*%
X162426201Y-189696401D03*
%TO.P,D55,4,DOUT*%
%TO.N,Net-(D55-Pad4)*%
X162426201Y-186496401D03*
%TD*%
%TO.P,D56,1,VSS*%
%TO.N,GND*%
X179526201Y-186496401D03*
%TO.P,D56,2,DIN*%
%TO.N,Net-(D55-Pad4)*%
X179526201Y-189696401D03*
%TO.P,D56,3,VDD*%
%TO.N,P*%
X184426201Y-189696401D03*
%TO.P,D56,4,DOUT*%
%TO.N,Net-(D56-Pad4)*%
X184426201Y-186496401D03*
%TD*%
%TO.P,D57,1,VSS*%
%TO.N,GND*%
X30426201Y-213396401D03*
%TO.P,D57,2,DIN*%
%TO.N,Net-(D57-Pad2)*%
X30426201Y-210196401D03*
%TO.P,D57,3,VDD*%
%TO.N,P*%
X25526201Y-210196401D03*
%TO.P,D57,4,DOUT*%
%TO.N,LedOut*%
X25526201Y-213396401D03*
%TD*%
%TO.P,D58,1,VSS*%
%TO.N,GND*%
X52426201Y-213396401D03*
%TO.P,D58,2,DIN*%
%TO.N,Net-(D58-Pad2)*%
X52426201Y-210196401D03*
%TO.P,D58,3,VDD*%
%TO.N,P*%
X47526201Y-210196401D03*
%TO.P,D58,4,DOUT*%
%TO.N,Net-(D57-Pad2)*%
X47526201Y-213396401D03*
%TD*%
%TO.P,D59,1,VSS*%
%TO.N,GND*%
X74426201Y-213396401D03*
%TO.P,D59,2,DIN*%
%TO.N,Net-(D59-Pad2)*%
X74426201Y-210196401D03*
%TO.P,D59,3,VDD*%
%TO.N,P*%
X69526201Y-210196401D03*
%TO.P,D59,4,DOUT*%
%TO.N,Net-(D58-Pad2)*%
X69526201Y-213396401D03*
%TD*%
%TO.P,D60,1,VSS*%
%TO.N,GND*%
X96426201Y-213396401D03*
%TO.P,D60,2,DIN*%
%TO.N,Net-(D60-Pad2)*%
X96426201Y-210196401D03*
%TO.P,D60,3,VDD*%
%TO.N,P*%
X91526201Y-210196401D03*
%TO.P,D60,4,DOUT*%
%TO.N,Net-(D59-Pad2)*%
X91526201Y-213396401D03*
%TD*%
%TO.P,D61,1,VSS*%
%TO.N,GND*%
X118426201Y-213396401D03*
%TO.P,D61,2,DIN*%
%TO.N,Net-(D61-Pad2)*%
X118426201Y-210196401D03*
%TO.P,D61,3,VDD*%
%TO.N,P*%
X113526201Y-210196401D03*
%TO.P,D61,4,DOUT*%
%TO.N,Net-(D60-Pad2)*%
X113526201Y-213396401D03*
%TD*%
%TO.P,D62,1,VSS*%
%TO.N,GND*%
X140426201Y-213396401D03*
%TO.P,D62,2,DIN*%
%TO.N,Net-(D62-Pad2)*%
X140426201Y-210196401D03*
%TO.P,D62,3,VDD*%
%TO.N,P*%
X135526201Y-210196401D03*
%TO.P,D62,4,DOUT*%
%TO.N,Net-(D61-Pad2)*%
X135526201Y-213396401D03*
%TD*%
%TO.P,D63,1,VSS*%
%TO.N,GND*%
X162426201Y-213396401D03*
%TO.P,D63,2,DIN*%
%TO.N,Net-(D63-Pad2)*%
X162426201Y-210196401D03*
%TO.P,D63,3,VDD*%
%TO.N,P*%
X157526201Y-210196401D03*
%TO.P,D63,4,DOUT*%
%TO.N,Net-(D62-Pad2)*%
X157526201Y-213396401D03*
%TD*%
%TO.P,D64,1,VSS*%
%TO.N,GND*%
X184426201Y-213396401D03*
%TO.P,D64,2,DIN*%
%TO.N,Net-(D56-Pad4)*%
X184426201Y-210196401D03*
%TO.P,D64,3,VDD*%
%TO.N,P*%
X179526201Y-210196401D03*
%TO.P,D64,4,DOUT*%
%TO.N,Net-(D63-Pad2)*%
X179526201Y-213396401D03*
%TD*%
D11*
%TO.P,U1,1,VCC*%
%TO.N,PQ1*%
X27050000Y-42350000D03*
%TO.P,U1,2,OUT*%
%TO.N,HallOut1*%
X28950000Y-42350000D03*
%TO.P,U1,3,GND*%
%TO.N,AGND*%
X28000000Y-40350000D03*
%TD*%
%TO.P,U2,1,VCC*%
%TO.N,PQ1*%
X49050000Y-42350000D03*
%TO.P,U2,2,OUT*%
%TO.N,HallOut2*%
X50950000Y-42350000D03*
%TO.P,U2,3,GND*%
%TO.N,AGND*%
X50000000Y-40350000D03*
%TD*%
%TO.P,U3,1,VCC*%
%TO.N,PQ1*%
X71050000Y-42350000D03*
%TO.P,U3,2,OUT*%
%TO.N,HallOut3*%
X72950000Y-42350000D03*
%TO.P,U3,3,GND*%
%TO.N,AGND*%
X72000000Y-40350000D03*
%TD*%
%TO.P,U4,1,VCC*%
%TO.N,PQ1*%
X93050000Y-42350000D03*
%TO.P,U4,2,OUT*%
%TO.N,HallOut4*%
X94950000Y-42350000D03*
%TO.P,U4,3,GND*%
%TO.N,AGND*%
X94000000Y-40350000D03*
%TD*%
%TO.P,U5,1,VCC*%
%TO.N,PQ1*%
X115050000Y-42350000D03*
%TO.P,U5,2,OUT*%
%TO.N,HallOut5*%
X116950000Y-42350000D03*
%TO.P,U5,3,GND*%
%TO.N,AGND*%
X116000000Y-40350000D03*
%TD*%
%TO.P,U6,1,VCC*%
%TO.N,PQ1*%
X137050000Y-42350000D03*
%TO.P,U6,2,OUT*%
%TO.N,HallOut6*%
X138950000Y-42350000D03*
%TO.P,U6,3,GND*%
%TO.N,AGND*%
X138000000Y-40350000D03*
%TD*%
%TO.P,U7,1,VCC*%
%TO.N,PQ1*%
X159050000Y-42350000D03*
%TO.P,U7,2,OUT*%
%TO.N,HallOut7*%
X160950000Y-42350000D03*
%TO.P,U7,3,GND*%
%TO.N,AGND*%
X160000000Y-40350000D03*
%TD*%
%TO.P,U8,1,VCC*%
%TO.N,PQ1*%
X181050000Y-42350000D03*
%TO.P,U8,2,OUT*%
%TO.N,HallOut8*%
X182950000Y-42350000D03*
%TO.P,U8,3,GND*%
%TO.N,AGND*%
X182000000Y-40350000D03*
%TD*%
%TO.P,U9,1,VCC*%
%TO.N,PQ2*%
X27050000Y-66050000D03*
%TO.P,U9,2,OUT*%
%TO.N,HallOut1*%
X28950000Y-66050000D03*
%TO.P,U9,3,GND*%
%TO.N,AGND*%
X28000000Y-64050000D03*
%TD*%
%TO.P,U10,1,VCC*%
%TO.N,PQ2*%
X49050000Y-66050000D03*
%TO.P,U10,2,OUT*%
%TO.N,HallOut2*%
X50950000Y-66050000D03*
%TO.P,U10,3,GND*%
%TO.N,AGND*%
X50000000Y-64050000D03*
%TD*%
%TO.P,U11,1,VCC*%
%TO.N,PQ2*%
X71050000Y-66050000D03*
%TO.P,U11,2,OUT*%
%TO.N,HallOut3*%
X72950000Y-66050000D03*
%TO.P,U11,3,GND*%
%TO.N,AGND*%
X72000000Y-64050000D03*
%TD*%
%TO.P,U12,1,VCC*%
%TO.N,PQ2*%
X93050000Y-66050000D03*
%TO.P,U12,2,OUT*%
%TO.N,HallOut4*%
X94950000Y-66050000D03*
%TO.P,U12,3,GND*%
%TO.N,AGND*%
X94000000Y-64050000D03*
%TD*%
%TO.P,U13,1,VCC*%
%TO.N,PQ2*%
X115050000Y-66050000D03*
%TO.P,U13,2,OUT*%
%TO.N,HallOut5*%
X116950000Y-66050000D03*
%TO.P,U13,3,GND*%
%TO.N,AGND*%
X116000000Y-64050000D03*
%TD*%
%TO.P,U14,1,VCC*%
%TO.N,PQ2*%
X137050000Y-66050000D03*
%TO.P,U14,2,OUT*%
%TO.N,HallOut6*%
X138950000Y-66050000D03*
%TO.P,U14,3,GND*%
%TO.N,AGND*%
X138000000Y-64050000D03*
%TD*%
%TO.P,U15,1,VCC*%
%TO.N,PQ2*%
X159050000Y-66050000D03*
%TO.P,U15,2,OUT*%
%TO.N,HallOut7*%
X160950000Y-66050000D03*
%TO.P,U15,3,GND*%
%TO.N,AGND*%
X160000000Y-64050000D03*
%TD*%
%TO.P,U16,1,VCC*%
%TO.N,PQ2*%
X181050000Y-66050000D03*
%TO.P,U16,2,OUT*%
%TO.N,HallOut8*%
X182950000Y-66050000D03*
%TO.P,U16,3,GND*%
%TO.N,AGND*%
X182000000Y-64050000D03*
%TD*%
%TO.P,U17,1,VCC*%
%TO.N,PQ3*%
X27050000Y-89750000D03*
%TO.P,U17,2,OUT*%
%TO.N,HallOut1*%
X28950000Y-89750000D03*
%TO.P,U17,3,GND*%
%TO.N,AGND*%
X28000000Y-87750000D03*
%TD*%
%TO.P,U18,1,VCC*%
%TO.N,PQ3*%
X49050000Y-89750000D03*
%TO.P,U18,2,OUT*%
%TO.N,HallOut2*%
X50950000Y-89750000D03*
%TO.P,U18,3,GND*%
%TO.N,AGND*%
X50000000Y-87750000D03*
%TD*%
%TO.P,U19,1,VCC*%
%TO.N,PQ3*%
X71050000Y-89750000D03*
%TO.P,U19,2,OUT*%
%TO.N,HallOut3*%
X72950000Y-89750000D03*
%TO.P,U19,3,GND*%
%TO.N,AGND*%
X72000000Y-87750000D03*
%TD*%
%TO.P,U20,1,VCC*%
%TO.N,PQ3*%
X93050000Y-89750000D03*
%TO.P,U20,2,OUT*%
%TO.N,HallOut4*%
X94950000Y-89750000D03*
%TO.P,U20,3,GND*%
%TO.N,AGND*%
X94000000Y-87750000D03*
%TD*%
%TO.P,U21,1,VCC*%
%TO.N,PQ3*%
X115050000Y-89750000D03*
%TO.P,U21,2,OUT*%
%TO.N,HallOut5*%
X116950000Y-89750000D03*
%TO.P,U21,3,GND*%
%TO.N,AGND*%
X116000000Y-87750000D03*
%TD*%
%TO.P,U22,1,VCC*%
%TO.N,PQ3*%
X137050000Y-89750000D03*
%TO.P,U22,2,OUT*%
%TO.N,HallOut6*%
X138950000Y-89750000D03*
%TO.P,U22,3,GND*%
%TO.N,AGND*%
X138000000Y-87750000D03*
%TD*%
%TO.P,U23,1,VCC*%
%TO.N,PQ3*%
X159050000Y-89750000D03*
%TO.P,U23,2,OUT*%
%TO.N,HallOut7*%
X160950000Y-89750000D03*
%TO.P,U23,3,GND*%
%TO.N,AGND*%
X160000000Y-87750000D03*
%TD*%
%TO.P,U24,1,VCC*%
%TO.N,PQ3*%
X181050000Y-89750000D03*
%TO.P,U24,2,OUT*%
%TO.N,HallOut8*%
X182950000Y-89750000D03*
%TO.P,U24,3,GND*%
%TO.N,AGND*%
X182000000Y-87750000D03*
%TD*%
%TO.P,U25,1,VCC*%
%TO.N,PQ4*%
X27050000Y-113450000D03*
%TO.P,U25,2,OUT*%
%TO.N,HallOut1*%
X28950000Y-113450000D03*
%TO.P,U25,3,GND*%
%TO.N,AGND*%
X28000000Y-111450000D03*
%TD*%
%TO.P,U26,1,VCC*%
%TO.N,PQ4*%
X49050000Y-113450000D03*
%TO.P,U26,2,OUT*%
%TO.N,HallOut2*%
X50950000Y-113450000D03*
%TO.P,U26,3,GND*%
%TO.N,AGND*%
X50000000Y-111450000D03*
%TD*%
%TO.P,U27,1,VCC*%
%TO.N,PQ4*%
X71050000Y-113450000D03*
%TO.P,U27,2,OUT*%
%TO.N,HallOut3*%
X72950000Y-113450000D03*
%TO.P,U27,3,GND*%
%TO.N,AGND*%
X72000000Y-111450000D03*
%TD*%
%TO.P,U28,1,VCC*%
%TO.N,PQ4*%
X93050000Y-113450000D03*
%TO.P,U28,2,OUT*%
%TO.N,HallOut4*%
X94950000Y-113450000D03*
%TO.P,U28,3,GND*%
%TO.N,AGND*%
X94000000Y-111450000D03*
%TD*%
%TO.P,U29,1,VCC*%
%TO.N,PQ4*%
X115050000Y-113450000D03*
%TO.P,U29,2,OUT*%
%TO.N,HallOut5*%
X116950000Y-113450000D03*
%TO.P,U29,3,GND*%
%TO.N,AGND*%
X116000000Y-111450000D03*
%TD*%
%TO.P,U30,1,VCC*%
%TO.N,PQ4*%
X137050000Y-113450000D03*
%TO.P,U30,2,OUT*%
%TO.N,HallOut6*%
X138950000Y-113450000D03*
%TO.P,U30,3,GND*%
%TO.N,AGND*%
X138000000Y-111450000D03*
%TD*%
%TO.P,U31,1,VCC*%
%TO.N,PQ4*%
X159050000Y-113450000D03*
%TO.P,U31,2,OUT*%
%TO.N,HallOut7*%
X160950000Y-113450000D03*
%TO.P,U31,3,GND*%
%TO.N,AGND*%
X160000000Y-111450000D03*
%TD*%
%TO.P,U32,1,VCC*%
%TO.N,PQ4*%
X181050000Y-113450000D03*
%TO.P,U32,2,OUT*%
%TO.N,HallOut8*%
X182950000Y-113450000D03*
%TO.P,U32,3,GND*%
%TO.N,AGND*%
X182000000Y-111450000D03*
%TD*%
%TO.P,U33,1,VCC*%
%TO.N,PQ5*%
X27050000Y-137150000D03*
%TO.P,U33,2,OUT*%
%TO.N,HallOut1*%
X28950000Y-137150000D03*
%TO.P,U33,3,GND*%
%TO.N,AGND*%
X28000000Y-135150000D03*
%TD*%
%TO.P,U34,1,VCC*%
%TO.N,PQ5*%
X49050000Y-137150000D03*
%TO.P,U34,2,OUT*%
%TO.N,HallOut2*%
X50950000Y-137150000D03*
%TO.P,U34,3,GND*%
%TO.N,AGND*%
X50000000Y-135150000D03*
%TD*%
%TO.P,U35,1,VCC*%
%TO.N,PQ5*%
X71050000Y-137150000D03*
%TO.P,U35,2,OUT*%
%TO.N,HallOut3*%
X72950000Y-137150000D03*
%TO.P,U35,3,GND*%
%TO.N,AGND*%
X72000000Y-135150000D03*
%TD*%
%TO.P,U36,1,VCC*%
%TO.N,PQ5*%
X93050000Y-137150000D03*
%TO.P,U36,2,OUT*%
%TO.N,HallOut4*%
X94950000Y-137150000D03*
%TO.P,U36,3,GND*%
%TO.N,AGND*%
X94000000Y-135150000D03*
%TD*%
%TO.P,U37,1,VCC*%
%TO.N,PQ5*%
X115050000Y-137150000D03*
%TO.P,U37,2,OUT*%
%TO.N,HallOut5*%
X116950000Y-137150000D03*
%TO.P,U37,3,GND*%
%TO.N,AGND*%
X116000000Y-135150000D03*
%TD*%
%TO.P,U38,1,VCC*%
%TO.N,PQ5*%
X137050000Y-137150000D03*
%TO.P,U38,2,OUT*%
%TO.N,HallOut6*%
X138950000Y-137150000D03*
%TO.P,U38,3,GND*%
%TO.N,AGND*%
X138000000Y-135150000D03*
%TD*%
%TO.P,U39,1,VCC*%
%TO.N,PQ5*%
X159050000Y-137150000D03*
%TO.P,U39,2,OUT*%
%TO.N,HallOut7*%
X160950000Y-137150000D03*
%TO.P,U39,3,GND*%
%TO.N,AGND*%
X160000000Y-135150000D03*
%TD*%
%TO.P,U40,1,VCC*%
%TO.N,PQ5*%
X181050000Y-137150000D03*
%TO.P,U40,2,OUT*%
%TO.N,HallOut8*%
X182950000Y-137150000D03*
%TO.P,U40,3,GND*%
%TO.N,AGND*%
X182000000Y-135150000D03*
%TD*%
%TO.P,U41,1,VCC*%
%TO.N,PQ6*%
X27050000Y-160850000D03*
%TO.P,U41,2,OUT*%
%TO.N,HallOut1*%
X28950000Y-160850000D03*
%TO.P,U41,3,GND*%
%TO.N,AGND*%
X28000000Y-158850000D03*
%TD*%
%TO.P,U42,1,VCC*%
%TO.N,PQ6*%
X49050000Y-160850000D03*
%TO.P,U42,2,OUT*%
%TO.N,HallOut2*%
X50950000Y-160850000D03*
%TO.P,U42,3,GND*%
%TO.N,AGND*%
X50000000Y-158850000D03*
%TD*%
%TO.P,U43,1,VCC*%
%TO.N,PQ6*%
X71050000Y-160850000D03*
%TO.P,U43,2,OUT*%
%TO.N,HallOut3*%
X72950000Y-160850000D03*
%TO.P,U43,3,GND*%
%TO.N,AGND*%
X72000000Y-158850000D03*
%TD*%
%TO.P,U44,1,VCC*%
%TO.N,PQ6*%
X93050000Y-160850000D03*
%TO.P,U44,2,OUT*%
%TO.N,HallOut4*%
X94950000Y-160850000D03*
%TO.P,U44,3,GND*%
%TO.N,AGND*%
X94000000Y-158850000D03*
%TD*%
%TO.P,U45,1,VCC*%
%TO.N,PQ6*%
X115050000Y-160850000D03*
%TO.P,U45,2,OUT*%
%TO.N,HallOut5*%
X116950000Y-160850000D03*
%TO.P,U45,3,GND*%
%TO.N,AGND*%
X116000000Y-158850000D03*
%TD*%
%TO.P,U46,1,VCC*%
%TO.N,PQ6*%
X137050000Y-160850000D03*
%TO.P,U46,2,OUT*%
%TO.N,HallOut6*%
X138950000Y-160850000D03*
%TO.P,U46,3,GND*%
%TO.N,AGND*%
X138000000Y-158850000D03*
%TD*%
%TO.P,U47,1,VCC*%
%TO.N,PQ6*%
X159050000Y-160850000D03*
%TO.P,U47,2,OUT*%
%TO.N,HallOut7*%
X160950000Y-160850000D03*
%TO.P,U47,3,GND*%
%TO.N,AGND*%
X160000000Y-158850000D03*
%TD*%
%TO.P,U48,1,VCC*%
%TO.N,PQ6*%
X181050000Y-160850000D03*
%TO.P,U48,2,OUT*%
%TO.N,HallOut8*%
X182950000Y-160850000D03*
%TO.P,U48,3,GND*%
%TO.N,AGND*%
X182000000Y-158850000D03*
%TD*%
%TO.P,U49,1,VCC*%
%TO.N,PQ7*%
X27050000Y-184550000D03*
%TO.P,U49,2,OUT*%
%TO.N,HallOut1*%
X28950000Y-184550000D03*
%TO.P,U49,3,GND*%
%TO.N,AGND*%
X28000000Y-182550000D03*
%TD*%
%TO.P,U50,1,VCC*%
%TO.N,PQ7*%
X49050000Y-184550000D03*
%TO.P,U50,2,OUT*%
%TO.N,HallOut2*%
X50950000Y-184550000D03*
%TO.P,U50,3,GND*%
%TO.N,AGND*%
X50000000Y-182550000D03*
%TD*%
%TO.P,U51,1,VCC*%
%TO.N,PQ7*%
X71050000Y-184550000D03*
%TO.P,U51,2,OUT*%
%TO.N,HallOut3*%
X72950000Y-184550000D03*
%TO.P,U51,3,GND*%
%TO.N,AGND*%
X72000000Y-182550000D03*
%TD*%
%TO.P,U52,1,VCC*%
%TO.N,PQ7*%
X93050000Y-184550000D03*
%TO.P,U52,2,OUT*%
%TO.N,HallOut4*%
X94950000Y-184550000D03*
%TO.P,U52,3,GND*%
%TO.N,AGND*%
X94000000Y-182550000D03*
%TD*%
%TO.P,U53,1,VCC*%
%TO.N,PQ7*%
X115050000Y-184550000D03*
%TO.P,U53,2,OUT*%
%TO.N,HallOut5*%
X116950000Y-184550000D03*
%TO.P,U53,3,GND*%
%TO.N,AGND*%
X116000000Y-182550000D03*
%TD*%
%TO.P,U54,1,VCC*%
%TO.N,PQ7*%
X137050000Y-184550000D03*
%TO.P,U54,2,OUT*%
%TO.N,HallOut6*%
X138950000Y-184550000D03*
%TO.P,U54,3,GND*%
%TO.N,AGND*%
X138000000Y-182550000D03*
%TD*%
%TO.P,U55,1,VCC*%
%TO.N,PQ7*%
X159050000Y-184550000D03*
%TO.P,U55,2,OUT*%
%TO.N,HallOut7*%
X160950000Y-184550000D03*
%TO.P,U55,3,GND*%
%TO.N,AGND*%
X160000000Y-182550000D03*
%TD*%
%TO.P,U56,1,VCC*%
%TO.N,PQ7*%
X181050000Y-184550000D03*
%TO.P,U56,2,OUT*%
%TO.N,HallOut8*%
X182950000Y-184550000D03*
%TO.P,U56,3,GND*%
%TO.N,AGND*%
X182000000Y-182550000D03*
%TD*%
%TO.P,U57,1,VCC*%
%TO.N,PQ8*%
X27050000Y-208250000D03*
%TO.P,U57,2,OUT*%
%TO.N,HallOut1*%
X28950000Y-208250000D03*
%TO.P,U57,3,GND*%
%TO.N,AGND*%
X28000000Y-206250000D03*
%TD*%
%TO.P,U58,1,VCC*%
%TO.N,PQ8*%
X49050000Y-208250000D03*
%TO.P,U58,2,OUT*%
%TO.N,HallOut2*%
X50950000Y-208250000D03*
%TO.P,U58,3,GND*%
%TO.N,AGND*%
X50000000Y-206250000D03*
%TD*%
%TO.P,U59,1,VCC*%
%TO.N,PQ8*%
X71050000Y-208250000D03*
%TO.P,U59,2,OUT*%
%TO.N,HallOut3*%
X72950000Y-208250000D03*
%TO.P,U59,3,GND*%
%TO.N,AGND*%
X72000000Y-206250000D03*
%TD*%
%TO.P,U60,1,VCC*%
%TO.N,PQ8*%
X93050000Y-208250000D03*
%TO.P,U60,2,OUT*%
%TO.N,HallOut4*%
X94950000Y-208250000D03*
%TO.P,U60,3,GND*%
%TO.N,AGND*%
X94000000Y-206250000D03*
%TD*%
%TO.P,U61,1,VCC*%
%TO.N,PQ8*%
X115050000Y-208250000D03*
%TO.P,U61,2,OUT*%
%TO.N,HallOut5*%
X116950000Y-208250000D03*
%TO.P,U61,3,GND*%
%TO.N,AGND*%
X116000000Y-206250000D03*
%TD*%
%TO.P,U62,1,VCC*%
%TO.N,PQ8*%
X137050000Y-208250000D03*
%TO.P,U62,2,OUT*%
%TO.N,HallOut6*%
X138950000Y-208250000D03*
%TO.P,U62,3,GND*%
%TO.N,AGND*%
X138000000Y-206250000D03*
%TD*%
%TO.P,U63,1,VCC*%
%TO.N,PQ8*%
X159050000Y-208250000D03*
%TO.P,U63,2,OUT*%
%TO.N,HallOut7*%
X160950000Y-208250000D03*
%TO.P,U63,3,GND*%
%TO.N,AGND*%
X160000000Y-206250000D03*
%TD*%
%TO.P,U64,1,VCC*%
%TO.N,PQ8*%
X181050000Y-208250000D03*
%TO.P,U64,2,OUT*%
%TO.N,HallOut8*%
X182950000Y-208250000D03*
%TO.P,U64,3,GND*%
%TO.N,AGND*%
X182000000Y-206250000D03*
%TD*%
D12*
%TO.P,C1,1*%
%TO.N,P*%
X29351800Y-37650000D03*
%TO.P,C1,2*%
%TO.N,GND*%
X26401800Y-37650000D03*
%TD*%
%TO.P,C5,1*%
%TO.N,P*%
X117351800Y-37650000D03*
%TO.P,C5,2*%
%TO.N,GND*%
X114401800Y-37650000D03*
%TD*%
%TO.P,C39,1*%
%TO.N,P*%
X161351800Y-132450000D03*
%TO.P,C39,2*%
%TO.N,GND*%
X158401800Y-132450000D03*
%TD*%
%TO.P,C34,1*%
%TO.N,P*%
X51351800Y-132450000D03*
%TO.P,C34,2*%
%TO.N,GND*%
X48401800Y-132450000D03*
%TD*%
%TO.P,C6,1*%
%TO.N,P*%
X139351800Y-37650000D03*
%TO.P,C6,2*%
%TO.N,GND*%
X136401800Y-37650000D03*
%TD*%
D13*
%TO.P,C44,1*%
%TO.N,P*%
X92401800Y-156150000D03*
%TO.P,C44,2*%
%TO.N,GND*%
X95351800Y-156150000D03*
%TD*%
D12*
%TO.P,C22,1*%
%TO.N,P*%
X139351800Y-85050000D03*
%TO.P,C22,2*%
%TO.N,GND*%
X136401800Y-85050000D03*
%TD*%
%TO.P,C52,1*%
%TO.N,P*%
X95351800Y-179850000D03*
%TO.P,C52,2*%
%TO.N,GND*%
X92401800Y-179850000D03*
%TD*%
%TO.P,C19,1*%
%TO.N,P*%
X73351800Y-85050000D03*
%TO.P,C19,2*%
%TO.N,GND*%
X70401800Y-85050000D03*
%TD*%
%TO.P,C55,1*%
%TO.N,P*%
X161351800Y-179850000D03*
%TO.P,C55,2*%
%TO.N,GND*%
X158401800Y-179850000D03*
%TD*%
%TO.P,C20,1*%
%TO.N,P*%
X95351800Y-85050000D03*
%TO.P,C20,2*%
%TO.N,GND*%
X92401800Y-85050000D03*
%TD*%
%TO.P,C18,1*%
%TO.N,P*%
X51351800Y-85050000D03*
%TO.P,C18,2*%
%TO.N,GND*%
X48401800Y-85050000D03*
%TD*%
%TO.P,C24,1*%
%TO.N,P*%
X183351800Y-85050000D03*
%TO.P,C24,2*%
%TO.N,GND*%
X180401800Y-85050000D03*
%TD*%
%TO.P,C49,1*%
%TO.N,P*%
X29351800Y-179850000D03*
%TO.P,C49,2*%
%TO.N,GND*%
X26401800Y-179850000D03*
%TD*%
%TO.P,C17,1*%
%TO.N,P*%
X29351800Y-85050000D03*
%TO.P,C17,2*%
%TO.N,GND*%
X26401800Y-85050000D03*
%TD*%
%TO.P,C7,1*%
%TO.N,P*%
X161351800Y-37650000D03*
%TO.P,C7,2*%
%TO.N,GND*%
X158401800Y-37650000D03*
%TD*%
D13*
%TO.P,C9,1*%
%TO.N,P*%
X26401800Y-61350000D03*
%TO.P,C9,2*%
%TO.N,GND*%
X29351800Y-61350000D03*
%TD*%
%TO.P,C58,1*%
%TO.N,P*%
X48401800Y-203550000D03*
%TO.P,C58,2*%
%TO.N,GND*%
X51351800Y-203550000D03*
%TD*%
%TO.P,C14,1*%
%TO.N,P*%
X136401800Y-61350000D03*
%TO.P,C14,2*%
%TO.N,GND*%
X139351800Y-61350000D03*
%TD*%
D12*
%TO.P,C33,1*%
%TO.N,P*%
X29351800Y-132450000D03*
%TO.P,C33,2*%
%TO.N,GND*%
X26401800Y-132450000D03*
%TD*%
D13*
%TO.P,C29,1*%
%TO.N,P*%
X114401800Y-108750000D03*
%TO.P,C29,2*%
%TO.N,GND*%
X117351800Y-108750000D03*
%TD*%
D12*
%TO.P,C3,1*%
%TO.N,P*%
X73351800Y-37650000D03*
%TO.P,C3,2*%
%TO.N,GND*%
X70401800Y-37650000D03*
%TD*%
%TO.P,C53,1*%
%TO.N,P*%
X117351800Y-179850000D03*
%TO.P,C53,2*%
%TO.N,GND*%
X114401800Y-179850000D03*
%TD*%
D13*
%TO.P,C60,1*%
%TO.N,P*%
X92401800Y-203550000D03*
%TO.P,C60,2*%
%TO.N,GND*%
X95351800Y-203550000D03*
%TD*%
%TO.P,C45,1*%
%TO.N,P*%
X114401800Y-156150000D03*
%TO.P,C45,2*%
%TO.N,GND*%
X117351800Y-156150000D03*
%TD*%
D12*
%TO.P,C51,1*%
%TO.N,P*%
X73351800Y-179850000D03*
%TO.P,C51,2*%
%TO.N,GND*%
X70401800Y-179850000D03*
%TD*%
%TO.P,C37,1*%
%TO.N,P*%
X117351800Y-132450000D03*
%TO.P,C37,2*%
%TO.N,GND*%
X114401800Y-132450000D03*
%TD*%
%TO.P,C23,1*%
%TO.N,P*%
X161351800Y-85050000D03*
%TO.P,C23,2*%
%TO.N,GND*%
X158401800Y-85050000D03*
%TD*%
D13*
%TO.P,C15,1*%
%TO.N,P*%
X158401800Y-61350000D03*
%TO.P,C15,2*%
%TO.N,GND*%
X161351800Y-61350000D03*
%TD*%
D12*
%TO.P,C54,1*%
%TO.N,P*%
X139351800Y-179850000D03*
%TO.P,C54,2*%
%TO.N,GND*%
X136401800Y-179850000D03*
%TD*%
D13*
%TO.P,C47,1*%
%TO.N,P*%
X158401800Y-156150000D03*
%TO.P,C47,2*%
%TO.N,GND*%
X161351800Y-156150000D03*
%TD*%
%TO.P,C43,1*%
%TO.N,P*%
X70401800Y-156150000D03*
%TO.P,C43,2*%
%TO.N,GND*%
X73351800Y-156150000D03*
%TD*%
%TO.P,C57,1*%
%TO.N,P*%
X26401800Y-203550000D03*
%TO.P,C57,2*%
%TO.N,GND*%
X29351800Y-203550000D03*
%TD*%
D12*
%TO.P,C4,1*%
%TO.N,P*%
X95351800Y-37650000D03*
%TO.P,C4,2*%
%TO.N,GND*%
X92401800Y-37650000D03*
%TD*%
D13*
%TO.P,C46,1*%
%TO.N,P*%
X136401800Y-156150000D03*
%TO.P,C46,2*%
%TO.N,GND*%
X139351800Y-156150000D03*
%TD*%
%TO.P,C32,1*%
%TO.N,P*%
X180401800Y-108750000D03*
%TO.P,C32,2*%
%TO.N,GND*%
X183351800Y-108750000D03*
%TD*%
%TO.P,C26,1*%
%TO.N,P*%
X48401800Y-108750000D03*
%TO.P,C26,2*%
%TO.N,GND*%
X51351800Y-108750000D03*
%TD*%
%TO.P,C42,1*%
%TO.N,P*%
X48401800Y-156150000D03*
%TO.P,C42,2*%
%TO.N,GND*%
X51351800Y-156150000D03*
%TD*%
D12*
%TO.P,C40,1*%
%TO.N,P*%
X183351800Y-132450000D03*
%TO.P,C40,2*%
%TO.N,GND*%
X180401800Y-132450000D03*
%TD*%
D13*
%TO.P,C25,1*%
%TO.N,P*%
X26401800Y-108750000D03*
%TO.P,C25,2*%
%TO.N,GND*%
X29351800Y-108750000D03*
%TD*%
%TO.P,C10,1*%
%TO.N,P*%
X48401800Y-61350000D03*
%TO.P,C10,2*%
%TO.N,GND*%
X51351800Y-61350000D03*
%TD*%
%TO.P,C27,1*%
%TO.N,P*%
X70401800Y-108750000D03*
%TO.P,C27,2*%
%TO.N,GND*%
X73351800Y-108750000D03*
%TD*%
%TO.P,C30,1*%
%TO.N,P*%
X136401800Y-108750000D03*
%TO.P,C30,2*%
%TO.N,GND*%
X139351800Y-108750000D03*
%TD*%
%TO.P,C64,1*%
%TO.N,P*%
X180401800Y-203550000D03*
%TO.P,C64,2*%
%TO.N,GND*%
X183351800Y-203550000D03*
%TD*%
%TO.P,C28,1*%
%TO.N,P*%
X92401800Y-108750000D03*
%TO.P,C28,2*%
%TO.N,GND*%
X95351800Y-108750000D03*
%TD*%
D12*
%TO.P,C8,1*%
%TO.N,P*%
X183351800Y-37650000D03*
%TO.P,C8,2*%
%TO.N,GND*%
X180401800Y-37650000D03*
%TD*%
D13*
%TO.P,C16,1*%
%TO.N,P*%
X180401800Y-61350000D03*
%TO.P,C16,2*%
%TO.N,GND*%
X183351800Y-61350000D03*
%TD*%
%TO.P,C13,1*%
%TO.N,P*%
X114401800Y-61350000D03*
%TO.P,C13,2*%
%TO.N,GND*%
X117351800Y-61350000D03*
%TD*%
D12*
%TO.P,C2,1*%
%TO.N,P*%
X51351800Y-37650000D03*
%TO.P,C2,2*%
%TO.N,GND*%
X48401800Y-37650000D03*
%TD*%
D13*
%TO.P,C62,1*%
%TO.N,P*%
X136401800Y-203550000D03*
%TO.P,C62,2*%
%TO.N,GND*%
X139351800Y-203550000D03*
%TD*%
%TO.P,C48,1*%
%TO.N,P*%
X180401800Y-156150000D03*
%TO.P,C48,2*%
%TO.N,GND*%
X183351800Y-156150000D03*
%TD*%
%TO.P,C59,1*%
%TO.N,P*%
X70401800Y-203550000D03*
%TO.P,C59,2*%
%TO.N,GND*%
X73351800Y-203550000D03*
%TD*%
D12*
%TO.P,C56,1*%
%TO.N,P*%
X183351800Y-179850000D03*
%TO.P,C56,2*%
%TO.N,GND*%
X180401800Y-179850000D03*
%TD*%
D13*
%TO.P,C11,1*%
%TO.N,P*%
X70401800Y-61350000D03*
%TO.P,C11,2*%
%TO.N,GND*%
X73351800Y-61350000D03*
%TD*%
%TO.P,C31,1*%
%TO.N,P*%
X158401800Y-108750000D03*
%TO.P,C31,2*%
%TO.N,GND*%
X161351800Y-108750000D03*
%TD*%
D12*
%TO.P,C38,1*%
%TO.N,P*%
X139351800Y-132450000D03*
%TO.P,C38,2*%
%TO.N,GND*%
X136401800Y-132450000D03*
%TD*%
%TO.P,C36,1*%
%TO.N,P*%
X95351800Y-132450000D03*
%TO.P,C36,2*%
%TO.N,GND*%
X92401800Y-132450000D03*
%TD*%
D13*
%TO.P,C41,1*%
%TO.N,P*%
X26401800Y-156150000D03*
%TO.P,C41,2*%
%TO.N,GND*%
X29351800Y-156150000D03*
%TD*%
D12*
%TO.P,C35,1*%
%TO.N,P*%
X73351800Y-132450000D03*
%TO.P,C35,2*%
%TO.N,GND*%
X70401800Y-132450000D03*
%TD*%
%TO.P,C50,1*%
%TO.N,P*%
X51351800Y-179850000D03*
%TO.P,C50,2*%
%TO.N,GND*%
X48401800Y-179850000D03*
%TD*%
D13*
%TO.P,C12,1*%
%TO.N,P*%
X92401800Y-61350000D03*
%TO.P,C12,2*%
%TO.N,GND*%
X95351800Y-61350000D03*
%TD*%
%TO.P,C63,1*%
%TO.N,P*%
X158401800Y-203550000D03*
%TO.P,C63,2*%
%TO.N,GND*%
X161351800Y-203550000D03*
%TD*%
D12*
%TO.P,C21,1*%
%TO.N,P*%
X117351800Y-85050000D03*
%TO.P,C21,2*%
%TO.N,GND*%
X114401800Y-85050000D03*
%TD*%
D13*
%TO.P,C61,1*%
%TO.N,P*%
X114401800Y-203550000D03*
%TO.P,C61,2*%
%TO.N,GND*%
X117351800Y-203550000D03*
%TD*%
D14*
%TO.N,P*%
X115920000Y-132450000D03*
X156576200Y-114446400D03*
X93920000Y-85050000D03*
X68650000Y-108760000D03*
X134650000Y-203560000D03*
X178576200Y-114446400D03*
X93920000Y-179850000D03*
X90576200Y-67046400D03*
X28950000Y-94890000D03*
X139476200Y-95846402D03*
X112576200Y-209246400D03*
X139283598Y-48446402D03*
X181920000Y-132450000D03*
X49920000Y-85050000D03*
X112576200Y-161846400D03*
X117476200Y-143246402D03*
X109380000Y-114446400D03*
X156576200Y-161846400D03*
X90650000Y-61360000D03*
X137920000Y-85050000D03*
X31376201Y-143246401D03*
X95476200Y-190646402D03*
X134576200Y-114446400D03*
X115920000Y-179850000D03*
X137920000Y-179850000D03*
X72030000Y-37700000D03*
X159920000Y-85050000D03*
X137920000Y-132450000D03*
X183476200Y-95846402D03*
X178650000Y-61360000D03*
X94030000Y-37700000D03*
X93920000Y-132450000D03*
X112650000Y-61360000D03*
X156650000Y-203560000D03*
X109373600Y-161816400D03*
X31560000Y-37700000D03*
X68576200Y-161846400D03*
X73283598Y-48446402D03*
X51283598Y-48446402D03*
X117476200Y-95846402D03*
X68650000Y-61360000D03*
X112576200Y-67046400D03*
X139476200Y-143246402D03*
X112650000Y-203560000D03*
X73476200Y-143246402D03*
X46576200Y-114446400D03*
X68576200Y-209246400D03*
X31663598Y-48446402D03*
X46576200Y-161846400D03*
X90650000Y-156160000D03*
X178650000Y-203560000D03*
X46650000Y-203560000D03*
X95476200Y-143246402D03*
X90576200Y-209246400D03*
X51476200Y-190646402D03*
X161476200Y-95846402D03*
X134650000Y-108760000D03*
X116030000Y-37700000D03*
X159920000Y-179850000D03*
X161283598Y-48446402D03*
X49920000Y-179850000D03*
X156650000Y-156160000D03*
X134576200Y-209246400D03*
X49920000Y-132450000D03*
X181920000Y-85050000D03*
X31520000Y-132410000D03*
X68576200Y-114446400D03*
X177605000Y-48395000D03*
X178576200Y-209246400D03*
X50030000Y-37700000D03*
X139476200Y-190646402D03*
X112650000Y-108760000D03*
X73476200Y-190646402D03*
X160030000Y-37700000D03*
X27860000Y-85090000D03*
X109373600Y-95846400D03*
X156650000Y-108760000D03*
X73476200Y-95846402D03*
X183476200Y-190646402D03*
X156576200Y-67046400D03*
X46650000Y-108760000D03*
X159920000Y-132450000D03*
X109373600Y-209246400D03*
X46576200Y-67046400D03*
X71920000Y-85050000D03*
X90576200Y-161846400D03*
X115920000Y-85050000D03*
X109373600Y-66953600D03*
X184420000Y-39800000D03*
X95283598Y-48446402D03*
X28000000Y-179850000D03*
X46650000Y-156160000D03*
X117283598Y-48446402D03*
X156650000Y-61360000D03*
X183476200Y-143246402D03*
X90650000Y-108760000D03*
X46576200Y-209246400D03*
X178650000Y-156160000D03*
X28920000Y-189610000D03*
X156576200Y-209246400D03*
X134650000Y-61360000D03*
X109263598Y-48446402D03*
X181920000Y-179850000D03*
X161476200Y-143246402D03*
X46650000Y-61360000D03*
X90576200Y-114446400D03*
X109373600Y-143313600D03*
X71920000Y-132450000D03*
X68650000Y-156160000D03*
X51476200Y-95846402D03*
X90650000Y-203560000D03*
X134576200Y-161846400D03*
X51476200Y-143246402D03*
X68576200Y-67046400D03*
X112576200Y-114446400D03*
X138030000Y-37700000D03*
X68650000Y-203560000D03*
X184440000Y-46060000D03*
X161476200Y-190646402D03*
X178576200Y-161846400D03*
X112650000Y-156160000D03*
X178650000Y-108760000D03*
X95476200Y-95846402D03*
X178576200Y-67046400D03*
X134576200Y-67046400D03*
X134650000Y-156160000D03*
X117476200Y-190646402D03*
X109373600Y-190626400D03*
X71920000Y-179850000D03*
%TO.N,LedIn*%
X25460000Y-46130000D03*
%TO.N,GND*%
X71930000Y-203570000D03*
X90640000Y-179910000D03*
X90479801Y-138050001D03*
X71930000Y-156170000D03*
X90640000Y-132510000D03*
X28870000Y-71130000D03*
X134640000Y-85110000D03*
X134479801Y-138050001D03*
X90640000Y-85110000D03*
X51476200Y-214346402D03*
X115930000Y-108770000D03*
X68479801Y-138050001D03*
X183476200Y-119546402D03*
X95476200Y-119546402D03*
X156540000Y-37700000D03*
X100976402Y-214346402D03*
X137900000Y-61420000D03*
X46540000Y-37700000D03*
X73476200Y-72146402D03*
X112640000Y-179910000D03*
X112640000Y-85110000D03*
X161476200Y-214346402D03*
X156640000Y-132510000D03*
X178640000Y-132510000D03*
X25526201Y-43073799D03*
X139476200Y-214346402D03*
X101450000Y-138120000D03*
X117476200Y-166946402D03*
X73476200Y-214346402D03*
X95476200Y-72146402D03*
X134479801Y-43250001D03*
X112540000Y-37700000D03*
X181900000Y-61420000D03*
X134640000Y-132510000D03*
X101463600Y-43346400D03*
X95476200Y-214346402D03*
X68640000Y-85110000D03*
X101486400Y-90746400D03*
X178479801Y-138050001D03*
X73476200Y-166946402D03*
X46479801Y-90650001D03*
X49930000Y-156170000D03*
X139476200Y-119546402D03*
X137930000Y-203570000D03*
X49930000Y-108770000D03*
X182731301Y-71641301D03*
X90540000Y-37700000D03*
X68479801Y-43250001D03*
X178479801Y-43250001D03*
X183476200Y-166946402D03*
X95476200Y-166946402D03*
X101483598Y-72146402D03*
X134479801Y-185450001D03*
X49900000Y-61420000D03*
X159930000Y-108770000D03*
X112640000Y-132510000D03*
X139476200Y-72146402D03*
X51476200Y-166946402D03*
X112479801Y-90650001D03*
X31500000Y-108720000D03*
X137930000Y-156170000D03*
X181930000Y-156170000D03*
X49930000Y-203570000D03*
X137930000Y-108770000D03*
X139476200Y-166946402D03*
X159930000Y-156170000D03*
X156479801Y-138050001D03*
X156479801Y-185450001D03*
X68640000Y-179910000D03*
X184820000Y-211850000D03*
X112479801Y-138050001D03*
X93930000Y-156170000D03*
X159900000Y-61420000D03*
X101463600Y-185546400D03*
X90479801Y-43250001D03*
X156640000Y-85110000D03*
X178479801Y-90650001D03*
X30970000Y-156130000D03*
X178640000Y-85110000D03*
X93930000Y-108770000D03*
X159930000Y-203570000D03*
X178540000Y-37700000D03*
X93930000Y-203570000D03*
X51476200Y-72146402D03*
X115930000Y-156170000D03*
X90479801Y-90650001D03*
X71900000Y-61420000D03*
X73476200Y-119546402D03*
X46479801Y-43250001D03*
X101496402Y-119546402D03*
X117476200Y-214346402D03*
X46640000Y-85110000D03*
X46640000Y-179910000D03*
X68479801Y-185450001D03*
X71930000Y-108770000D03*
X112479801Y-43250001D03*
X178479801Y-185450001D03*
X27860000Y-61390000D03*
X46479801Y-138050001D03*
X117476200Y-72146402D03*
X156640000Y-179910000D03*
X156479801Y-43250001D03*
X90479801Y-185450001D03*
X178640000Y-179910000D03*
X31613599Y-165996401D03*
X115930000Y-203570000D03*
X68479801Y-90650001D03*
X27890000Y-203540000D03*
X161476200Y-119546402D03*
X112479801Y-185450001D03*
X68540000Y-37700000D03*
X46640000Y-132510000D03*
X31593598Y-119546402D03*
X115900000Y-61420000D03*
X161476200Y-72146402D03*
X93900000Y-61420000D03*
X184820000Y-203610000D03*
X156479801Y-90650001D03*
X68640000Y-132510000D03*
X101463600Y-166966400D03*
X32256402Y-214346402D03*
X181930000Y-108770000D03*
X134640000Y-179910000D03*
X117476200Y-119546402D03*
X161476200Y-166946402D03*
X46479801Y-185450001D03*
X134479801Y-90650001D03*
X134540000Y-37700000D03*
X51476200Y-119546402D03*
%TO.N,LedOut*%
X25620000Y-212000000D03*
%TO.N,PQ1*%
X27950001Y-41449999D03*
X170050001Y-41449999D03*
%TO.N,PQ2*%
X174589999Y-65149999D03*
X31097399Y-65147399D03*
%TO.N,PQ3*%
X30829999Y-88849999D03*
X174289999Y-88849999D03*
%TO.N,PQ4*%
X27950001Y-112549999D03*
X175190001Y-112549999D03*
%TO.N,PQ5*%
X27950001Y-136249999D03*
X175390001Y-136249999D03*
%TO.N,PQ6*%
X175550001Y-159949999D03*
X27950001Y-159949999D03*
%TO.N,PQ7*%
X31190001Y-183649999D03*
X175770001Y-183649999D03*
%TO.N,PQ8*%
X169719999Y-207349999D03*
X31339973Y-207326874D03*
%TO.N,HallOut1*%
X32842000Y-65997400D03*
X32842000Y-89771800D03*
X32842000Y-137142800D03*
X32842000Y-160891800D03*
X32842000Y-113546200D03*
X32842000Y-184615400D03*
X32842000Y-208186600D03*
X32842000Y-42350000D03*
%TO.N,HallOut2*%
X54686000Y-113470000D03*
X54686000Y-160866400D03*
X54686000Y-208262800D03*
X54686000Y-89771800D03*
X54686000Y-66048200D03*
X54686000Y-184539200D03*
X54686000Y-137117400D03*
X54686000Y-42350000D03*
%TO.N,HallOut3*%
X76675800Y-66080200D03*
X76675800Y-208294800D03*
X76675800Y-137124000D03*
X76675800Y-160822200D03*
X76691800Y-89711600D03*
X76675800Y-184545800D03*
X76675800Y-113502000D03*
X76675800Y-42350000D03*
%TO.N,HallOut4*%
X98545200Y-66004000D03*
X98545200Y-137200200D03*
X98545200Y-208218600D03*
X98545200Y-113476600D03*
X98545200Y-184495000D03*
X98545200Y-89753000D03*
X98545200Y-160873000D03*
X98545200Y-42350000D03*
%TO.N,HallOut5*%
X120776800Y-89746400D03*
X120776800Y-66073600D03*
X120776800Y-113546200D03*
X120776800Y-42350000D03*
X120776800Y-137168200D03*
X120776800Y-160841000D03*
X120776800Y-184590000D03*
X120776800Y-208262800D03*
%TO.N,HallOut6*%
X143459000Y-160891800D03*
X143459000Y-66073600D03*
X143459000Y-113520800D03*
X143459000Y-208262800D03*
X143459000Y-184564600D03*
X143459000Y-89797200D03*
X143459000Y-137142800D03*
X143459000Y-42350000D03*
%TO.N,HallOut7*%
X165125200Y-66149800D03*
X165125200Y-137219000D03*
X165125200Y-89797200D03*
X165125200Y-184564600D03*
X165125200Y-160866400D03*
X165125200Y-113495400D03*
X165125200Y-42350000D03*
X165125200Y-208212000D03*
%TO.N,HallOut8*%
X186639000Y-137193600D03*
X186639000Y-184539200D03*
X186639000Y-89848000D03*
X186639000Y-66073600D03*
X186639000Y-160866400D03*
X186639000Y-208237400D03*
X186639000Y-113470000D03*
X186639000Y-42350000D03*
%TO.N,AGND*%
X175910000Y-135150000D03*
X104850000Y-135150000D03*
X104850000Y-182550000D03*
X104850000Y-87750000D03*
X104890000Y-158850000D03*
X29640000Y-135150000D03*
X104720000Y-206250000D03*
X104890000Y-64050000D03*
X104870000Y-111450000D03*
X104840000Y-40350000D03*
%TD*%
D15*
%TO.N,P*%
X53376202Y-48446402D02*
X73476200Y-48446402D01*
X48476202Y-67046400D02*
X68576200Y-67046400D01*
X53376202Y-95846402D02*
X73476200Y-95846402D01*
X48476202Y-114446400D02*
X68576200Y-114446400D01*
X26476202Y-161846400D02*
X46576200Y-161846400D01*
X31376202Y-190646402D02*
X51476200Y-190646402D01*
X96426201Y-189696401D02*
X97376202Y-190646402D01*
X90576200Y-67046400D02*
X70476202Y-67046400D01*
X91526201Y-115396401D02*
X90576200Y-114446400D01*
X163376201Y-143246401D02*
X183476201Y-143246401D01*
X69526201Y-115396401D02*
X68576200Y-114446400D01*
X25526201Y-204425599D02*
X25526201Y-210196401D01*
X74426201Y-142296401D02*
X75376201Y-143246401D01*
X31376201Y-143246401D02*
X51476201Y-143246401D01*
X119376202Y-190646402D02*
X139476200Y-190646402D01*
X161476200Y-190646402D02*
X162426201Y-189696401D01*
X95476200Y-190646402D02*
X96426201Y-189696401D01*
X114401800Y-156150000D02*
X112660000Y-156150000D01*
X136476202Y-67046400D02*
X135526201Y-67996401D01*
X117351800Y-85050000D02*
X115920000Y-85050000D01*
X178576200Y-161846400D02*
X158476202Y-161846400D01*
X25526201Y-157025599D02*
X25526201Y-162796401D01*
X157526201Y-210196401D02*
X156576200Y-209246400D01*
X75376202Y-190646402D02*
X95476200Y-190646402D01*
X97376202Y-190646402D02*
X117476200Y-190646402D01*
X73476200Y-48446402D02*
X74426201Y-47496401D01*
X114476202Y-67046400D02*
X113526201Y-67996401D01*
X27900000Y-85050000D02*
X27860000Y-85090000D01*
X158476202Y-114446400D02*
X157526201Y-115396401D01*
X158476202Y-161846400D02*
X157526201Y-162796401D01*
X136401800Y-108750000D02*
X134660000Y-108750000D01*
X134576200Y-67046400D02*
X114476202Y-67046400D01*
X140426201Y-47496401D02*
X141376202Y-48446402D01*
X26476202Y-161846400D02*
X25526201Y-162796401D01*
X162426201Y-47496401D02*
X163376202Y-48446402D01*
X121586240Y-95846402D02*
X139476200Y-95846402D01*
X179526201Y-210196401D02*
X178576200Y-209246400D01*
X156576200Y-67046400D02*
X136476202Y-67046400D01*
X53376202Y-190646402D02*
X73476200Y-190646402D01*
X139351800Y-85050000D02*
X137920000Y-85050000D01*
X113526201Y-115396401D02*
X112576200Y-114446400D01*
X47526201Y-210196401D02*
X46576200Y-209246400D01*
X112576200Y-161846400D02*
X92476202Y-161846400D01*
X136401800Y-203550000D02*
X134660000Y-203550000D01*
X75376202Y-48446402D02*
X95476200Y-48446402D01*
X29351800Y-85050000D02*
X27900000Y-85050000D01*
X141376202Y-190646402D02*
X161476200Y-190646402D01*
X178576200Y-67046400D02*
X179526201Y-67996401D01*
X95476200Y-48446402D02*
X96426201Y-47496401D01*
X73476200Y-190646402D02*
X74426201Y-189696401D01*
X90576200Y-161846400D02*
X70476202Y-161846400D01*
X139351800Y-179850000D02*
X137920000Y-179850000D01*
X48476202Y-209246400D02*
X47526201Y-210196401D01*
X70476202Y-161846400D02*
X69526201Y-162796401D01*
X97376201Y-143246401D02*
X117476201Y-143246401D01*
X92476202Y-161846400D02*
X91526201Y-162796401D01*
X30426201Y-142296401D02*
X31376201Y-143246401D01*
X114476202Y-114446400D02*
X113526201Y-115396401D01*
X26401800Y-61350000D02*
X25526201Y-62225599D01*
X96426201Y-94896401D02*
X98636239Y-94896401D01*
X114401800Y-203550000D02*
X112660000Y-203550000D01*
X68576200Y-209246400D02*
X48476202Y-209246400D01*
X135526201Y-162796401D02*
X134576200Y-161846400D01*
X52426201Y-142296401D02*
X53126201Y-142996401D01*
X74426201Y-47496401D02*
X75376202Y-48446402D01*
X32636239Y-94896401D02*
X33586240Y-95846402D01*
X92476202Y-209246400D02*
X109373600Y-209246400D01*
X180401800Y-203550000D02*
X178660000Y-203550000D01*
X158401800Y-156150000D02*
X156660000Y-156150000D01*
X117476201Y-143246401D02*
X118426201Y-142296401D01*
X92401800Y-108750000D02*
X90660000Y-108750000D01*
X47526201Y-162796401D02*
X46576200Y-161846400D01*
X165586240Y-95846402D02*
X183476200Y-95846402D01*
X90576200Y-114446400D02*
X70476202Y-114446400D01*
X183476201Y-143246401D02*
X184426201Y-142296401D01*
X48401800Y-203550000D02*
X46660000Y-203550000D01*
X51351800Y-37650000D02*
X50080000Y-37650000D01*
X96426201Y-142296401D02*
X97376201Y-143246401D01*
X26476202Y-209246400D02*
X25526201Y-210196401D01*
X92401800Y-156150000D02*
X90660000Y-156150000D01*
X158401800Y-108750000D02*
X156660000Y-108750000D01*
X92401800Y-61350000D02*
X90660000Y-61350000D01*
X46576200Y-67046400D02*
X26476202Y-67046400D01*
X184426201Y-46073799D02*
X184440000Y-46060000D01*
X92572601Y-66950001D02*
X91526201Y-67996401D01*
X143586240Y-95846402D02*
X161476200Y-95846402D01*
X162426201Y-189696401D02*
X163376202Y-190646402D01*
X140426201Y-142296401D02*
X141376201Y-143246401D01*
X74426201Y-94896401D02*
X76636239Y-94896401D01*
X91526201Y-67996401D02*
X90576200Y-67046400D01*
X180401800Y-108750000D02*
X178660000Y-108750000D01*
X136401800Y-156150000D02*
X134660000Y-156150000D01*
X114401800Y-108750000D02*
X112660000Y-108750000D01*
X47526201Y-67996401D02*
X46576200Y-67046400D01*
X161351800Y-132450000D02*
X159920000Y-132450000D01*
X112576200Y-114446400D02*
X92476202Y-114446400D01*
X48401800Y-108750000D02*
X46660000Y-108750000D01*
X95351800Y-37650000D02*
X94080000Y-37650000D01*
X136401800Y-61350000D02*
X134660000Y-61350000D01*
X53126201Y-142996401D02*
X68076201Y-142996401D01*
X95476201Y-143246401D02*
X96426201Y-142296401D01*
X50080000Y-37650000D02*
X50030000Y-37700000D01*
X73351800Y-37650000D02*
X72080000Y-37650000D01*
X183351800Y-179850000D02*
X181920000Y-179850000D01*
X179526201Y-162796401D02*
X178576200Y-161846400D01*
X26476202Y-67046400D02*
X25526201Y-67996401D01*
X178576200Y-114446400D02*
X158476202Y-114446400D01*
X161476200Y-48446402D02*
X162426201Y-47496401D01*
X74426201Y-189696401D02*
X75376202Y-190646402D01*
X77586240Y-95846402D02*
X95476200Y-95846402D01*
X31510000Y-37650000D02*
X31560000Y-37700000D01*
X134576200Y-209246400D02*
X114476202Y-209246400D01*
X118426201Y-142296401D02*
X119376201Y-143246401D01*
X51476200Y-95846402D02*
X52426201Y-94896401D01*
X118426201Y-47496401D02*
X119376202Y-48446402D01*
X51351800Y-85050000D02*
X49920000Y-85050000D01*
X136476202Y-161846400D02*
X135526201Y-162796401D01*
X156576200Y-114446400D02*
X136476202Y-114446400D01*
X68076201Y-142996401D02*
X68326201Y-143246401D01*
X139351800Y-132450000D02*
X137920000Y-132450000D01*
X113526201Y-162796401D02*
X112576200Y-161846400D01*
X29351800Y-132450000D02*
X31480000Y-132450000D01*
X118426201Y-94896401D02*
X120636239Y-94896401D01*
X97376202Y-48446402D02*
X117476200Y-48446402D01*
X31480000Y-132450000D02*
X31520000Y-132410000D01*
X183351800Y-85050000D02*
X181920000Y-85050000D01*
X135526201Y-210196401D02*
X134576200Y-209246400D01*
X28920000Y-189610000D02*
X30339800Y-189610000D01*
X118426201Y-189696401D02*
X119376202Y-190646402D01*
X48401800Y-61350000D02*
X46660000Y-61350000D01*
X163376202Y-48446402D02*
X183476200Y-48446402D01*
X117476200Y-95846402D02*
X118426201Y-94896401D01*
X139476200Y-190646402D02*
X140426201Y-189696401D01*
X112576200Y-209246400D02*
X113526201Y-210196401D01*
X70401800Y-61350000D02*
X68660000Y-61350000D01*
X183476200Y-190646402D02*
X184426201Y-189696401D01*
X51476200Y-190646402D02*
X52426201Y-189696401D01*
X46660000Y-61350000D02*
X46650000Y-61360000D01*
X139351800Y-37650000D02*
X138080000Y-37650000D01*
X48401800Y-156150000D02*
X46660000Y-156150000D01*
X140426201Y-189696401D02*
X141376202Y-190646402D01*
X161476200Y-95846402D02*
X162426201Y-94896401D01*
X162426201Y-142296401D02*
X163376201Y-143246401D01*
X68326201Y-143246401D02*
X73476201Y-143246401D01*
X96426201Y-47496401D02*
X97376202Y-48446402D01*
X29351800Y-37650000D02*
X31510000Y-37650000D01*
X52426201Y-94896401D02*
X53376202Y-95846402D01*
X26401800Y-108750000D02*
X25526201Y-109625599D01*
X183476200Y-48446402D02*
X184426201Y-47496401D01*
X95476200Y-95846402D02*
X96426201Y-94896401D01*
X28950000Y-94890000D02*
X30419800Y-94890000D01*
X184420000Y-38718200D02*
X183351800Y-37650000D01*
X136476202Y-114446400D02*
X135526201Y-115396401D01*
X157526201Y-162796401D02*
X156576200Y-161846400D01*
X69526201Y-210196401D02*
X68576200Y-209246400D01*
X156576200Y-161846400D02*
X136476202Y-161846400D01*
X158476202Y-209246400D02*
X157526201Y-210196401D01*
X119376202Y-48446402D02*
X139476200Y-48446402D01*
X156576200Y-209246400D02*
X136476202Y-209246400D01*
X117476200Y-48446402D02*
X118426201Y-47496401D01*
X178576200Y-209246400D02*
X158476202Y-209246400D01*
X30426201Y-94896401D02*
X32636239Y-94896401D01*
X184426201Y-47496401D02*
X184426201Y-46073799D01*
X73351800Y-85050000D02*
X71920000Y-85050000D01*
X135526201Y-67996401D02*
X134576200Y-67046400D01*
X26401800Y-156150000D02*
X25526201Y-157025599D01*
X158401800Y-203550000D02*
X156660000Y-203550000D01*
X91526201Y-210196401D02*
X90576200Y-209246400D01*
X31376202Y-48446402D02*
X31663598Y-48446402D01*
X114476202Y-161846400D02*
X113526201Y-162796401D01*
X73351800Y-179850000D02*
X71920000Y-179850000D01*
X184420000Y-39800000D02*
X184420000Y-38718200D01*
X183351800Y-132450000D02*
X181920000Y-132450000D01*
X179526201Y-115396401D02*
X178576200Y-114446400D01*
X142636239Y-94896401D02*
X143586240Y-95846402D01*
X70476202Y-67046400D02*
X69526201Y-67996401D01*
X134576200Y-114446400D02*
X114476202Y-114446400D01*
X117351800Y-132450000D02*
X115920000Y-132450000D01*
X92401800Y-203550000D02*
X90660000Y-203550000D01*
X99586240Y-95846402D02*
X117476200Y-95846402D01*
X161351800Y-37650000D02*
X160080000Y-37650000D01*
X30426201Y-189696401D02*
X31376202Y-190646402D01*
X48476202Y-67046400D02*
X47526201Y-67996401D01*
X113526201Y-67996401D02*
X112479801Y-66950001D01*
X180401800Y-61350000D02*
X178660000Y-61350000D01*
X69526201Y-67996401D02*
X68576200Y-67046400D01*
X139476201Y-143246401D02*
X140426201Y-142296401D01*
X119376201Y-143246401D02*
X139476201Y-143246401D01*
X91526201Y-210196401D02*
X92476202Y-209246400D01*
X26401800Y-203550000D02*
X25526201Y-204425599D01*
X134576200Y-161846400D02*
X114476202Y-161846400D01*
X51476201Y-143246401D02*
X52426201Y-142296401D01*
X135526201Y-115396401D02*
X134576200Y-114446400D01*
X139476200Y-95846402D02*
X140426201Y-94896401D01*
X48476202Y-114446400D02*
X47526201Y-115396401D01*
X46660000Y-108750000D02*
X46650000Y-108760000D01*
X183476200Y-95846402D02*
X184426201Y-94896401D01*
X157526201Y-67996401D02*
X156576200Y-67046400D01*
X161351800Y-179850000D02*
X159920000Y-179850000D01*
X30426201Y-47496401D02*
X31376202Y-48446402D01*
X73476200Y-95846402D02*
X74426201Y-94896401D01*
X117351800Y-37650000D02*
X116080000Y-37650000D01*
X70401800Y-156150000D02*
X68660000Y-156150000D01*
X90576200Y-209246400D02*
X70476202Y-209246400D01*
X141376201Y-143246401D02*
X161476201Y-143246401D01*
X51351800Y-132450000D02*
X49920000Y-132450000D01*
X140426201Y-94896401D02*
X142636239Y-94896401D01*
X70476202Y-114446400D02*
X69526201Y-115396401D01*
X69526201Y-162796401D02*
X68576200Y-161846400D01*
X158476202Y-67046400D02*
X178576200Y-67046400D01*
X48476202Y-161846400D02*
X47526201Y-162796401D01*
X136476202Y-209246400D02*
X135526201Y-210196401D01*
X33586240Y-95846402D02*
X51476200Y-95846402D01*
X141376202Y-48446402D02*
X161476200Y-48446402D01*
X164636239Y-94896401D02*
X165586240Y-95846402D01*
X114476202Y-209246400D02*
X113526201Y-210196401D01*
X180401800Y-156150000D02*
X178660000Y-156150000D01*
X163376202Y-190646402D02*
X183476200Y-190646402D01*
X73351800Y-132450000D02*
X71920000Y-132450000D01*
X161351800Y-85050000D02*
X159920000Y-85050000D01*
X52426201Y-189696401D02*
X53376202Y-190646402D01*
X68576200Y-161846400D02*
X48476202Y-161846400D01*
X112479801Y-66950001D02*
X92572601Y-66950001D01*
X117351800Y-179850000D02*
X115920000Y-179850000D01*
X162426201Y-94896401D02*
X164636239Y-94896401D01*
X75376201Y-143246401D02*
X95476201Y-143246401D01*
X47526201Y-115396401D02*
X46576200Y-114446400D01*
X95351800Y-132450000D02*
X93920000Y-132450000D01*
X26476202Y-114446400D02*
X25526201Y-115396401D01*
X109373600Y-209246400D02*
X112576200Y-209246400D01*
X91526201Y-162796401D02*
X90576200Y-161846400D01*
X95351800Y-85050000D02*
X93920000Y-85050000D01*
X157526201Y-67996401D02*
X158476202Y-67046400D01*
X139476200Y-48446402D02*
X140426201Y-47496401D01*
X51351800Y-179850000D02*
X49920000Y-179850000D01*
X46576200Y-114446400D02*
X26476202Y-114446400D01*
X70476202Y-209246400D02*
X69526201Y-210196401D01*
X73476201Y-143246401D02*
X74426201Y-142296401D01*
X95351800Y-179850000D02*
X93920000Y-179850000D01*
X92476202Y-114446400D02*
X91526201Y-115396401D01*
X31663598Y-48446402D02*
X51476200Y-48446402D01*
X120636239Y-94896401D02*
X121586240Y-95846402D01*
X161476201Y-143246401D02*
X162426201Y-142296401D01*
X51476200Y-48446402D02*
X52426201Y-47496401D01*
X52426201Y-47496401D02*
X53376202Y-48446402D01*
X76636239Y-94896401D02*
X77586240Y-95846402D01*
X158401800Y-61350000D02*
X156660000Y-61350000D01*
X114401800Y-61350000D02*
X112660000Y-61350000D01*
X25526201Y-62225599D02*
X25526201Y-67996401D01*
X98636239Y-94896401D02*
X99586240Y-95846402D01*
X117476200Y-190646402D02*
X118426201Y-189696401D01*
X70401800Y-203550000D02*
X68660000Y-203550000D01*
X26476202Y-209246400D02*
X46576200Y-209246400D01*
X29351800Y-179850000D02*
X28000000Y-179850000D01*
X70401800Y-108750000D02*
X68660000Y-108750000D01*
X25526201Y-109625599D02*
X25526201Y-115396401D01*
X157526201Y-115396401D02*
X156576200Y-114446400D01*
%TO.N,LedIn*%
X25460000Y-46130000D02*
X25460000Y-47430200D01*
%TO.N,Net-(D1-Pad4)*%
X44326201Y-44296401D02*
X47526201Y-47496401D01*
X30426201Y-44296401D02*
X44326201Y-44296401D01*
%TO.N,Net-(D2-Pad4)*%
X66326201Y-44296401D02*
X69526201Y-47496401D01*
X52426201Y-44296401D02*
X66326201Y-44296401D01*
%TO.N,Net-(D3-Pad4)*%
X74426201Y-44296401D02*
X88326201Y-44296401D01*
X88326201Y-44296401D02*
X91526201Y-47496401D01*
%TO.N,Net-(D4-Pad4)*%
X110326201Y-44296401D02*
X113526201Y-47496401D01*
X96426201Y-44296401D02*
X110326201Y-44296401D01*
%TO.N,Net-(D5-Pad4)*%
X132326201Y-44296401D02*
X135526201Y-47496401D01*
X118426201Y-44296401D02*
X132326201Y-44296401D01*
%TO.N,Net-(D6-Pad4)*%
X140426201Y-44296401D02*
X154326201Y-44296401D01*
X154326201Y-44296401D02*
X157526201Y-47496401D01*
%TO.N,Net-(D7-Pad4)*%
X162426201Y-44296401D02*
X176326201Y-44296401D01*
X176326201Y-44296401D02*
X179526201Y-47496401D01*
%TO.N,GND*%
X48572601Y-90650001D02*
X68479801Y-90650001D01*
X33586240Y-166946402D02*
X51476200Y-166946402D01*
X26476202Y-185546400D02*
X46576200Y-185546400D01*
X180401800Y-132450000D02*
X178700000Y-132450000D01*
X114776201Y-44296401D02*
X115726202Y-43346400D01*
X49970000Y-61350000D02*
X49900000Y-61420000D01*
X25526201Y-85925599D02*
X25526201Y-91696401D01*
X29351800Y-203550000D02*
X27900000Y-203550000D01*
X183476200Y-119546402D02*
X163376202Y-119546402D01*
X161351800Y-156150000D02*
X159950000Y-156150000D01*
X114401800Y-179850000D02*
X112700000Y-179850000D01*
X139476200Y-166946402D02*
X140426201Y-165996401D01*
X163376202Y-72146402D02*
X162426201Y-71196401D01*
X178498801Y-138069001D02*
X179526201Y-139096401D01*
X161351800Y-61350000D02*
X159970000Y-61350000D01*
X69526201Y-91696401D02*
X70476202Y-90746400D01*
X114401800Y-132450000D02*
X112700000Y-132450000D01*
X51476200Y-119546402D02*
X31593598Y-119546402D01*
X25526201Y-38525599D02*
X25526201Y-43073799D01*
X178576200Y-185546400D02*
X179526201Y-186496401D01*
X182731301Y-71641301D02*
X182226200Y-72146402D01*
X47526201Y-186496401D02*
X48476202Y-185546400D01*
X73476200Y-166946402D02*
X74426201Y-165996401D01*
X180401800Y-179850000D02*
X178700000Y-179850000D01*
X92476202Y-185546400D02*
X112576200Y-185546400D01*
X70401800Y-179850000D02*
X68700000Y-179850000D01*
X182226200Y-72146402D02*
X163376202Y-72146402D01*
X74426201Y-165996401D02*
X76636239Y-165996401D01*
X156479801Y-138050001D02*
X157526201Y-139096401D01*
X30950000Y-156150000D02*
X30970000Y-156130000D01*
X114572601Y-138050001D02*
X134479801Y-138050001D01*
X30426201Y-71196401D02*
X31376202Y-72146402D01*
X117351800Y-156150000D02*
X115950000Y-156150000D01*
X183351800Y-203550000D02*
X184760000Y-203550000D01*
X25526201Y-139096401D02*
X26572601Y-138050001D01*
X92401800Y-179850000D02*
X90700000Y-179850000D01*
X119376202Y-119546402D02*
X118426201Y-118596401D01*
X118426201Y-71196401D02*
X119376202Y-72146402D01*
X161476200Y-119546402D02*
X141376202Y-119546402D01*
X113526201Y-91696401D02*
X114572601Y-90650001D01*
X136401800Y-132450000D02*
X134700000Y-132450000D01*
X26572601Y-90650001D02*
X46479801Y-90650001D01*
X120636239Y-165996401D02*
X121586240Y-166946402D01*
X136476202Y-43346400D02*
X156576200Y-43346400D01*
X48476202Y-138146400D02*
X68576200Y-138146400D01*
X134479801Y-90650001D02*
X135526201Y-91696401D01*
X136572601Y-138050001D02*
X156479801Y-138050001D01*
X28870000Y-71130000D02*
X30359800Y-71130000D01*
X69526201Y-186496401D02*
X70476202Y-185546400D01*
X53376202Y-119546402D02*
X52426201Y-118596401D01*
X135526201Y-139096401D02*
X136572601Y-138050001D01*
X51351800Y-203550000D02*
X49950000Y-203550000D01*
X117476200Y-166946402D02*
X97376202Y-166946402D01*
X163376202Y-214346402D02*
X183476200Y-214346402D01*
X140426201Y-213396401D02*
X142636239Y-213396401D01*
X46479801Y-90650001D02*
X47526201Y-91696401D01*
X184820000Y-213002602D02*
X184426201Y-213396401D01*
X113526201Y-139096401D02*
X114572601Y-138050001D01*
X183351800Y-156150000D02*
X181950000Y-156150000D01*
X73351800Y-61350000D02*
X71970000Y-61350000D01*
X91526201Y-91696401D02*
X92476202Y-90746400D01*
X184426201Y-71196401D02*
X183176201Y-71196401D01*
X92401800Y-85050000D02*
X90700000Y-85050000D01*
X48476202Y-43346400D02*
X68576200Y-43346400D01*
X68576200Y-185546400D02*
X69526201Y-186496401D01*
X47526201Y-44296401D02*
X48476202Y-43346400D01*
X70476202Y-138146400D02*
X90576200Y-138146400D01*
X136401800Y-179850000D02*
X134700000Y-179850000D01*
X139351800Y-156150000D02*
X137950000Y-156150000D01*
X27900000Y-61350000D02*
X27860000Y-61390000D01*
X96426201Y-118596401D02*
X95476200Y-119546402D01*
X26401800Y-37650000D02*
X25526201Y-38525599D01*
X48401800Y-179850000D02*
X46700000Y-179850000D01*
X73351800Y-156150000D02*
X71950000Y-156150000D01*
X97376202Y-119546402D02*
X96426201Y-118596401D01*
X32256402Y-214346402D02*
X31376202Y-214346402D01*
X75376202Y-214346402D02*
X74426201Y-213396401D01*
X90576200Y-43346400D02*
X91526201Y-44296401D01*
X69526201Y-139096401D02*
X70476202Y-138146400D01*
X141376202Y-72146402D02*
X140426201Y-71196401D01*
X118426201Y-213396401D02*
X120636239Y-213396401D01*
X95351800Y-203550000D02*
X93950000Y-203550000D01*
X158476202Y-185546400D02*
X178576200Y-185546400D01*
X113526201Y-44296401D02*
X114776201Y-44296401D01*
X112576200Y-138146400D02*
X113526201Y-139096401D01*
X52426201Y-165996401D02*
X54636239Y-165996401D01*
X51476200Y-166946402D02*
X52426201Y-165996401D01*
X114401800Y-85050000D02*
X112700000Y-85050000D01*
X31376202Y-119546402D02*
X31279900Y-119450100D01*
X143586240Y-166946402D02*
X161476200Y-166946402D01*
X119376202Y-72146402D02*
X139476200Y-72146402D01*
X140426201Y-118596401D02*
X139476200Y-119546402D01*
X46576200Y-185546400D02*
X47526201Y-186496401D01*
X112576200Y-43346400D02*
X113526201Y-44296401D01*
X51351800Y-156150000D02*
X49950000Y-156150000D01*
X51351800Y-108750000D02*
X49950000Y-108750000D01*
X92476202Y-43346400D02*
X112576200Y-43346400D01*
X55586240Y-166946402D02*
X73476200Y-166946402D01*
X68479801Y-90650001D02*
X69526201Y-91696401D01*
X161476200Y-214346402D02*
X162426201Y-213396401D01*
X74426201Y-118596401D02*
X73476200Y-119546402D01*
X158401800Y-85050000D02*
X156700000Y-85050000D01*
X178576200Y-43346400D02*
X179526201Y-44296401D01*
X76636239Y-165996401D02*
X77586240Y-166946402D01*
X29351800Y-156150000D02*
X30950000Y-156150000D01*
X31593598Y-119546402D02*
X31376202Y-119546402D01*
X139476200Y-72146402D02*
X140426201Y-71196401D01*
X25526201Y-180725599D02*
X25526201Y-186496401D01*
X158401800Y-179850000D02*
X156700000Y-179850000D01*
X157526201Y-186496401D02*
X158476202Y-185546400D01*
X121586240Y-214346402D02*
X139476200Y-214346402D01*
X47526201Y-139096401D02*
X48476202Y-138146400D01*
X92476202Y-138146400D02*
X112576200Y-138146400D01*
X68576200Y-43346400D02*
X69526201Y-44296401D01*
X184426201Y-213396401D02*
X183476200Y-214346402D01*
X26401800Y-85050000D02*
X25526201Y-85925599D01*
X115726202Y-43346400D02*
X134576200Y-43346400D01*
X73351800Y-203550000D02*
X71950000Y-203550000D01*
X184760000Y-203550000D02*
X184820000Y-203610000D01*
X157526201Y-139096401D02*
X158553601Y-138069001D01*
X141376202Y-119546402D02*
X140426201Y-118596401D01*
X112576200Y-90746400D02*
X113526201Y-91696401D01*
X90576200Y-185546400D02*
X91526201Y-186496401D01*
X26572601Y-43250001D02*
X46479801Y-43250001D01*
X92401800Y-37650000D02*
X90590000Y-37650000D01*
X161476200Y-72146402D02*
X141376202Y-72146402D01*
X97376202Y-214346402D02*
X96426201Y-213396401D01*
X92476202Y-90746400D02*
X112576200Y-90746400D01*
X163376202Y-166946402D02*
X183476200Y-166946402D01*
X70401800Y-37650000D02*
X68590000Y-37650000D01*
X178576200Y-90746400D02*
X179526201Y-91696401D01*
X70401800Y-85050000D02*
X68700000Y-85050000D01*
X46479801Y-43250001D02*
X47526201Y-44296401D01*
X75376202Y-119546402D02*
X74426201Y-118596401D01*
X73351800Y-108750000D02*
X71950000Y-108750000D01*
X114401800Y-37650000D02*
X112590000Y-37650000D01*
X139351800Y-203550000D02*
X137950000Y-203550000D01*
X26572601Y-138050001D02*
X46479801Y-138050001D01*
X136401800Y-85050000D02*
X134700000Y-85050000D01*
X30426201Y-165996401D02*
X31613599Y-165996401D01*
X118426201Y-165996401D02*
X117476200Y-166946402D01*
X54636239Y-165996401D02*
X55586240Y-166946402D01*
X47526201Y-91696401D02*
X48572601Y-90650001D01*
X136476202Y-90746400D02*
X156576200Y-90746400D01*
X134576200Y-185546400D02*
X135526201Y-186496401D01*
X97376202Y-72146402D02*
X117476200Y-72146402D01*
X25526201Y-91696401D02*
X26572601Y-90650001D01*
X74426201Y-71196401D02*
X75376202Y-72146402D01*
X26401800Y-179850000D02*
X25526201Y-180725599D01*
X183176201Y-71196401D02*
X182731301Y-71641301D01*
X70476202Y-185546400D02*
X90576200Y-185546400D01*
X139476200Y-119546402D02*
X119376202Y-119546402D01*
X118426201Y-213396401D02*
X117476200Y-214346402D01*
X112576200Y-185546400D02*
X113526201Y-186496401D01*
X77586240Y-166946402D02*
X95476200Y-166946402D01*
X135526201Y-44296401D02*
X136476202Y-43346400D01*
X120636239Y-213396401D02*
X121586240Y-214346402D01*
X161351800Y-203550000D02*
X159950000Y-203550000D01*
X117476200Y-119546402D02*
X97376202Y-119546402D01*
X95476200Y-72146402D02*
X96426201Y-71196401D01*
X25526201Y-43073799D02*
X25526201Y-44296401D01*
X25526201Y-44296401D02*
X26572601Y-43250001D01*
X49950000Y-108750000D02*
X49930000Y-108770000D01*
X139476200Y-214346402D02*
X140426201Y-213396401D01*
X117351800Y-108750000D02*
X115950000Y-108750000D01*
X90576200Y-138146400D02*
X91526201Y-139096401D01*
X70401800Y-132450000D02*
X68700000Y-132450000D01*
X91526201Y-44296401D02*
X92476202Y-43346400D01*
X139351800Y-108750000D02*
X137950000Y-108750000D01*
X52426201Y-118596401D02*
X51476200Y-119546402D01*
X51351800Y-61350000D02*
X49970000Y-61350000D01*
X46700000Y-85050000D02*
X46640000Y-85110000D01*
X183476200Y-166946402D02*
X184426201Y-165996401D01*
X53376202Y-214346402D02*
X52426201Y-213396401D01*
X183351800Y-61350000D02*
X181970000Y-61350000D01*
X158476202Y-43346400D02*
X178576200Y-43346400D01*
X114476202Y-185546400D02*
X134576200Y-185546400D01*
X118426201Y-165996401D02*
X120636239Y-165996401D01*
X158476202Y-90746400D02*
X178576200Y-90746400D01*
X134576200Y-43346400D02*
X135526201Y-44296401D01*
X158401800Y-132450000D02*
X156700000Y-132450000D01*
X161351800Y-108750000D02*
X159950000Y-108750000D01*
X117476200Y-72146402D02*
X118426201Y-71196401D01*
X29351800Y-108750000D02*
X31470000Y-108750000D01*
X68576200Y-138146400D02*
X69526201Y-139096401D01*
X52426201Y-71196401D02*
X53376202Y-72146402D01*
X25526201Y-133325599D02*
X25526201Y-139096401D01*
X32636239Y-165996401D02*
X33586240Y-166946402D01*
X46479801Y-138050001D02*
X47526201Y-139096401D01*
X117351800Y-61350000D02*
X115970000Y-61350000D01*
X31376202Y-214346402D02*
X30426201Y-213396401D01*
X52426201Y-213396401D02*
X51476200Y-214346402D01*
X143586240Y-214346402D02*
X161476200Y-214346402D01*
X118426201Y-118596401D02*
X117476200Y-119546402D01*
X180401800Y-85050000D02*
X178700000Y-85050000D01*
X142636239Y-213396401D02*
X143586240Y-214346402D01*
X91526201Y-186496401D02*
X92476202Y-185546400D01*
X31613599Y-165996401D02*
X32636239Y-165996401D01*
X157526201Y-91696401D02*
X158476202Y-90746400D01*
X73476200Y-72146402D02*
X74426201Y-71196401D01*
X25526201Y-186496401D02*
X26476202Y-185546400D01*
X135526201Y-91696401D02*
X136476202Y-90746400D01*
X90576200Y-90746400D02*
X91526201Y-91696401D01*
X158553601Y-138069001D02*
X178498801Y-138069001D01*
X162426201Y-165996401D02*
X163376202Y-166946402D01*
X70476202Y-90746400D02*
X90576200Y-90746400D01*
X184820000Y-211850000D02*
X184820000Y-213002602D01*
X162426201Y-71196401D02*
X161476200Y-72146402D01*
X95351800Y-61350000D02*
X93970000Y-61350000D01*
X183351800Y-108750000D02*
X181950000Y-108750000D01*
X162426201Y-118596401D02*
X161476200Y-119546402D01*
X51476200Y-214346402D02*
X32256402Y-214346402D01*
X136476202Y-185546400D02*
X156576200Y-185546400D01*
X117476200Y-214346402D02*
X97376202Y-214346402D01*
X31376202Y-72146402D02*
X51476200Y-72146402D01*
X31279900Y-119450100D02*
X30426201Y-118596401D01*
X95351800Y-108750000D02*
X93950000Y-108750000D01*
X180401800Y-37650000D02*
X178590000Y-37650000D01*
X91526201Y-139096401D02*
X92476202Y-138146400D01*
X156576200Y-90746400D02*
X157526201Y-91696401D01*
X163376202Y-119546402D02*
X162426201Y-118596401D01*
X95476200Y-119546402D02*
X75376202Y-119546402D01*
X96426201Y-71196401D02*
X97376202Y-72146402D01*
X92401800Y-132450000D02*
X90700000Y-132450000D01*
X139351800Y-61350000D02*
X137970000Y-61350000D01*
X158401800Y-37650000D02*
X156590000Y-37650000D01*
X161476200Y-166946402D02*
X162426201Y-165996401D01*
X113526201Y-186496401D02*
X114476202Y-185546400D01*
X142636239Y-165996401D02*
X143586240Y-166946402D01*
X156576200Y-185546400D02*
X157526201Y-186496401D01*
X70476202Y-43346400D02*
X90576200Y-43346400D01*
X69526201Y-44296401D02*
X70476202Y-43346400D01*
X134479801Y-138050001D02*
X135526201Y-139096401D01*
X26401800Y-132450000D02*
X25526201Y-133325599D01*
X29351800Y-61350000D02*
X27900000Y-61350000D01*
X96426201Y-213396401D02*
X95476200Y-214346402D01*
X73476200Y-214346402D02*
X53376202Y-214346402D01*
X48476202Y-185546400D02*
X68576200Y-185546400D01*
X75376202Y-72146402D02*
X95476200Y-72146402D01*
X53376202Y-72146402D02*
X73476200Y-72146402D01*
X136401800Y-37650000D02*
X134590000Y-37650000D01*
X95476200Y-214346402D02*
X75376202Y-214346402D01*
X156576200Y-43346400D02*
X157526201Y-44296401D01*
X121586240Y-166946402D02*
X139476200Y-166946402D01*
X73476200Y-119546402D02*
X53376202Y-119546402D01*
X117351800Y-203550000D02*
X115950000Y-203550000D01*
X74426201Y-213396401D02*
X73476200Y-214346402D01*
X157526201Y-44296401D02*
X158476202Y-43346400D01*
X135526201Y-186496401D02*
X136476202Y-185546400D01*
X51476200Y-72146402D02*
X52426201Y-71196401D01*
X46590000Y-37650000D02*
X46540000Y-37700000D01*
X27900000Y-203550000D02*
X27890000Y-203540000D01*
X140426201Y-165996401D02*
X142636239Y-165996401D01*
X48401800Y-132450000D02*
X46700000Y-132450000D01*
X97376202Y-166946402D02*
X96426201Y-165996401D01*
X163376202Y-214346402D02*
X162426201Y-213396401D01*
X48401800Y-85050000D02*
X46700000Y-85050000D01*
X31470000Y-108750000D02*
X31500000Y-108720000D01*
X48401800Y-37650000D02*
X46590000Y-37650000D01*
X184426201Y-118596401D02*
X183476200Y-119546402D01*
X114572601Y-90650001D02*
X134479801Y-90650001D01*
X95476200Y-166946402D02*
X96426201Y-165996401D01*
X95351800Y-156150000D02*
X93950000Y-156150000D01*
%TO.N,Net-(D10-Pad2)*%
X69526201Y-71196401D02*
X55626201Y-71196401D01*
X55626201Y-71196401D02*
X52426201Y-67996401D01*
%TO.N,Net-(D10-Pad4)*%
X44326201Y-67996401D02*
X47526201Y-71196401D01*
X30426201Y-67996401D02*
X44326201Y-67996401D01*
%TO.N,Net-(D11-Pad2)*%
X77626201Y-71196401D02*
X74426201Y-67996401D01*
X91526201Y-71196401D02*
X77626201Y-71196401D01*
%TO.N,Net-(D12-Pad2)*%
X113526201Y-71196401D02*
X99626201Y-71196401D01*
X99626201Y-71196401D02*
X96426201Y-67996401D01*
%TO.N,Net-(D13-Pad2)*%
X135526201Y-71196401D02*
X121626201Y-71196401D01*
X121626201Y-71196401D02*
X118426201Y-67996401D01*
%TO.N,Net-(D14-Pad2)*%
X157526201Y-71196401D02*
X143626201Y-71196401D01*
X143626201Y-71196401D02*
X140426201Y-67996401D01*
%TO.N,Net-(D15-Pad2)*%
X179526201Y-71196401D02*
X165626201Y-71196401D01*
X165626201Y-71196401D02*
X162426201Y-67996401D01*
%TO.N,Net-(D16-Pad2)*%
X187700000Y-47200000D02*
X187700000Y-66600000D01*
X186303599Y-67996401D02*
X184426201Y-67996401D01*
X187700000Y-66600000D02*
X186303599Y-67996401D01*
X184796401Y-44296401D02*
X187700000Y-47200000D01*
%TO.N,Net-(D17-Pad2)*%
X25526201Y-71196401D02*
X24326201Y-72396401D01*
X24326201Y-72396401D02*
X24326201Y-93696401D01*
X24326201Y-93696401D02*
X25526201Y-94896401D01*
%TO.N,Net-(D19-Pad4)*%
X91526201Y-94896401D02*
X77626201Y-94896401D01*
X77626201Y-94896401D02*
X74426201Y-91696401D01*
%TO.N,Net-(D20-Pad4)*%
X113526201Y-94896401D02*
X99626201Y-94896401D01*
X99626201Y-94896401D02*
X96426201Y-91696401D01*
%TO.N,Net-(D21-Pad4)*%
X135526201Y-94896401D02*
X121626201Y-94896401D01*
X121626201Y-94896401D02*
X118426201Y-91696401D01*
%TO.N,Net-(D22-Pad4)*%
X157526201Y-94896401D02*
X143626201Y-94896401D01*
X143626201Y-94896401D02*
X140426201Y-91696401D01*
%TO.N,Net-(D23-Pad4)*%
X179526201Y-94896401D02*
X165626201Y-94896401D01*
X165626201Y-94896401D02*
X162426201Y-91696401D01*
%TO.N,Net-(D24-Pad4)*%
X187600000Y-114400000D02*
X186603599Y-115396401D01*
X187600000Y-94870200D02*
X187600000Y-114400000D01*
X186603599Y-115396401D02*
X184426201Y-115396401D01*
X184426201Y-91696401D02*
X187600000Y-94870200D01*
%TO.N,Net-(D25-Pad4)*%
X24326201Y-119796401D02*
X24326201Y-141096401D01*
X24326201Y-141096401D02*
X25526201Y-142296401D01*
X25526201Y-118596401D02*
X24326201Y-119796401D01*
%TO.N,Net-(D28-Pad2)*%
X110326201Y-115396401D02*
X113526201Y-118596401D01*
X96426201Y-115396401D02*
X110326201Y-115396401D01*
%TO.N,Net-(D29-Pad2)*%
X132326201Y-115396401D02*
X135526201Y-118596401D01*
X118426201Y-115396401D02*
X132326201Y-115396401D01*
%TO.N,Net-(D30-Pad2)*%
X154326201Y-115396401D02*
X157526201Y-118596401D01*
X140426201Y-115396401D02*
X154326201Y-115396401D01*
%TO.N,Net-(D31-Pad2)*%
X162426201Y-115396401D02*
X176326201Y-115396401D01*
X176326201Y-115396401D02*
X179526201Y-118596401D01*
%TO.N,Net-(D37-Pad4)*%
X135526201Y-142296401D02*
X121626201Y-142296401D01*
X121626201Y-142296401D02*
X118426201Y-139096401D01*
%TO.N,Net-(D38-Pad4)*%
X157526201Y-142296401D02*
X143626201Y-142296401D01*
X143626201Y-142296401D02*
X140426201Y-139096401D01*
%TO.N,Net-(D39-Pad4)*%
X165626201Y-142296401D02*
X162426201Y-139096401D01*
X179526201Y-142296401D02*
X165626201Y-142296401D01*
%TO.N,Net-(D40-Pad4)*%
X184426201Y-139096401D02*
X185396401Y-139096401D01*
X187303599Y-162796401D02*
X184426201Y-162796401D01*
X187700000Y-141400000D02*
X187700000Y-162400000D01*
X187700000Y-162400000D02*
X187303599Y-162796401D01*
X185396401Y-139096401D02*
X187700000Y-141400000D01*
%TO.N,Net-(D41-Pad4)*%
X24326201Y-188496401D02*
X25526201Y-189696401D01*
X25526201Y-165996401D02*
X24326201Y-167196401D01*
X24326201Y-167196401D02*
X24326201Y-188496401D01*
%TO.N,Net-(D46-Pad2)*%
X143626201Y-165996401D02*
X140426201Y-162796401D01*
X157526201Y-165996401D02*
X143626201Y-165996401D01*
%TO.N,Net-(D47-Pad2)*%
X165626201Y-165996401D02*
X162426201Y-162796401D01*
X179526201Y-165996401D02*
X165626201Y-165996401D01*
%TO.N,Net-(D55-Pad4)*%
X162426201Y-186496401D02*
X176326201Y-186496401D01*
X176326201Y-186496401D02*
X179526201Y-189696401D01*
%TO.N,Net-(D56-Pad4)*%
X187503599Y-210196401D02*
X184426201Y-210196401D01*
X187800000Y-189870200D02*
X187800000Y-209900000D01*
X187800000Y-209900000D02*
X187503599Y-210196401D01*
X184426201Y-186496401D02*
X187800000Y-189870200D01*
%TO.N,LedOut*%
X25620000Y-212000000D02*
X25620000Y-213302602D01*
%TO.N,PQ1*%
X49050000Y-42350000D02*
X49950001Y-41449999D01*
X49950001Y-41449999D02*
X70149999Y-41449999D01*
X92149999Y-41449999D02*
X93050000Y-42350000D01*
X27050000Y-42350000D02*
X27950001Y-41449999D01*
X159050000Y-42350000D02*
X159950001Y-41449999D01*
X136149999Y-41449999D02*
X137050000Y-42350000D01*
X93950001Y-41449999D02*
X114149999Y-41449999D01*
X115050000Y-42350000D02*
X115950001Y-41449999D01*
X93050000Y-42350000D02*
X93950001Y-41449999D01*
X158149999Y-41449999D02*
X159050000Y-42350000D01*
X115950001Y-41449999D02*
X136149999Y-41449999D01*
X71050000Y-42350000D02*
X71950001Y-41449999D01*
X49050000Y-42350000D02*
X48149999Y-41449999D01*
X180149999Y-41449999D02*
X181050000Y-42350000D01*
X71950001Y-41449999D02*
X92149999Y-41449999D01*
X137050000Y-42350000D02*
X137950001Y-41449999D01*
X159950001Y-41449999D02*
X170050001Y-41449999D01*
X114149999Y-41449999D02*
X115050000Y-42350000D01*
X70149999Y-41449999D02*
X71050000Y-42350000D01*
X48149999Y-41449999D02*
X27950001Y-41449999D01*
X170050001Y-41449999D02*
X180149999Y-41449999D01*
X137950001Y-41449999D02*
X158149999Y-41449999D01*
%TO.N,PQ2*%
X137950001Y-65149999D02*
X158149999Y-65149999D01*
X92149999Y-65149999D02*
X93050000Y-66050000D01*
X70149999Y-65149999D02*
X71050000Y-66050000D01*
X27050000Y-66050000D02*
X27952601Y-65147399D01*
X174589999Y-65149999D02*
X180149999Y-65149999D01*
X49050000Y-66050000D02*
X49950001Y-65149999D01*
X48147399Y-65147399D02*
X49050000Y-66050000D01*
X27952601Y-65147399D02*
X31097399Y-65147399D01*
X115950001Y-65149999D02*
X136149999Y-65149999D01*
X159050000Y-66050000D02*
X159950001Y-65149999D01*
X71950001Y-65149999D02*
X92149999Y-65149999D01*
X71050000Y-66050000D02*
X71950001Y-65149999D01*
X115050000Y-66050000D02*
X115950001Y-65149999D01*
X136149999Y-65149999D02*
X137050000Y-66050000D01*
X94149999Y-64950001D02*
X113950001Y-64950001D01*
X180149999Y-65149999D02*
X181050000Y-66050000D01*
X49950001Y-65149999D02*
X70149999Y-65149999D01*
X31097399Y-65147399D02*
X48147399Y-65147399D01*
X113950001Y-64950001D02*
X115050000Y-66050000D01*
X137050000Y-66050000D02*
X137950001Y-65149999D01*
X158149999Y-65149999D02*
X159050000Y-66050000D01*
X93050000Y-66050000D02*
X94149999Y-64950001D01*
X159950001Y-65149999D02*
X174589999Y-65149999D01*
%TO.N,PQ3*%
X48149999Y-88849999D02*
X30829999Y-88849999D01*
X159950001Y-88849999D02*
X159050000Y-89750000D01*
X93950001Y-88849999D02*
X93050000Y-89750000D01*
X92149999Y-88849999D02*
X71950001Y-88849999D01*
X70149999Y-88849999D02*
X49950001Y-88849999D01*
X114149999Y-88849999D02*
X93950001Y-88849999D01*
X71050000Y-89750000D02*
X70149999Y-88849999D01*
X137050000Y-89750000D02*
X136149999Y-88849999D01*
X174289999Y-88849999D02*
X159950001Y-88849999D01*
X27950001Y-88849999D02*
X27050000Y-89750000D01*
X71950001Y-88849999D02*
X71050000Y-89750000D01*
X115050000Y-89750000D02*
X114149999Y-88849999D01*
X158149999Y-88849999D02*
X137950001Y-88849999D01*
X181050000Y-89750000D02*
X180149999Y-88849999D01*
X180149999Y-88849999D02*
X174289999Y-88849999D01*
X115950001Y-88849999D02*
X115050000Y-89750000D01*
X136149999Y-88849999D02*
X115950001Y-88849999D01*
X137950001Y-88849999D02*
X137050000Y-89750000D01*
X93050000Y-89750000D02*
X92149999Y-88849999D01*
X49950001Y-88849999D02*
X49050000Y-89750000D01*
X49050000Y-89750000D02*
X48149999Y-88849999D01*
X30829999Y-88849999D02*
X27950001Y-88849999D01*
X159050000Y-89750000D02*
X158149999Y-88849999D01*
%TO.N,PQ4*%
X27950001Y-112549999D02*
X48149999Y-112549999D01*
X72149999Y-112350001D02*
X71050000Y-113450000D01*
X175190001Y-112549999D02*
X159950001Y-112549999D01*
X159050000Y-113450000D02*
X158149999Y-112549999D01*
X93950001Y-112549999D02*
X93050000Y-113450000D01*
X49950001Y-112549999D02*
X49050000Y-113450000D01*
X158149999Y-112549999D02*
X137950001Y-112549999D01*
X49050000Y-113450000D02*
X48149999Y-112549999D01*
X114149999Y-112549999D02*
X93950001Y-112549999D01*
X181050000Y-113450000D02*
X180149999Y-112549999D01*
X70149999Y-112549999D02*
X49950001Y-112549999D01*
X137950001Y-112549999D02*
X137050000Y-113450000D01*
X180149999Y-112549999D02*
X175190001Y-112549999D01*
X71050000Y-113450000D02*
X70149999Y-112549999D01*
X137050000Y-113450000D02*
X136149999Y-112549999D01*
X159950001Y-112549999D02*
X159050000Y-113450000D01*
X115050000Y-113450000D02*
X114149999Y-112549999D01*
X115950001Y-112549999D02*
X115050000Y-113450000D01*
X91950001Y-112350001D02*
X72149999Y-112350001D01*
X93050000Y-113450000D02*
X91950001Y-112350001D01*
X136149999Y-112549999D02*
X115950001Y-112549999D01*
X27950001Y-112549999D02*
X27050000Y-113450000D01*
%TO.N,PQ5*%
X115950001Y-136249999D02*
X115050000Y-137150000D01*
X92149999Y-136249999D02*
X71950001Y-136249999D01*
X137950001Y-136249999D02*
X137050000Y-137150000D01*
X27950001Y-136249999D02*
X27050000Y-137150000D01*
X49050000Y-137150000D02*
X48149999Y-136249999D01*
X71950001Y-136249999D02*
X71050000Y-137150000D01*
X115050000Y-137150000D02*
X114149999Y-136249999D01*
X49950001Y-136249999D02*
X49050000Y-137150000D01*
X175390001Y-136249999D02*
X159950001Y-136249999D01*
X181050000Y-137150000D02*
X180149999Y-136249999D01*
X159950001Y-136249999D02*
X159050000Y-137150000D01*
X159050000Y-137150000D02*
X158149999Y-136249999D01*
X71050000Y-137150000D02*
X70149999Y-136249999D01*
X70149999Y-136249999D02*
X49950001Y-136249999D01*
X93050000Y-137150000D02*
X92149999Y-136249999D01*
X114149999Y-136249999D02*
X93950001Y-136249999D01*
X180149999Y-136249999D02*
X175390001Y-136249999D01*
X158149999Y-136249999D02*
X137950001Y-136249999D01*
X93950001Y-136249999D02*
X93050000Y-137150000D01*
X136149999Y-136249999D02*
X115950001Y-136249999D01*
X48149999Y-136249999D02*
X27950001Y-136249999D01*
X137050000Y-137150000D02*
X136149999Y-136249999D01*
%TO.N,PQ6*%
X49050000Y-160850000D02*
X48149999Y-159949999D01*
X27950001Y-159949999D02*
X27050000Y-160850000D01*
X115950001Y-159949999D02*
X136149999Y-159949999D01*
X158149999Y-159949999D02*
X159050000Y-160850000D01*
X71050000Y-160850000D02*
X71950001Y-159949999D01*
X49050000Y-160850000D02*
X49950001Y-159949999D01*
X175550001Y-159949999D02*
X159950001Y-159949999D01*
X180149999Y-159949999D02*
X175550001Y-159949999D01*
X114149999Y-159949999D02*
X115050000Y-160850000D01*
X70149999Y-159949999D02*
X71050000Y-160850000D01*
X92149999Y-159949999D02*
X93050000Y-160850000D01*
X137050000Y-160850000D02*
X137950001Y-159949999D01*
X137950001Y-159949999D02*
X158149999Y-159949999D01*
X159950001Y-159949999D02*
X159050000Y-160850000D01*
X115050000Y-160850000D02*
X115950001Y-159949999D01*
X93050000Y-160850000D02*
X93950001Y-159949999D01*
X93950001Y-159949999D02*
X114149999Y-159949999D01*
X48149999Y-159949999D02*
X27950001Y-159949999D01*
X71950001Y-159949999D02*
X92149999Y-159949999D01*
X181050000Y-160850000D02*
X180149999Y-159949999D01*
X49950001Y-159949999D02*
X70149999Y-159949999D01*
X136149999Y-159949999D02*
X137050000Y-160850000D01*
%TO.N,PQ7*%
X115050000Y-184550000D02*
X115950001Y-183649999D01*
X92149999Y-183649999D02*
X93050000Y-184550000D01*
X114144999Y-183644999D02*
X115050000Y-184550000D01*
X159950001Y-183649999D02*
X175770001Y-183649999D01*
X48149999Y-183649999D02*
X49050000Y-184550000D01*
X175770001Y-183649999D02*
X180149999Y-183649999D01*
X49950001Y-183649999D02*
X70149999Y-183649999D01*
X71950001Y-183649999D02*
X92149999Y-183649999D01*
X93955001Y-183644999D02*
X114144999Y-183644999D01*
X158149999Y-183649999D02*
X159050000Y-184550000D01*
X49050000Y-184550000D02*
X49950001Y-183649999D01*
X27050000Y-184550000D02*
X27950001Y-183649999D01*
X136149999Y-183649999D02*
X137050000Y-184550000D01*
X137950001Y-183649999D02*
X158149999Y-183649999D01*
X159050000Y-184550000D02*
X159950001Y-183649999D01*
X93050000Y-184550000D02*
X93955001Y-183644999D01*
X27950001Y-183649999D02*
X31190001Y-183649999D01*
X115950001Y-183649999D02*
X136149999Y-183649999D01*
X137050000Y-184550000D02*
X137950001Y-183649999D01*
X70149999Y-183649999D02*
X71050000Y-184550000D01*
X180149999Y-183649999D02*
X181050000Y-184550000D01*
X31190001Y-183649999D02*
X48149999Y-183649999D01*
X71050000Y-184550000D02*
X71950001Y-183649999D01*
%TO.N,PQ8*%
X49950001Y-207349999D02*
X70149999Y-207349999D01*
X115950001Y-207349999D02*
X136149999Y-207349999D01*
X92149999Y-207349999D02*
X93050000Y-208250000D01*
X27050000Y-208250000D02*
X28000193Y-207299807D01*
X49050000Y-208250000D02*
X49950001Y-207349999D01*
X137050000Y-208250000D02*
X137950001Y-207349999D01*
X49050000Y-208250000D02*
X48150000Y-208250000D01*
X115050000Y-208250000D02*
X115950001Y-207349999D01*
X47226874Y-207326874D02*
X31339973Y-207326874D01*
X136149999Y-207349999D02*
X137050000Y-208250000D01*
X169719999Y-207349999D02*
X180149999Y-207349999D01*
X180149999Y-207349999D02*
X181050000Y-208250000D01*
X159050000Y-208250000D02*
X159950001Y-207349999D01*
X158149999Y-207349999D02*
X159050000Y-208250000D01*
X137950001Y-207349999D02*
X158149999Y-207349999D01*
X115050000Y-208250000D02*
X114149999Y-207349999D01*
X48150000Y-208250000D02*
X47226874Y-207326874D01*
X114149999Y-207349999D02*
X93950001Y-207349999D01*
X28000193Y-207299807D02*
X31312906Y-207299807D01*
X70149999Y-207349999D02*
X71050000Y-208250000D01*
X71050000Y-208250000D02*
X71950001Y-207349999D01*
X31312906Y-207299807D02*
X31339973Y-207326874D01*
X93950001Y-207349999D02*
X93050000Y-208250000D01*
X159950001Y-207349999D02*
X169719999Y-207349999D01*
X71950001Y-207349999D02*
X92149999Y-207349999D01*
%TO.N,HallOut1*%
X28950000Y-113450000D02*
X32745800Y-113450000D01*
X28950000Y-89750000D02*
X32820200Y-89750000D01*
X28950000Y-66050000D02*
X32789400Y-66050000D01*
X32800200Y-160850000D02*
X32842000Y-160891800D01*
X32778600Y-208250000D02*
X32842000Y-208186600D01*
X28950000Y-42350000D02*
X32842000Y-42350000D01*
X32820200Y-89750000D02*
X32842000Y-89771800D01*
X32745800Y-113450000D02*
X32842000Y-113546200D01*
X28950000Y-208250000D02*
X32778600Y-208250000D01*
X28950000Y-184550000D02*
X32776600Y-184550000D01*
X32776600Y-184550000D02*
X32842000Y-184615400D01*
X28950000Y-137150000D02*
X32834800Y-137150000D01*
X32789400Y-66050000D02*
X32842000Y-65997400D01*
X32834800Y-137150000D02*
X32842000Y-137142800D01*
X28950000Y-160850000D02*
X32800200Y-160850000D01*
%TO.N,HallOut2*%
X54664200Y-89750000D02*
X54686000Y-89771800D01*
X54669600Y-160850000D02*
X54686000Y-160866400D01*
X54653400Y-137150000D02*
X54686000Y-137117400D01*
X50950000Y-184550000D02*
X54675200Y-184550000D01*
X50950000Y-160850000D02*
X54669600Y-160850000D01*
X50950000Y-208250000D02*
X54673200Y-208250000D01*
X54666000Y-113450000D02*
X54686000Y-113470000D01*
X54673200Y-208250000D02*
X54686000Y-208262800D01*
X50950000Y-42350000D02*
X54686000Y-42350000D01*
X54686000Y-66048200D02*
X50951800Y-66048200D01*
X50950000Y-89750000D02*
X54664200Y-89750000D01*
X50950000Y-137150000D02*
X54653400Y-137150000D01*
X54675200Y-184550000D02*
X54686000Y-184539200D01*
X50950000Y-113450000D02*
X54666000Y-113450000D01*
%TO.N,HallOut3*%
X76653400Y-89750000D02*
X76691800Y-89711600D01*
X72950000Y-137150000D02*
X76649800Y-137150000D01*
X76623800Y-113450000D02*
X76675800Y-113502000D01*
X72950000Y-42350000D02*
X76675800Y-42350000D01*
X72950000Y-208250000D02*
X76631000Y-208250000D01*
X76671600Y-184550000D02*
X76675800Y-184545800D01*
X72950000Y-113450000D02*
X76623800Y-113450000D01*
X72950000Y-184550000D02*
X76671600Y-184550000D01*
X76631000Y-208250000D02*
X76675800Y-208294800D01*
X76675800Y-66080200D02*
X72980200Y-66080200D01*
X76675800Y-160822200D02*
X72977800Y-160822200D01*
X72950000Y-89750000D02*
X76653400Y-89750000D01*
X76649800Y-137150000D02*
X76675800Y-137124000D01*
%TO.N,HallOut4*%
X98542200Y-89750000D02*
X98545200Y-89753000D01*
X94950000Y-113450000D02*
X98518600Y-113450000D01*
X98518600Y-113450000D02*
X98545200Y-113476600D01*
X94950000Y-89750000D02*
X98542200Y-89750000D01*
X98495000Y-137150000D02*
X98545200Y-137200200D01*
X98522200Y-160850000D02*
X98545200Y-160873000D01*
X94950000Y-160850000D02*
X98522200Y-160850000D01*
X98490200Y-184550000D02*
X98545200Y-184495000D01*
X98545200Y-66004000D02*
X94996000Y-66004000D01*
X98513800Y-208250000D02*
X98545200Y-208218600D01*
X94950000Y-42350000D02*
X98545200Y-42350000D01*
X94950000Y-137150000D02*
X98495000Y-137150000D01*
X94950000Y-184550000D02*
X98490200Y-184550000D01*
X94950000Y-208250000D02*
X98513800Y-208250000D01*
%TO.N,HallOut5*%
X120736800Y-184550000D02*
X120776800Y-184590000D01*
X116950000Y-42350000D02*
X120776800Y-42350000D01*
X120767800Y-160850000D02*
X120776800Y-160841000D01*
X120758600Y-137150000D02*
X120776800Y-137168200D01*
X116950000Y-160850000D02*
X120767800Y-160850000D01*
X116950000Y-113450000D02*
X120680600Y-113450000D01*
X116950000Y-89750000D02*
X120773200Y-89750000D01*
X120764000Y-208250000D02*
X120776800Y-208262800D01*
X116950000Y-137150000D02*
X120758600Y-137150000D01*
X120776800Y-66073600D02*
X116973600Y-66073600D01*
X120680600Y-113450000D02*
X120776800Y-113546200D01*
X116950000Y-184550000D02*
X120736800Y-184550000D01*
X120773200Y-89750000D02*
X120776800Y-89746400D01*
X116950000Y-208250000D02*
X120764000Y-208250000D01*
%TO.N,HallOut6*%
X143444400Y-184550000D02*
X143459000Y-184564600D01*
X143451800Y-137150000D02*
X143459000Y-137142800D01*
X138950000Y-42350000D02*
X143459000Y-42350000D01*
X143388200Y-113450000D02*
X143459000Y-113520800D01*
X143459000Y-160891800D02*
X138991800Y-160891800D01*
X143459000Y-66073600D02*
X138973600Y-66073600D01*
X143411800Y-89750000D02*
X143459000Y-89797200D01*
X143446200Y-208250000D02*
X143459000Y-208262800D01*
X138950000Y-89750000D02*
X143411800Y-89750000D01*
X138950000Y-113450000D02*
X143388200Y-113450000D01*
X138950000Y-184550000D02*
X143444400Y-184550000D01*
X138950000Y-137150000D02*
X143451800Y-137150000D01*
X138950000Y-208250000D02*
X143446200Y-208250000D01*
%TO.N,HallOut7*%
X160950000Y-184550000D02*
X165110600Y-184550000D01*
X160950000Y-137150000D02*
X165056200Y-137150000D01*
X165056200Y-137150000D02*
X165125200Y-137219000D01*
X165108800Y-160850000D02*
X165125200Y-160866400D01*
X165110600Y-184550000D02*
X165125200Y-184564600D01*
X160950000Y-208250000D02*
X165087200Y-208250000D01*
X165087200Y-208250000D02*
X165125200Y-208212000D01*
X160950000Y-113450000D02*
X165079800Y-113450000D01*
X160950000Y-42350000D02*
X165125200Y-42350000D01*
X160950000Y-89750000D02*
X165078000Y-89750000D01*
X165078000Y-89750000D02*
X165125200Y-89797200D01*
X165125200Y-66149800D02*
X161049800Y-66149800D01*
X160950000Y-160850000D02*
X165108800Y-160850000D01*
X165079800Y-113450000D02*
X165125200Y-113495400D01*
%TO.N,HallOut8*%
X182950000Y-113450000D02*
X186619000Y-113450000D01*
X186628200Y-184550000D02*
X186639000Y-184539200D01*
X182950000Y-160850000D02*
X186622600Y-160850000D01*
X182950000Y-137150000D02*
X186595400Y-137150000D01*
X186619000Y-113450000D02*
X186639000Y-113470000D01*
X186626400Y-208250000D02*
X186639000Y-208237400D01*
X182950000Y-208250000D02*
X186626400Y-208250000D01*
X182950000Y-89750000D02*
X186541000Y-89750000D01*
X186622600Y-160850000D02*
X186639000Y-160866400D01*
X186595400Y-137150000D02*
X186639000Y-137193600D01*
X186639000Y-66073600D02*
X182973600Y-66073600D01*
X182950000Y-184550000D02*
X186628200Y-184550000D01*
X186541000Y-89750000D02*
X186639000Y-89848000D01*
X182950000Y-42350000D02*
X186639000Y-42350000D01*
%TO.N,AGND*%
X116000000Y-40350000D02*
X138000000Y-40350000D01*
X116000000Y-182550000D02*
X138000000Y-182550000D01*
X116000000Y-111450000D02*
X138000000Y-111450000D01*
X116000000Y-87750000D02*
X138000000Y-87750000D01*
X116000000Y-64050000D02*
X138000000Y-64050000D01*
X138000000Y-182550000D02*
X160000000Y-182550000D01*
X175910000Y-135150000D02*
X182000000Y-135150000D01*
X29640000Y-135150000D02*
X50000000Y-135150000D01*
X28000000Y-135150000D02*
X29640000Y-135150000D01*
X116000000Y-64050000D02*
X94000000Y-64050000D01*
X160000000Y-40350000D02*
X182000000Y-40350000D01*
X138000000Y-158850000D02*
X160000000Y-158850000D01*
X72000000Y-135150000D02*
X94000000Y-135150000D01*
X138000000Y-206250000D02*
X116000000Y-206250000D01*
X94000000Y-64050000D02*
X72000000Y-64050000D01*
X94000000Y-206250000D02*
X72000000Y-206250000D01*
X138000000Y-111450000D02*
X160000000Y-111450000D01*
X28000000Y-40350000D02*
X50000000Y-40350000D01*
X72000000Y-158850000D02*
X94000000Y-158850000D01*
X94000000Y-135150000D02*
X116000000Y-135150000D01*
X50000000Y-64050000D02*
X28000000Y-64050000D01*
X94000000Y-158850000D02*
X116000000Y-158850000D01*
X94000000Y-87750000D02*
X116000000Y-87750000D01*
X72000000Y-87750000D02*
X94000000Y-87750000D01*
X72000000Y-111450000D02*
X94000000Y-111450000D01*
X116000000Y-158850000D02*
X138000000Y-158850000D01*
X94000000Y-40350000D02*
X104840000Y-40350000D01*
X160000000Y-111450000D02*
X182000000Y-111450000D01*
X28000000Y-158850000D02*
X50000000Y-158850000D01*
X28000000Y-111450000D02*
X50000000Y-111450000D01*
X116000000Y-40350000D02*
X104840000Y-40350000D01*
X50000000Y-182550000D02*
X72000000Y-182550000D01*
X94000000Y-111450000D02*
X116000000Y-111450000D01*
X50000000Y-87750000D02*
X72000000Y-87750000D01*
X28000000Y-182550000D02*
X50000000Y-182550000D01*
X160000000Y-182550000D02*
X182000000Y-182550000D01*
X116000000Y-135150000D02*
X138000000Y-135150000D01*
X28000000Y-87750000D02*
X50000000Y-87750000D01*
X50000000Y-206250000D02*
X28000000Y-206250000D01*
X160000000Y-64050000D02*
X182000000Y-64050000D01*
X160000000Y-158850000D02*
X182000000Y-158850000D01*
X160000000Y-64050000D02*
X138000000Y-64050000D01*
X138000000Y-87750000D02*
X160000000Y-87750000D01*
X160000000Y-135150000D02*
X175910000Y-135150000D01*
X94000000Y-206250000D02*
X116000000Y-206250000D01*
X116000000Y-182550000D02*
X104910000Y-182550000D01*
X160000000Y-87750000D02*
X182000000Y-87750000D01*
X160000000Y-206250000D02*
X182000000Y-206250000D01*
X138000000Y-40350000D02*
X160000000Y-40350000D01*
X160000000Y-206250000D02*
X138000000Y-206250000D01*
X138000000Y-135150000D02*
X160000000Y-135150000D01*
X94000000Y-182550000D02*
X104910000Y-182550000D01*
X50000000Y-111450000D02*
X72000000Y-111450000D01*
X72000000Y-64050000D02*
X50000000Y-64050000D01*
X50000000Y-135150000D02*
X72000000Y-135150000D01*
X72000000Y-40350000D02*
X94000000Y-40350000D01*
X72000000Y-182550000D02*
X94000000Y-182550000D01*
X50000000Y-40350000D02*
X72000000Y-40350000D01*
X72000000Y-206250000D02*
X50000000Y-206250000D01*
X50000000Y-158850000D02*
X72000000Y-158850000D01*
%TO.N,Net-(D17-Pad4)*%
X47526201Y-94896401D02*
X33626201Y-94896401D01*
X33626201Y-94896401D02*
X30426201Y-91696401D01*
%TO.N,Net-(D18-Pad4)*%
X69526201Y-94896401D02*
X55626201Y-94896401D01*
X55626201Y-94896401D02*
X52426201Y-91696401D01*
%TO.N,Net-(D25-Pad2)*%
X30426201Y-115396401D02*
X44326201Y-115396401D01*
X44326201Y-115396401D02*
X47526201Y-118596401D01*
%TO.N,Net-(D26-Pad2)*%
X52426201Y-115396401D02*
X66326201Y-115396401D01*
X66326201Y-115396401D02*
X69526201Y-118596401D01*
%TO.N,Net-(D27-Pad2)*%
X74426201Y-115396401D02*
X88326201Y-115396401D01*
X88326201Y-115396401D02*
X91526201Y-118596401D01*
%TO.N,Net-(D33-Pad4)*%
X47526201Y-142296401D02*
X33626201Y-142296401D01*
X33626201Y-142296401D02*
X30426201Y-139096401D01*
%TO.N,Net-(D34-Pad4)*%
X69526201Y-142296401D02*
X55626201Y-142296401D01*
X55626201Y-142296401D02*
X52426201Y-139096401D01*
%TO.N,Net-(D35-Pad4)*%
X91526201Y-142296401D02*
X77626201Y-142296401D01*
X77626201Y-142296401D02*
X74426201Y-139096401D01*
%TO.N,Net-(D36-Pad4)*%
X113526201Y-142296401D02*
X99626201Y-142296401D01*
X99626201Y-142296401D02*
X96426201Y-139096401D01*
%TO.N,Net-(D41-Pad2)*%
X33626201Y-165996401D02*
X30426201Y-162796401D01*
X47526201Y-165996401D02*
X33626201Y-165996401D01*
%TO.N,Net-(D42-Pad2)*%
X55626201Y-165996401D02*
X52426201Y-162796401D01*
X69526201Y-165996401D02*
X55626201Y-165996401D01*
%TO.N,Net-(D43-Pad2)*%
X77626201Y-165996401D02*
X74426201Y-162796401D01*
X91526201Y-165996401D02*
X77626201Y-165996401D01*
%TO.N,Net-(D44-Pad2)*%
X113526201Y-165996401D02*
X99626201Y-165996401D01*
X99626201Y-165996401D02*
X96426201Y-162796401D01*
%TO.N,Net-(D45-Pad2)*%
X121626201Y-165996401D02*
X118426201Y-162796401D01*
X135526201Y-165996401D02*
X121626201Y-165996401D01*
%TO.N,Net-(D49-Pad4)*%
X30426201Y-186496401D02*
X44326201Y-186496401D01*
X44326201Y-186496401D02*
X47526201Y-189696401D01*
%TO.N,Net-(D50-Pad4)*%
X52426201Y-186496401D02*
X66326201Y-186496401D01*
X66326201Y-186496401D02*
X69526201Y-189696401D01*
%TO.N,Net-(D51-Pad4)*%
X88326201Y-186496401D02*
X91526201Y-189696401D01*
X74426201Y-186496401D02*
X88326201Y-186496401D01*
%TO.N,Net-(D52-Pad4)*%
X110326201Y-186496401D02*
X113526201Y-189696401D01*
X96426201Y-186496401D02*
X110326201Y-186496401D01*
%TO.N,Net-(D53-Pad4)*%
X132326201Y-186496401D02*
X135526201Y-189696401D01*
X118426201Y-186496401D02*
X132326201Y-186496401D01*
%TO.N,Net-(D54-Pad4)*%
X154326201Y-186496401D02*
X157526201Y-189696401D01*
X140426201Y-186496401D02*
X154326201Y-186496401D01*
%TO.N,Net-(D57-Pad2)*%
X30426201Y-210196401D02*
X44326201Y-210196401D01*
X44326201Y-210196401D02*
X47526201Y-213396401D01*
%TO.N,Net-(D58-Pad2)*%
X66326201Y-210196401D02*
X69526201Y-213396401D01*
X52426201Y-210196401D02*
X66326201Y-210196401D01*
%TO.N,Net-(D59-Pad2)*%
X74426201Y-210196401D02*
X88326201Y-210196401D01*
X88326201Y-210196401D02*
X91526201Y-213396401D01*
%TO.N,Net-(D60-Pad2)*%
X113526201Y-213396401D02*
X99626201Y-213396401D01*
X99626201Y-213396401D02*
X96426201Y-210196401D01*
%TO.N,Net-(D61-Pad2)*%
X135526201Y-213396401D02*
X121626201Y-213396401D01*
X121626201Y-213396401D02*
X118426201Y-210196401D01*
%TO.N,Net-(D62-Pad2)*%
X157526201Y-213396401D02*
X143626201Y-213396401D01*
X143626201Y-213396401D02*
X140426201Y-210196401D01*
%TO.N,Net-(D63-Pad2)*%
X162426201Y-210196401D02*
X176326201Y-210196401D01*
X176326201Y-210196401D02*
X179526201Y-213396401D01*
%TD*%
M02*
