%TF.GenerationSoftware,KiCad,Pcbnew,(6.0.7-1)-1*%
%TF.CreationDate,2022-12-02T15:51:38+01:00*%
%TF.ProjectId,8x8,3878382e-6b69-4636-9164-5f7063625858,rev?*%
%TF.SameCoordinates,Original*%
%TF.FileFunction,Copper,L2,Bot*%
%TF.FilePolarity,Positive*%
%FSLAX46Y46*%
G04 Gerber Fmt 4.6, Leading zero omitted, Abs format (unit mm)*
G04 Created by KiCad (PCBNEW (6.0.7-1)-1) date 2022-12-02 15:51:38*
%MOMM*%
%LPD*%
G01*
G04 APERTURE LIST*
%TA.AperFunction,SMDPad,CuDef*%
%ADD10R,1.020000X2.600000*%
%TD*%
%TA.AperFunction,SMDPad,CuDef*%
%ADD11R,1.020000X3.200000*%
%TD*%
%TA.AperFunction,SMDPad,CuDef*%
%ADD12R,2.600000X1.020000*%
%TD*%
%TA.AperFunction,ViaPad*%
%ADD13C,0.800000*%
%TD*%
%TA.AperFunction,Conductor*%
%ADD14C,0.500000*%
%TD*%
G04 APERTURE END LIST*
D10*
%TO.P,J7,1,Pin_1*%
%TO.N,HallOut4*%
X86820000Y-208120000D03*
%TO.P,J7,2,Pin_2*%
%TO.N,HallOut3*%
X84280000Y-208120000D03*
%TD*%
D11*
%TO.P,J5,1,Pin_1*%
%TO.N,HallOut7*%
X172310000Y-35910000D03*
%TO.P,J5,2,Pin_2*%
%TO.N,HallOut8*%
X174850000Y-35910000D03*
%TD*%
D10*
%TO.P,J8,1,Pin_1*%
%TO.N,HallOut6*%
X130820000Y-208120000D03*
%TO.P,J8,2,Pin_2*%
%TO.N,HallOut5*%
X128280000Y-208120000D03*
%TD*%
D12*
%TO.P,J19,1,Pin_1*%
%TO.N,GND*%
X182030000Y-43315000D03*
%TO.P,J19,2,Pin_2*%
%TO.N,LedIn*%
X182030000Y-45855000D03*
%TO.P,J19,3,Pin_3*%
%TO.N,P*%
X182030000Y-48395000D03*
%TD*%
%TO.P,J23,1,Pin_1*%
%TO.N,unconnected-(J23-Pad1)*%
X182020000Y-124760000D03*
%TO.P,J23,2,Pin_2*%
%TO.N,AGND*%
X182020000Y-127300000D03*
%TD*%
%TO.P,J15,1,Pin_1*%
%TO.N,PQ3*%
X182020000Y-99640000D03*
%TO.P,J15,2,Pin_2*%
%TO.N,PQ4*%
X182020000Y-102180000D03*
%TD*%
D11*
%TO.P,J4,1,Pin_1*%
%TO.N,HallOut5*%
X128310000Y-35910000D03*
%TO.P,J4,2,Pin_2*%
%TO.N,HallOut6*%
X130850000Y-35910000D03*
%TD*%
%TO.P,J21,1,Pin_1*%
%TO.N,unconnected-(J21-Pad1)*%
X20110000Y-35910000D03*
%TO.P,J21,2,Pin_2*%
%TO.N,LedIn*%
X22650000Y-35910000D03*
%TD*%
D12*
%TO.P,J10,1,Pin_1*%
%TO.N,PQ2*%
X27980000Y-54720000D03*
%TO.P,J10,2,Pin_2*%
%TO.N,PQ1*%
X27980000Y-52180000D03*
%TD*%
D11*
%TO.P,J2,1,Pin_1*%
%TO.N,HallOut1*%
X40310000Y-35910000D03*
%TO.P,J2,2,Pin_2*%
%TO.N,HallOut2*%
X42850000Y-35910000D03*
%TD*%
D12*
%TO.P,J16,1,Pin_1*%
%TO.N,PQ5*%
X182020000Y-147040000D03*
%TO.P,J16,2,Pin_2*%
%TO.N,PQ6*%
X182020000Y-149580000D03*
%TD*%
%TO.P,J11,1,Pin_1*%
%TO.N,PQ4*%
X27980000Y-102120000D03*
%TO.P,J11,2,Pin_2*%
%TO.N,PQ3*%
X27980000Y-99580000D03*
%TD*%
D10*
%TO.P,J6,1,Pin_1*%
%TO.N,HallOut2*%
X42820000Y-208120000D03*
%TO.P,J6,2,Pin_2*%
%TO.N,HallOut1*%
X40280000Y-208120000D03*
%TD*%
D12*
%TO.P,J22,1,Pin_1*%
%TO.N,AGND*%
X27980000Y-127240000D03*
%TO.P,J22,2,Pin_2*%
%TO.N,unconnected-(J22-Pad2)*%
X27980000Y-124700000D03*
%TD*%
%TO.P,J17,1,Pin_1*%
%TO.N,PQ7*%
X182020000Y-194440000D03*
%TO.P,J17,2,Pin_2*%
%TO.N,PQ8*%
X182020000Y-196980000D03*
%TD*%
%TO.P,J18,1,Pin_1*%
%TO.N,P*%
X27970000Y-48315000D03*
%TO.P,J18,2,Pin_2*%
%TO.N,LedIn*%
X27970000Y-45775000D03*
%TO.P,J18,3,Pin_3*%
%TO.N,GND*%
X27970000Y-43235000D03*
%TD*%
D11*
%TO.P,J3,1,Pin_1*%
%TO.N,HallOut3*%
X84310000Y-35910000D03*
%TO.P,J3,2,Pin_2*%
%TO.N,HallOut4*%
X86850000Y-35910000D03*
%TD*%
D12*
%TO.P,J12,1,Pin_1*%
%TO.N,PQ6*%
X27980000Y-149520000D03*
%TO.P,J12,2,Pin_2*%
%TO.N,PQ5*%
X27980000Y-146980000D03*
%TD*%
D10*
%TO.P,J9,1,Pin_1*%
%TO.N,HallOut8*%
X174820000Y-208120000D03*
%TO.P,J9,2,Pin_2*%
%TO.N,HallOut7*%
X172280000Y-208120000D03*
%TD*%
D12*
%TO.P,J14,1,Pin_1*%
%TO.N,PQ1*%
X182020000Y-52240000D03*
%TO.P,J14,2,Pin_2*%
%TO.N,PQ2*%
X182020000Y-54780000D03*
%TD*%
%TO.P,J13,1,Pin_1*%
%TO.N,PQ8*%
X27980000Y-196920000D03*
%TO.P,J13,2,Pin_2*%
%TO.N,PQ7*%
X27980000Y-194380000D03*
%TD*%
D10*
%TO.P,J20,1,Pin_1*%
%TO.N,LedOut*%
X22620000Y-208110000D03*
%TO.P,J20,2,Pin_2*%
%TO.N,unconnected-(J20-Pad2)*%
X20080000Y-208110000D03*
%TD*%
D13*
%TO.N,P*%
X115920000Y-132450000D03*
X156576200Y-114446400D03*
X93920000Y-85050000D03*
X68650000Y-108760000D03*
X134650000Y-203560000D03*
X178576200Y-114446400D03*
X93920000Y-179850000D03*
X90576200Y-67046400D03*
X28950000Y-94890000D03*
X139476200Y-95846402D03*
X112576200Y-209246400D03*
X139283598Y-48446402D03*
X181920000Y-132450000D03*
X49920000Y-85050000D03*
X112576200Y-161846400D03*
X117476200Y-143246402D03*
X109380000Y-114446400D03*
X156576200Y-161846400D03*
X90650000Y-61360000D03*
X137920000Y-85050000D03*
X31376201Y-143246401D03*
X95476200Y-190646402D03*
X134576200Y-114446400D03*
X115920000Y-179850000D03*
X137920000Y-179850000D03*
X72030000Y-37700000D03*
X159920000Y-85050000D03*
X137920000Y-132450000D03*
X183476200Y-95846402D03*
X178650000Y-61360000D03*
X94030000Y-37700000D03*
X93920000Y-132450000D03*
X112650000Y-61360000D03*
X156650000Y-203560000D03*
X109373600Y-161816400D03*
X31560000Y-37700000D03*
X68576200Y-161846400D03*
X73283598Y-48446402D03*
X51283598Y-48446402D03*
X117476200Y-95846402D03*
X68650000Y-61360000D03*
X112576200Y-67046400D03*
X139476200Y-143246402D03*
X112650000Y-203560000D03*
X73476200Y-143246402D03*
X46576200Y-114446400D03*
X68576200Y-209246400D03*
X31663598Y-48446402D03*
X46576200Y-161846400D03*
X90650000Y-156160000D03*
X178650000Y-203560000D03*
X46650000Y-203560000D03*
X95476200Y-143246402D03*
X90576200Y-209246400D03*
X51476200Y-190646402D03*
X161476200Y-95846402D03*
X134650000Y-108760000D03*
X116030000Y-37700000D03*
X159920000Y-179850000D03*
X161283598Y-48446402D03*
X49920000Y-179850000D03*
X156650000Y-156160000D03*
X134576200Y-209246400D03*
X49920000Y-132450000D03*
X181920000Y-85050000D03*
X31520000Y-132410000D03*
X68576200Y-114446400D03*
X177605000Y-48395000D03*
X178576200Y-209246400D03*
X50030000Y-37700000D03*
X139476200Y-190646402D03*
X112650000Y-108760000D03*
X73476200Y-190646402D03*
X160030000Y-37700000D03*
X27860000Y-85090000D03*
X109373600Y-95846400D03*
X156650000Y-108760000D03*
X73476200Y-95846402D03*
X183476200Y-190646402D03*
X156576200Y-67046400D03*
X46650000Y-108760000D03*
X159920000Y-132450000D03*
X109373600Y-209246400D03*
X46576200Y-67046400D03*
X71920000Y-85050000D03*
X90576200Y-161846400D03*
X115920000Y-85050000D03*
X109373600Y-66953600D03*
X184420000Y-39800000D03*
X95283598Y-48446402D03*
X28000000Y-179850000D03*
X46650000Y-156160000D03*
X117283598Y-48446402D03*
X156650000Y-61360000D03*
X183476200Y-143246402D03*
X90650000Y-108760000D03*
X46576200Y-209246400D03*
X178650000Y-156160000D03*
X28920000Y-189610000D03*
X156576200Y-209246400D03*
X134650000Y-61360000D03*
X109263598Y-48446402D03*
X181920000Y-179850000D03*
X161476200Y-143246402D03*
X46650000Y-61360000D03*
X90576200Y-114446400D03*
X109373600Y-143313600D03*
X71920000Y-132450000D03*
X68650000Y-156160000D03*
X51476200Y-95846402D03*
X90650000Y-203560000D03*
X134576200Y-161846400D03*
X51476200Y-143246402D03*
X68576200Y-67046400D03*
X112576200Y-114446400D03*
X138030000Y-37700000D03*
X68650000Y-203560000D03*
X184440000Y-46060000D03*
X161476200Y-190646402D03*
X178576200Y-161846400D03*
X112650000Y-156160000D03*
X178650000Y-108760000D03*
X95476200Y-95846402D03*
X178576200Y-67046400D03*
X134576200Y-67046400D03*
X134650000Y-156160000D03*
X117476200Y-190646402D03*
X109373600Y-190626400D03*
X71920000Y-179850000D03*
%TO.N,LedIn*%
X25460000Y-46130000D03*
%TO.N,GND*%
X71930000Y-203570000D03*
X90640000Y-179910000D03*
X90479801Y-138050001D03*
X71930000Y-156170000D03*
X90640000Y-132510000D03*
X28870000Y-71130000D03*
X134640000Y-85110000D03*
X134479801Y-138050001D03*
X90640000Y-85110000D03*
X51476200Y-214346402D03*
X115930000Y-108770000D03*
X68479801Y-138050001D03*
X183476200Y-119546402D03*
X95476200Y-119546402D03*
X156540000Y-37700000D03*
X100976402Y-214346402D03*
X137900000Y-61420000D03*
X46540000Y-37700000D03*
X73476200Y-72146402D03*
X112640000Y-179910000D03*
X112640000Y-85110000D03*
X161476200Y-214346402D03*
X156640000Y-132510000D03*
X178640000Y-132510000D03*
X25526201Y-43073799D03*
X139476200Y-214346402D03*
X101450000Y-138120000D03*
X117476200Y-166946402D03*
X73476200Y-214346402D03*
X95476200Y-72146402D03*
X134479801Y-43250001D03*
X112540000Y-37700000D03*
X181900000Y-61420000D03*
X134640000Y-132510000D03*
X101463600Y-43346400D03*
X95476200Y-214346402D03*
X68640000Y-85110000D03*
X101486400Y-90746400D03*
X178479801Y-138050001D03*
X73476200Y-166946402D03*
X46479801Y-90650001D03*
X49930000Y-156170000D03*
X139476200Y-119546402D03*
X137930000Y-203570000D03*
X49930000Y-108770000D03*
X182731301Y-71641301D03*
X90540000Y-37700000D03*
X68479801Y-43250001D03*
X178479801Y-43250001D03*
X183476200Y-166946402D03*
X95476200Y-166946402D03*
X101483598Y-72146402D03*
X134479801Y-185450001D03*
X49900000Y-61420000D03*
X159930000Y-108770000D03*
X112640000Y-132510000D03*
X139476200Y-72146402D03*
X51476200Y-166946402D03*
X112479801Y-90650001D03*
X31500000Y-108720000D03*
X137930000Y-156170000D03*
X181930000Y-156170000D03*
X49930000Y-203570000D03*
X137930000Y-108770000D03*
X139476200Y-166946402D03*
X159930000Y-156170000D03*
X156479801Y-138050001D03*
X156479801Y-185450001D03*
X68640000Y-179910000D03*
X184820000Y-211850000D03*
X112479801Y-138050001D03*
X93930000Y-156170000D03*
X159900000Y-61420000D03*
X101463600Y-185546400D03*
X90479801Y-43250001D03*
X156640000Y-85110000D03*
X178479801Y-90650001D03*
X30970000Y-156130000D03*
X178640000Y-85110000D03*
X93930000Y-108770000D03*
X159930000Y-203570000D03*
X178540000Y-37700000D03*
X93930000Y-203570000D03*
X51476200Y-72146402D03*
X115930000Y-156170000D03*
X90479801Y-90650001D03*
X71900000Y-61420000D03*
X73476200Y-119546402D03*
X46479801Y-43250001D03*
X101496402Y-119546402D03*
X117476200Y-214346402D03*
X46640000Y-85110000D03*
X46640000Y-179910000D03*
X68479801Y-185450001D03*
X71930000Y-108770000D03*
X112479801Y-43250001D03*
X178479801Y-185450001D03*
X27860000Y-61390000D03*
X46479801Y-138050001D03*
X117476200Y-72146402D03*
X156640000Y-179910000D03*
X156479801Y-43250001D03*
X90479801Y-185450001D03*
X178640000Y-179910000D03*
X31613599Y-165996401D03*
X115930000Y-203570000D03*
X68479801Y-90650001D03*
X27890000Y-203540000D03*
X161476200Y-119546402D03*
X112479801Y-185450001D03*
X68540000Y-37700000D03*
X46640000Y-132510000D03*
X31593598Y-119546402D03*
X115900000Y-61420000D03*
X161476200Y-72146402D03*
X93900000Y-61420000D03*
X184820000Y-203610000D03*
X156479801Y-90650001D03*
X68640000Y-132510000D03*
X101463600Y-166966400D03*
X32256402Y-214346402D03*
X181930000Y-108770000D03*
X134640000Y-179910000D03*
X117476200Y-119546402D03*
X161476200Y-166946402D03*
X46479801Y-185450001D03*
X134479801Y-90650001D03*
X134540000Y-37700000D03*
X51476200Y-119546402D03*
%TO.N,LedOut*%
X25620000Y-212000000D03*
%TO.N,PQ1*%
X27950001Y-41449999D03*
X170050001Y-41449999D03*
%TO.N,PQ2*%
X174589999Y-65149999D03*
X31097399Y-65147399D03*
%TO.N,PQ3*%
X30829999Y-88849999D03*
X174289999Y-88849999D03*
%TO.N,PQ4*%
X27950001Y-112549999D03*
X175190001Y-112549999D03*
%TO.N,PQ5*%
X27950001Y-136249999D03*
X175390001Y-136249999D03*
%TO.N,PQ6*%
X175550001Y-159949999D03*
X27950001Y-159949999D03*
%TO.N,PQ7*%
X31190001Y-183649999D03*
X175770001Y-183649999D03*
%TO.N,PQ8*%
X169719999Y-207349999D03*
X31339973Y-207326874D03*
%TO.N,HallOut1*%
X32842000Y-65997400D03*
X32842000Y-89771800D03*
X32842000Y-137142800D03*
X32842000Y-160891800D03*
X32842000Y-113546200D03*
X32842000Y-184615400D03*
X32842000Y-208186600D03*
X32842000Y-42350000D03*
%TO.N,HallOut2*%
X54686000Y-113470000D03*
X54686000Y-160866400D03*
X54686000Y-208262800D03*
X54686000Y-89771800D03*
X54686000Y-66048200D03*
X54686000Y-184539200D03*
X54686000Y-137117400D03*
X54686000Y-42350000D03*
%TO.N,HallOut3*%
X76675800Y-66080200D03*
X76675800Y-208294800D03*
X76675800Y-137124000D03*
X76675800Y-160822200D03*
X76691800Y-89711600D03*
X76675800Y-184545800D03*
X76675800Y-113502000D03*
X76675800Y-42350000D03*
%TO.N,HallOut4*%
X98545200Y-66004000D03*
X98545200Y-137200200D03*
X98545200Y-208218600D03*
X98545200Y-113476600D03*
X98545200Y-184495000D03*
X98545200Y-89753000D03*
X98545200Y-160873000D03*
X98545200Y-42350000D03*
%TO.N,HallOut5*%
X120776800Y-89746400D03*
X120776800Y-66073600D03*
X120776800Y-113546200D03*
X120776800Y-42350000D03*
X120776800Y-137168200D03*
X120776800Y-160841000D03*
X120776800Y-184590000D03*
X120776800Y-208262800D03*
%TO.N,HallOut6*%
X143459000Y-160891800D03*
X143459000Y-66073600D03*
X143459000Y-113520800D03*
X143459000Y-208262800D03*
X143459000Y-184564600D03*
X143459000Y-89797200D03*
X143459000Y-137142800D03*
X143459000Y-42350000D03*
%TO.N,HallOut7*%
X165125200Y-66149800D03*
X165125200Y-137219000D03*
X165125200Y-89797200D03*
X165125200Y-184564600D03*
X165125200Y-160866400D03*
X165125200Y-113495400D03*
X165125200Y-42350000D03*
X165125200Y-208212000D03*
%TO.N,HallOut8*%
X186639000Y-137193600D03*
X186639000Y-184539200D03*
X186639000Y-89848000D03*
X186639000Y-66073600D03*
X186639000Y-160866400D03*
X186639000Y-208237400D03*
X186639000Y-113470000D03*
X186639000Y-42350000D03*
%TO.N,AGND*%
X175910000Y-135150000D03*
X104850000Y-135150000D03*
X104850000Y-182550000D03*
X104850000Y-87750000D03*
X104890000Y-158850000D03*
X29640000Y-135150000D03*
X104720000Y-206250000D03*
X104890000Y-64050000D03*
X104870000Y-111450000D03*
X104840000Y-40350000D03*
%TD*%
D14*
%TO.N,P*%
X94030000Y-37700000D02*
X94030000Y-47192804D01*
X31663598Y-48446402D02*
X31663598Y-37803598D01*
X115920000Y-141690202D02*
X117476200Y-143246402D01*
X46650000Y-156160000D02*
X46650000Y-161772600D01*
X134650000Y-203560000D02*
X134650000Y-209172600D01*
X137920000Y-141690202D02*
X139476200Y-143246402D01*
X28000000Y-188690000D02*
X28920000Y-189610000D01*
X178650000Y-108760000D02*
X178650000Y-114372600D01*
X134650000Y-108760000D02*
X134650000Y-114372600D01*
X46650000Y-108760000D02*
X46650000Y-114372600D01*
X116030000Y-37700000D02*
X116030000Y-47192804D01*
X115920000Y-85050000D02*
X115920000Y-94290202D01*
X90650000Y-61360000D02*
X90650000Y-66972600D01*
X184440000Y-39820000D02*
X184420000Y-39800000D01*
X181920000Y-141690202D02*
X183476200Y-143246402D01*
X28000000Y-179850000D02*
X28000000Y-188690000D01*
X49920000Y-141690202D02*
X51476200Y-143246402D01*
X49920000Y-179850000D02*
X49920000Y-189090202D01*
X46650000Y-114372600D02*
X46576200Y-114446400D01*
X134650000Y-156160000D02*
X134650000Y-161772600D01*
X178650000Y-61360000D02*
X178650000Y-66972600D01*
X46650000Y-66972600D02*
X46576200Y-67046400D01*
X49920000Y-85050000D02*
X49920000Y-94290202D01*
X159920000Y-189090202D02*
X161476200Y-190646402D01*
X71920000Y-85050000D02*
X71920000Y-94290202D01*
X115920000Y-179850000D02*
X115920000Y-189090202D01*
X115920000Y-132450000D02*
X115920000Y-141690202D01*
X138030000Y-47192804D02*
X139283598Y-48446402D01*
X50030000Y-37700000D02*
X50030000Y-47192804D01*
X112650000Y-61360000D02*
X112650000Y-66972600D01*
X181920000Y-132450000D02*
X181920000Y-141690202D01*
X50030000Y-47192804D02*
X51283598Y-48446402D01*
X159920000Y-85050000D02*
X159920000Y-94290202D01*
X112650000Y-203560000D02*
X112650000Y-209172600D01*
X109373600Y-209246400D02*
X109373600Y-66953600D01*
X31520000Y-143102602D02*
X31376201Y-143246401D01*
X31663598Y-37803598D02*
X31560000Y-37700000D01*
X178650000Y-203560000D02*
X178650000Y-209172600D01*
X93920000Y-189090202D02*
X95476200Y-190646402D01*
X46650000Y-61360000D02*
X46650000Y-66972600D01*
X137920000Y-189090202D02*
X139476200Y-190646402D01*
X93920000Y-85050000D02*
X93920000Y-94290202D01*
X181920000Y-179850000D02*
X181920000Y-189090202D01*
X181920000Y-85050000D02*
X181920000Y-94290202D01*
X159920000Y-94290202D02*
X161476200Y-95846402D01*
X68650000Y-156160000D02*
X68650000Y-161772600D01*
X134650000Y-61360000D02*
X134650000Y-66972600D01*
X94030000Y-47192804D02*
X95283598Y-48446402D01*
X112650000Y-156160000D02*
X112650000Y-161772600D01*
X71920000Y-132450000D02*
X71920000Y-141690202D01*
X160030000Y-37700000D02*
X160030000Y-47192804D01*
X27860000Y-85090000D02*
X27860000Y-93800000D01*
X49920000Y-189090202D02*
X51476200Y-190646402D01*
X138030000Y-37700000D02*
X138030000Y-47192804D01*
X68650000Y-61360000D02*
X68650000Y-66972600D01*
X137920000Y-85050000D02*
X137920000Y-94290202D01*
X160030000Y-47192804D02*
X161283598Y-48446402D01*
X93920000Y-141690202D02*
X95476200Y-143246402D01*
X156650000Y-156160000D02*
X156650000Y-161772600D01*
X27860000Y-93800000D02*
X28950000Y-94890000D01*
X159920000Y-141690202D02*
X161476200Y-143246402D01*
X109373600Y-48556404D02*
X109373600Y-66953600D01*
X178650000Y-156160000D02*
X178650000Y-161772600D01*
X46650000Y-203560000D02*
X46650000Y-209172600D01*
X49920000Y-94290202D02*
X51476200Y-95846402D01*
X27970000Y-48315000D02*
X31532196Y-48315000D01*
X93920000Y-132450000D02*
X93920000Y-141690202D01*
X71920000Y-179850000D02*
X71920000Y-189090202D01*
X112650000Y-108760000D02*
X112650000Y-114372600D01*
X182030000Y-48395000D02*
X177605000Y-48395000D01*
X68650000Y-108760000D02*
X68650000Y-114372600D01*
X115920000Y-189090202D02*
X117476200Y-190646402D01*
X115920000Y-94290202D02*
X117476200Y-95846402D01*
X90650000Y-156160000D02*
X90650000Y-161772600D01*
X71920000Y-189090202D02*
X73476200Y-190646402D01*
X184440000Y-46060000D02*
X184440000Y-39820000D01*
X71920000Y-141690202D02*
X73476200Y-143246402D01*
X181920000Y-94290202D02*
X183476200Y-95846402D01*
X49920000Y-132450000D02*
X49920000Y-141690202D01*
X31520000Y-132410000D02*
X31520000Y-143102602D01*
X137920000Y-179850000D02*
X137920000Y-189090202D01*
X159920000Y-132450000D02*
X159920000Y-141690202D01*
X68650000Y-203560000D02*
X68650000Y-209172600D01*
X137920000Y-94290202D02*
X139476200Y-95846402D01*
X156650000Y-108760000D02*
X156650000Y-114372600D01*
X181920000Y-189090202D02*
X183476200Y-190646402D01*
X137920000Y-132450000D02*
X137920000Y-141690202D01*
X156650000Y-61360000D02*
X156650000Y-66972600D01*
X109263598Y-48446402D02*
X109373600Y-48556404D01*
X71920000Y-94290202D02*
X73476200Y-95846402D01*
X31532196Y-48315000D02*
X31663598Y-48446402D01*
X72030000Y-37700000D02*
X72030000Y-47192804D01*
X159920000Y-179850000D02*
X159920000Y-189090202D01*
X72030000Y-47192804D02*
X73283598Y-48446402D01*
X90650000Y-203560000D02*
X90650000Y-209172600D01*
X93920000Y-94290202D02*
X95476200Y-95846402D01*
X116030000Y-47192804D02*
X117283598Y-48446402D01*
X178652600Y-209170000D02*
X178576200Y-209246400D01*
X156650000Y-203560000D02*
X156650000Y-209172600D01*
X90650000Y-108760000D02*
X90650000Y-114372600D01*
X93920000Y-179850000D02*
X93920000Y-189090202D01*
%TO.N,LedIn*%
X182030000Y-45855000D02*
X177705000Y-45855000D01*
X30150000Y-36190000D02*
X30150000Y-45420000D01*
X175910000Y-31950000D02*
X34390000Y-31950000D01*
X29795000Y-45775000D02*
X27970000Y-45775000D01*
X177705000Y-45855000D02*
X176870000Y-45020000D01*
X34390000Y-31950000D02*
X30150000Y-36190000D01*
X30150000Y-36190000D02*
X29870000Y-35910000D01*
X29870000Y-35910000D02*
X22650000Y-35910000D01*
X27970000Y-45775000D02*
X25815000Y-45775000D01*
X30150000Y-45420000D02*
X29795000Y-45775000D01*
X25815000Y-45775000D02*
X25460000Y-46130000D01*
X176870000Y-32910000D02*
X175910000Y-31950000D01*
X176870000Y-45020000D02*
X176870000Y-32910000D01*
%TO.N,GND*%
X93930000Y-108770000D02*
X95476200Y-110316200D01*
X134640000Y-85110000D02*
X134640000Y-90489802D01*
X49930000Y-203570000D02*
X51476200Y-205116200D01*
X90540000Y-37700000D02*
X90540000Y-43189802D01*
X117476200Y-110316200D02*
X117476200Y-119546402D01*
X30970000Y-156130000D02*
X31613599Y-156773599D01*
X27970000Y-43235000D02*
X25687402Y-43235000D01*
X161476200Y-157716200D02*
X161476200Y-166946402D01*
X161476200Y-110316200D02*
X161476200Y-119546402D01*
X112640000Y-179910000D02*
X112640000Y-185289802D01*
X71900000Y-70570202D02*
X73476200Y-72146402D01*
X115930000Y-156170000D02*
X117476200Y-157716200D01*
X73476200Y-157716200D02*
X73476200Y-166946402D01*
X159930000Y-108770000D02*
X161476200Y-110316200D01*
X156640000Y-85110000D02*
X156640000Y-90489802D01*
X117476200Y-205116200D02*
X117476200Y-214346402D01*
X27860000Y-70120000D02*
X28870000Y-71130000D01*
X31613599Y-156773599D02*
X31613599Y-165996401D01*
X46640000Y-132510000D02*
X46640000Y-137889802D01*
X93900000Y-70570202D02*
X95476200Y-72146402D01*
X51476200Y-157716200D02*
X51476200Y-166946402D01*
X73476200Y-205116200D02*
X73476200Y-214346402D01*
X184820000Y-203610000D02*
X184820000Y-211850000D01*
X182030000Y-43315000D02*
X178544800Y-43315000D01*
X115930000Y-203570000D02*
X117476200Y-205116200D01*
X137930000Y-108770000D02*
X139476200Y-110316200D01*
X134540000Y-37700000D02*
X134540000Y-43189802D01*
X95476200Y-205116200D02*
X95476200Y-214346402D01*
X71930000Y-203570000D02*
X73476200Y-205116200D01*
X134640000Y-179910000D02*
X134640000Y-185289802D01*
X93930000Y-203570000D02*
X95476200Y-205116200D01*
X31500000Y-108720000D02*
X31500000Y-119452804D01*
X25687402Y-43235000D02*
X25526201Y-43073799D01*
X49930000Y-156170000D02*
X51476200Y-157716200D01*
X161476200Y-205116200D02*
X161476200Y-214346402D01*
X137900000Y-70570202D02*
X139476200Y-72146402D01*
X112640000Y-132510000D02*
X112640000Y-137889802D01*
X117476200Y-157716200D02*
X117476200Y-166946402D01*
X46540000Y-43189802D02*
X46479801Y-43250001D01*
X156540000Y-37700000D02*
X156540000Y-43189802D01*
X183476200Y-157716200D02*
X183476200Y-166946402D01*
X90640000Y-179910000D02*
X90640000Y-185289802D01*
X51476200Y-205116200D02*
X51476200Y-214346402D01*
X68540000Y-37700000D02*
X68540000Y-43189802D01*
X178640000Y-132510000D02*
X178640000Y-137889802D01*
X181900000Y-70810000D02*
X182731301Y-71641301D01*
X49900000Y-70570202D02*
X51476200Y-72146402D01*
X100976402Y-214346402D02*
X101463600Y-213859204D01*
X181930000Y-156170000D02*
X183476200Y-157716200D01*
X31500000Y-119452804D02*
X31593598Y-119546402D01*
X183476200Y-110316200D02*
X183476200Y-119546402D01*
X156640000Y-132510000D02*
X156640000Y-137889802D01*
X115900000Y-61420000D02*
X115900000Y-70570202D01*
X30300000Y-207000000D02*
X30300000Y-212390000D01*
X159930000Y-156170000D02*
X161476200Y-157716200D01*
X181900000Y-61420000D02*
X181900000Y-70810000D01*
X137930000Y-203570000D02*
X139476200Y-205116200D01*
X90640000Y-132510000D02*
X90640000Y-137889802D01*
X46640000Y-90489802D02*
X46479801Y-90650001D01*
X49930000Y-108770000D02*
X51476200Y-110316200D01*
X159900000Y-61420000D02*
X159900000Y-70570202D01*
X101463600Y-213859204D02*
X101463600Y-43346400D01*
X51476200Y-110316200D02*
X51476200Y-119546402D01*
X139476200Y-157716200D02*
X139476200Y-166946402D01*
X159930000Y-203570000D02*
X161476200Y-205116200D01*
X46640000Y-179910000D02*
X46640000Y-185289802D01*
X115930000Y-108770000D02*
X117476200Y-110316200D01*
X68640000Y-85110000D02*
X68640000Y-90489802D01*
X134640000Y-132510000D02*
X134640000Y-137889802D01*
X178640000Y-85110000D02*
X178640000Y-90489802D01*
X112540000Y-37700000D02*
X112540000Y-43189802D01*
X156640000Y-179910000D02*
X156640000Y-185289802D01*
X159900000Y-70570202D02*
X161476200Y-72146402D01*
X30300000Y-212390000D02*
X32256402Y-214346402D01*
X112640000Y-85110000D02*
X112640000Y-90489802D01*
X27890000Y-204590000D02*
X27890000Y-203540000D01*
X137930000Y-156170000D02*
X139476200Y-157716200D01*
X68640000Y-132510000D02*
X68640000Y-137889802D01*
X27890000Y-204590000D02*
X30300000Y-207000000D01*
X93900000Y-61420000D02*
X93900000Y-70570202D01*
X46640000Y-85110000D02*
X46640000Y-90489802D01*
X95476200Y-110316200D02*
X95476200Y-119546402D01*
X178640000Y-179910000D02*
X178640000Y-185289802D01*
X139476200Y-110316200D02*
X139476200Y-119546402D01*
X93930000Y-156170000D02*
X95476200Y-157716200D01*
X90640000Y-85110000D02*
X90640000Y-90489802D01*
X95476200Y-157716200D02*
X95476200Y-166946402D01*
X137900000Y-61420000D02*
X137900000Y-70570202D01*
X115900000Y-70570202D02*
X117476200Y-72146402D01*
X71900000Y-61420000D02*
X71900000Y-70570202D01*
X71930000Y-156170000D02*
X73476200Y-157716200D01*
X46540000Y-37700000D02*
X46540000Y-43189802D01*
X49900000Y-61420000D02*
X49900000Y-70570202D01*
X68640000Y-179910000D02*
X68640000Y-185289802D01*
X27860000Y-61390000D02*
X27860000Y-70120000D01*
X178540000Y-37700000D02*
X178540000Y-43189802D01*
X71930000Y-108770000D02*
X73476200Y-110316200D01*
X73476200Y-110316200D02*
X73476200Y-119546402D01*
X139476200Y-205116200D02*
X139476200Y-214346402D01*
X178544800Y-43315000D02*
X178479801Y-43250001D01*
X181930000Y-108770000D02*
X183476200Y-110316200D01*
%TO.N,LedOut*%
X25620000Y-212000000D02*
X25620000Y-211110000D01*
X25620000Y-211110000D02*
X22620000Y-208110000D01*
%TO.N,PQ1*%
X170050001Y-46860001D02*
X170050001Y-41449999D01*
X22780000Y-49920000D02*
X25040000Y-52180000D01*
X182020000Y-52240000D02*
X175430000Y-52240000D01*
X22780000Y-41990000D02*
X22780000Y-49920000D01*
X27950001Y-41449999D02*
X23320001Y-41449999D01*
X175430000Y-52240000D02*
X170050001Y-46860001D01*
X25040000Y-52180000D02*
X27980000Y-52180000D01*
X23320001Y-41449999D02*
X22780000Y-41990000D01*
%TO.N,PQ2*%
X31120000Y-56050000D02*
X31120000Y-65124798D01*
X174589999Y-59370001D02*
X174589999Y-65149999D01*
X31120000Y-65124798D02*
X31097399Y-65147399D01*
X27980000Y-54720000D02*
X29790000Y-54720000D01*
X179180000Y-54780000D02*
X174589999Y-59370001D01*
X29790000Y-54720000D02*
X31120000Y-56050000D01*
X182020000Y-54780000D02*
X179180000Y-54780000D01*
%TO.N,PQ3*%
X27980000Y-99580000D02*
X29450000Y-99580000D01*
X178220000Y-99640000D02*
X174289999Y-95709999D01*
X182020000Y-99640000D02*
X178220000Y-99640000D01*
X30940000Y-88960000D02*
X30829999Y-88849999D01*
X29450000Y-99580000D02*
X30940000Y-98090000D01*
X30940000Y-98090000D02*
X30940000Y-88960000D01*
X174289999Y-95709999D02*
X174289999Y-88849999D01*
%TO.N,PQ4*%
X174950000Y-106060000D02*
X174950000Y-112309998D01*
X182020000Y-102180000D02*
X178830000Y-102180000D01*
X27980000Y-102120000D02*
X27980000Y-112520000D01*
X174950000Y-112309998D02*
X175190001Y-112549999D01*
X27980000Y-112520000D02*
X27950001Y-112549999D01*
X178830000Y-102180000D02*
X174950000Y-106060000D01*
%TO.N,PQ5*%
X27980000Y-146980000D02*
X27980000Y-136279998D01*
X178800000Y-147040000D02*
X175390001Y-143630001D01*
X27980000Y-136279998D02*
X27950001Y-136249999D01*
X182020000Y-147040000D02*
X178800000Y-147040000D01*
X175390001Y-143630001D02*
X175390001Y-136249999D01*
%TO.N,PQ6*%
X27980000Y-159920000D02*
X27950001Y-159949999D01*
X179570000Y-149580000D02*
X175550001Y-153599999D01*
X182020000Y-149580000D02*
X179570000Y-149580000D01*
X27980000Y-149520000D02*
X27980000Y-159920000D01*
X175550001Y-153599999D02*
X175550001Y-159949999D01*
%TO.N,PQ7*%
X29560000Y-194380000D02*
X31260000Y-192680000D01*
X175560000Y-190230000D02*
X175560000Y-183860000D01*
X27980000Y-194380000D02*
X29560000Y-194380000D01*
X31260000Y-183719998D02*
X31190001Y-183649999D01*
X175560000Y-183860000D02*
X175770001Y-183649999D01*
X179770000Y-194440000D02*
X175560000Y-190230000D01*
X31260000Y-192680000D02*
X31260000Y-183719998D01*
X182020000Y-194440000D02*
X179770000Y-194440000D01*
%TO.N,PQ8*%
X182020000Y-196980000D02*
X176680000Y-196980000D01*
X176680000Y-196980000D02*
X169719999Y-203940001D01*
X169719999Y-203940001D02*
X169719999Y-207349999D01*
X28770000Y-196920000D02*
X31339973Y-199489973D01*
X31339973Y-199489973D02*
X31339973Y-207326874D01*
%TO.N,HallOut1*%
X32842000Y-184615400D02*
X32842000Y-208186600D01*
X32842000Y-160891800D02*
X32842000Y-184615400D01*
X32842000Y-137142800D02*
X32842000Y-160891800D01*
X32842000Y-113546200D02*
X32842000Y-137142800D01*
X32842000Y-89771800D02*
X32842000Y-113546200D01*
X32842000Y-65997400D02*
X32842000Y-89771800D01*
X32842000Y-208186600D02*
X32908600Y-208120000D01*
X32908600Y-208120000D02*
X40280000Y-208120000D01*
X39282000Y-35910000D02*
X40310000Y-35910000D01*
X32842000Y-42350000D02*
X39282000Y-35910000D01*
X32842000Y-42350000D02*
X32842000Y-65997400D01*
%TO.N,HallOut2*%
X54686000Y-66048200D02*
X54686000Y-89771800D01*
X54686000Y-89771800D02*
X54686000Y-113470000D01*
X54686000Y-113470000D02*
X54686000Y-137117400D01*
X54686000Y-137117400D02*
X54686000Y-160866400D01*
X54686000Y-160866400D02*
X54686000Y-184539200D01*
X46694000Y-53664000D02*
X54686000Y-53664000D01*
X54686000Y-53664000D02*
X54686000Y-66048200D01*
X54686000Y-196004000D02*
X54686000Y-208262800D01*
X42850000Y-40510000D02*
X42850000Y-35910000D01*
X42890000Y-40550000D02*
X42850000Y-40510000D01*
X42890000Y-40550000D02*
X42890000Y-49860000D01*
X54686000Y-42350000D02*
X54686000Y-53664000D01*
X46746000Y-196004000D02*
X42820000Y-199930000D01*
X54686000Y-196004000D02*
X46746000Y-196004000D01*
X42820000Y-199930000D02*
X42820000Y-208120000D01*
X42890000Y-49860000D02*
X46694000Y-53664000D01*
X54686000Y-184539200D02*
X54686000Y-196004000D01*
%TO.N,HallOut3*%
X76675800Y-66080200D02*
X76675800Y-113502000D01*
X76675800Y-113502000D02*
X76675800Y-137124000D01*
X76675800Y-184545800D02*
X76675800Y-208294800D01*
X76675800Y-160822200D02*
X76675800Y-184545800D01*
X76675800Y-137124000D02*
X76675800Y-160822200D01*
X83115800Y-35910000D02*
X84310000Y-35910000D01*
X76675800Y-208294800D02*
X76850600Y-208120000D01*
X76675800Y-42350000D02*
X83115800Y-35910000D01*
X76675800Y-42350000D02*
X76675800Y-66080200D01*
X76850600Y-208120000D02*
X84280000Y-208120000D01*
%TO.N,HallOut4*%
X98545200Y-66004000D02*
X98545200Y-89753000D01*
X98545200Y-89753000D02*
X98545200Y-113476600D01*
X98545200Y-113476600D02*
X98545200Y-137200200D01*
X98545200Y-137200200D02*
X98545200Y-160873000D01*
X98545200Y-160873000D02*
X98545200Y-184495000D01*
X98545200Y-52385200D02*
X89815200Y-52385200D01*
X98545200Y-42350000D02*
X98545200Y-52385200D01*
X98545200Y-52385200D02*
X98545200Y-66004000D01*
X89815200Y-52385200D02*
X86890000Y-49460000D01*
X86820000Y-200080000D02*
X86820000Y-208120000D01*
X90645200Y-196254800D02*
X86820000Y-200080000D01*
X98545200Y-196254800D02*
X98545200Y-208218600D01*
X86890000Y-40550000D02*
X86850000Y-40510000D01*
X98545200Y-196254800D02*
X90645200Y-196254800D01*
X86850000Y-40510000D02*
X86850000Y-35910000D01*
X98545200Y-184495000D02*
X98545200Y-196254800D01*
X86890000Y-49460000D02*
X86890000Y-40550000D01*
%TO.N,HallOut5*%
X120776800Y-66073600D02*
X120776800Y-89746400D01*
X120776800Y-89746400D02*
X120776800Y-113546200D01*
X120776800Y-113546200D02*
X120776800Y-137168200D01*
X120776800Y-184590000D02*
X120776800Y-208262800D01*
X120776800Y-160841000D02*
X120776800Y-184590000D01*
X120776800Y-137168200D02*
X120776800Y-160841000D01*
X127216800Y-35910000D02*
X128310000Y-35910000D01*
X120776800Y-42350000D02*
X120776800Y-66073600D01*
X120776800Y-208262800D02*
X120919600Y-208120000D01*
X120776800Y-42350000D02*
X127216800Y-35910000D01*
X120919600Y-208120000D02*
X128280000Y-208120000D01*
%TO.N,HallOut6*%
X143459000Y-66073600D02*
X143459000Y-89797200D01*
X143459000Y-89797200D02*
X143459000Y-113520800D01*
X143459000Y-113520800D02*
X143459000Y-137142800D01*
X143459000Y-137142800D02*
X143459000Y-160891800D01*
X143459000Y-160891800D02*
X143459000Y-184564600D01*
X130890000Y-49570000D02*
X130890000Y-40940000D01*
X143459000Y-51881000D02*
X143459000Y-66073600D01*
X143459000Y-42350000D02*
X143459000Y-51881000D01*
X143459000Y-184564600D02*
X143459000Y-197081000D01*
X130890000Y-40940000D02*
X130850000Y-40900000D01*
X130820000Y-200890000D02*
X130820000Y-208120000D01*
X130850000Y-40900000D02*
X130850000Y-35910000D01*
X143459000Y-197081000D02*
X143459000Y-208262800D01*
X143459000Y-51881000D02*
X133201000Y-51881000D01*
X130820000Y-200890000D02*
X134629000Y-197081000D01*
X133201000Y-51881000D02*
X130890000Y-49570000D01*
X143459000Y-197081000D02*
X134629000Y-197081000D01*
%TO.N,HallOut7*%
X165125200Y-66149800D02*
X165125200Y-89797200D01*
X165125200Y-89797200D02*
X165125200Y-113495400D01*
X165125200Y-113495400D02*
X165125200Y-137219000D01*
X165125200Y-184564600D02*
X165125200Y-208212000D01*
X165125200Y-160866400D02*
X165125200Y-184564600D01*
X165125200Y-137219000D02*
X165125200Y-160866400D01*
X170620000Y-35910000D02*
X172310000Y-35910000D01*
X165125200Y-208212000D02*
X165743200Y-208830000D01*
X171570000Y-208830000D02*
X172280000Y-208120000D01*
X165125200Y-42350000D02*
X165125200Y-66149800D01*
X165125200Y-42350000D02*
X165125200Y-41404800D01*
X165125200Y-41404800D02*
X170620000Y-35910000D01*
X165743200Y-208830000D02*
X171570000Y-208830000D01*
%TO.N,HallOut8*%
X186639000Y-66073600D02*
X186639000Y-89848000D01*
X186639000Y-89848000D02*
X186639000Y-113470000D01*
X186639000Y-113470000D02*
X186639000Y-137193600D01*
X186639000Y-137193600D02*
X186639000Y-160866400D01*
X186639000Y-160866400D02*
X186639000Y-184539200D01*
X186639000Y-200591000D02*
X178199000Y-200591000D01*
X186639000Y-42350000D02*
X186639000Y-49919000D01*
X176459756Y-49919000D02*
X174890000Y-48349244D01*
X178199000Y-200591000D02*
X174820000Y-203970000D01*
X174820000Y-203970000D02*
X174820000Y-208120000D01*
X174890000Y-40550000D02*
X174850000Y-40510000D01*
X174850000Y-40510000D02*
X174850000Y-35910000D01*
X186639000Y-49919000D02*
X176459756Y-49919000D01*
X186639000Y-200591000D02*
X186639000Y-208237400D01*
X174890000Y-48349244D02*
X174890000Y-40550000D01*
X186639000Y-184539200D02*
X186639000Y-200591000D01*
X186639000Y-49919000D02*
X186639000Y-66073600D01*
%TO.N,AGND*%
X182020000Y-127300000D02*
X179390000Y-127300000D01*
X179390000Y-127300000D02*
X175850000Y-130840000D01*
X175850000Y-130840000D02*
X175850000Y-135090000D01*
X27980000Y-133490000D02*
X29640000Y-135150000D01*
X104840000Y-40350000D02*
X104840000Y-206130000D01*
X27980000Y-127240000D02*
X27980000Y-133490000D01*
X104840000Y-206130000D02*
X104720000Y-206250000D01*
X175850000Y-135090000D02*
X175910000Y-135150000D01*
%TD*%
M02*
