%TF.GenerationSoftware,KiCad,Pcbnew,(6.0.7-1)-1*%
%TF.CreationDate,2022-12-02T15:51:39+01:00*%
%TF.ProjectId,8x8,3878382e-6b69-4636-9164-5f7063625858,rev?*%
%TF.SameCoordinates,Original*%
%TF.FileFunction,Soldermask,Bot*%
%TF.FilePolarity,Negative*%
%FSLAX46Y46*%
G04 Gerber Fmt 4.6, Leading zero omitted, Abs format (unit mm)*
G04 Created by KiCad (PCBNEW (6.0.7-1)-1) date 2022-12-02 15:51:39*
%MOMM*%
%LPD*%
G01*
G04 APERTURE LIST*
G04 Aperture macros list*
%AMRoundRect*
0 Rectangle with rounded corners*
0 $1 Rounding radius*
0 $2 $3 $4 $5 $6 $7 $8 $9 X,Y pos of 4 corners*
0 Add a 4 corners polygon primitive as box body*
4,1,4,$2,$3,$4,$5,$6,$7,$8,$9,$2,$3,0*
0 Add four circle primitives for the rounded corners*
1,1,$1+$1,$2,$3*
1,1,$1+$1,$4,$5*
1,1,$1+$1,$6,$7*
1,1,$1+$1,$8,$9*
0 Add four rect primitives between the rounded corners*
20,1,$1+$1,$2,$3,$4,$5,0*
20,1,$1+$1,$4,$5,$6,$7,0*
20,1,$1+$1,$6,$7,$8,$9,0*
20,1,$1+$1,$8,$9,$2,$3,0*%
G04 Aperture macros list end*
%ADD10C,3.100000*%
%ADD11RoundRect,0.050000X0.510000X-1.300000X0.510000X1.300000X-0.510000X1.300000X-0.510000X-1.300000X0*%
%ADD12RoundRect,0.050000X0.510000X-1.600000X0.510000X1.600000X-0.510000X1.600000X-0.510000X-1.600000X0*%
%ADD13RoundRect,0.050000X1.300000X0.510000X-1.300000X0.510000X-1.300000X-0.510000X1.300000X-0.510000X0*%
%ADD14RoundRect,0.050000X-1.300000X-0.510000X1.300000X-0.510000X1.300000X0.510000X-1.300000X0.510000X0*%
G04 APERTURE END LIST*
D10*
%TO.C,m1*%
X38440000Y-53830000D03*
%TD*%
%TO.C,m1*%
X60780000Y-101100000D03*
%TD*%
%TO.C,m1*%
X39220000Y-196200000D03*
%TD*%
%TO.C,m1*%
X170540000Y-195150000D03*
%TD*%
%TO.C,m2*%
X170580000Y-55210000D03*
%TD*%
%TO.C,m1*%
X149030000Y-101100000D03*
%TD*%
%TO.C,m1*%
X61180000Y-149380000D03*
%TD*%
%TO.C,m1*%
X149880000Y-148930000D03*
%TD*%
D11*
%TO.C,J7*%
X86820000Y-208120000D03*
X84280000Y-208120000D03*
%TD*%
D12*
%TO.C,J5*%
X172310000Y-35910000D03*
X174850000Y-35910000D03*
%TD*%
D11*
%TO.C,J8*%
X130820000Y-208120000D03*
X128280000Y-208120000D03*
%TD*%
D13*
%TO.C,J19*%
X182030000Y-43315000D03*
X182030000Y-45855000D03*
X182030000Y-48395000D03*
%TD*%
%TO.C,J23*%
X182020000Y-124760000D03*
X182020000Y-127300000D03*
%TD*%
%TO.C,J15*%
X182020000Y-99640000D03*
X182020000Y-102180000D03*
%TD*%
D12*
%TO.C,J4*%
X128310000Y-35910000D03*
X130850000Y-35910000D03*
%TD*%
%TO.C,J21*%
X20110000Y-35910000D03*
X22650000Y-35910000D03*
%TD*%
D14*
%TO.C,J10*%
X27980000Y-54720000D03*
X27980000Y-52180000D03*
%TD*%
D12*
%TO.C,J2*%
X40310000Y-35910000D03*
X42850000Y-35910000D03*
%TD*%
D13*
%TO.C,J16*%
X182020000Y-147040000D03*
X182020000Y-149580000D03*
%TD*%
D14*
%TO.C,J11*%
X27980000Y-102120000D03*
X27980000Y-99580000D03*
%TD*%
D11*
%TO.C,J6*%
X42820000Y-208120000D03*
X40280000Y-208120000D03*
%TD*%
D14*
%TO.C,J22*%
X27980000Y-127240000D03*
X27980000Y-124700000D03*
%TD*%
D13*
%TO.C,J17*%
X182020000Y-194440000D03*
X182020000Y-196980000D03*
%TD*%
D14*
%TO.C,J18*%
X27970000Y-48315000D03*
X27970000Y-45775000D03*
X27970000Y-43235000D03*
%TD*%
D12*
%TO.C,J3*%
X84310000Y-35910000D03*
X86850000Y-35910000D03*
%TD*%
D14*
%TO.C,J12*%
X27980000Y-149520000D03*
X27980000Y-146980000D03*
%TD*%
D11*
%TO.C,J9*%
X174820000Y-208120000D03*
X172280000Y-208120000D03*
%TD*%
D13*
%TO.C,J14*%
X182020000Y-52240000D03*
X182020000Y-54780000D03*
%TD*%
D14*
%TO.C,J13*%
X27980000Y-196920000D03*
X27980000Y-194380000D03*
%TD*%
D11*
%TO.C,J20*%
X22620000Y-208110000D03*
X20080000Y-208110000D03*
%TD*%
M02*
