%TF.GenerationSoftware,KiCad,Pcbnew,(6.0.7-1)-1*%
%TF.CreationDate,2022-12-02T15:51:39+01:00*%
%TF.ProjectId,8x8,3878382e-6b69-4636-9164-5f7063625858,rev?*%
%TF.SameCoordinates,Original*%
%TF.FileFunction,Legend,Bot*%
%TF.FilePolarity,Positive*%
%FSLAX46Y46*%
G04 Gerber Fmt 4.6, Leading zero omitted, Abs format (unit mm)*
G04 Created by KiCad (PCBNEW (6.0.7-1)-1) date 2022-12-02 15:51:39*
%MOMM*%
%LPD*%
G01*
G04 APERTURE LIST*
%ADD10C,0.150000*%
%ADD11C,0.120000*%
G04 APERTURE END LIST*
D10*
%TO.C,J7*%
X86202380Y-214246666D02*
X86916666Y-214246666D01*
X87059523Y-214199047D01*
X87154761Y-214103809D01*
X87202380Y-213960952D01*
X87202380Y-213865714D01*
X86202380Y-214627619D02*
X86202380Y-215294285D01*
X87202380Y-214865714D01*
%TO.C,J5*%
X177212380Y-33316666D02*
X177926666Y-33316666D01*
X178069523Y-33269047D01*
X178164761Y-33173809D01*
X178212380Y-33030952D01*
X178212380Y-32935714D01*
X177212380Y-34269047D02*
X177212380Y-33792857D01*
X177688571Y-33745238D01*
X177640952Y-33792857D01*
X177593333Y-33888095D01*
X177593333Y-34126190D01*
X177640952Y-34221428D01*
X177688571Y-34269047D01*
X177783809Y-34316666D01*
X178021904Y-34316666D01*
X178117142Y-34269047D01*
X178164761Y-34221428D01*
X178212380Y-34126190D01*
X178212380Y-33888095D01*
X178164761Y-33792857D01*
X178117142Y-33745238D01*
%TO.C,J8*%
X130202380Y-214246666D02*
X130916666Y-214246666D01*
X131059523Y-214199047D01*
X131154761Y-214103809D01*
X131202380Y-213960952D01*
X131202380Y-213865714D01*
X130630952Y-214865714D02*
X130583333Y-214770476D01*
X130535714Y-214722857D01*
X130440476Y-214675238D01*
X130392857Y-214675238D01*
X130297619Y-214722857D01*
X130250000Y-214770476D01*
X130202380Y-214865714D01*
X130202380Y-215056190D01*
X130250000Y-215151428D01*
X130297619Y-215199047D01*
X130392857Y-215246666D01*
X130440476Y-215246666D01*
X130535714Y-215199047D01*
X130583333Y-215151428D01*
X130630952Y-215056190D01*
X130630952Y-214865714D01*
X130678571Y-214770476D01*
X130726190Y-214722857D01*
X130821428Y-214675238D01*
X131011904Y-214675238D01*
X131107142Y-214722857D01*
X131154761Y-214770476D01*
X131202380Y-214865714D01*
X131202380Y-215056190D01*
X131154761Y-215151428D01*
X131107142Y-215199047D01*
X131011904Y-215246666D01*
X130821428Y-215246666D01*
X130726190Y-215199047D01*
X130678571Y-215151428D01*
X130630952Y-215056190D01*
%TO.C,J19*%
X189019523Y-45297380D02*
X189019523Y-46011666D01*
X189067142Y-46154523D01*
X189162380Y-46249761D01*
X189305238Y-46297380D01*
X189400476Y-46297380D01*
X188019523Y-46297380D02*
X188590952Y-46297380D01*
X188305238Y-46297380D02*
X188305238Y-45297380D01*
X188400476Y-45440238D01*
X188495714Y-45535476D01*
X188590952Y-45583095D01*
X187543333Y-46297380D02*
X187352857Y-46297380D01*
X187257619Y-46249761D01*
X187210000Y-46202142D01*
X187114761Y-46059285D01*
X187067142Y-45868809D01*
X187067142Y-45487857D01*
X187114761Y-45392619D01*
X187162380Y-45345000D01*
X187257619Y-45297380D01*
X187448095Y-45297380D01*
X187543333Y-45345000D01*
X187590952Y-45392619D01*
X187638571Y-45487857D01*
X187638571Y-45725952D01*
X187590952Y-45821190D01*
X187543333Y-45868809D01*
X187448095Y-45916428D01*
X187257619Y-45916428D01*
X187162380Y-45868809D01*
X187114761Y-45821190D01*
X187067142Y-45725952D01*
%TO.C,J23*%
X189289523Y-124282380D02*
X189289523Y-124996666D01*
X189337142Y-125139523D01*
X189432380Y-125234761D01*
X189575238Y-125282380D01*
X189670476Y-125282380D01*
X188860952Y-124377619D02*
X188813333Y-124330000D01*
X188718095Y-124282380D01*
X188480000Y-124282380D01*
X188384761Y-124330000D01*
X188337142Y-124377619D01*
X188289523Y-124472857D01*
X188289523Y-124568095D01*
X188337142Y-124710952D01*
X188908571Y-125282380D01*
X188289523Y-125282380D01*
X187956190Y-124282380D02*
X187337142Y-124282380D01*
X187670476Y-124663333D01*
X187527619Y-124663333D01*
X187432380Y-124710952D01*
X187384761Y-124758571D01*
X187337142Y-124853809D01*
X187337142Y-125091904D01*
X187384761Y-125187142D01*
X187432380Y-125234761D01*
X187527619Y-125282380D01*
X187813333Y-125282380D01*
X187908571Y-125234761D01*
X187956190Y-125187142D01*
%TO.C,J15*%
X189289523Y-99162380D02*
X189289523Y-99876666D01*
X189337142Y-100019523D01*
X189432380Y-100114761D01*
X189575238Y-100162380D01*
X189670476Y-100162380D01*
X188289523Y-100162380D02*
X188860952Y-100162380D01*
X188575238Y-100162380D02*
X188575238Y-99162380D01*
X188670476Y-99305238D01*
X188765714Y-99400476D01*
X188860952Y-99448095D01*
X187384761Y-99162380D02*
X187860952Y-99162380D01*
X187908571Y-99638571D01*
X187860952Y-99590952D01*
X187765714Y-99543333D01*
X187527619Y-99543333D01*
X187432380Y-99590952D01*
X187384761Y-99638571D01*
X187337142Y-99733809D01*
X187337142Y-99971904D01*
X187384761Y-100067142D01*
X187432380Y-100114761D01*
X187527619Y-100162380D01*
X187765714Y-100162380D01*
X187860952Y-100114761D01*
X187908571Y-100067142D01*
%TO.C,J4*%
X133212380Y-33316666D02*
X133926666Y-33316666D01*
X134069523Y-33269047D01*
X134164761Y-33173809D01*
X134212380Y-33030952D01*
X134212380Y-32935714D01*
X133545714Y-34221428D02*
X134212380Y-34221428D01*
X133164761Y-33983333D02*
X133879047Y-33745238D01*
X133879047Y-34364285D01*
%TO.C,J21*%
X25012380Y-32840476D02*
X25726666Y-32840476D01*
X25869523Y-32792857D01*
X25964761Y-32697619D01*
X26012380Y-32554761D01*
X26012380Y-32459523D01*
X25107619Y-33269047D02*
X25060000Y-33316666D01*
X25012380Y-33411904D01*
X25012380Y-33650000D01*
X25060000Y-33745238D01*
X25107619Y-33792857D01*
X25202857Y-33840476D01*
X25298095Y-33840476D01*
X25440952Y-33792857D01*
X26012380Y-33221428D01*
X26012380Y-33840476D01*
X26012380Y-34792857D02*
X26012380Y-34221428D01*
X26012380Y-34507142D02*
X25012380Y-34507142D01*
X25155238Y-34411904D01*
X25250476Y-34316666D01*
X25298095Y-34221428D01*
%TO.C,J10*%
X22329523Y-54102380D02*
X22329523Y-54816666D01*
X22377142Y-54959523D01*
X22472380Y-55054761D01*
X22615238Y-55102380D01*
X22710476Y-55102380D01*
X21329523Y-55102380D02*
X21900952Y-55102380D01*
X21615238Y-55102380D02*
X21615238Y-54102380D01*
X21710476Y-54245238D01*
X21805714Y-54340476D01*
X21900952Y-54388095D01*
X20710476Y-54102380D02*
X20615238Y-54102380D01*
X20520000Y-54150000D01*
X20472380Y-54197619D01*
X20424761Y-54292857D01*
X20377142Y-54483333D01*
X20377142Y-54721428D01*
X20424761Y-54911904D01*
X20472380Y-55007142D01*
X20520000Y-55054761D01*
X20615238Y-55102380D01*
X20710476Y-55102380D01*
X20805714Y-55054761D01*
X20853333Y-55007142D01*
X20900952Y-54911904D01*
X20948571Y-54721428D01*
X20948571Y-54483333D01*
X20900952Y-54292857D01*
X20853333Y-54197619D01*
X20805714Y-54150000D01*
X20710476Y-54102380D01*
%TO.C,J2*%
X45212380Y-33316666D02*
X45926666Y-33316666D01*
X46069523Y-33269047D01*
X46164761Y-33173809D01*
X46212380Y-33030952D01*
X46212380Y-32935714D01*
X45307619Y-33745238D02*
X45260000Y-33792857D01*
X45212380Y-33888095D01*
X45212380Y-34126190D01*
X45260000Y-34221428D01*
X45307619Y-34269047D01*
X45402857Y-34316666D01*
X45498095Y-34316666D01*
X45640952Y-34269047D01*
X46212380Y-33697619D01*
X46212380Y-34316666D01*
%TO.C,J16*%
X189289523Y-146562380D02*
X189289523Y-147276666D01*
X189337142Y-147419523D01*
X189432380Y-147514761D01*
X189575238Y-147562380D01*
X189670476Y-147562380D01*
X188289523Y-147562380D02*
X188860952Y-147562380D01*
X188575238Y-147562380D02*
X188575238Y-146562380D01*
X188670476Y-146705238D01*
X188765714Y-146800476D01*
X188860952Y-146848095D01*
X187432380Y-146562380D02*
X187622857Y-146562380D01*
X187718095Y-146610000D01*
X187765714Y-146657619D01*
X187860952Y-146800476D01*
X187908571Y-146990952D01*
X187908571Y-147371904D01*
X187860952Y-147467142D01*
X187813333Y-147514761D01*
X187718095Y-147562380D01*
X187527619Y-147562380D01*
X187432380Y-147514761D01*
X187384761Y-147467142D01*
X187337142Y-147371904D01*
X187337142Y-147133809D01*
X187384761Y-147038571D01*
X187432380Y-146990952D01*
X187527619Y-146943333D01*
X187718095Y-146943333D01*
X187813333Y-146990952D01*
X187860952Y-147038571D01*
X187908571Y-147133809D01*
%TO.C,J11*%
X22329523Y-101502380D02*
X22329523Y-102216666D01*
X22377142Y-102359523D01*
X22472380Y-102454761D01*
X22615238Y-102502380D01*
X22710476Y-102502380D01*
X21329523Y-102502380D02*
X21900952Y-102502380D01*
X21615238Y-102502380D02*
X21615238Y-101502380D01*
X21710476Y-101645238D01*
X21805714Y-101740476D01*
X21900952Y-101788095D01*
X20377142Y-102502380D02*
X20948571Y-102502380D01*
X20662857Y-102502380D02*
X20662857Y-101502380D01*
X20758095Y-101645238D01*
X20853333Y-101740476D01*
X20948571Y-101788095D01*
%TO.C,J6*%
X42202380Y-214246666D02*
X42916666Y-214246666D01*
X43059523Y-214199047D01*
X43154761Y-214103809D01*
X43202380Y-213960952D01*
X43202380Y-213865714D01*
X42202380Y-215151428D02*
X42202380Y-214960952D01*
X42250000Y-214865714D01*
X42297619Y-214818095D01*
X42440476Y-214722857D01*
X42630952Y-214675238D01*
X43011904Y-214675238D01*
X43107142Y-214722857D01*
X43154761Y-214770476D01*
X43202380Y-214865714D01*
X43202380Y-215056190D01*
X43154761Y-215151428D01*
X43107142Y-215199047D01*
X43011904Y-215246666D01*
X42773809Y-215246666D01*
X42678571Y-215199047D01*
X42630952Y-215151428D01*
X42583333Y-215056190D01*
X42583333Y-214865714D01*
X42630952Y-214770476D01*
X42678571Y-214722857D01*
X42773809Y-214675238D01*
%TO.C,J22*%
X22329523Y-126622380D02*
X22329523Y-127336666D01*
X22377142Y-127479523D01*
X22472380Y-127574761D01*
X22615238Y-127622380D01*
X22710476Y-127622380D01*
X21900952Y-126717619D02*
X21853333Y-126670000D01*
X21758095Y-126622380D01*
X21520000Y-126622380D01*
X21424761Y-126670000D01*
X21377142Y-126717619D01*
X21329523Y-126812857D01*
X21329523Y-126908095D01*
X21377142Y-127050952D01*
X21948571Y-127622380D01*
X21329523Y-127622380D01*
X20948571Y-126717619D02*
X20900952Y-126670000D01*
X20805714Y-126622380D01*
X20567619Y-126622380D01*
X20472380Y-126670000D01*
X20424761Y-126717619D01*
X20377142Y-126812857D01*
X20377142Y-126908095D01*
X20424761Y-127050952D01*
X20996190Y-127622380D01*
X20377142Y-127622380D01*
%TO.C,J17*%
X189289523Y-193962380D02*
X189289523Y-194676666D01*
X189337142Y-194819523D01*
X189432380Y-194914761D01*
X189575238Y-194962380D01*
X189670476Y-194962380D01*
X188289523Y-194962380D02*
X188860952Y-194962380D01*
X188575238Y-194962380D02*
X188575238Y-193962380D01*
X188670476Y-194105238D01*
X188765714Y-194200476D01*
X188860952Y-194248095D01*
X187956190Y-193962380D02*
X187289523Y-193962380D01*
X187718095Y-194962380D01*
%TO.C,J18*%
X22599523Y-45237380D02*
X22599523Y-45951666D01*
X22647142Y-46094523D01*
X22742380Y-46189761D01*
X22885238Y-46237380D01*
X22980476Y-46237380D01*
X21599523Y-46237380D02*
X22170952Y-46237380D01*
X21885238Y-46237380D02*
X21885238Y-45237380D01*
X21980476Y-45380238D01*
X22075714Y-45475476D01*
X22170952Y-45523095D01*
X21028095Y-45665952D02*
X21123333Y-45618333D01*
X21170952Y-45570714D01*
X21218571Y-45475476D01*
X21218571Y-45427857D01*
X21170952Y-45332619D01*
X21123333Y-45285000D01*
X21028095Y-45237380D01*
X20837619Y-45237380D01*
X20742380Y-45285000D01*
X20694761Y-45332619D01*
X20647142Y-45427857D01*
X20647142Y-45475476D01*
X20694761Y-45570714D01*
X20742380Y-45618333D01*
X20837619Y-45665952D01*
X21028095Y-45665952D01*
X21123333Y-45713571D01*
X21170952Y-45761190D01*
X21218571Y-45856428D01*
X21218571Y-46046904D01*
X21170952Y-46142142D01*
X21123333Y-46189761D01*
X21028095Y-46237380D01*
X20837619Y-46237380D01*
X20742380Y-46189761D01*
X20694761Y-46142142D01*
X20647142Y-46046904D01*
X20647142Y-45856428D01*
X20694761Y-45761190D01*
X20742380Y-45713571D01*
X20837619Y-45665952D01*
%TO.C,J3*%
X89212380Y-33316666D02*
X89926666Y-33316666D01*
X90069523Y-33269047D01*
X90164761Y-33173809D01*
X90212380Y-33030952D01*
X90212380Y-32935714D01*
X89212380Y-33697619D02*
X89212380Y-34316666D01*
X89593333Y-33983333D01*
X89593333Y-34126190D01*
X89640952Y-34221428D01*
X89688571Y-34269047D01*
X89783809Y-34316666D01*
X90021904Y-34316666D01*
X90117142Y-34269047D01*
X90164761Y-34221428D01*
X90212380Y-34126190D01*
X90212380Y-33840476D01*
X90164761Y-33745238D01*
X90117142Y-33697619D01*
%TO.C,J12*%
X22329523Y-148902380D02*
X22329523Y-149616666D01*
X22377142Y-149759523D01*
X22472380Y-149854761D01*
X22615238Y-149902380D01*
X22710476Y-149902380D01*
X21329523Y-149902380D02*
X21900952Y-149902380D01*
X21615238Y-149902380D02*
X21615238Y-148902380D01*
X21710476Y-149045238D01*
X21805714Y-149140476D01*
X21900952Y-149188095D01*
X20948571Y-148997619D02*
X20900952Y-148950000D01*
X20805714Y-148902380D01*
X20567619Y-148902380D01*
X20472380Y-148950000D01*
X20424761Y-148997619D01*
X20377142Y-149092857D01*
X20377142Y-149188095D01*
X20424761Y-149330952D01*
X20996190Y-149902380D01*
X20377142Y-149902380D01*
%TO.C,J9*%
X174202380Y-214246666D02*
X174916666Y-214246666D01*
X175059523Y-214199047D01*
X175154761Y-214103809D01*
X175202380Y-213960952D01*
X175202380Y-213865714D01*
X175202380Y-214770476D02*
X175202380Y-214960952D01*
X175154761Y-215056190D01*
X175107142Y-215103809D01*
X174964285Y-215199047D01*
X174773809Y-215246666D01*
X174392857Y-215246666D01*
X174297619Y-215199047D01*
X174250000Y-215151428D01*
X174202380Y-215056190D01*
X174202380Y-214865714D01*
X174250000Y-214770476D01*
X174297619Y-214722857D01*
X174392857Y-214675238D01*
X174630952Y-214675238D01*
X174726190Y-214722857D01*
X174773809Y-214770476D01*
X174821428Y-214865714D01*
X174821428Y-215056190D01*
X174773809Y-215151428D01*
X174726190Y-215199047D01*
X174630952Y-215246666D01*
%TO.C,J14*%
X189289523Y-51762380D02*
X189289523Y-52476666D01*
X189337142Y-52619523D01*
X189432380Y-52714761D01*
X189575238Y-52762380D01*
X189670476Y-52762380D01*
X188289523Y-52762380D02*
X188860952Y-52762380D01*
X188575238Y-52762380D02*
X188575238Y-51762380D01*
X188670476Y-51905238D01*
X188765714Y-52000476D01*
X188860952Y-52048095D01*
X187432380Y-52095714D02*
X187432380Y-52762380D01*
X187670476Y-51714761D02*
X187908571Y-52429047D01*
X187289523Y-52429047D01*
%TO.C,J13*%
X22329523Y-196302380D02*
X22329523Y-197016666D01*
X22377142Y-197159523D01*
X22472380Y-197254761D01*
X22615238Y-197302380D01*
X22710476Y-197302380D01*
X21329523Y-197302380D02*
X21900952Y-197302380D01*
X21615238Y-197302380D02*
X21615238Y-196302380D01*
X21710476Y-196445238D01*
X21805714Y-196540476D01*
X21900952Y-196588095D01*
X20996190Y-196302380D02*
X20377142Y-196302380D01*
X20710476Y-196683333D01*
X20567619Y-196683333D01*
X20472380Y-196730952D01*
X20424761Y-196778571D01*
X20377142Y-196873809D01*
X20377142Y-197111904D01*
X20424761Y-197207142D01*
X20472380Y-197254761D01*
X20567619Y-197302380D01*
X20853333Y-197302380D01*
X20948571Y-197254761D01*
X20996190Y-197207142D01*
%TO.C,J20*%
X22002380Y-213760476D02*
X22716666Y-213760476D01*
X22859523Y-213712857D01*
X22954761Y-213617619D01*
X23002380Y-213474761D01*
X23002380Y-213379523D01*
X22097619Y-214189047D02*
X22050000Y-214236666D01*
X22002380Y-214331904D01*
X22002380Y-214570000D01*
X22050000Y-214665238D01*
X22097619Y-214712857D01*
X22192857Y-214760476D01*
X22288095Y-214760476D01*
X22430952Y-214712857D01*
X23002380Y-214141428D01*
X23002380Y-214760476D01*
X22002380Y-215379523D02*
X22002380Y-215474761D01*
X22050000Y-215570000D01*
X22097619Y-215617619D01*
X22192857Y-215665238D01*
X22383333Y-215712857D01*
X22621428Y-215712857D01*
X22811904Y-215665238D01*
X22907142Y-215617619D01*
X22954761Y-215570000D01*
X23002380Y-215474761D01*
X23002380Y-215379523D01*
X22954761Y-215284285D01*
X22907142Y-215236666D01*
X22811904Y-215189047D01*
X22621428Y-215141428D01*
X22383333Y-215141428D01*
X22192857Y-215189047D01*
X22097619Y-215236666D01*
X22050000Y-215284285D01*
X22002380Y-215379523D01*
D11*
%TO.C,J7*%
X88150000Y-209970000D02*
X82950000Y-209970000D01*
X82950000Y-218600000D02*
X82950000Y-209970000D01*
X88150000Y-218600000D02*
X82950000Y-218600000D01*
X85550000Y-218600000D02*
X85550000Y-209970000D01*
X88150000Y-218600000D02*
X88150000Y-209970000D01*
%TO.C,J5*%
X176180000Y-29810000D02*
X176180000Y-32470000D01*
X170980000Y-32470000D02*
X170980000Y-29810000D01*
X170980000Y-29810000D02*
X176180000Y-29810000D01*
X176180000Y-32470000D02*
X170980000Y-32470000D01*
X173580000Y-32470000D02*
X173580000Y-29810000D01*
%TO.C,J8*%
X132150000Y-218600000D02*
X126950000Y-218600000D01*
X129550000Y-218600000D02*
X129550000Y-209970000D01*
X132150000Y-218600000D02*
X132150000Y-209970000D01*
X132150000Y-209970000D02*
X126950000Y-209970000D01*
X126950000Y-218600000D02*
X126950000Y-209970000D01*
%TO.C,J19*%
X192510000Y-41985000D02*
X192510000Y-49725000D01*
X192510000Y-41985000D02*
X183880000Y-41985000D01*
X183880000Y-41985000D02*
X183880000Y-49725000D01*
X192510000Y-49725000D02*
X183880000Y-49725000D01*
X192510000Y-44585000D02*
X183880000Y-44585000D01*
X192510000Y-47125000D02*
X183880000Y-47125000D01*
%TO.C,J23*%
X192500000Y-126030000D02*
X183870000Y-126030000D01*
X192500000Y-123430000D02*
X183870000Y-123430000D01*
X183870000Y-123430000D02*
X183870000Y-128630000D01*
X192500000Y-123430000D02*
X192500000Y-128630000D01*
X192500000Y-128630000D02*
X183870000Y-128630000D01*
%TO.C,J15*%
X192500000Y-98310000D02*
X192500000Y-103510000D01*
X183870000Y-98310000D02*
X183870000Y-103510000D01*
X192500000Y-98310000D02*
X183870000Y-98310000D01*
X192500000Y-100910000D02*
X183870000Y-100910000D01*
X192500000Y-103510000D02*
X183870000Y-103510000D01*
%TO.C,J4*%
X132180000Y-32470000D02*
X126980000Y-32470000D01*
X126980000Y-29810000D02*
X132180000Y-29810000D01*
X126980000Y-32470000D02*
X126980000Y-29810000D01*
X132180000Y-29810000D02*
X132180000Y-32470000D01*
X129580000Y-32470000D02*
X129580000Y-29810000D01*
%TO.C,J21*%
X21380000Y-32470000D02*
X21380000Y-29810000D01*
X23980000Y-29810000D02*
X23980000Y-32470000D01*
X18780000Y-32470000D02*
X18780000Y-29810000D01*
X18780000Y-29810000D02*
X23980000Y-29810000D01*
X23980000Y-32470000D02*
X18780000Y-32470000D01*
%TO.C,J10*%
X17500000Y-56050000D02*
X26130000Y-56050000D01*
X17500000Y-56050000D02*
X17500000Y-50850000D01*
X26130000Y-56050000D02*
X26130000Y-50850000D01*
X17500000Y-53450000D02*
X26130000Y-53450000D01*
X17500000Y-50850000D02*
X26130000Y-50850000D01*
%TO.C,J2*%
X41580000Y-32470000D02*
X41580000Y-29810000D01*
X44180000Y-32470000D02*
X38980000Y-32470000D01*
X44180000Y-29810000D02*
X44180000Y-32470000D01*
X38980000Y-29810000D02*
X44180000Y-29810000D01*
X38980000Y-32470000D02*
X38980000Y-29810000D01*
%TO.C,J16*%
X192500000Y-145710000D02*
X192500000Y-150910000D01*
X192500000Y-148310000D02*
X183870000Y-148310000D01*
X192500000Y-150910000D02*
X183870000Y-150910000D01*
X192500000Y-145710000D02*
X183870000Y-145710000D01*
X183870000Y-145710000D02*
X183870000Y-150910000D01*
%TO.C,J11*%
X17500000Y-98250000D02*
X26130000Y-98250000D01*
X17500000Y-103450000D02*
X17500000Y-98250000D01*
X17500000Y-100850000D02*
X26130000Y-100850000D01*
X26130000Y-103450000D02*
X26130000Y-98250000D01*
X17500000Y-103450000D02*
X26130000Y-103450000D01*
%TO.C,J6*%
X44150000Y-218600000D02*
X38950000Y-218600000D01*
X41550000Y-218600000D02*
X41550000Y-209970000D01*
X38950000Y-218600000D02*
X38950000Y-209970000D01*
X44150000Y-218600000D02*
X44150000Y-209970000D01*
X44150000Y-209970000D02*
X38950000Y-209970000D01*
%TO.C,J22*%
X17500000Y-128570000D02*
X17500000Y-123370000D01*
X17500000Y-125970000D02*
X26130000Y-125970000D01*
X17500000Y-128570000D02*
X26130000Y-128570000D01*
X26130000Y-128570000D02*
X26130000Y-123370000D01*
X17500000Y-123370000D02*
X26130000Y-123370000D01*
%TO.C,J17*%
X192500000Y-198310000D02*
X183870000Y-198310000D01*
X192500000Y-193110000D02*
X192500000Y-198310000D01*
X183870000Y-193110000D02*
X183870000Y-198310000D01*
X192500000Y-193110000D02*
X183870000Y-193110000D01*
X192500000Y-195710000D02*
X183870000Y-195710000D01*
%TO.C,J18*%
X17490000Y-41905000D02*
X26120000Y-41905000D01*
X17490000Y-49645000D02*
X17490000Y-41905000D01*
X17490000Y-47045000D02*
X26120000Y-47045000D01*
X17490000Y-49645000D02*
X26120000Y-49645000D01*
X26120000Y-49645000D02*
X26120000Y-41905000D01*
X17490000Y-44505000D02*
X26120000Y-44505000D01*
%TO.C,J3*%
X82980000Y-32470000D02*
X82980000Y-29810000D01*
X88180000Y-32470000D02*
X82980000Y-32470000D01*
X85580000Y-32470000D02*
X85580000Y-29810000D01*
X82980000Y-29810000D02*
X88180000Y-29810000D01*
X88180000Y-29810000D02*
X88180000Y-32470000D01*
%TO.C,J12*%
X17500000Y-150850000D02*
X17500000Y-145650000D01*
X17500000Y-145650000D02*
X26130000Y-145650000D01*
X26130000Y-150850000D02*
X26130000Y-145650000D01*
X17500000Y-150850000D02*
X26130000Y-150850000D01*
X17500000Y-148250000D02*
X26130000Y-148250000D01*
%TO.C,J9*%
X170950000Y-218600000D02*
X170950000Y-209970000D01*
X176150000Y-209970000D02*
X170950000Y-209970000D01*
X173550000Y-218600000D02*
X173550000Y-209970000D01*
X176150000Y-218600000D02*
X170950000Y-218600000D01*
X176150000Y-218600000D02*
X176150000Y-209970000D01*
%TO.C,J14*%
X192500000Y-53510000D02*
X183870000Y-53510000D01*
X192500000Y-56110000D02*
X183870000Y-56110000D01*
X183870000Y-50910000D02*
X183870000Y-56110000D01*
X192500000Y-50910000D02*
X183870000Y-50910000D01*
X192500000Y-50910000D02*
X192500000Y-56110000D01*
%TO.C,J13*%
X26130000Y-198250000D02*
X26130000Y-193050000D01*
X17500000Y-193050000D02*
X26130000Y-193050000D01*
X17500000Y-195650000D02*
X26130000Y-195650000D01*
X17500000Y-198250000D02*
X26130000Y-198250000D01*
X17500000Y-198250000D02*
X17500000Y-193050000D01*
%TO.C,J20*%
X18750000Y-218590000D02*
X18750000Y-209960000D01*
X23950000Y-218590000D02*
X23950000Y-209960000D01*
X21350000Y-218590000D02*
X21350000Y-209960000D01*
X23950000Y-218590000D02*
X18750000Y-218590000D01*
X23950000Y-209960000D02*
X18750000Y-209960000D01*
%TD*%
M02*
