%TF.GenerationSoftware,KiCad,Pcbnew,(6.0.7-1)-1*%
%TF.CreationDate,2022-12-02T15:43:41+01:00*%
%TF.ProjectId,8x3,3878332e-6b69-4636-9164-5f7063625858,rev?*%
%TF.SameCoordinates,Original*%
%TF.FileFunction,Legend,Top*%
%TF.FilePolarity,Positive*%
%FSLAX46Y46*%
G04 Gerber Fmt 4.6, Leading zero omitted, Abs format (unit mm)*
G04 Created by KiCad (PCBNEW (6.0.7-1)-1) date 2022-12-02 15:43:41*
%MOMM*%
%LPD*%
G01*
G04 APERTURE LIST*
%ADD10C,0.150000*%
%ADD11C,0.120000*%
G04 APERTURE END LIST*
D10*
%TO.C,D1*%
X27238105Y-46348781D02*
X27238105Y-45348781D01*
X27476201Y-45348781D01*
X27619058Y-45396401D01*
X27714296Y-45491639D01*
X27761915Y-45586877D01*
X27809534Y-45777353D01*
X27809534Y-45920210D01*
X27761915Y-46110686D01*
X27714296Y-46205924D01*
X27619058Y-46301162D01*
X27476201Y-46348781D01*
X27238105Y-46348781D01*
X28761915Y-46348781D02*
X28190486Y-46348781D01*
X28476201Y-46348781D02*
X28476201Y-45348781D01*
X28380962Y-45491639D01*
X28285724Y-45586877D01*
X28190486Y-45634496D01*
%TO.C,D2*%
X49238105Y-46348781D02*
X49238105Y-45348781D01*
X49476201Y-45348781D01*
X49619058Y-45396401D01*
X49714296Y-45491639D01*
X49761915Y-45586877D01*
X49809534Y-45777353D01*
X49809534Y-45920210D01*
X49761915Y-46110686D01*
X49714296Y-46205924D01*
X49619058Y-46301162D01*
X49476201Y-46348781D01*
X49238105Y-46348781D01*
X50190486Y-45444020D02*
X50238105Y-45396401D01*
X50333343Y-45348781D01*
X50571439Y-45348781D01*
X50666677Y-45396401D01*
X50714296Y-45444020D01*
X50761915Y-45539258D01*
X50761915Y-45634496D01*
X50714296Y-45777353D01*
X50142867Y-46348781D01*
X50761915Y-46348781D01*
%TO.C,D3*%
X71238105Y-46348781D02*
X71238105Y-45348781D01*
X71476201Y-45348781D01*
X71619058Y-45396401D01*
X71714296Y-45491639D01*
X71761915Y-45586877D01*
X71809534Y-45777353D01*
X71809534Y-45920210D01*
X71761915Y-46110686D01*
X71714296Y-46205924D01*
X71619058Y-46301162D01*
X71476201Y-46348781D01*
X71238105Y-46348781D01*
X72142867Y-45348781D02*
X72761915Y-45348781D01*
X72428581Y-45729734D01*
X72571439Y-45729734D01*
X72666677Y-45777353D01*
X72714296Y-45824972D01*
X72761915Y-45920210D01*
X72761915Y-46158305D01*
X72714296Y-46253543D01*
X72666677Y-46301162D01*
X72571439Y-46348781D01*
X72285724Y-46348781D01*
X72190486Y-46301162D01*
X72142867Y-46253543D01*
%TO.C,D4*%
X27238105Y-70048781D02*
X27238105Y-69048781D01*
X27476201Y-69048781D01*
X27619058Y-69096401D01*
X27714296Y-69191639D01*
X27761915Y-69286877D01*
X27809534Y-69477353D01*
X27809534Y-69620210D01*
X27761915Y-69810686D01*
X27714296Y-69905924D01*
X27619058Y-70001162D01*
X27476201Y-70048781D01*
X27238105Y-70048781D01*
X28666677Y-69382115D02*
X28666677Y-70048781D01*
X28428581Y-69001162D02*
X28190486Y-69715448D01*
X28809534Y-69715448D01*
%TO.C,D5*%
X49238105Y-70048781D02*
X49238105Y-69048781D01*
X49476201Y-69048781D01*
X49619058Y-69096401D01*
X49714296Y-69191639D01*
X49761915Y-69286877D01*
X49809534Y-69477353D01*
X49809534Y-69620210D01*
X49761915Y-69810686D01*
X49714296Y-69905924D01*
X49619058Y-70001162D01*
X49476201Y-70048781D01*
X49238105Y-70048781D01*
X50714296Y-69048781D02*
X50238105Y-69048781D01*
X50190486Y-69524972D01*
X50238105Y-69477353D01*
X50333343Y-69429734D01*
X50571439Y-69429734D01*
X50666677Y-69477353D01*
X50714296Y-69524972D01*
X50761915Y-69620210D01*
X50761915Y-69858305D01*
X50714296Y-69953543D01*
X50666677Y-70001162D01*
X50571439Y-70048781D01*
X50333343Y-70048781D01*
X50238105Y-70001162D01*
X50190486Y-69953543D01*
%TO.C,D6*%
X71238105Y-70048781D02*
X71238105Y-69048781D01*
X71476201Y-69048781D01*
X71619058Y-69096401D01*
X71714296Y-69191639D01*
X71761915Y-69286877D01*
X71809534Y-69477353D01*
X71809534Y-69620210D01*
X71761915Y-69810686D01*
X71714296Y-69905924D01*
X71619058Y-70001162D01*
X71476201Y-70048781D01*
X71238105Y-70048781D01*
X72666677Y-69048781D02*
X72476201Y-69048781D01*
X72380962Y-69096401D01*
X72333343Y-69144020D01*
X72238105Y-69286877D01*
X72190486Y-69477353D01*
X72190486Y-69858305D01*
X72238105Y-69953543D01*
X72285724Y-70001162D01*
X72380962Y-70048781D01*
X72571439Y-70048781D01*
X72666677Y-70001162D01*
X72714296Y-69953543D01*
X72761915Y-69858305D01*
X72761915Y-69620210D01*
X72714296Y-69524972D01*
X72666677Y-69477353D01*
X72571439Y-69429734D01*
X72380962Y-69429734D01*
X72285724Y-69477353D01*
X72238105Y-69524972D01*
X72190486Y-69620210D01*
%TO.C,D7*%
X27238105Y-93748781D02*
X27238105Y-92748781D01*
X27476201Y-92748781D01*
X27619058Y-92796401D01*
X27714296Y-92891639D01*
X27761915Y-92986877D01*
X27809534Y-93177353D01*
X27809534Y-93320210D01*
X27761915Y-93510686D01*
X27714296Y-93605924D01*
X27619058Y-93701162D01*
X27476201Y-93748781D01*
X27238105Y-93748781D01*
X28142867Y-92748781D02*
X28809534Y-92748781D01*
X28380962Y-93748781D01*
%TO.C,D8*%
X49238105Y-93748781D02*
X49238105Y-92748781D01*
X49476201Y-92748781D01*
X49619058Y-92796401D01*
X49714296Y-92891639D01*
X49761915Y-92986877D01*
X49809534Y-93177353D01*
X49809534Y-93320210D01*
X49761915Y-93510686D01*
X49714296Y-93605924D01*
X49619058Y-93701162D01*
X49476201Y-93748781D01*
X49238105Y-93748781D01*
X50380962Y-93177353D02*
X50285724Y-93129734D01*
X50238105Y-93082115D01*
X50190486Y-92986877D01*
X50190486Y-92939258D01*
X50238105Y-92844020D01*
X50285724Y-92796401D01*
X50380962Y-92748781D01*
X50571439Y-92748781D01*
X50666677Y-92796401D01*
X50714296Y-92844020D01*
X50761915Y-92939258D01*
X50761915Y-92986877D01*
X50714296Y-93082115D01*
X50666677Y-93129734D01*
X50571439Y-93177353D01*
X50380962Y-93177353D01*
X50285724Y-93224972D01*
X50238105Y-93272591D01*
X50190486Y-93367829D01*
X50190486Y-93558305D01*
X50238105Y-93653543D01*
X50285724Y-93701162D01*
X50380962Y-93748781D01*
X50571439Y-93748781D01*
X50666677Y-93701162D01*
X50714296Y-93653543D01*
X50761915Y-93558305D01*
X50761915Y-93367829D01*
X50714296Y-93272591D01*
X50666677Y-93224972D01*
X50571439Y-93177353D01*
%TO.C,D9*%
X71238105Y-93748781D02*
X71238105Y-92748781D01*
X71476201Y-92748781D01*
X71619058Y-92796401D01*
X71714296Y-92891639D01*
X71761915Y-92986877D01*
X71809534Y-93177353D01*
X71809534Y-93320210D01*
X71761915Y-93510686D01*
X71714296Y-93605924D01*
X71619058Y-93701162D01*
X71476201Y-93748781D01*
X71238105Y-93748781D01*
X72285724Y-93748781D02*
X72476201Y-93748781D01*
X72571439Y-93701162D01*
X72619058Y-93653543D01*
X72714296Y-93510686D01*
X72761915Y-93320210D01*
X72761915Y-92939258D01*
X72714296Y-92844020D01*
X72666677Y-92796401D01*
X72571439Y-92748781D01*
X72380962Y-92748781D01*
X72285724Y-92796401D01*
X72238105Y-92844020D01*
X72190486Y-92939258D01*
X72190486Y-93177353D01*
X72238105Y-93272591D01*
X72285724Y-93320210D01*
X72380962Y-93367829D01*
X72571439Y-93367829D01*
X72666677Y-93320210D01*
X72714296Y-93272591D01*
X72761915Y-93177353D01*
%TO.C,D10*%
X26761915Y-117448781D02*
X26761915Y-116448781D01*
X27000010Y-116448781D01*
X27142867Y-116496401D01*
X27238105Y-116591639D01*
X27285724Y-116686877D01*
X27333343Y-116877353D01*
X27333343Y-117020210D01*
X27285724Y-117210686D01*
X27238105Y-117305924D01*
X27142867Y-117401162D01*
X27000010Y-117448781D01*
X26761915Y-117448781D01*
X28285724Y-117448781D02*
X27714296Y-117448781D01*
X28000010Y-117448781D02*
X28000010Y-116448781D01*
X27904772Y-116591639D01*
X27809534Y-116686877D01*
X27714296Y-116734496D01*
X28904772Y-116448781D02*
X29000010Y-116448781D01*
X29095248Y-116496401D01*
X29142867Y-116544020D01*
X29190486Y-116639258D01*
X29238105Y-116829734D01*
X29238105Y-117067829D01*
X29190486Y-117258305D01*
X29142867Y-117353543D01*
X29095248Y-117401162D01*
X29000010Y-117448781D01*
X28904772Y-117448781D01*
X28809534Y-117401162D01*
X28761915Y-117353543D01*
X28714296Y-117258305D01*
X28666677Y-117067829D01*
X28666677Y-116829734D01*
X28714296Y-116639258D01*
X28761915Y-116544020D01*
X28809534Y-116496401D01*
X28904772Y-116448781D01*
%TO.C,D11*%
X48761915Y-117448781D02*
X48761915Y-116448781D01*
X49000010Y-116448781D01*
X49142867Y-116496401D01*
X49238105Y-116591639D01*
X49285724Y-116686877D01*
X49333343Y-116877353D01*
X49333343Y-117020210D01*
X49285724Y-117210686D01*
X49238105Y-117305924D01*
X49142867Y-117401162D01*
X49000010Y-117448781D01*
X48761915Y-117448781D01*
X50285724Y-117448781D02*
X49714296Y-117448781D01*
X50000010Y-117448781D02*
X50000010Y-116448781D01*
X49904772Y-116591639D01*
X49809534Y-116686877D01*
X49714296Y-116734496D01*
X51238105Y-117448781D02*
X50666677Y-117448781D01*
X50952391Y-117448781D02*
X50952391Y-116448781D01*
X50857153Y-116591639D01*
X50761915Y-116686877D01*
X50666677Y-116734496D01*
%TO.C,D12*%
X70761915Y-117448781D02*
X70761915Y-116448781D01*
X71000010Y-116448781D01*
X71142867Y-116496401D01*
X71238105Y-116591639D01*
X71285724Y-116686877D01*
X71333343Y-116877353D01*
X71333343Y-117020210D01*
X71285724Y-117210686D01*
X71238105Y-117305924D01*
X71142867Y-117401162D01*
X71000010Y-117448781D01*
X70761915Y-117448781D01*
X72285724Y-117448781D02*
X71714296Y-117448781D01*
X72000010Y-117448781D02*
X72000010Y-116448781D01*
X71904772Y-116591639D01*
X71809534Y-116686877D01*
X71714296Y-116734496D01*
X72666677Y-116544020D02*
X72714296Y-116496401D01*
X72809534Y-116448781D01*
X73047629Y-116448781D01*
X73142867Y-116496401D01*
X73190486Y-116544020D01*
X73238105Y-116639258D01*
X73238105Y-116734496D01*
X73190486Y-116877353D01*
X72619058Y-117448781D01*
X73238105Y-117448781D01*
%TO.C,D13*%
X26761915Y-141148781D02*
X26761915Y-140148781D01*
X27000010Y-140148781D01*
X27142867Y-140196401D01*
X27238105Y-140291639D01*
X27285724Y-140386877D01*
X27333343Y-140577353D01*
X27333343Y-140720210D01*
X27285724Y-140910686D01*
X27238105Y-141005924D01*
X27142867Y-141101162D01*
X27000010Y-141148781D01*
X26761915Y-141148781D01*
X28285724Y-141148781D02*
X27714296Y-141148781D01*
X28000010Y-141148781D02*
X28000010Y-140148781D01*
X27904772Y-140291639D01*
X27809534Y-140386877D01*
X27714296Y-140434496D01*
X28619058Y-140148781D02*
X29238105Y-140148781D01*
X28904772Y-140529734D01*
X29047629Y-140529734D01*
X29142867Y-140577353D01*
X29190486Y-140624972D01*
X29238105Y-140720210D01*
X29238105Y-140958305D01*
X29190486Y-141053543D01*
X29142867Y-141101162D01*
X29047629Y-141148781D01*
X28761915Y-141148781D01*
X28666677Y-141101162D01*
X28619058Y-141053543D01*
%TO.C,D14*%
X48761915Y-141148781D02*
X48761915Y-140148781D01*
X49000010Y-140148781D01*
X49142867Y-140196401D01*
X49238105Y-140291639D01*
X49285724Y-140386877D01*
X49333343Y-140577353D01*
X49333343Y-140720210D01*
X49285724Y-140910686D01*
X49238105Y-141005924D01*
X49142867Y-141101162D01*
X49000010Y-141148781D01*
X48761915Y-141148781D01*
X50285724Y-141148781D02*
X49714296Y-141148781D01*
X50000010Y-141148781D02*
X50000010Y-140148781D01*
X49904772Y-140291639D01*
X49809534Y-140386877D01*
X49714296Y-140434496D01*
X51142867Y-140482115D02*
X51142867Y-141148781D01*
X50904772Y-140101162D02*
X50666677Y-140815448D01*
X51285724Y-140815448D01*
%TO.C,D15*%
X70761915Y-141148781D02*
X70761915Y-140148781D01*
X71000010Y-140148781D01*
X71142867Y-140196401D01*
X71238105Y-140291639D01*
X71285724Y-140386877D01*
X71333343Y-140577353D01*
X71333343Y-140720210D01*
X71285724Y-140910686D01*
X71238105Y-141005924D01*
X71142867Y-141101162D01*
X71000010Y-141148781D01*
X70761915Y-141148781D01*
X72285724Y-141148781D02*
X71714296Y-141148781D01*
X72000010Y-141148781D02*
X72000010Y-140148781D01*
X71904772Y-140291639D01*
X71809534Y-140386877D01*
X71714296Y-140434496D01*
X73190486Y-140148781D02*
X72714296Y-140148781D01*
X72666677Y-140624972D01*
X72714296Y-140577353D01*
X72809534Y-140529734D01*
X73047629Y-140529734D01*
X73142867Y-140577353D01*
X73190486Y-140624972D01*
X73238105Y-140720210D01*
X73238105Y-140958305D01*
X73190486Y-141053543D01*
X73142867Y-141101162D01*
X73047629Y-141148781D01*
X72809534Y-141148781D01*
X72714296Y-141101162D01*
X72666677Y-141053543D01*
%TO.C,D16*%
X26761915Y-164848781D02*
X26761915Y-163848781D01*
X27000010Y-163848781D01*
X27142867Y-163896401D01*
X27238105Y-163991639D01*
X27285724Y-164086877D01*
X27333343Y-164277353D01*
X27333343Y-164420210D01*
X27285724Y-164610686D01*
X27238105Y-164705924D01*
X27142867Y-164801162D01*
X27000010Y-164848781D01*
X26761915Y-164848781D01*
X28285724Y-164848781D02*
X27714296Y-164848781D01*
X28000010Y-164848781D02*
X28000010Y-163848781D01*
X27904772Y-163991639D01*
X27809534Y-164086877D01*
X27714296Y-164134496D01*
X29142867Y-163848781D02*
X28952391Y-163848781D01*
X28857153Y-163896401D01*
X28809534Y-163944020D01*
X28714296Y-164086877D01*
X28666677Y-164277353D01*
X28666677Y-164658305D01*
X28714296Y-164753543D01*
X28761915Y-164801162D01*
X28857153Y-164848781D01*
X29047629Y-164848781D01*
X29142867Y-164801162D01*
X29190486Y-164753543D01*
X29238105Y-164658305D01*
X29238105Y-164420210D01*
X29190486Y-164324972D01*
X29142867Y-164277353D01*
X29047629Y-164229734D01*
X28857153Y-164229734D01*
X28761915Y-164277353D01*
X28714296Y-164324972D01*
X28666677Y-164420210D01*
%TO.C,D17*%
X48761915Y-164848781D02*
X48761915Y-163848781D01*
X49000010Y-163848781D01*
X49142867Y-163896401D01*
X49238105Y-163991639D01*
X49285724Y-164086877D01*
X49333343Y-164277353D01*
X49333343Y-164420210D01*
X49285724Y-164610686D01*
X49238105Y-164705924D01*
X49142867Y-164801162D01*
X49000010Y-164848781D01*
X48761915Y-164848781D01*
X50285724Y-164848781D02*
X49714296Y-164848781D01*
X50000010Y-164848781D02*
X50000010Y-163848781D01*
X49904772Y-163991639D01*
X49809534Y-164086877D01*
X49714296Y-164134496D01*
X50619058Y-163848781D02*
X51285724Y-163848781D01*
X50857153Y-164848781D01*
%TO.C,D18*%
X70761915Y-164848781D02*
X70761915Y-163848781D01*
X71000010Y-163848781D01*
X71142867Y-163896401D01*
X71238105Y-163991639D01*
X71285724Y-164086877D01*
X71333343Y-164277353D01*
X71333343Y-164420210D01*
X71285724Y-164610686D01*
X71238105Y-164705924D01*
X71142867Y-164801162D01*
X71000010Y-164848781D01*
X70761915Y-164848781D01*
X72285724Y-164848781D02*
X71714296Y-164848781D01*
X72000010Y-164848781D02*
X72000010Y-163848781D01*
X71904772Y-163991639D01*
X71809534Y-164086877D01*
X71714296Y-164134496D01*
X72857153Y-164277353D02*
X72761915Y-164229734D01*
X72714296Y-164182115D01*
X72666677Y-164086877D01*
X72666677Y-164039258D01*
X72714296Y-163944020D01*
X72761915Y-163896401D01*
X72857153Y-163848781D01*
X73047629Y-163848781D01*
X73142867Y-163896401D01*
X73190486Y-163944020D01*
X73238105Y-164039258D01*
X73238105Y-164086877D01*
X73190486Y-164182115D01*
X73142867Y-164229734D01*
X73047629Y-164277353D01*
X72857153Y-164277353D01*
X72761915Y-164324972D01*
X72714296Y-164372591D01*
X72666677Y-164467829D01*
X72666677Y-164658305D01*
X72714296Y-164753543D01*
X72761915Y-164801162D01*
X72857153Y-164848781D01*
X73047629Y-164848781D01*
X73142867Y-164801162D01*
X73190486Y-164753543D01*
X73238105Y-164658305D01*
X73238105Y-164467829D01*
X73190486Y-164372591D01*
X73142867Y-164324972D01*
X73047629Y-164277353D01*
%TO.C,D19*%
X26761915Y-188548781D02*
X26761915Y-187548781D01*
X27000010Y-187548781D01*
X27142867Y-187596401D01*
X27238105Y-187691639D01*
X27285724Y-187786877D01*
X27333343Y-187977353D01*
X27333343Y-188120210D01*
X27285724Y-188310686D01*
X27238105Y-188405924D01*
X27142867Y-188501162D01*
X27000010Y-188548781D01*
X26761915Y-188548781D01*
X28285724Y-188548781D02*
X27714296Y-188548781D01*
X28000010Y-188548781D02*
X28000010Y-187548781D01*
X27904772Y-187691639D01*
X27809534Y-187786877D01*
X27714296Y-187834496D01*
X28761915Y-188548781D02*
X28952391Y-188548781D01*
X29047629Y-188501162D01*
X29095248Y-188453543D01*
X29190486Y-188310686D01*
X29238105Y-188120210D01*
X29238105Y-187739258D01*
X29190486Y-187644020D01*
X29142867Y-187596401D01*
X29047629Y-187548781D01*
X28857153Y-187548781D01*
X28761915Y-187596401D01*
X28714296Y-187644020D01*
X28666677Y-187739258D01*
X28666677Y-187977353D01*
X28714296Y-188072591D01*
X28761915Y-188120210D01*
X28857153Y-188167829D01*
X29047629Y-188167829D01*
X29142867Y-188120210D01*
X29190486Y-188072591D01*
X29238105Y-187977353D01*
%TO.C,D20*%
X48761915Y-188548781D02*
X48761915Y-187548781D01*
X49000010Y-187548781D01*
X49142867Y-187596401D01*
X49238105Y-187691639D01*
X49285724Y-187786877D01*
X49333343Y-187977353D01*
X49333343Y-188120210D01*
X49285724Y-188310686D01*
X49238105Y-188405924D01*
X49142867Y-188501162D01*
X49000010Y-188548781D01*
X48761915Y-188548781D01*
X49714296Y-187644020D02*
X49761915Y-187596401D01*
X49857153Y-187548781D01*
X50095248Y-187548781D01*
X50190486Y-187596401D01*
X50238105Y-187644020D01*
X50285724Y-187739258D01*
X50285724Y-187834496D01*
X50238105Y-187977353D01*
X49666677Y-188548781D01*
X50285724Y-188548781D01*
X50904772Y-187548781D02*
X51000010Y-187548781D01*
X51095248Y-187596401D01*
X51142867Y-187644020D01*
X51190486Y-187739258D01*
X51238105Y-187929734D01*
X51238105Y-188167829D01*
X51190486Y-188358305D01*
X51142867Y-188453543D01*
X51095248Y-188501162D01*
X51000010Y-188548781D01*
X50904772Y-188548781D01*
X50809534Y-188501162D01*
X50761915Y-188453543D01*
X50714296Y-188358305D01*
X50666677Y-188167829D01*
X50666677Y-187929734D01*
X50714296Y-187739258D01*
X50761915Y-187644020D01*
X50809534Y-187596401D01*
X50904772Y-187548781D01*
%TO.C,D21*%
X70761915Y-188548781D02*
X70761915Y-187548781D01*
X71000010Y-187548781D01*
X71142867Y-187596401D01*
X71238105Y-187691639D01*
X71285724Y-187786877D01*
X71333343Y-187977353D01*
X71333343Y-188120210D01*
X71285724Y-188310686D01*
X71238105Y-188405924D01*
X71142867Y-188501162D01*
X71000010Y-188548781D01*
X70761915Y-188548781D01*
X71714296Y-187644020D02*
X71761915Y-187596401D01*
X71857153Y-187548781D01*
X72095248Y-187548781D01*
X72190486Y-187596401D01*
X72238105Y-187644020D01*
X72285724Y-187739258D01*
X72285724Y-187834496D01*
X72238105Y-187977353D01*
X71666677Y-188548781D01*
X72285724Y-188548781D01*
X73238105Y-188548781D02*
X72666677Y-188548781D01*
X72952391Y-188548781D02*
X72952391Y-187548781D01*
X72857153Y-187691639D01*
X72761915Y-187786877D01*
X72666677Y-187834496D01*
%TO.C,D22*%
X26761915Y-212248781D02*
X26761915Y-211248781D01*
X27000010Y-211248781D01*
X27142867Y-211296401D01*
X27238105Y-211391639D01*
X27285724Y-211486877D01*
X27333343Y-211677353D01*
X27333343Y-211820210D01*
X27285724Y-212010686D01*
X27238105Y-212105924D01*
X27142867Y-212201162D01*
X27000010Y-212248781D01*
X26761915Y-212248781D01*
X27714296Y-211344020D02*
X27761915Y-211296401D01*
X27857153Y-211248781D01*
X28095248Y-211248781D01*
X28190486Y-211296401D01*
X28238105Y-211344020D01*
X28285724Y-211439258D01*
X28285724Y-211534496D01*
X28238105Y-211677353D01*
X27666677Y-212248781D01*
X28285724Y-212248781D01*
X28666677Y-211344020D02*
X28714296Y-211296401D01*
X28809534Y-211248781D01*
X29047629Y-211248781D01*
X29142867Y-211296401D01*
X29190486Y-211344020D01*
X29238105Y-211439258D01*
X29238105Y-211534496D01*
X29190486Y-211677353D01*
X28619058Y-212248781D01*
X29238105Y-212248781D01*
%TO.C,D23*%
X48761915Y-212248781D02*
X48761915Y-211248781D01*
X49000010Y-211248781D01*
X49142867Y-211296401D01*
X49238105Y-211391639D01*
X49285724Y-211486877D01*
X49333343Y-211677353D01*
X49333343Y-211820210D01*
X49285724Y-212010686D01*
X49238105Y-212105924D01*
X49142867Y-212201162D01*
X49000010Y-212248781D01*
X48761915Y-212248781D01*
X49714296Y-211344020D02*
X49761915Y-211296401D01*
X49857153Y-211248781D01*
X50095248Y-211248781D01*
X50190486Y-211296401D01*
X50238105Y-211344020D01*
X50285724Y-211439258D01*
X50285724Y-211534496D01*
X50238105Y-211677353D01*
X49666677Y-212248781D01*
X50285724Y-212248781D01*
X50619058Y-211248781D02*
X51238105Y-211248781D01*
X50904772Y-211629734D01*
X51047629Y-211629734D01*
X51142867Y-211677353D01*
X51190486Y-211724972D01*
X51238105Y-211820210D01*
X51238105Y-212058305D01*
X51190486Y-212153543D01*
X51142867Y-212201162D01*
X51047629Y-212248781D01*
X50761915Y-212248781D01*
X50666677Y-212201162D01*
X50619058Y-212153543D01*
%TO.C,D24*%
X70761915Y-212248781D02*
X70761915Y-211248781D01*
X71000010Y-211248781D01*
X71142867Y-211296401D01*
X71238105Y-211391639D01*
X71285724Y-211486877D01*
X71333343Y-211677353D01*
X71333343Y-211820210D01*
X71285724Y-212010686D01*
X71238105Y-212105924D01*
X71142867Y-212201162D01*
X71000010Y-212248781D01*
X70761915Y-212248781D01*
X71714296Y-211344020D02*
X71761915Y-211296401D01*
X71857153Y-211248781D01*
X72095248Y-211248781D01*
X72190486Y-211296401D01*
X72238105Y-211344020D01*
X72285724Y-211439258D01*
X72285724Y-211534496D01*
X72238105Y-211677353D01*
X71666677Y-212248781D01*
X72285724Y-212248781D01*
X73142867Y-211582115D02*
X73142867Y-212248781D01*
X72904772Y-211201162D02*
X72666677Y-211915448D01*
X73285724Y-211915448D01*
%TO.C,U1*%
X24952380Y-42111904D02*
X25761904Y-42111904D01*
X25857142Y-42064285D01*
X25904761Y-42016666D01*
X25952380Y-41921428D01*
X25952380Y-41730952D01*
X25904761Y-41635714D01*
X25857142Y-41588095D01*
X25761904Y-41540476D01*
X24952380Y-41540476D01*
X25952380Y-40540476D02*
X25952380Y-41111904D01*
X25952380Y-40826190D02*
X24952380Y-40826190D01*
X25095238Y-40921428D01*
X25190476Y-41016666D01*
X25238095Y-41111904D01*
%TO.C,U2*%
X46952380Y-42111904D02*
X47761904Y-42111904D01*
X47857142Y-42064285D01*
X47904761Y-42016666D01*
X47952380Y-41921428D01*
X47952380Y-41730952D01*
X47904761Y-41635714D01*
X47857142Y-41588095D01*
X47761904Y-41540476D01*
X46952380Y-41540476D01*
X47047619Y-41111904D02*
X47000000Y-41064285D01*
X46952380Y-40969047D01*
X46952380Y-40730952D01*
X47000000Y-40635714D01*
X47047619Y-40588095D01*
X47142857Y-40540476D01*
X47238095Y-40540476D01*
X47380952Y-40588095D01*
X47952380Y-41159523D01*
X47952380Y-40540476D01*
%TO.C,U3*%
X68952380Y-42111904D02*
X69761904Y-42111904D01*
X69857142Y-42064285D01*
X69904761Y-42016666D01*
X69952380Y-41921428D01*
X69952380Y-41730952D01*
X69904761Y-41635714D01*
X69857142Y-41588095D01*
X69761904Y-41540476D01*
X68952380Y-41540476D01*
X68952380Y-41159523D02*
X68952380Y-40540476D01*
X69333333Y-40873809D01*
X69333333Y-40730952D01*
X69380952Y-40635714D01*
X69428571Y-40588095D01*
X69523809Y-40540476D01*
X69761904Y-40540476D01*
X69857142Y-40588095D01*
X69904761Y-40635714D01*
X69952380Y-40730952D01*
X69952380Y-41016666D01*
X69904761Y-41111904D01*
X69857142Y-41159523D01*
%TO.C,U4*%
X24962380Y-66031904D02*
X25771904Y-66031904D01*
X25867142Y-65984285D01*
X25914761Y-65936666D01*
X25962380Y-65841428D01*
X25962380Y-65650952D01*
X25914761Y-65555714D01*
X25867142Y-65508095D01*
X25771904Y-65460476D01*
X24962380Y-65460476D01*
X25295714Y-64555714D02*
X25962380Y-64555714D01*
X24914761Y-64793809D02*
X25629047Y-65031904D01*
X25629047Y-64412857D01*
%TO.C,U5*%
X46952380Y-65811904D02*
X47761904Y-65811904D01*
X47857142Y-65764285D01*
X47904761Y-65716666D01*
X47952380Y-65621428D01*
X47952380Y-65430952D01*
X47904761Y-65335714D01*
X47857142Y-65288095D01*
X47761904Y-65240476D01*
X46952380Y-65240476D01*
X46952380Y-64288095D02*
X46952380Y-64764285D01*
X47428571Y-64811904D01*
X47380952Y-64764285D01*
X47333333Y-64669047D01*
X47333333Y-64430952D01*
X47380952Y-64335714D01*
X47428571Y-64288095D01*
X47523809Y-64240476D01*
X47761904Y-64240476D01*
X47857142Y-64288095D01*
X47904761Y-64335714D01*
X47952380Y-64430952D01*
X47952380Y-64669047D01*
X47904761Y-64764285D01*
X47857142Y-64811904D01*
%TO.C,U6*%
X68952380Y-65811904D02*
X69761904Y-65811904D01*
X69857142Y-65764285D01*
X69904761Y-65716666D01*
X69952380Y-65621428D01*
X69952380Y-65430952D01*
X69904761Y-65335714D01*
X69857142Y-65288095D01*
X69761904Y-65240476D01*
X68952380Y-65240476D01*
X68952380Y-64335714D02*
X68952380Y-64526190D01*
X69000000Y-64621428D01*
X69047619Y-64669047D01*
X69190476Y-64764285D01*
X69380952Y-64811904D01*
X69761904Y-64811904D01*
X69857142Y-64764285D01*
X69904761Y-64716666D01*
X69952380Y-64621428D01*
X69952380Y-64430952D01*
X69904761Y-64335714D01*
X69857142Y-64288095D01*
X69761904Y-64240476D01*
X69523809Y-64240476D01*
X69428571Y-64288095D01*
X69380952Y-64335714D01*
X69333333Y-64430952D01*
X69333333Y-64621428D01*
X69380952Y-64716666D01*
X69428571Y-64764285D01*
X69523809Y-64811904D01*
%TO.C,U7*%
X24952380Y-89511904D02*
X25761904Y-89511904D01*
X25857142Y-89464285D01*
X25904761Y-89416666D01*
X25952380Y-89321428D01*
X25952380Y-89130952D01*
X25904761Y-89035714D01*
X25857142Y-88988095D01*
X25761904Y-88940476D01*
X24952380Y-88940476D01*
X24952380Y-88559523D02*
X24952380Y-87892857D01*
X25952380Y-88321428D01*
%TO.C,U8*%
X46952380Y-89511904D02*
X47761904Y-89511904D01*
X47857142Y-89464285D01*
X47904761Y-89416666D01*
X47952380Y-89321428D01*
X47952380Y-89130952D01*
X47904761Y-89035714D01*
X47857142Y-88988095D01*
X47761904Y-88940476D01*
X46952380Y-88940476D01*
X47380952Y-88321428D02*
X47333333Y-88416666D01*
X47285714Y-88464285D01*
X47190476Y-88511904D01*
X47142857Y-88511904D01*
X47047619Y-88464285D01*
X47000000Y-88416666D01*
X46952380Y-88321428D01*
X46952380Y-88130952D01*
X47000000Y-88035714D01*
X47047619Y-87988095D01*
X47142857Y-87940476D01*
X47190476Y-87940476D01*
X47285714Y-87988095D01*
X47333333Y-88035714D01*
X47380952Y-88130952D01*
X47380952Y-88321428D01*
X47428571Y-88416666D01*
X47476190Y-88464285D01*
X47571428Y-88511904D01*
X47761904Y-88511904D01*
X47857142Y-88464285D01*
X47904761Y-88416666D01*
X47952380Y-88321428D01*
X47952380Y-88130952D01*
X47904761Y-88035714D01*
X47857142Y-87988095D01*
X47761904Y-87940476D01*
X47571428Y-87940476D01*
X47476190Y-87988095D01*
X47428571Y-88035714D01*
X47380952Y-88130952D01*
%TO.C,U9*%
X68952380Y-89511904D02*
X69761904Y-89511904D01*
X69857142Y-89464285D01*
X69904761Y-89416666D01*
X69952380Y-89321428D01*
X69952380Y-89130952D01*
X69904761Y-89035714D01*
X69857142Y-88988095D01*
X69761904Y-88940476D01*
X68952380Y-88940476D01*
X69952380Y-88416666D02*
X69952380Y-88226190D01*
X69904761Y-88130952D01*
X69857142Y-88083333D01*
X69714285Y-87988095D01*
X69523809Y-87940476D01*
X69142857Y-87940476D01*
X69047619Y-87988095D01*
X69000000Y-88035714D01*
X68952380Y-88130952D01*
X68952380Y-88321428D01*
X69000000Y-88416666D01*
X69047619Y-88464285D01*
X69142857Y-88511904D01*
X69380952Y-88511904D01*
X69476190Y-88464285D01*
X69523809Y-88416666D01*
X69571428Y-88321428D01*
X69571428Y-88130952D01*
X69523809Y-88035714D01*
X69476190Y-87988095D01*
X69380952Y-87940476D01*
%TO.C,U10*%
X24952380Y-113688095D02*
X25761904Y-113688095D01*
X25857142Y-113640476D01*
X25904761Y-113592857D01*
X25952380Y-113497619D01*
X25952380Y-113307142D01*
X25904761Y-113211904D01*
X25857142Y-113164285D01*
X25761904Y-113116666D01*
X24952380Y-113116666D01*
X25952380Y-112116666D02*
X25952380Y-112688095D01*
X25952380Y-112402380D02*
X24952380Y-112402380D01*
X25095238Y-112497619D01*
X25190476Y-112592857D01*
X25238095Y-112688095D01*
X24952380Y-111497619D02*
X24952380Y-111402380D01*
X25000000Y-111307142D01*
X25047619Y-111259523D01*
X25142857Y-111211904D01*
X25333333Y-111164285D01*
X25571428Y-111164285D01*
X25761904Y-111211904D01*
X25857142Y-111259523D01*
X25904761Y-111307142D01*
X25952380Y-111402380D01*
X25952380Y-111497619D01*
X25904761Y-111592857D01*
X25857142Y-111640476D01*
X25761904Y-111688095D01*
X25571428Y-111735714D01*
X25333333Y-111735714D01*
X25142857Y-111688095D01*
X25047619Y-111640476D01*
X25000000Y-111592857D01*
X24952380Y-111497619D01*
%TO.C,U11*%
X46952380Y-113688095D02*
X47761904Y-113688095D01*
X47857142Y-113640476D01*
X47904761Y-113592857D01*
X47952380Y-113497619D01*
X47952380Y-113307142D01*
X47904761Y-113211904D01*
X47857142Y-113164285D01*
X47761904Y-113116666D01*
X46952380Y-113116666D01*
X47952380Y-112116666D02*
X47952380Y-112688095D01*
X47952380Y-112402380D02*
X46952380Y-112402380D01*
X47095238Y-112497619D01*
X47190476Y-112592857D01*
X47238095Y-112688095D01*
X47952380Y-111164285D02*
X47952380Y-111735714D01*
X47952380Y-111450000D02*
X46952380Y-111450000D01*
X47095238Y-111545238D01*
X47190476Y-111640476D01*
X47238095Y-111735714D01*
%TO.C,U12*%
X68952380Y-113688095D02*
X69761904Y-113688095D01*
X69857142Y-113640476D01*
X69904761Y-113592857D01*
X69952380Y-113497619D01*
X69952380Y-113307142D01*
X69904761Y-113211904D01*
X69857142Y-113164285D01*
X69761904Y-113116666D01*
X68952380Y-113116666D01*
X69952380Y-112116666D02*
X69952380Y-112688095D01*
X69952380Y-112402380D02*
X68952380Y-112402380D01*
X69095238Y-112497619D01*
X69190476Y-112592857D01*
X69238095Y-112688095D01*
X69047619Y-111735714D02*
X69000000Y-111688095D01*
X68952380Y-111592857D01*
X68952380Y-111354761D01*
X69000000Y-111259523D01*
X69047619Y-111211904D01*
X69142857Y-111164285D01*
X69238095Y-111164285D01*
X69380952Y-111211904D01*
X69952380Y-111783333D01*
X69952380Y-111164285D01*
%TO.C,U13*%
X24952380Y-137388095D02*
X25761904Y-137388095D01*
X25857142Y-137340476D01*
X25904761Y-137292857D01*
X25952380Y-137197619D01*
X25952380Y-137007142D01*
X25904761Y-136911904D01*
X25857142Y-136864285D01*
X25761904Y-136816666D01*
X24952380Y-136816666D01*
X25952380Y-135816666D02*
X25952380Y-136388095D01*
X25952380Y-136102380D02*
X24952380Y-136102380D01*
X25095238Y-136197619D01*
X25190476Y-136292857D01*
X25238095Y-136388095D01*
X24952380Y-135483333D02*
X24952380Y-134864285D01*
X25333333Y-135197619D01*
X25333333Y-135054761D01*
X25380952Y-134959523D01*
X25428571Y-134911904D01*
X25523809Y-134864285D01*
X25761904Y-134864285D01*
X25857142Y-134911904D01*
X25904761Y-134959523D01*
X25952380Y-135054761D01*
X25952380Y-135340476D01*
X25904761Y-135435714D01*
X25857142Y-135483333D01*
%TO.C,U14*%
X46952380Y-137388095D02*
X47761904Y-137388095D01*
X47857142Y-137340476D01*
X47904761Y-137292857D01*
X47952380Y-137197619D01*
X47952380Y-137007142D01*
X47904761Y-136911904D01*
X47857142Y-136864285D01*
X47761904Y-136816666D01*
X46952380Y-136816666D01*
X47952380Y-135816666D02*
X47952380Y-136388095D01*
X47952380Y-136102380D02*
X46952380Y-136102380D01*
X47095238Y-136197619D01*
X47190476Y-136292857D01*
X47238095Y-136388095D01*
X47285714Y-134959523D02*
X47952380Y-134959523D01*
X46904761Y-135197619D02*
X47619047Y-135435714D01*
X47619047Y-134816666D01*
%TO.C,U15*%
X68952380Y-137388095D02*
X69761904Y-137388095D01*
X69857142Y-137340476D01*
X69904761Y-137292857D01*
X69952380Y-137197619D01*
X69952380Y-137007142D01*
X69904761Y-136911904D01*
X69857142Y-136864285D01*
X69761904Y-136816666D01*
X68952380Y-136816666D01*
X69952380Y-135816666D02*
X69952380Y-136388095D01*
X69952380Y-136102380D02*
X68952380Y-136102380D01*
X69095238Y-136197619D01*
X69190476Y-136292857D01*
X69238095Y-136388095D01*
X68952380Y-134911904D02*
X68952380Y-135388095D01*
X69428571Y-135435714D01*
X69380952Y-135388095D01*
X69333333Y-135292857D01*
X69333333Y-135054761D01*
X69380952Y-134959523D01*
X69428571Y-134911904D01*
X69523809Y-134864285D01*
X69761904Y-134864285D01*
X69857142Y-134911904D01*
X69904761Y-134959523D01*
X69952380Y-135054761D01*
X69952380Y-135292857D01*
X69904761Y-135388095D01*
X69857142Y-135435714D01*
%TO.C,U16*%
X24952380Y-161088095D02*
X25761904Y-161088095D01*
X25857142Y-161040476D01*
X25904761Y-160992857D01*
X25952380Y-160897619D01*
X25952380Y-160707142D01*
X25904761Y-160611904D01*
X25857142Y-160564285D01*
X25761904Y-160516666D01*
X24952380Y-160516666D01*
X25952380Y-159516666D02*
X25952380Y-160088095D01*
X25952380Y-159802380D02*
X24952380Y-159802380D01*
X25095238Y-159897619D01*
X25190476Y-159992857D01*
X25238095Y-160088095D01*
X24952380Y-158659523D02*
X24952380Y-158850000D01*
X25000000Y-158945238D01*
X25047619Y-158992857D01*
X25190476Y-159088095D01*
X25380952Y-159135714D01*
X25761904Y-159135714D01*
X25857142Y-159088095D01*
X25904761Y-159040476D01*
X25952380Y-158945238D01*
X25952380Y-158754761D01*
X25904761Y-158659523D01*
X25857142Y-158611904D01*
X25761904Y-158564285D01*
X25523809Y-158564285D01*
X25428571Y-158611904D01*
X25380952Y-158659523D01*
X25333333Y-158754761D01*
X25333333Y-158945238D01*
X25380952Y-159040476D01*
X25428571Y-159088095D01*
X25523809Y-159135714D01*
%TO.C,U17*%
X46952380Y-161088095D02*
X47761904Y-161088095D01*
X47857142Y-161040476D01*
X47904761Y-160992857D01*
X47952380Y-160897619D01*
X47952380Y-160707142D01*
X47904761Y-160611904D01*
X47857142Y-160564285D01*
X47761904Y-160516666D01*
X46952380Y-160516666D01*
X47952380Y-159516666D02*
X47952380Y-160088095D01*
X47952380Y-159802380D02*
X46952380Y-159802380D01*
X47095238Y-159897619D01*
X47190476Y-159992857D01*
X47238095Y-160088095D01*
X46952380Y-159183333D02*
X46952380Y-158516666D01*
X47952380Y-158945238D01*
%TO.C,U18*%
X68952380Y-161088095D02*
X69761904Y-161088095D01*
X69857142Y-161040476D01*
X69904761Y-160992857D01*
X69952380Y-160897619D01*
X69952380Y-160707142D01*
X69904761Y-160611904D01*
X69857142Y-160564285D01*
X69761904Y-160516666D01*
X68952380Y-160516666D01*
X69952380Y-159516666D02*
X69952380Y-160088095D01*
X69952380Y-159802380D02*
X68952380Y-159802380D01*
X69095238Y-159897619D01*
X69190476Y-159992857D01*
X69238095Y-160088095D01*
X69380952Y-158945238D02*
X69333333Y-159040476D01*
X69285714Y-159088095D01*
X69190476Y-159135714D01*
X69142857Y-159135714D01*
X69047619Y-159088095D01*
X69000000Y-159040476D01*
X68952380Y-158945238D01*
X68952380Y-158754761D01*
X69000000Y-158659523D01*
X69047619Y-158611904D01*
X69142857Y-158564285D01*
X69190476Y-158564285D01*
X69285714Y-158611904D01*
X69333333Y-158659523D01*
X69380952Y-158754761D01*
X69380952Y-158945238D01*
X69428571Y-159040476D01*
X69476190Y-159088095D01*
X69571428Y-159135714D01*
X69761904Y-159135714D01*
X69857142Y-159088095D01*
X69904761Y-159040476D01*
X69952380Y-158945238D01*
X69952380Y-158754761D01*
X69904761Y-158659523D01*
X69857142Y-158611904D01*
X69761904Y-158564285D01*
X69571428Y-158564285D01*
X69476190Y-158611904D01*
X69428571Y-158659523D01*
X69380952Y-158754761D01*
%TO.C,U19*%
X24952380Y-184788095D02*
X25761904Y-184788095D01*
X25857142Y-184740476D01*
X25904761Y-184692857D01*
X25952380Y-184597619D01*
X25952380Y-184407142D01*
X25904761Y-184311904D01*
X25857142Y-184264285D01*
X25761904Y-184216666D01*
X24952380Y-184216666D01*
X25952380Y-183216666D02*
X25952380Y-183788095D01*
X25952380Y-183502380D02*
X24952380Y-183502380D01*
X25095238Y-183597619D01*
X25190476Y-183692857D01*
X25238095Y-183788095D01*
X25952380Y-182740476D02*
X25952380Y-182550000D01*
X25904761Y-182454761D01*
X25857142Y-182407142D01*
X25714285Y-182311904D01*
X25523809Y-182264285D01*
X25142857Y-182264285D01*
X25047619Y-182311904D01*
X25000000Y-182359523D01*
X24952380Y-182454761D01*
X24952380Y-182645238D01*
X25000000Y-182740476D01*
X25047619Y-182788095D01*
X25142857Y-182835714D01*
X25380952Y-182835714D01*
X25476190Y-182788095D01*
X25523809Y-182740476D01*
X25571428Y-182645238D01*
X25571428Y-182454761D01*
X25523809Y-182359523D01*
X25476190Y-182311904D01*
X25380952Y-182264285D01*
%TO.C,U20*%
X46952380Y-184788095D02*
X47761904Y-184788095D01*
X47857142Y-184740476D01*
X47904761Y-184692857D01*
X47952380Y-184597619D01*
X47952380Y-184407142D01*
X47904761Y-184311904D01*
X47857142Y-184264285D01*
X47761904Y-184216666D01*
X46952380Y-184216666D01*
X47047619Y-183788095D02*
X47000000Y-183740476D01*
X46952380Y-183645238D01*
X46952380Y-183407142D01*
X47000000Y-183311904D01*
X47047619Y-183264285D01*
X47142857Y-183216666D01*
X47238095Y-183216666D01*
X47380952Y-183264285D01*
X47952380Y-183835714D01*
X47952380Y-183216666D01*
X46952380Y-182597619D02*
X46952380Y-182502380D01*
X47000000Y-182407142D01*
X47047619Y-182359523D01*
X47142857Y-182311904D01*
X47333333Y-182264285D01*
X47571428Y-182264285D01*
X47761904Y-182311904D01*
X47857142Y-182359523D01*
X47904761Y-182407142D01*
X47952380Y-182502380D01*
X47952380Y-182597619D01*
X47904761Y-182692857D01*
X47857142Y-182740476D01*
X47761904Y-182788095D01*
X47571428Y-182835714D01*
X47333333Y-182835714D01*
X47142857Y-182788095D01*
X47047619Y-182740476D01*
X47000000Y-182692857D01*
X46952380Y-182597619D01*
%TO.C,U21*%
X68952380Y-184788095D02*
X69761904Y-184788095D01*
X69857142Y-184740476D01*
X69904761Y-184692857D01*
X69952380Y-184597619D01*
X69952380Y-184407142D01*
X69904761Y-184311904D01*
X69857142Y-184264285D01*
X69761904Y-184216666D01*
X68952380Y-184216666D01*
X69047619Y-183788095D02*
X69000000Y-183740476D01*
X68952380Y-183645238D01*
X68952380Y-183407142D01*
X69000000Y-183311904D01*
X69047619Y-183264285D01*
X69142857Y-183216666D01*
X69238095Y-183216666D01*
X69380952Y-183264285D01*
X69952380Y-183835714D01*
X69952380Y-183216666D01*
X69952380Y-182264285D02*
X69952380Y-182835714D01*
X69952380Y-182550000D02*
X68952380Y-182550000D01*
X69095238Y-182645238D01*
X69190476Y-182740476D01*
X69238095Y-182835714D01*
%TO.C,U22*%
X24952380Y-208488095D02*
X25761904Y-208488095D01*
X25857142Y-208440476D01*
X25904761Y-208392857D01*
X25952380Y-208297619D01*
X25952380Y-208107142D01*
X25904761Y-208011904D01*
X25857142Y-207964285D01*
X25761904Y-207916666D01*
X24952380Y-207916666D01*
X25047619Y-207488095D02*
X25000000Y-207440476D01*
X24952380Y-207345238D01*
X24952380Y-207107142D01*
X25000000Y-207011904D01*
X25047619Y-206964285D01*
X25142857Y-206916666D01*
X25238095Y-206916666D01*
X25380952Y-206964285D01*
X25952380Y-207535714D01*
X25952380Y-206916666D01*
X25047619Y-206535714D02*
X25000000Y-206488095D01*
X24952380Y-206392857D01*
X24952380Y-206154761D01*
X25000000Y-206059523D01*
X25047619Y-206011904D01*
X25142857Y-205964285D01*
X25238095Y-205964285D01*
X25380952Y-206011904D01*
X25952380Y-206583333D01*
X25952380Y-205964285D01*
%TO.C,U23*%
X46952380Y-208488095D02*
X47761904Y-208488095D01*
X47857142Y-208440476D01*
X47904761Y-208392857D01*
X47952380Y-208297619D01*
X47952380Y-208107142D01*
X47904761Y-208011904D01*
X47857142Y-207964285D01*
X47761904Y-207916666D01*
X46952380Y-207916666D01*
X47047619Y-207488095D02*
X47000000Y-207440476D01*
X46952380Y-207345238D01*
X46952380Y-207107142D01*
X47000000Y-207011904D01*
X47047619Y-206964285D01*
X47142857Y-206916666D01*
X47238095Y-206916666D01*
X47380952Y-206964285D01*
X47952380Y-207535714D01*
X47952380Y-206916666D01*
X46952380Y-206583333D02*
X46952380Y-205964285D01*
X47333333Y-206297619D01*
X47333333Y-206154761D01*
X47380952Y-206059523D01*
X47428571Y-206011904D01*
X47523809Y-205964285D01*
X47761904Y-205964285D01*
X47857142Y-206011904D01*
X47904761Y-206059523D01*
X47952380Y-206154761D01*
X47952380Y-206440476D01*
X47904761Y-206535714D01*
X47857142Y-206583333D01*
%TO.C,U24*%
X68952380Y-208488095D02*
X69761904Y-208488095D01*
X69857142Y-208440476D01*
X69904761Y-208392857D01*
X69952380Y-208297619D01*
X69952380Y-208107142D01*
X69904761Y-208011904D01*
X69857142Y-207964285D01*
X69761904Y-207916666D01*
X68952380Y-207916666D01*
X69047619Y-207488095D02*
X69000000Y-207440476D01*
X68952380Y-207345238D01*
X68952380Y-207107142D01*
X69000000Y-207011904D01*
X69047619Y-206964285D01*
X69142857Y-206916666D01*
X69238095Y-206916666D01*
X69380952Y-206964285D01*
X69952380Y-207535714D01*
X69952380Y-206916666D01*
X69285714Y-206059523D02*
X69952380Y-206059523D01*
X68904761Y-206297619D02*
X69619047Y-206535714D01*
X69619047Y-205916666D01*
%TO.C,C1*%
X27710133Y-35607142D02*
X27662514Y-35654761D01*
X27519657Y-35702380D01*
X27424419Y-35702380D01*
X27281561Y-35654761D01*
X27186323Y-35559523D01*
X27138704Y-35464285D01*
X27091085Y-35273809D01*
X27091085Y-35130952D01*
X27138704Y-34940476D01*
X27186323Y-34845238D01*
X27281561Y-34750000D01*
X27424419Y-34702380D01*
X27519657Y-34702380D01*
X27662514Y-34750000D01*
X27710133Y-34797619D01*
X28662514Y-35702380D02*
X28091085Y-35702380D01*
X28376800Y-35702380D02*
X28376800Y-34702380D01*
X28281561Y-34845238D01*
X28186323Y-34940476D01*
X28091085Y-34988095D01*
%TO.C,C14*%
X49233942Y-130407142D02*
X49186323Y-130454761D01*
X49043466Y-130502380D01*
X48948228Y-130502380D01*
X48805371Y-130454761D01*
X48710133Y-130359523D01*
X48662514Y-130264285D01*
X48614895Y-130073809D01*
X48614895Y-129930952D01*
X48662514Y-129740476D01*
X48710133Y-129645238D01*
X48805371Y-129550000D01*
X48948228Y-129502380D01*
X49043466Y-129502380D01*
X49186323Y-129550000D01*
X49233942Y-129597619D01*
X50186323Y-130502380D02*
X49614895Y-130502380D01*
X49900609Y-130502380D02*
X49900609Y-129502380D01*
X49805371Y-129645238D01*
X49710133Y-129740476D01*
X49614895Y-129788095D01*
X51043466Y-129835714D02*
X51043466Y-130502380D01*
X50805371Y-129454761D02*
X50567276Y-130169047D01*
X51186323Y-130169047D01*
%TO.C,C8*%
X49710133Y-83007142D02*
X49662514Y-83054761D01*
X49519657Y-83102380D01*
X49424419Y-83102380D01*
X49281561Y-83054761D01*
X49186323Y-82959523D01*
X49138704Y-82864285D01*
X49091085Y-82673809D01*
X49091085Y-82530952D01*
X49138704Y-82340476D01*
X49186323Y-82245238D01*
X49281561Y-82150000D01*
X49424419Y-82102380D01*
X49519657Y-82102380D01*
X49662514Y-82150000D01*
X49710133Y-82197619D01*
X50281561Y-82530952D02*
X50186323Y-82483333D01*
X50138704Y-82435714D01*
X50091085Y-82340476D01*
X50091085Y-82292857D01*
X50138704Y-82197619D01*
X50186323Y-82150000D01*
X50281561Y-82102380D01*
X50472038Y-82102380D01*
X50567276Y-82150000D01*
X50614895Y-82197619D01*
X50662514Y-82292857D01*
X50662514Y-82340476D01*
X50614895Y-82435714D01*
X50567276Y-82483333D01*
X50472038Y-82530952D01*
X50281561Y-82530952D01*
X50186323Y-82578571D01*
X50138704Y-82626190D01*
X50091085Y-82721428D01*
X50091085Y-82911904D01*
X50138704Y-83007142D01*
X50186323Y-83054761D01*
X50281561Y-83102380D01*
X50472038Y-83102380D01*
X50567276Y-83054761D01*
X50614895Y-83007142D01*
X50662514Y-82911904D01*
X50662514Y-82721428D01*
X50614895Y-82626190D01*
X50567276Y-82578571D01*
X50472038Y-82530952D01*
%TO.C,C9*%
X71710133Y-83007142D02*
X71662514Y-83054761D01*
X71519657Y-83102380D01*
X71424419Y-83102380D01*
X71281561Y-83054761D01*
X71186323Y-82959523D01*
X71138704Y-82864285D01*
X71091085Y-82673809D01*
X71091085Y-82530952D01*
X71138704Y-82340476D01*
X71186323Y-82245238D01*
X71281561Y-82150000D01*
X71424419Y-82102380D01*
X71519657Y-82102380D01*
X71662514Y-82150000D01*
X71710133Y-82197619D01*
X72186323Y-83102380D02*
X72376800Y-83102380D01*
X72472038Y-83054761D01*
X72519657Y-83007142D01*
X72614895Y-82864285D01*
X72662514Y-82673809D01*
X72662514Y-82292857D01*
X72614895Y-82197619D01*
X72567276Y-82150000D01*
X72472038Y-82102380D01*
X72281561Y-82102380D01*
X72186323Y-82150000D01*
X72138704Y-82197619D01*
X72091085Y-82292857D01*
X72091085Y-82530952D01*
X72138704Y-82626190D01*
X72186323Y-82673809D01*
X72281561Y-82721428D01*
X72472038Y-82721428D01*
X72567276Y-82673809D01*
X72614895Y-82626190D01*
X72662514Y-82530952D01*
%TO.C,C19*%
X27233942Y-177807142D02*
X27186323Y-177854761D01*
X27043466Y-177902380D01*
X26948228Y-177902380D01*
X26805371Y-177854761D01*
X26710133Y-177759523D01*
X26662514Y-177664285D01*
X26614895Y-177473809D01*
X26614895Y-177330952D01*
X26662514Y-177140476D01*
X26710133Y-177045238D01*
X26805371Y-176950000D01*
X26948228Y-176902380D01*
X27043466Y-176902380D01*
X27186323Y-176950000D01*
X27233942Y-176997619D01*
X28186323Y-177902380D02*
X27614895Y-177902380D01*
X27900609Y-177902380D02*
X27900609Y-176902380D01*
X27805371Y-177045238D01*
X27710133Y-177140476D01*
X27614895Y-177188095D01*
X28662514Y-177902380D02*
X28852990Y-177902380D01*
X28948228Y-177854761D01*
X28995847Y-177807142D01*
X29091085Y-177664285D01*
X29138704Y-177473809D01*
X29138704Y-177092857D01*
X29091085Y-176997619D01*
X29043466Y-176950000D01*
X28948228Y-176902380D01*
X28757752Y-176902380D01*
X28662514Y-176950000D01*
X28614895Y-176997619D01*
X28567276Y-177092857D01*
X28567276Y-177330952D01*
X28614895Y-177426190D01*
X28662514Y-177473809D01*
X28757752Y-177521428D01*
X28948228Y-177521428D01*
X29043466Y-177473809D01*
X29091085Y-177426190D01*
X29138704Y-177330952D01*
%TO.C,C7*%
X27710133Y-83007142D02*
X27662514Y-83054761D01*
X27519657Y-83102380D01*
X27424419Y-83102380D01*
X27281561Y-83054761D01*
X27186323Y-82959523D01*
X27138704Y-82864285D01*
X27091085Y-82673809D01*
X27091085Y-82530952D01*
X27138704Y-82340476D01*
X27186323Y-82245238D01*
X27281561Y-82150000D01*
X27424419Y-82102380D01*
X27519657Y-82102380D01*
X27662514Y-82150000D01*
X27710133Y-82197619D01*
X28043466Y-82102380D02*
X28710133Y-82102380D01*
X28281561Y-83102380D01*
%TO.C,C4*%
X27763333Y-59677142D02*
X27715714Y-59724761D01*
X27572857Y-59772380D01*
X27477619Y-59772380D01*
X27334761Y-59724761D01*
X27239523Y-59629523D01*
X27191904Y-59534285D01*
X27144285Y-59343809D01*
X27144285Y-59200952D01*
X27191904Y-59010476D01*
X27239523Y-58915238D01*
X27334761Y-58820000D01*
X27477619Y-58772380D01*
X27572857Y-58772380D01*
X27715714Y-58820000D01*
X27763333Y-58867619D01*
X28620476Y-59105714D02*
X28620476Y-59772380D01*
X28382380Y-58724761D02*
X28144285Y-59439047D01*
X28763333Y-59439047D01*
%TO.C,C23*%
X49017142Y-201657142D02*
X48969523Y-201704761D01*
X48826666Y-201752380D01*
X48731428Y-201752380D01*
X48588571Y-201704761D01*
X48493333Y-201609523D01*
X48445714Y-201514285D01*
X48398095Y-201323809D01*
X48398095Y-201180952D01*
X48445714Y-200990476D01*
X48493333Y-200895238D01*
X48588571Y-200800000D01*
X48731428Y-200752380D01*
X48826666Y-200752380D01*
X48969523Y-200800000D01*
X49017142Y-200847619D01*
X49398095Y-200847619D02*
X49445714Y-200800000D01*
X49540952Y-200752380D01*
X49779047Y-200752380D01*
X49874285Y-200800000D01*
X49921904Y-200847619D01*
X49969523Y-200942857D01*
X49969523Y-201038095D01*
X49921904Y-201180952D01*
X49350476Y-201752380D01*
X49969523Y-201752380D01*
X50302857Y-200752380D02*
X50921904Y-200752380D01*
X50588571Y-201133333D01*
X50731428Y-201133333D01*
X50826666Y-201180952D01*
X50874285Y-201228571D01*
X50921904Y-201323809D01*
X50921904Y-201561904D01*
X50874285Y-201657142D01*
X50826666Y-201704761D01*
X50731428Y-201752380D01*
X50445714Y-201752380D01*
X50350476Y-201704761D01*
X50302857Y-201657142D01*
%TO.C,C13*%
X27233942Y-130407142D02*
X27186323Y-130454761D01*
X27043466Y-130502380D01*
X26948228Y-130502380D01*
X26805371Y-130454761D01*
X26710133Y-130359523D01*
X26662514Y-130264285D01*
X26614895Y-130073809D01*
X26614895Y-129930952D01*
X26662514Y-129740476D01*
X26710133Y-129645238D01*
X26805371Y-129550000D01*
X26948228Y-129502380D01*
X27043466Y-129502380D01*
X27186323Y-129550000D01*
X27233942Y-129597619D01*
X28186323Y-130502380D02*
X27614895Y-130502380D01*
X27900609Y-130502380D02*
X27900609Y-129502380D01*
X27805371Y-129645238D01*
X27710133Y-129740476D01*
X27614895Y-129788095D01*
X28519657Y-129502380D02*
X29138704Y-129502380D01*
X28805371Y-129883333D01*
X28948228Y-129883333D01*
X29043466Y-129930952D01*
X29091085Y-129978571D01*
X29138704Y-130073809D01*
X29138704Y-130311904D01*
X29091085Y-130407142D01*
X29043466Y-130454761D01*
X28948228Y-130502380D01*
X28662514Y-130502380D01*
X28567276Y-130454761D01*
X28519657Y-130407142D01*
%TO.C,C22*%
X27017142Y-201657142D02*
X26969523Y-201704761D01*
X26826666Y-201752380D01*
X26731428Y-201752380D01*
X26588571Y-201704761D01*
X26493333Y-201609523D01*
X26445714Y-201514285D01*
X26398095Y-201323809D01*
X26398095Y-201180952D01*
X26445714Y-200990476D01*
X26493333Y-200895238D01*
X26588571Y-200800000D01*
X26731428Y-200752380D01*
X26826666Y-200752380D01*
X26969523Y-200800000D01*
X27017142Y-200847619D01*
X27398095Y-200847619D02*
X27445714Y-200800000D01*
X27540952Y-200752380D01*
X27779047Y-200752380D01*
X27874285Y-200800000D01*
X27921904Y-200847619D01*
X27969523Y-200942857D01*
X27969523Y-201038095D01*
X27921904Y-201180952D01*
X27350476Y-201752380D01*
X27969523Y-201752380D01*
X28350476Y-200847619D02*
X28398095Y-200800000D01*
X28493333Y-200752380D01*
X28731428Y-200752380D01*
X28826666Y-200800000D01*
X28874285Y-200847619D01*
X28921904Y-200942857D01*
X28921904Y-201038095D01*
X28874285Y-201180952D01*
X28302857Y-201752380D01*
X28921904Y-201752380D01*
%TO.C,C12*%
X71197142Y-106567142D02*
X71149523Y-106614761D01*
X71006666Y-106662380D01*
X70911428Y-106662380D01*
X70768571Y-106614761D01*
X70673333Y-106519523D01*
X70625714Y-106424285D01*
X70578095Y-106233809D01*
X70578095Y-106090952D01*
X70625714Y-105900476D01*
X70673333Y-105805238D01*
X70768571Y-105710000D01*
X70911428Y-105662380D01*
X71006666Y-105662380D01*
X71149523Y-105710000D01*
X71197142Y-105757619D01*
X72149523Y-106662380D02*
X71578095Y-106662380D01*
X71863809Y-106662380D02*
X71863809Y-105662380D01*
X71768571Y-105805238D01*
X71673333Y-105900476D01*
X71578095Y-105948095D01*
X72530476Y-105757619D02*
X72578095Y-105710000D01*
X72673333Y-105662380D01*
X72911428Y-105662380D01*
X73006666Y-105710000D01*
X73054285Y-105757619D01*
X73101904Y-105852857D01*
X73101904Y-105948095D01*
X73054285Y-106090952D01*
X72482857Y-106662380D01*
X73101904Y-106662380D01*
%TO.C,C11*%
X49197142Y-106567142D02*
X49149523Y-106614761D01*
X49006666Y-106662380D01*
X48911428Y-106662380D01*
X48768571Y-106614761D01*
X48673333Y-106519523D01*
X48625714Y-106424285D01*
X48578095Y-106233809D01*
X48578095Y-106090952D01*
X48625714Y-105900476D01*
X48673333Y-105805238D01*
X48768571Y-105710000D01*
X48911428Y-105662380D01*
X49006666Y-105662380D01*
X49149523Y-105710000D01*
X49197142Y-105757619D01*
X50149523Y-106662380D02*
X49578095Y-106662380D01*
X49863809Y-106662380D02*
X49863809Y-105662380D01*
X49768571Y-105805238D01*
X49673333Y-105900476D01*
X49578095Y-105948095D01*
X51101904Y-106662380D02*
X50530476Y-106662380D01*
X50816190Y-106662380D02*
X50816190Y-105662380D01*
X50720952Y-105805238D01*
X50625714Y-105900476D01*
X50530476Y-105948095D01*
%TO.C,C17*%
X49167142Y-154217142D02*
X49119523Y-154264761D01*
X48976666Y-154312380D01*
X48881428Y-154312380D01*
X48738571Y-154264761D01*
X48643333Y-154169523D01*
X48595714Y-154074285D01*
X48548095Y-153883809D01*
X48548095Y-153740952D01*
X48595714Y-153550476D01*
X48643333Y-153455238D01*
X48738571Y-153360000D01*
X48881428Y-153312380D01*
X48976666Y-153312380D01*
X49119523Y-153360000D01*
X49167142Y-153407619D01*
X50119523Y-154312380D02*
X49548095Y-154312380D01*
X49833809Y-154312380D02*
X49833809Y-153312380D01*
X49738571Y-153455238D01*
X49643333Y-153550476D01*
X49548095Y-153598095D01*
X50452857Y-153312380D02*
X51119523Y-153312380D01*
X50690952Y-154312380D01*
%TO.C,C15*%
X71233942Y-130407142D02*
X71186323Y-130454761D01*
X71043466Y-130502380D01*
X70948228Y-130502380D01*
X70805371Y-130454761D01*
X70710133Y-130359523D01*
X70662514Y-130264285D01*
X70614895Y-130073809D01*
X70614895Y-129930952D01*
X70662514Y-129740476D01*
X70710133Y-129645238D01*
X70805371Y-129550000D01*
X70948228Y-129502380D01*
X71043466Y-129502380D01*
X71186323Y-129550000D01*
X71233942Y-129597619D01*
X72186323Y-130502380D02*
X71614895Y-130502380D01*
X71900609Y-130502380D02*
X71900609Y-129502380D01*
X71805371Y-129645238D01*
X71710133Y-129740476D01*
X71614895Y-129788095D01*
X73091085Y-129502380D02*
X72614895Y-129502380D01*
X72567276Y-129978571D01*
X72614895Y-129930952D01*
X72710133Y-129883333D01*
X72948228Y-129883333D01*
X73043466Y-129930952D01*
X73091085Y-129978571D01*
X73138704Y-130073809D01*
X73138704Y-130311904D01*
X73091085Y-130407142D01*
X73043466Y-130454761D01*
X72948228Y-130502380D01*
X72710133Y-130502380D01*
X72614895Y-130454761D01*
X72567276Y-130407142D01*
%TO.C,C10*%
X27197142Y-106567142D02*
X27149523Y-106614761D01*
X27006666Y-106662380D01*
X26911428Y-106662380D01*
X26768571Y-106614761D01*
X26673333Y-106519523D01*
X26625714Y-106424285D01*
X26578095Y-106233809D01*
X26578095Y-106090952D01*
X26625714Y-105900476D01*
X26673333Y-105805238D01*
X26768571Y-105710000D01*
X26911428Y-105662380D01*
X27006666Y-105662380D01*
X27149523Y-105710000D01*
X27197142Y-105757619D01*
X28149523Y-106662380D02*
X27578095Y-106662380D01*
X27863809Y-106662380D02*
X27863809Y-105662380D01*
X27768571Y-105805238D01*
X27673333Y-105900476D01*
X27578095Y-105948095D01*
X28768571Y-105662380D02*
X28863809Y-105662380D01*
X28959047Y-105710000D01*
X29006666Y-105757619D01*
X29054285Y-105852857D01*
X29101904Y-106043333D01*
X29101904Y-106281428D01*
X29054285Y-106471904D01*
X29006666Y-106567142D01*
X28959047Y-106614761D01*
X28863809Y-106662380D01*
X28768571Y-106662380D01*
X28673333Y-106614761D01*
X28625714Y-106567142D01*
X28578095Y-106471904D01*
X28530476Y-106281428D01*
X28530476Y-106043333D01*
X28578095Y-105852857D01*
X28625714Y-105757619D01*
X28673333Y-105710000D01*
X28768571Y-105662380D01*
%TO.C,C5*%
X49763333Y-59677142D02*
X49715714Y-59724761D01*
X49572857Y-59772380D01*
X49477619Y-59772380D01*
X49334761Y-59724761D01*
X49239523Y-59629523D01*
X49191904Y-59534285D01*
X49144285Y-59343809D01*
X49144285Y-59200952D01*
X49191904Y-59010476D01*
X49239523Y-58915238D01*
X49334761Y-58820000D01*
X49477619Y-58772380D01*
X49572857Y-58772380D01*
X49715714Y-58820000D01*
X49763333Y-58867619D01*
X50668095Y-58772380D02*
X50191904Y-58772380D01*
X50144285Y-59248571D01*
X50191904Y-59200952D01*
X50287142Y-59153333D01*
X50525238Y-59153333D01*
X50620476Y-59200952D01*
X50668095Y-59248571D01*
X50715714Y-59343809D01*
X50715714Y-59581904D01*
X50668095Y-59677142D01*
X50620476Y-59724761D01*
X50525238Y-59772380D01*
X50287142Y-59772380D01*
X50191904Y-59724761D01*
X50144285Y-59677142D01*
%TO.C,C24*%
X71017142Y-201657142D02*
X70969523Y-201704761D01*
X70826666Y-201752380D01*
X70731428Y-201752380D01*
X70588571Y-201704761D01*
X70493333Y-201609523D01*
X70445714Y-201514285D01*
X70398095Y-201323809D01*
X70398095Y-201180952D01*
X70445714Y-200990476D01*
X70493333Y-200895238D01*
X70588571Y-200800000D01*
X70731428Y-200752380D01*
X70826666Y-200752380D01*
X70969523Y-200800000D01*
X71017142Y-200847619D01*
X71398095Y-200847619D02*
X71445714Y-200800000D01*
X71540952Y-200752380D01*
X71779047Y-200752380D01*
X71874285Y-200800000D01*
X71921904Y-200847619D01*
X71969523Y-200942857D01*
X71969523Y-201038095D01*
X71921904Y-201180952D01*
X71350476Y-201752380D01*
X71969523Y-201752380D01*
X72826666Y-201085714D02*
X72826666Y-201752380D01*
X72588571Y-200704761D02*
X72350476Y-201419047D01*
X72969523Y-201419047D01*
%TO.C,C3*%
X71710133Y-35607142D02*
X71662514Y-35654761D01*
X71519657Y-35702380D01*
X71424419Y-35702380D01*
X71281561Y-35654761D01*
X71186323Y-35559523D01*
X71138704Y-35464285D01*
X71091085Y-35273809D01*
X71091085Y-35130952D01*
X71138704Y-34940476D01*
X71186323Y-34845238D01*
X71281561Y-34750000D01*
X71424419Y-34702380D01*
X71519657Y-34702380D01*
X71662514Y-34750000D01*
X71710133Y-34797619D01*
X72043466Y-34702380D02*
X72662514Y-34702380D01*
X72329180Y-35083333D01*
X72472038Y-35083333D01*
X72567276Y-35130952D01*
X72614895Y-35178571D01*
X72662514Y-35273809D01*
X72662514Y-35511904D01*
X72614895Y-35607142D01*
X72567276Y-35654761D01*
X72472038Y-35702380D01*
X72186323Y-35702380D01*
X72091085Y-35654761D01*
X72043466Y-35607142D01*
%TO.C,C6*%
X71763333Y-59677142D02*
X71715714Y-59724761D01*
X71572857Y-59772380D01*
X71477619Y-59772380D01*
X71334761Y-59724761D01*
X71239523Y-59629523D01*
X71191904Y-59534285D01*
X71144285Y-59343809D01*
X71144285Y-59200952D01*
X71191904Y-59010476D01*
X71239523Y-58915238D01*
X71334761Y-58820000D01*
X71477619Y-58772380D01*
X71572857Y-58772380D01*
X71715714Y-58820000D01*
X71763333Y-58867619D01*
X72620476Y-58772380D02*
X72430000Y-58772380D01*
X72334761Y-58820000D01*
X72287142Y-58867619D01*
X72191904Y-59010476D01*
X72144285Y-59200952D01*
X72144285Y-59581904D01*
X72191904Y-59677142D01*
X72239523Y-59724761D01*
X72334761Y-59772380D01*
X72525238Y-59772380D01*
X72620476Y-59724761D01*
X72668095Y-59677142D01*
X72715714Y-59581904D01*
X72715714Y-59343809D01*
X72668095Y-59248571D01*
X72620476Y-59200952D01*
X72525238Y-59153333D01*
X72334761Y-59153333D01*
X72239523Y-59200952D01*
X72191904Y-59248571D01*
X72144285Y-59343809D01*
%TO.C,C2*%
X49710133Y-35607142D02*
X49662514Y-35654761D01*
X49519657Y-35702380D01*
X49424419Y-35702380D01*
X49281561Y-35654761D01*
X49186323Y-35559523D01*
X49138704Y-35464285D01*
X49091085Y-35273809D01*
X49091085Y-35130952D01*
X49138704Y-34940476D01*
X49186323Y-34845238D01*
X49281561Y-34750000D01*
X49424419Y-34702380D01*
X49519657Y-34702380D01*
X49662514Y-34750000D01*
X49710133Y-34797619D01*
X50091085Y-34797619D02*
X50138704Y-34750000D01*
X50233942Y-34702380D01*
X50472038Y-34702380D01*
X50567276Y-34750000D01*
X50614895Y-34797619D01*
X50662514Y-34892857D01*
X50662514Y-34988095D01*
X50614895Y-35130952D01*
X50043466Y-35702380D01*
X50662514Y-35702380D01*
%TO.C,C18*%
X71167142Y-154217142D02*
X71119523Y-154264761D01*
X70976666Y-154312380D01*
X70881428Y-154312380D01*
X70738571Y-154264761D01*
X70643333Y-154169523D01*
X70595714Y-154074285D01*
X70548095Y-153883809D01*
X70548095Y-153740952D01*
X70595714Y-153550476D01*
X70643333Y-153455238D01*
X70738571Y-153360000D01*
X70881428Y-153312380D01*
X70976666Y-153312380D01*
X71119523Y-153360000D01*
X71167142Y-153407619D01*
X72119523Y-154312380D02*
X71548095Y-154312380D01*
X71833809Y-154312380D02*
X71833809Y-153312380D01*
X71738571Y-153455238D01*
X71643333Y-153550476D01*
X71548095Y-153598095D01*
X72690952Y-153740952D02*
X72595714Y-153693333D01*
X72548095Y-153645714D01*
X72500476Y-153550476D01*
X72500476Y-153502857D01*
X72548095Y-153407619D01*
X72595714Y-153360000D01*
X72690952Y-153312380D01*
X72881428Y-153312380D01*
X72976666Y-153360000D01*
X73024285Y-153407619D01*
X73071904Y-153502857D01*
X73071904Y-153550476D01*
X73024285Y-153645714D01*
X72976666Y-153693333D01*
X72881428Y-153740952D01*
X72690952Y-153740952D01*
X72595714Y-153788571D01*
X72548095Y-153836190D01*
X72500476Y-153931428D01*
X72500476Y-154121904D01*
X72548095Y-154217142D01*
X72595714Y-154264761D01*
X72690952Y-154312380D01*
X72881428Y-154312380D01*
X72976666Y-154264761D01*
X73024285Y-154217142D01*
X73071904Y-154121904D01*
X73071904Y-153931428D01*
X73024285Y-153836190D01*
X72976666Y-153788571D01*
X72881428Y-153740952D01*
%TO.C,C21*%
X71233942Y-177807142D02*
X71186323Y-177854761D01*
X71043466Y-177902380D01*
X70948228Y-177902380D01*
X70805371Y-177854761D01*
X70710133Y-177759523D01*
X70662514Y-177664285D01*
X70614895Y-177473809D01*
X70614895Y-177330952D01*
X70662514Y-177140476D01*
X70710133Y-177045238D01*
X70805371Y-176950000D01*
X70948228Y-176902380D01*
X71043466Y-176902380D01*
X71186323Y-176950000D01*
X71233942Y-176997619D01*
X71614895Y-176997619D02*
X71662514Y-176950000D01*
X71757752Y-176902380D01*
X71995847Y-176902380D01*
X72091085Y-176950000D01*
X72138704Y-176997619D01*
X72186323Y-177092857D01*
X72186323Y-177188095D01*
X72138704Y-177330952D01*
X71567276Y-177902380D01*
X72186323Y-177902380D01*
X73138704Y-177902380D02*
X72567276Y-177902380D01*
X72852990Y-177902380D02*
X72852990Y-176902380D01*
X72757752Y-177045238D01*
X72662514Y-177140476D01*
X72567276Y-177188095D01*
%TO.C,C16*%
X27167142Y-154217142D02*
X27119523Y-154264761D01*
X26976666Y-154312380D01*
X26881428Y-154312380D01*
X26738571Y-154264761D01*
X26643333Y-154169523D01*
X26595714Y-154074285D01*
X26548095Y-153883809D01*
X26548095Y-153740952D01*
X26595714Y-153550476D01*
X26643333Y-153455238D01*
X26738571Y-153360000D01*
X26881428Y-153312380D01*
X26976666Y-153312380D01*
X27119523Y-153360000D01*
X27167142Y-153407619D01*
X28119523Y-154312380D02*
X27548095Y-154312380D01*
X27833809Y-154312380D02*
X27833809Y-153312380D01*
X27738571Y-153455238D01*
X27643333Y-153550476D01*
X27548095Y-153598095D01*
X28976666Y-153312380D02*
X28786190Y-153312380D01*
X28690952Y-153360000D01*
X28643333Y-153407619D01*
X28548095Y-153550476D01*
X28500476Y-153740952D01*
X28500476Y-154121904D01*
X28548095Y-154217142D01*
X28595714Y-154264761D01*
X28690952Y-154312380D01*
X28881428Y-154312380D01*
X28976666Y-154264761D01*
X29024285Y-154217142D01*
X29071904Y-154121904D01*
X29071904Y-153883809D01*
X29024285Y-153788571D01*
X28976666Y-153740952D01*
X28881428Y-153693333D01*
X28690952Y-153693333D01*
X28595714Y-153740952D01*
X28548095Y-153788571D01*
X28500476Y-153883809D01*
%TO.C,C20*%
X49233942Y-177807142D02*
X49186323Y-177854761D01*
X49043466Y-177902380D01*
X48948228Y-177902380D01*
X48805371Y-177854761D01*
X48710133Y-177759523D01*
X48662514Y-177664285D01*
X48614895Y-177473809D01*
X48614895Y-177330952D01*
X48662514Y-177140476D01*
X48710133Y-177045238D01*
X48805371Y-176950000D01*
X48948228Y-176902380D01*
X49043466Y-176902380D01*
X49186323Y-176950000D01*
X49233942Y-176997619D01*
X49614895Y-176997619D02*
X49662514Y-176950000D01*
X49757752Y-176902380D01*
X49995847Y-176902380D01*
X50091085Y-176950000D01*
X50138704Y-176997619D01*
X50186323Y-177092857D01*
X50186323Y-177188095D01*
X50138704Y-177330952D01*
X49567276Y-177902380D01*
X50186323Y-177902380D01*
X50805371Y-176902380D02*
X50900609Y-176902380D01*
X50995847Y-176950000D01*
X51043466Y-176997619D01*
X51091085Y-177092857D01*
X51138704Y-177283333D01*
X51138704Y-177521428D01*
X51091085Y-177711904D01*
X51043466Y-177807142D01*
X50995847Y-177854761D01*
X50900609Y-177902380D01*
X50805371Y-177902380D01*
X50710133Y-177854761D01*
X50662514Y-177807142D01*
X50614895Y-177711904D01*
X50567276Y-177521428D01*
X50567276Y-177283333D01*
X50614895Y-177092857D01*
X50662514Y-176997619D01*
X50710133Y-176950000D01*
X50805371Y-176902380D01*
D11*
%TO.C,D1*%
X31626201Y-48646401D02*
X24326201Y-48646401D01*
X24326201Y-43146401D02*
X24326201Y-44296401D01*
X31626201Y-43146401D02*
X24326201Y-43146401D01*
%TO.C,D2*%
X53626201Y-48646401D02*
X46326201Y-48646401D01*
X46326201Y-43146401D02*
X46326201Y-44296401D01*
X53626201Y-43146401D02*
X46326201Y-43146401D01*
%TO.C,D3*%
X75626201Y-43146401D02*
X68326201Y-43146401D01*
X75626201Y-48646401D02*
X68326201Y-48646401D01*
X68326201Y-43146401D02*
X68326201Y-44296401D01*
%TO.C,D4*%
X31626201Y-72346401D02*
X31626201Y-71196401D01*
X24326201Y-72346401D02*
X31626201Y-72346401D01*
X24326201Y-66846401D02*
X31626201Y-66846401D01*
%TO.C,D5*%
X46326201Y-72346401D02*
X53626201Y-72346401D01*
X53626201Y-72346401D02*
X53626201Y-71196401D01*
X46326201Y-66846401D02*
X53626201Y-66846401D01*
%TO.C,D6*%
X68326201Y-66846401D02*
X75626201Y-66846401D01*
X68326201Y-72346401D02*
X75626201Y-72346401D01*
X75626201Y-72346401D02*
X75626201Y-71196401D01*
%TO.C,D7*%
X31626201Y-96046401D02*
X24326201Y-96046401D01*
X24326201Y-90546401D02*
X24326201Y-91696401D01*
X31626201Y-90546401D02*
X24326201Y-90546401D01*
%TO.C,D8*%
X53626201Y-90546401D02*
X46326201Y-90546401D01*
X46326201Y-90546401D02*
X46326201Y-91696401D01*
X53626201Y-96046401D02*
X46326201Y-96046401D01*
%TO.C,D9*%
X75626201Y-96046401D02*
X68326201Y-96046401D01*
X68326201Y-90546401D02*
X68326201Y-91696401D01*
X75626201Y-90546401D02*
X68326201Y-90546401D01*
%TO.C,D10*%
X24326201Y-114246401D02*
X31626201Y-114246401D01*
X24326201Y-119746401D02*
X31626201Y-119746401D01*
X31626201Y-119746401D02*
X31626201Y-118596401D01*
%TO.C,D11*%
X53626201Y-119746401D02*
X53626201Y-118596401D01*
X46326201Y-119746401D02*
X53626201Y-119746401D01*
X46326201Y-114246401D02*
X53626201Y-114246401D01*
%TO.C,D12*%
X68326201Y-114246401D02*
X75626201Y-114246401D01*
X75626201Y-119746401D02*
X75626201Y-118596401D01*
X68326201Y-119746401D02*
X75626201Y-119746401D01*
%TO.C,D13*%
X31626201Y-137946401D02*
X24326201Y-137946401D01*
X31626201Y-143446401D02*
X24326201Y-143446401D01*
X24326201Y-137946401D02*
X24326201Y-139096401D01*
%TO.C,D14*%
X53626201Y-143446401D02*
X46326201Y-143446401D01*
X46326201Y-137946401D02*
X46326201Y-139096401D01*
X53626201Y-137946401D02*
X46326201Y-137946401D01*
%TO.C,D15*%
X75626201Y-137946401D02*
X68326201Y-137946401D01*
X68326201Y-137946401D02*
X68326201Y-139096401D01*
X75626201Y-143446401D02*
X68326201Y-143446401D01*
%TO.C,D16*%
X24326201Y-161646401D02*
X31626201Y-161646401D01*
X24326201Y-167146401D02*
X31626201Y-167146401D01*
X31626201Y-167146401D02*
X31626201Y-165996401D01*
%TO.C,D17*%
X46326201Y-167146401D02*
X53626201Y-167146401D01*
X53626201Y-167146401D02*
X53626201Y-165996401D01*
X46326201Y-161646401D02*
X53626201Y-161646401D01*
%TO.C,D18*%
X75626201Y-167146401D02*
X75626201Y-165996401D01*
X68326201Y-161646401D02*
X75626201Y-161646401D01*
X68326201Y-167146401D02*
X75626201Y-167146401D01*
%TO.C,D19*%
X31626201Y-185346401D02*
X24326201Y-185346401D01*
X24326201Y-185346401D02*
X24326201Y-186496401D01*
X31626201Y-190846401D02*
X24326201Y-190846401D01*
%TO.C,D20*%
X53626201Y-185346401D02*
X46326201Y-185346401D01*
X46326201Y-185346401D02*
X46326201Y-186496401D01*
X53626201Y-190846401D02*
X46326201Y-190846401D01*
%TO.C,D21*%
X75626201Y-185346401D02*
X68326201Y-185346401D01*
X75626201Y-190846401D02*
X68326201Y-190846401D01*
X68326201Y-185346401D02*
X68326201Y-186496401D01*
%TO.C,D22*%
X24326201Y-209046401D02*
X31626201Y-209046401D01*
X24326201Y-214546401D02*
X31626201Y-214546401D01*
X31626201Y-214546401D02*
X31626201Y-213396401D01*
%TO.C,D23*%
X46326201Y-209046401D02*
X53626201Y-209046401D01*
X53626201Y-214546401D02*
X53626201Y-213396401D01*
X46326201Y-214546401D02*
X53626201Y-214546401D01*
%TO.C,D24*%
X68326201Y-214546401D02*
X75626201Y-214546401D01*
X75626201Y-214546401D02*
X75626201Y-213396401D01*
X68326201Y-209046401D02*
X75626201Y-209046401D01*
%TO.C,U1*%
X29580000Y-40590000D02*
X28650000Y-40590000D01*
X29580000Y-40590000D02*
X29580000Y-42050000D01*
X26420000Y-40590000D02*
X27350000Y-40590000D01*
X26420000Y-40590000D02*
X26420000Y-42750000D01*
%TO.C,U2*%
X48420000Y-40590000D02*
X49350000Y-40590000D01*
X48420000Y-40590000D02*
X48420000Y-42750000D01*
X51580000Y-40590000D02*
X50650000Y-40590000D01*
X51580000Y-40590000D02*
X51580000Y-42050000D01*
%TO.C,U3*%
X73580000Y-40590000D02*
X73580000Y-42050000D01*
X70420000Y-40590000D02*
X70420000Y-42750000D01*
X73580000Y-40590000D02*
X72650000Y-40590000D01*
X70420000Y-40590000D02*
X71350000Y-40590000D01*
%TO.C,U4*%
X26420000Y-64290000D02*
X27350000Y-64290000D01*
X29580000Y-64290000D02*
X28650000Y-64290000D01*
X29580000Y-64290000D02*
X29580000Y-65750000D01*
X26420000Y-64290000D02*
X26420000Y-66450000D01*
%TO.C,U5*%
X51580000Y-64290000D02*
X51580000Y-65750000D01*
X48420000Y-64290000D02*
X48420000Y-66450000D01*
X48420000Y-64290000D02*
X49350000Y-64290000D01*
X51580000Y-64290000D02*
X50650000Y-64290000D01*
%TO.C,U6*%
X73580000Y-64290000D02*
X72650000Y-64290000D01*
X70420000Y-64290000D02*
X70420000Y-66450000D01*
X73580000Y-64290000D02*
X73580000Y-65750000D01*
X70420000Y-64290000D02*
X71350000Y-64290000D01*
%TO.C,U7*%
X26420000Y-87990000D02*
X27350000Y-87990000D01*
X29580000Y-87990000D02*
X29580000Y-89450000D01*
X26420000Y-87990000D02*
X26420000Y-90150000D01*
X29580000Y-87990000D02*
X28650000Y-87990000D01*
%TO.C,U8*%
X51580000Y-87990000D02*
X50650000Y-87990000D01*
X51580000Y-87990000D02*
X51580000Y-89450000D01*
X48420000Y-87990000D02*
X48420000Y-90150000D01*
X48420000Y-87990000D02*
X49350000Y-87990000D01*
%TO.C,U9*%
X73580000Y-87990000D02*
X72650000Y-87990000D01*
X73580000Y-87990000D02*
X73580000Y-89450000D01*
X70420000Y-87990000D02*
X71350000Y-87990000D01*
X70420000Y-87990000D02*
X70420000Y-90150000D01*
%TO.C,U10*%
X26420000Y-111690000D02*
X26420000Y-113850000D01*
X26420000Y-111690000D02*
X27350000Y-111690000D01*
X29580000Y-111690000D02*
X29580000Y-113150000D01*
X29580000Y-111690000D02*
X28650000Y-111690000D01*
%TO.C,U11*%
X48420000Y-111690000D02*
X48420000Y-113850000D01*
X48420000Y-111690000D02*
X49350000Y-111690000D01*
X51580000Y-111690000D02*
X50650000Y-111690000D01*
X51580000Y-111690000D02*
X51580000Y-113150000D01*
%TO.C,U12*%
X70420000Y-111690000D02*
X70420000Y-113850000D01*
X73580000Y-111690000D02*
X72650000Y-111690000D01*
X73580000Y-111690000D02*
X73580000Y-113150000D01*
X70420000Y-111690000D02*
X71350000Y-111690000D01*
%TO.C,U13*%
X29580000Y-135390000D02*
X29580000Y-136850000D01*
X26420000Y-135390000D02*
X26420000Y-137550000D01*
X29580000Y-135390000D02*
X28650000Y-135390000D01*
X26420000Y-135390000D02*
X27350000Y-135390000D01*
%TO.C,U14*%
X51580000Y-135390000D02*
X51580000Y-136850000D01*
X48420000Y-135390000D02*
X49350000Y-135390000D01*
X48420000Y-135390000D02*
X48420000Y-137550000D01*
X51580000Y-135390000D02*
X50650000Y-135390000D01*
%TO.C,U15*%
X70420000Y-135390000D02*
X70420000Y-137550000D01*
X73580000Y-135390000D02*
X72650000Y-135390000D01*
X73580000Y-135390000D02*
X73580000Y-136850000D01*
X70420000Y-135390000D02*
X71350000Y-135390000D01*
%TO.C,U16*%
X29580000Y-159090000D02*
X29580000Y-160550000D01*
X26420000Y-159090000D02*
X26420000Y-161250000D01*
X29580000Y-159090000D02*
X28650000Y-159090000D01*
X26420000Y-159090000D02*
X27350000Y-159090000D01*
%TO.C,U17*%
X51580000Y-159090000D02*
X50650000Y-159090000D01*
X51580000Y-159090000D02*
X51580000Y-160550000D01*
X48420000Y-159090000D02*
X48420000Y-161250000D01*
X48420000Y-159090000D02*
X49350000Y-159090000D01*
%TO.C,U18*%
X70420000Y-159090000D02*
X71350000Y-159090000D01*
X70420000Y-159090000D02*
X70420000Y-161250000D01*
X73580000Y-159090000D02*
X72650000Y-159090000D01*
X73580000Y-159090000D02*
X73580000Y-160550000D01*
%TO.C,U19*%
X26420000Y-182790000D02*
X27350000Y-182790000D01*
X29580000Y-182790000D02*
X29580000Y-184250000D01*
X26420000Y-182790000D02*
X26420000Y-184950000D01*
X29580000Y-182790000D02*
X28650000Y-182790000D01*
%TO.C,U20*%
X48420000Y-182790000D02*
X49350000Y-182790000D01*
X51580000Y-182790000D02*
X50650000Y-182790000D01*
X51580000Y-182790000D02*
X51580000Y-184250000D01*
X48420000Y-182790000D02*
X48420000Y-184950000D01*
%TO.C,U21*%
X70420000Y-182790000D02*
X71350000Y-182790000D01*
X73580000Y-182790000D02*
X72650000Y-182790000D01*
X73580000Y-182790000D02*
X73580000Y-184250000D01*
X70420000Y-182790000D02*
X70420000Y-184950000D01*
%TO.C,U22*%
X29580000Y-206490000D02*
X29580000Y-207950000D01*
X26420000Y-206490000D02*
X26420000Y-208650000D01*
X26420000Y-206490000D02*
X27350000Y-206490000D01*
X29580000Y-206490000D02*
X28650000Y-206490000D01*
%TO.C,U23*%
X51580000Y-206490000D02*
X51580000Y-207950000D01*
X51580000Y-206490000D02*
X50650000Y-206490000D01*
X48420000Y-206490000D02*
X49350000Y-206490000D01*
X48420000Y-206490000D02*
X48420000Y-208650000D01*
%TO.C,U24*%
X73580000Y-206490000D02*
X73580000Y-207950000D01*
X70420000Y-206490000D02*
X70420000Y-208650000D01*
X73580000Y-206490000D02*
X72650000Y-206490000D01*
X70420000Y-206490000D02*
X71350000Y-206490000D01*
%TO.C,C1*%
X28588052Y-36740000D02*
X27165548Y-36740000D01*
X28588052Y-38560000D02*
X27165548Y-38560000D01*
%TO.C,C14*%
X50588052Y-133360000D02*
X49165548Y-133360000D01*
X50588052Y-131540000D02*
X49165548Y-131540000D01*
%TO.C,C8*%
X50588052Y-85960000D02*
X49165548Y-85960000D01*
X50588052Y-84140000D02*
X49165548Y-84140000D01*
%TO.C,C9*%
X72588052Y-84140000D02*
X71165548Y-84140000D01*
X72588052Y-85960000D02*
X71165548Y-85960000D01*
%TO.C,C19*%
X28588052Y-178940000D02*
X27165548Y-178940000D01*
X28588052Y-180760000D02*
X27165548Y-180760000D01*
%TO.C,C7*%
X28588052Y-84140000D02*
X27165548Y-84140000D01*
X28588052Y-85960000D02*
X27165548Y-85960000D01*
%TO.C,C4*%
X27165548Y-62260000D02*
X28588052Y-62260000D01*
X27165548Y-60440000D02*
X28588052Y-60440000D01*
%TO.C,C23*%
X49165548Y-202640000D02*
X50588052Y-202640000D01*
X49165548Y-204460000D02*
X50588052Y-204460000D01*
%TO.C,C13*%
X28588052Y-133360000D02*
X27165548Y-133360000D01*
X28588052Y-131540000D02*
X27165548Y-131540000D01*
%TO.C,C22*%
X27165548Y-202640000D02*
X28588052Y-202640000D01*
X27165548Y-204460000D02*
X28588052Y-204460000D01*
%TO.C,C12*%
X71165548Y-109660000D02*
X72588052Y-109660000D01*
X71165548Y-107840000D02*
X72588052Y-107840000D01*
%TO.C,C11*%
X49165548Y-107840000D02*
X50588052Y-107840000D01*
X49165548Y-109660000D02*
X50588052Y-109660000D01*
%TO.C,C17*%
X49165548Y-155240000D02*
X50588052Y-155240000D01*
X49165548Y-157060000D02*
X50588052Y-157060000D01*
%TO.C,C15*%
X72588052Y-133360000D02*
X71165548Y-133360000D01*
X72588052Y-131540000D02*
X71165548Y-131540000D01*
%TO.C,C10*%
X27165548Y-109660000D02*
X28588052Y-109660000D01*
X27165548Y-107840000D02*
X28588052Y-107840000D01*
%TO.C,C5*%
X49165548Y-60440000D02*
X50588052Y-60440000D01*
X49165548Y-62260000D02*
X50588052Y-62260000D01*
%TO.C,C24*%
X71165548Y-202640000D02*
X72588052Y-202640000D01*
X71165548Y-204460000D02*
X72588052Y-204460000D01*
%TO.C,C3*%
X72588052Y-38560000D02*
X71165548Y-38560000D01*
X72588052Y-36740000D02*
X71165548Y-36740000D01*
%TO.C,C6*%
X71165548Y-60440000D02*
X72588052Y-60440000D01*
X71165548Y-62260000D02*
X72588052Y-62260000D01*
%TO.C,C2*%
X50588052Y-38560000D02*
X49165548Y-38560000D01*
X50588052Y-36740000D02*
X49165548Y-36740000D01*
%TO.C,C18*%
X71165548Y-155240000D02*
X72588052Y-155240000D01*
X71165548Y-157060000D02*
X72588052Y-157060000D01*
%TO.C,C21*%
X72588052Y-180760000D02*
X71165548Y-180760000D01*
X72588052Y-178940000D02*
X71165548Y-178940000D01*
%TO.C,C16*%
X27165548Y-157060000D02*
X28588052Y-157060000D01*
X27165548Y-155240000D02*
X28588052Y-155240000D01*
%TO.C,C20*%
X50588052Y-178940000D02*
X49165548Y-178940000D01*
X50588052Y-180760000D02*
X49165548Y-180760000D01*
%TD*%
M02*
