M48
; DRILL file {KiCad (6.0.7-1)-1} date 2022 December 02, Friday 15:44:02
; FORMAT={-:-/ absolute / metric / decimal}
; #@! TF.CreationDate,2022-12-02T15:44:02+01:00
; #@! TF.GenerationSoftware,Kicad,Pcbnew,(6.0.7-1)-1
; #@! TF.FileFunction,Plated,1,2,PTH
FMAT,2
METRIC
; #@! TA.AperFunction,Plated,PTH,ViaDrill
T1C0.400
%
G90
G05
T1
X26.52Y-88.36
X26.54Y-182.91
X26.59Y-64.59
X26.65Y-135.96
X26.67Y-206.82
X26.71Y-111.99
X26.74Y-159.31
X26.82Y-41.21
X27.86Y-61.39
X27.86Y-85.09
X27.89Y-203.54
X28.0Y-179.85
X28.87Y-71.13
X28.92Y-189.61
X28.95Y-94.89
X29.99Y-135.15
X30.61Y-151.73
X30.63Y-104.45
X30.8Y-195.36
X30.85Y-100.8
X30.96Y-148.02
X30.97Y-156.13
X31.01Y-199.42
X31.376Y-143.246
X31.41Y-56.92
X31.49Y-52.91
X31.5Y-108.72
X31.52Y-132.41
X31.56Y-37.7
X31.594Y-119.546
X31.614Y-165.996
X31.664Y-48.446
X32.256Y-214.346
X32.842Y-42.35
X32.842Y-65.997
X32.842Y-89.772
X32.842Y-113.546
X32.842Y-137.143
X32.842Y-160.892
X32.842Y-184.615
X32.842Y-208.187
X36.11Y-199.25
X41.42Y-199.17
X44.87Y-208.37
X46.48Y-43.25
X46.48Y-90.65
X46.48Y-138.05
X46.48Y-185.45
X46.54Y-37.7
X46.576Y-67.046
X46.576Y-114.446
X46.576Y-161.846
X46.576Y-209.246
X46.64Y-85.11
X46.64Y-132.51
X46.64Y-179.91
X46.65Y-61.36
X46.65Y-108.76
X46.65Y-156.16
X46.65Y-203.56
X49.266Y-190.636
X49.535Y-143.245
X49.54Y-200.99
X49.92Y-61.37
X49.92Y-85.05
X49.92Y-132.45
X49.92Y-179.85
X49.93Y-108.77
X49.93Y-156.17
X50.03Y-37.7
X50.03Y-48.42
X50.214Y-72.146
X51.476Y-95.846
X51.476Y-119.546
X51.476Y-166.946
X53.0Y-40.35
X53.26Y-111.45
X53.31Y-64.07
X53.31Y-87.78
X53.31Y-135.16
X53.31Y-158.76
X53.31Y-182.46
X53.35Y-206.25
X54.686Y-42.35
X54.686Y-66.048
X54.686Y-89.772
X54.686Y-113.47
X54.686Y-137.117
X54.686Y-160.866
X54.686Y-184.539
X54.686Y-208.263
X56.33Y-55.08
X56.33Y-100.65
X56.46Y-148.27
X56.47Y-197.24
X58.65Y-201.87
X61.18Y-206.25
X62.244Y-95.846
X64.696Y-119.546
X68.48Y-43.25
X68.48Y-90.65
X68.48Y-138.05
X68.48Y-185.45
X68.54Y-37.7
X68.576Y-67.046
X68.576Y-114.446
X68.576Y-161.846
X68.576Y-209.246
X68.64Y-85.11
X68.64Y-132.51
X68.64Y-179.91
X68.65Y-61.36
X68.65Y-108.76
X68.65Y-156.16
X68.65Y-203.56
X69.87Y-112.55
X70.09Y-136.25
X70.15Y-41.45
X70.15Y-65.15
X70.15Y-88.85
X70.15Y-159.95
X70.15Y-183.65
X70.15Y-207.35
X70.85Y-110.58
X71.9Y-61.42
X71.92Y-85.05
X71.92Y-132.45
X71.92Y-179.85
X71.93Y-108.77
X71.93Y-156.17
X71.97Y-37.87
X72.126Y-48.446
X72.16Y-210.18
X72.731Y-71.641
X73.476Y-95.846
X73.476Y-119.546
X73.476Y-143.246
X73.476Y-166.946
X73.476Y-190.646
X74.17Y-45.79
X74.36Y-140.73
X74.44Y-69.5
X74.47Y-93.04
X74.65Y-187.8
X75.01Y-205.04
X75.27Y-211.66
X75.48Y-182.83
X75.6Y-135.17
T0
M30
