%TF.GenerationSoftware,KiCad,Pcbnew,(6.0.7-1)-1*%
%TF.CreationDate,2022-12-02T15:43:41+01:00*%
%TF.ProjectId,8x3,3878332e-6b69-4636-9164-5f7063625858,rev?*%
%TF.SameCoordinates,Original*%
%TF.FileFunction,Paste,Bot*%
%TF.FilePolarity,Positive*%
%FSLAX46Y46*%
G04 Gerber Fmt 4.6, Leading zero omitted, Abs format (unit mm)*
G04 Created by KiCad (PCBNEW (6.0.7-1)-1) date 2022-12-02 15:43:41*
%MOMM*%
%LPD*%
G01*
G04 APERTURE LIST*
G04 Aperture macros list*
%AMRoundRect*
0 Rectangle with rounded corners*
0 $1 Rounding radius*
0 $2 $3 $4 $5 $6 $7 $8 $9 X,Y pos of 4 corners*
0 Add a 4 corners polygon primitive as box body*
4,1,4,$2,$3,$4,$5,$6,$7,$8,$9,$2,$3,0*
0 Add four circle primitives for the rounded corners*
1,1,$1+$1,$2,$3*
1,1,$1+$1,$4,$5*
1,1,$1+$1,$6,$7*
1,1,$1+$1,$8,$9*
0 Add four rect primitives between the rounded corners*
20,1,$1+$1,$2,$3,$4,$5,0*
20,1,$1+$1,$4,$5,$6,$7,0*
20,1,$1+$1,$6,$7,$8,$9,0*
20,1,$1+$1,$8,$9,$2,$3,0*%
G04 Aperture macros list end*
%ADD10RoundRect,0.250000X0.312500X0.625000X-0.312500X0.625000X-0.312500X-0.625000X0.312500X-0.625000X0*%
%ADD11RoundRect,0.250000X0.325000X0.650000X-0.325000X0.650000X-0.325000X-0.650000X0.325000X-0.650000X0*%
%ADD12R,3.200000X1.020000*%
%ADD13RoundRect,0.250000X0.650000X-0.325000X0.650000X0.325000X-0.650000X0.325000X-0.650000X-0.325000X0*%
%ADD14RoundRect,0.150000X0.587500X0.150000X-0.587500X0.150000X-0.587500X-0.150000X0.587500X-0.150000X0*%
%ADD15R,1.020000X3.200000*%
%ADD16RoundRect,0.150000X0.150000X-0.837500X0.150000X0.837500X-0.150000X0.837500X-0.150000X-0.837500X0*%
%ADD17R,2.000000X1.500000*%
%ADD18R,2.000000X3.800000*%
G04 APERTURE END LIST*
D10*
%TO.C,R4*%
X34172500Y-102770000D03*
X31247500Y-102770000D03*
%TD*%
%TO.C,R1*%
X34482500Y-51054000D03*
X31557500Y-51054000D03*
%TD*%
D11*
%TO.C,CI2*%
X67105000Y-95950000D03*
X64155000Y-95950000D03*
%TD*%
D12*
%TO.C,J7*%
X76590000Y-48305000D03*
X76590000Y-45765000D03*
X76590000Y-43225000D03*
%TD*%
D13*
%TO.C,CI5*%
X58610000Y-103575000D03*
X58610000Y-100625000D03*
%TD*%
D10*
%TO.C,R8*%
X34062500Y-197690000D03*
X31137500Y-197690000D03*
%TD*%
D12*
%TO.C,J10*%
X76590000Y-124730000D03*
X76590000Y-127270000D03*
%TD*%
D14*
%TO.C,Q7*%
X28877500Y-193106000D03*
X28877500Y-195006000D03*
X27002500Y-194056000D03*
%TD*%
%TO.C,Q2*%
X29385500Y-54676000D03*
X29385500Y-56576000D03*
X27510500Y-55626000D03*
%TD*%
D15*
%TO.C,J14*%
X36720000Y-212690000D03*
X34180000Y-212690000D03*
%TD*%
D12*
%TO.C,J9*%
X76590000Y-99610000D03*
X76590000Y-102150000D03*
%TD*%
D14*
%TO.C,Q3*%
X29131500Y-98618000D03*
X29131500Y-100518000D03*
X27256500Y-99568000D03*
%TD*%
D10*
%TO.C,R7*%
X34162500Y-192780000D03*
X31237500Y-192780000D03*
%TD*%
D12*
%TO.C,J2*%
X23410000Y-54750000D03*
X23410000Y-52210000D03*
%TD*%
D13*
%TO.C,CI1*%
X49590000Y-198785000D03*
X49590000Y-195835000D03*
%TD*%
D14*
%TO.C,Q8*%
X28877500Y-197424000D03*
X28877500Y-199324000D03*
X27002500Y-198374000D03*
%TD*%
D12*
%TO.C,J11*%
X76590000Y-147010000D03*
X76590000Y-149550000D03*
%TD*%
%TO.C,J3*%
X23410000Y-102150000D03*
X23410000Y-99610000D03*
%TD*%
D16*
%TO.C,UI1*%
X45795000Y-201032500D03*
X44525000Y-201032500D03*
X43255000Y-201032500D03*
X41985000Y-201032500D03*
X40715000Y-201032500D03*
X39445000Y-201032500D03*
X38175000Y-201032500D03*
X36905000Y-201032500D03*
X36905000Y-194107500D03*
X38175000Y-194107500D03*
X39445000Y-194107500D03*
X40715000Y-194107500D03*
X41985000Y-194107500D03*
X43255000Y-194107500D03*
X44525000Y-194107500D03*
X45795000Y-194107500D03*
%TD*%
D15*
%TO.C,J17*%
X62140000Y-212760000D03*
X59600000Y-212760000D03*
%TD*%
D14*
%TO.C,Q5*%
X29131500Y-145354000D03*
X29131500Y-147254000D03*
X27256500Y-146304000D03*
%TD*%
D10*
%TO.C,R2*%
X34482500Y-55118000D03*
X31557500Y-55118000D03*
%TD*%
D15*
%TO.C,J15*%
X42960000Y-212690000D03*
X40420000Y-212690000D03*
%TD*%
D12*
%TO.C,J4*%
X23410000Y-127270000D03*
X23410000Y-124730000D03*
%TD*%
D10*
%TO.C,R3*%
X34282500Y-98960000D03*
X31357500Y-98960000D03*
%TD*%
%TO.C,R6*%
X34152500Y-149990000D03*
X31227500Y-149990000D03*
%TD*%
D13*
%TO.C,CI4*%
X61380000Y-103555000D03*
X61380000Y-100605000D03*
%TD*%
D12*
%TO.C,J12*%
X76590000Y-194410000D03*
X76590000Y-196950000D03*
%TD*%
%TO.C,J1*%
X23410000Y-43325000D03*
X23410000Y-45865000D03*
X23410000Y-48405000D03*
%TD*%
%TO.C,J5*%
X23410000Y-149550000D03*
X23410000Y-147010000D03*
%TD*%
D11*
%TO.C,CI3*%
X67135000Y-93270000D03*
X64185000Y-93270000D03*
%TD*%
D14*
%TO.C,Q1*%
X29385500Y-50612000D03*
X29385500Y-52512000D03*
X27510500Y-51562000D03*
%TD*%
D15*
%TO.C,J19*%
X80350000Y-212690000D03*
X77810000Y-212690000D03*
%TD*%
D17*
%TO.C,UI2*%
X64530000Y-103300000D03*
X64530000Y-101000000D03*
X64530000Y-98700000D03*
D18*
X70830000Y-101000000D03*
%TD*%
D14*
%TO.C,Q6*%
X29131500Y-149672000D03*
X29131500Y-151572000D03*
X27256500Y-150622000D03*
%TD*%
%TO.C,Q4*%
X29131500Y-102428000D03*
X29131500Y-104328000D03*
X27256500Y-103378000D03*
%TD*%
D12*
%TO.C,J8*%
X76590000Y-52210000D03*
X76590000Y-54750000D03*
%TD*%
D15*
%TO.C,J16*%
X50685000Y-212690000D03*
X53225000Y-212690000D03*
X55765000Y-212690000D03*
%TD*%
%TO.C,J13*%
X19130000Y-212690000D03*
X21670000Y-212690000D03*
X24210000Y-212690000D03*
%TD*%
D12*
%TO.C,J6*%
X23410000Y-196950000D03*
X23410000Y-194410000D03*
%TD*%
D15*
%TO.C,J18*%
X68660000Y-212690000D03*
X71200000Y-212690000D03*
X73740000Y-212690000D03*
%TD*%
D10*
%TO.C,R5*%
X34152500Y-145430000D03*
X31227500Y-145430000D03*
%TD*%
M02*
