%TF.GenerationSoftware,KiCad,Pcbnew,(6.0.7-1)-1*%
%TF.CreationDate,2023-12-02T14:15:26+01:00*%
%TF.ProjectId,11x3,31317833-2e6b-4696-9361-645f70636258,rev?*%
%TF.SameCoordinates,Original*%
%TF.FileFunction,Copper,L1,Top*%
%TF.FilePolarity,Positive*%
%FSLAX46Y46*%
G04 Gerber Fmt 4.6, Leading zero omitted, Abs format (unit mm)*
G04 Created by KiCad (PCBNEW (6.0.7-1)-1) date 2023-12-02 14:15:26*
%MOMM*%
%LPD*%
G01*
G04 APERTURE LIST*
G04 Aperture macros list*
%AMRoundRect*
0 Rectangle with rounded corners*
0 $1 Rounding radius*
0 $2 $3 $4 $5 $6 $7 $8 $9 X,Y pos of 4 corners*
0 Add a 4 corners polygon primitive as box body*
4,1,4,$2,$3,$4,$5,$6,$7,$8,$9,$2,$3,0*
0 Add four circle primitives for the rounded corners*
1,1,$1+$1,$2,$3*
1,1,$1+$1,$4,$5*
1,1,$1+$1,$6,$7*
1,1,$1+$1,$8,$9*
0 Add four rect primitives between the rounded corners*
20,1,$1+$1,$2,$3,$4,$5,0*
20,1,$1+$1,$4,$5,$6,$7,0*
20,1,$1+$1,$6,$7,$8,$9,0*
20,1,$1+$1,$8,$9,$2,$3,0*%
G04 Aperture macros list end*
%TA.AperFunction,SMDPad,CuDef*%
%ADD10R,1.500000X1.000000*%
%TD*%
%TA.AperFunction,SMDPad,CuDef*%
%ADD11R,0.800000X0.900000*%
%TD*%
%TA.AperFunction,SMDPad,CuDef*%
%ADD12RoundRect,0.250000X0.325000X0.650000X-0.325000X0.650000X-0.325000X-0.650000X0.325000X-0.650000X0*%
%TD*%
%TA.AperFunction,SMDPad,CuDef*%
%ADD13RoundRect,0.250000X-0.325000X-0.650000X0.325000X-0.650000X0.325000X0.650000X-0.325000X0.650000X0*%
%TD*%
%TA.AperFunction,ViaPad*%
%ADD14C,4.000000*%
%TD*%
%TA.AperFunction,ViaPad*%
%ADD15C,0.800000*%
%TD*%
%TA.AperFunction,ViaPad*%
%ADD16C,5.000000*%
%TD*%
%TA.AperFunction,Conductor*%
%ADD17C,0.500000*%
%TD*%
G04 APERTURE END LIST*
D10*
%TO.P,D1,1,VSS*%
%TO.N,GND*%
X57066201Y-39306401D03*
%TO.P,D1,2,DIN*%
%TO.N,Net-(D1-Pad2)*%
X57066201Y-42506401D03*
%TO.P,D1,3,VDD*%
%TO.N,P*%
X61966201Y-42506401D03*
%TO.P,D1,4,DOUT*%
%TO.N,Net-(D1-Pad4)*%
X61966201Y-39306401D03*
%TD*%
%TO.P,D2,1,VSS*%
%TO.N,GND*%
X79066201Y-39306401D03*
%TO.P,D2,2,DIN*%
%TO.N,Net-(D1-Pad4)*%
X79066201Y-42506401D03*
%TO.P,D2,3,VDD*%
%TO.N,P*%
X83966201Y-42506401D03*
%TO.P,D2,4,DOUT*%
%TO.N,Net-(D2-Pad4)*%
X83966201Y-39306401D03*
%TD*%
%TO.P,D3,1,VSS*%
%TO.N,GND*%
X101066201Y-39306401D03*
%TO.P,D3,2,DIN*%
%TO.N,Net-(D2-Pad4)*%
X101066201Y-42506401D03*
%TO.P,D3,3,VDD*%
%TO.N,P*%
X105966201Y-42506401D03*
%TO.P,D3,4,DOUT*%
%TO.N,LedOut*%
X105966201Y-39306401D03*
%TD*%
%TO.P,D4,1,VSS*%
%TO.N,GND*%
X61966201Y-66206401D03*
%TO.P,D4,2,DIN*%
%TO.N,Net-(D4-Pad2)*%
X61966201Y-63006401D03*
%TO.P,D4,3,VDD*%
%TO.N,P*%
X57066201Y-63006401D03*
%TO.P,D4,4,DOUT*%
%TO.N,Net-(D1-Pad2)*%
X57066201Y-66206401D03*
%TD*%
%TO.P,D5,1,VSS*%
%TO.N,GND*%
X83966201Y-66206401D03*
%TO.P,D5,2,DIN*%
%TO.N,Net-(D5-Pad2)*%
X83966201Y-63006401D03*
%TO.P,D5,3,VDD*%
%TO.N,P*%
X79066201Y-63006401D03*
%TO.P,D5,4,DOUT*%
%TO.N,Net-(D4-Pad2)*%
X79066201Y-66206401D03*
%TD*%
%TO.P,D6,1,VSS*%
%TO.N,GND*%
X105966201Y-66206401D03*
%TO.P,D6,2,DIN*%
%TO.N,Net-(D6-Pad2)*%
X105966201Y-63006401D03*
%TO.P,D6,3,VDD*%
%TO.N,P*%
X101066201Y-63006401D03*
%TO.P,D6,4,DOUT*%
%TO.N,Net-(D5-Pad2)*%
X101066201Y-66206401D03*
%TD*%
%TO.P,D7,1,VSS*%
%TO.N,GND*%
X57066201Y-86706401D03*
%TO.P,D7,2,DIN*%
%TO.N,Net-(D10-Pad4)*%
X57066201Y-89906401D03*
%TO.P,D7,3,VDD*%
%TO.N,P*%
X61966201Y-89906401D03*
%TO.P,D7,4,DOUT*%
%TO.N,Net-(D7-Pad4)*%
X61966201Y-86706401D03*
%TD*%
%TO.P,D8,1,VSS*%
%TO.N,GND*%
X79066201Y-86706401D03*
%TO.P,D8,2,DIN*%
%TO.N,Net-(D7-Pad4)*%
X79066201Y-89906401D03*
%TO.P,D8,3,VDD*%
%TO.N,P*%
X83966201Y-89906401D03*
%TO.P,D8,4,DOUT*%
%TO.N,Net-(D8-Pad4)*%
X83966201Y-86706401D03*
%TD*%
%TO.P,D9,1,VSS*%
%TO.N,GND*%
X101066201Y-86706401D03*
%TO.P,D9,2,DIN*%
%TO.N,Net-(D8-Pad4)*%
X101066201Y-89906401D03*
%TO.P,D9,3,VDD*%
%TO.N,P*%
X105966201Y-89906401D03*
%TO.P,D9,4,DOUT*%
%TO.N,Net-(D6-Pad2)*%
X105966201Y-86706401D03*
%TD*%
%TO.P,D10,1,VSS*%
%TO.N,GND*%
X61966201Y-113606401D03*
%TO.P,D10,2,DIN*%
%TO.N,Net-(D10-Pad2)*%
X61966201Y-110406401D03*
%TO.P,D10,3,VDD*%
%TO.N,P*%
X57066201Y-110406401D03*
%TO.P,D10,4,DOUT*%
%TO.N,Net-(D10-Pad4)*%
X57066201Y-113606401D03*
%TD*%
%TO.P,D11,1,VSS*%
%TO.N,GND*%
X83966201Y-113606401D03*
%TO.P,D11,2,DIN*%
%TO.N,Net-(D11-Pad2)*%
X83966201Y-110406401D03*
%TO.P,D11,3,VDD*%
%TO.N,P*%
X79066201Y-110406401D03*
%TO.P,D11,4,DOUT*%
%TO.N,Net-(D10-Pad2)*%
X79066201Y-113606401D03*
%TD*%
%TO.P,D12,1,VSS*%
%TO.N,GND*%
X105966201Y-113606401D03*
%TO.P,D12,2,DIN*%
%TO.N,Net-(D12-Pad2)*%
X105966201Y-110406401D03*
%TO.P,D12,3,VDD*%
%TO.N,P*%
X101066201Y-110406401D03*
%TO.P,D12,4,DOUT*%
%TO.N,Net-(D11-Pad2)*%
X101066201Y-113606401D03*
%TD*%
%TO.P,D13,1,VSS*%
%TO.N,GND*%
X57066201Y-134106401D03*
%TO.P,D13,2,DIN*%
%TO.N,Net-(D13-Pad2)*%
X57066201Y-137306401D03*
%TO.P,D13,3,VDD*%
%TO.N,P*%
X61966201Y-137306401D03*
%TO.P,D13,4,DOUT*%
%TO.N,Net-(D13-Pad4)*%
X61966201Y-134106401D03*
%TD*%
%TO.P,D14,1,VSS*%
%TO.N,GND*%
X79066201Y-134106401D03*
%TO.P,D14,2,DIN*%
%TO.N,Net-(D13-Pad4)*%
X79066201Y-137306401D03*
%TO.P,D14,3,VDD*%
%TO.N,P*%
X83966201Y-137306401D03*
%TO.P,D14,4,DOUT*%
%TO.N,Net-(D14-Pad4)*%
X83966201Y-134106401D03*
%TD*%
%TO.P,D15,1,VSS*%
%TO.N,GND*%
X101066201Y-134106401D03*
%TO.P,D15,2,DIN*%
%TO.N,Net-(D14-Pad4)*%
X101066201Y-137306401D03*
%TO.P,D15,3,VDD*%
%TO.N,P*%
X105966201Y-137306401D03*
%TO.P,D15,4,DOUT*%
%TO.N,Net-(D12-Pad2)*%
X105966201Y-134106401D03*
%TD*%
%TO.P,D16,1,VSS*%
%TO.N,GND*%
X61966201Y-161006401D03*
%TO.P,D16,2,DIN*%
%TO.N,Net-(D16-Pad2)*%
X61966201Y-157806401D03*
%TO.P,D16,3,VDD*%
%TO.N,P*%
X57066201Y-157806401D03*
%TO.P,D16,4,DOUT*%
%TO.N,Net-(D13-Pad2)*%
X57066201Y-161006401D03*
%TD*%
%TO.P,D17,1,VSS*%
%TO.N,GND*%
X83966201Y-161006401D03*
%TO.P,D17,2,DIN*%
%TO.N,Net-(D17-Pad2)*%
X83966201Y-157806401D03*
%TO.P,D17,3,VDD*%
%TO.N,P*%
X79066201Y-157806401D03*
%TO.P,D17,4,DOUT*%
%TO.N,Net-(D16-Pad2)*%
X79066201Y-161006401D03*
%TD*%
%TO.P,D18,1,VSS*%
%TO.N,GND*%
X105966201Y-161006401D03*
%TO.P,D18,2,DIN*%
%TO.N,Net-(D18-Pad2)*%
X105966201Y-157806401D03*
%TO.P,D18,3,VDD*%
%TO.N,P*%
X101066201Y-157806401D03*
%TO.P,D18,4,DOUT*%
%TO.N,Net-(D17-Pad2)*%
X101066201Y-161006401D03*
%TD*%
%TO.P,D19,1,VSS*%
%TO.N,GND*%
X57066201Y-181506401D03*
%TO.P,D19,2,DIN*%
%TO.N,Net-(D19-Pad2)*%
X57066201Y-184706401D03*
%TO.P,D19,3,VDD*%
%TO.N,P*%
X61966201Y-184706401D03*
%TO.P,D19,4,DOUT*%
%TO.N,Net-(D19-Pad4)*%
X61966201Y-181506401D03*
%TD*%
%TO.P,D20,1,VSS*%
%TO.N,GND*%
X79066201Y-181506401D03*
%TO.P,D20,2,DIN*%
%TO.N,Net-(D19-Pad4)*%
X79066201Y-184706401D03*
%TO.P,D20,3,VDD*%
%TO.N,P*%
X83966201Y-184706401D03*
%TO.P,D20,4,DOUT*%
%TO.N,Net-(D20-Pad4)*%
X83966201Y-181506401D03*
%TD*%
%TO.P,D21,1,VSS*%
%TO.N,GND*%
X101066201Y-181506401D03*
%TO.P,D21,2,DIN*%
%TO.N,Net-(D20-Pad4)*%
X101066201Y-184706401D03*
%TO.P,D21,3,VDD*%
%TO.N,P*%
X105966201Y-184706401D03*
%TO.P,D21,4,DOUT*%
%TO.N,Net-(D18-Pad2)*%
X105966201Y-181506401D03*
%TD*%
%TO.P,D22,1,VSS*%
%TO.N,GND*%
X61966201Y-208406401D03*
%TO.P,D22,2,DIN*%
%TO.N,Net-(D22-Pad2)*%
X61966201Y-205206401D03*
%TO.P,D22,3,VDD*%
%TO.N,P*%
X57066201Y-205206401D03*
%TO.P,D22,4,DOUT*%
%TO.N,Net-(D19-Pad2)*%
X57066201Y-208406401D03*
%TD*%
%TO.P,D23,1,VSS*%
%TO.N,GND*%
X83966201Y-208406401D03*
%TO.P,D23,2,DIN*%
%TO.N,Net-(D23-Pad2)*%
X83966201Y-205206401D03*
%TO.P,D23,3,VDD*%
%TO.N,P*%
X79066201Y-205206401D03*
%TO.P,D23,4,DOUT*%
%TO.N,Net-(D22-Pad2)*%
X79066201Y-208406401D03*
%TD*%
%TO.P,D24,1,VSS*%
%TO.N,GND*%
X105966201Y-208406401D03*
%TO.P,D24,2,DIN*%
%TO.N,Net-(D24-Pad2)*%
X105966201Y-205206401D03*
%TO.P,D24,3,VDD*%
%TO.N,P*%
X101066201Y-205206401D03*
%TO.P,D24,4,DOUT*%
%TO.N,Net-(D23-Pad2)*%
X101066201Y-208406401D03*
%TD*%
D11*
%TO.P,U1,1,VCC*%
%TO.N,PQ1*%
X58590000Y-37360000D03*
%TO.P,U1,2,OUT*%
%TO.N,HallOut1*%
X60490000Y-37360000D03*
%TO.P,U1,3,GND*%
%TO.N,AGND*%
X59540000Y-35360000D03*
%TD*%
%TO.P,U2,1,VCC*%
%TO.N,PQ1*%
X80590000Y-37360000D03*
%TO.P,U2,2,OUT*%
%TO.N,HallOut2*%
X82490000Y-37360000D03*
%TO.P,U2,3,GND*%
%TO.N,AGND*%
X81540000Y-35360000D03*
%TD*%
%TO.P,U3,1,VCC*%
%TO.N,PQ1*%
X102590000Y-37360000D03*
%TO.P,U3,2,OUT*%
%TO.N,HallOut3*%
X104490000Y-37360000D03*
%TO.P,U3,3,GND*%
%TO.N,AGND*%
X103540000Y-35360000D03*
%TD*%
%TO.P,U4,1,VCC*%
%TO.N,PQ2*%
X58590000Y-61060000D03*
%TO.P,U4,2,OUT*%
%TO.N,HallOut1*%
X60490000Y-61060000D03*
%TO.P,U4,3,GND*%
%TO.N,AGND*%
X59540000Y-59060000D03*
%TD*%
%TO.P,U5,1,VCC*%
%TO.N,PQ2*%
X80590000Y-61060000D03*
%TO.P,U5,2,OUT*%
%TO.N,HallOut2*%
X82490000Y-61060000D03*
%TO.P,U5,3,GND*%
%TO.N,AGND*%
X81540000Y-59060000D03*
%TD*%
%TO.P,U6,1,VCC*%
%TO.N,PQ2*%
X102590000Y-61060000D03*
%TO.P,U6,2,OUT*%
%TO.N,HallOut3*%
X104490000Y-61060000D03*
%TO.P,U6,3,GND*%
%TO.N,AGND*%
X103540000Y-59060000D03*
%TD*%
%TO.P,U7,1,VCC*%
%TO.N,PQ3*%
X58590000Y-84760000D03*
%TO.P,U7,2,OUT*%
%TO.N,HallOut1*%
X60490000Y-84760000D03*
%TO.P,U7,3,GND*%
%TO.N,AGND*%
X59540000Y-82760000D03*
%TD*%
%TO.P,U8,1,VCC*%
%TO.N,PQ3*%
X80590000Y-84760000D03*
%TO.P,U8,2,OUT*%
%TO.N,HallOut2*%
X82490000Y-84760000D03*
%TO.P,U8,3,GND*%
%TO.N,AGND*%
X81540000Y-82760000D03*
%TD*%
%TO.P,U9,1,VCC*%
%TO.N,PQ3*%
X102590000Y-84760000D03*
%TO.P,U9,2,OUT*%
%TO.N,HallOut3*%
X104490000Y-84760000D03*
%TO.P,U9,3,GND*%
%TO.N,AGND*%
X103540000Y-82760000D03*
%TD*%
%TO.P,U10,1,VCC*%
%TO.N,PQ4*%
X58590000Y-108460000D03*
%TO.P,U10,2,OUT*%
%TO.N,HallOut1*%
X60490000Y-108460000D03*
%TO.P,U10,3,GND*%
%TO.N,AGND*%
X59540000Y-106460000D03*
%TD*%
%TO.P,U11,1,VCC*%
%TO.N,PQ4*%
X80590000Y-108460000D03*
%TO.P,U11,2,OUT*%
%TO.N,HallOut2*%
X82490000Y-108460000D03*
%TO.P,U11,3,GND*%
%TO.N,AGND*%
X81540000Y-106460000D03*
%TD*%
%TO.P,U12,1,VCC*%
%TO.N,PQ4*%
X102590000Y-108460000D03*
%TO.P,U12,2,OUT*%
%TO.N,HallOut3*%
X104490000Y-108460000D03*
%TO.P,U12,3,GND*%
%TO.N,AGND*%
X103540000Y-106460000D03*
%TD*%
%TO.P,U13,1,VCC*%
%TO.N,PQ5*%
X58590000Y-132160000D03*
%TO.P,U13,2,OUT*%
%TO.N,HallOut1*%
X60490000Y-132160000D03*
%TO.P,U13,3,GND*%
%TO.N,AGND*%
X59540000Y-130160000D03*
%TD*%
%TO.P,U14,1,VCC*%
%TO.N,PQ5*%
X80590000Y-132160000D03*
%TO.P,U14,2,OUT*%
%TO.N,HallOut2*%
X82490000Y-132160000D03*
%TO.P,U14,3,GND*%
%TO.N,AGND*%
X81540000Y-130160000D03*
%TD*%
%TO.P,U15,1,VCC*%
%TO.N,PQ5*%
X102590000Y-132160000D03*
%TO.P,U15,2,OUT*%
%TO.N,HallOut3*%
X104490000Y-132160000D03*
%TO.P,U15,3,GND*%
%TO.N,AGND*%
X103540000Y-130160000D03*
%TD*%
%TO.P,U16,1,VCC*%
%TO.N,PQ6*%
X58590000Y-155860000D03*
%TO.P,U16,2,OUT*%
%TO.N,HallOut1*%
X60490000Y-155860000D03*
%TO.P,U16,3,GND*%
%TO.N,AGND*%
X59540000Y-153860000D03*
%TD*%
%TO.P,U17,1,VCC*%
%TO.N,PQ6*%
X80590000Y-155860000D03*
%TO.P,U17,2,OUT*%
%TO.N,HallOut2*%
X82490000Y-155860000D03*
%TO.P,U17,3,GND*%
%TO.N,AGND*%
X81540000Y-153860000D03*
%TD*%
%TO.P,U18,1,VCC*%
%TO.N,PQ6*%
X102590000Y-155860000D03*
%TO.P,U18,2,OUT*%
%TO.N,HallOut3*%
X104490000Y-155860000D03*
%TO.P,U18,3,GND*%
%TO.N,AGND*%
X103540000Y-153860000D03*
%TD*%
%TO.P,U19,1,VCC*%
%TO.N,PQ7*%
X58590000Y-179560000D03*
%TO.P,U19,2,OUT*%
%TO.N,HallOut1*%
X60490000Y-179560000D03*
%TO.P,U19,3,GND*%
%TO.N,AGND*%
X59540000Y-177560000D03*
%TD*%
%TO.P,U20,1,VCC*%
%TO.N,PQ7*%
X80590000Y-179560000D03*
%TO.P,U20,2,OUT*%
%TO.N,HallOut2*%
X82490000Y-179560000D03*
%TO.P,U20,3,GND*%
%TO.N,AGND*%
X81540000Y-177560000D03*
%TD*%
%TO.P,U21,1,VCC*%
%TO.N,PQ7*%
X102590000Y-179560000D03*
%TO.P,U21,2,OUT*%
%TO.N,HallOut3*%
X104490000Y-179560000D03*
%TO.P,U21,3,GND*%
%TO.N,AGND*%
X103540000Y-177560000D03*
%TD*%
%TO.P,U22,1,VCC*%
%TO.N,PQ8*%
X58590000Y-203260000D03*
%TO.P,U22,2,OUT*%
%TO.N,HallOut1*%
X60490000Y-203260000D03*
%TO.P,U22,3,GND*%
%TO.N,AGND*%
X59540000Y-201260000D03*
%TD*%
%TO.P,U23,1,VCC*%
%TO.N,PQ8*%
X80590000Y-203260000D03*
%TO.P,U23,2,OUT*%
%TO.N,HallOut2*%
X82490000Y-203260000D03*
%TO.P,U23,3,GND*%
%TO.N,AGND*%
X81540000Y-201260000D03*
%TD*%
%TO.P,U24,1,VCC*%
%TO.N,PQ8*%
X102590000Y-203260000D03*
%TO.P,U24,2,OUT*%
%TO.N,HallOut3*%
X104490000Y-203260000D03*
%TO.P,U24,3,GND*%
%TO.N,AGND*%
X103540000Y-201260000D03*
%TD*%
%TO.P,U29,1,VCC*%
%TO.N,PQ10*%
X80590000Y-250660000D03*
%TO.P,U29,2,OUT*%
%TO.N,HallOut2*%
X82490000Y-250660000D03*
%TO.P,U29,3,GND*%
%TO.N,AGND*%
X81540000Y-248660000D03*
%TD*%
D12*
%TO.P,C1,1*%
%TO.N,P*%
X60891800Y-32660000D03*
%TO.P,C1,2*%
%TO.N,GND*%
X57941800Y-32660000D03*
%TD*%
D13*
%TO.P,C26,1*%
%TO.N,P*%
X79941800Y-222260000D03*
%TO.P,C26,2*%
%TO.N,GND*%
X82891800Y-222260000D03*
%TD*%
D12*
%TO.P,C14,1*%
%TO.N,P*%
X82891800Y-127460000D03*
%TO.P,C14,2*%
%TO.N,GND*%
X79941800Y-127460000D03*
%TD*%
D10*
%TO.P,D27,1,VSS*%
%TO.N,GND*%
X101066201Y-228906401D03*
%TO.P,D27,2,DIN*%
%TO.N,Net-(D26-Pad4)*%
X101066201Y-232106401D03*
%TO.P,D27,3,VDD*%
%TO.N,P*%
X105966201Y-232106401D03*
%TO.P,D27,4,DOUT*%
%TO.N,Net-(D24-Pad2)*%
X105966201Y-228906401D03*
%TD*%
%TO.P,D31,1,VSS*%
%TO.N,GND*%
X57066201Y-276306401D03*
%TO.P,D31,2,DIN*%
%TO.N,LedIn*%
X57066201Y-279506401D03*
%TO.P,D31,3,VDD*%
%TO.N,P*%
X61966201Y-279506401D03*
%TO.P,D31,4,DOUT*%
%TO.N,Net-(D31-Pad4)*%
X61966201Y-276306401D03*
%TD*%
D12*
%TO.P,C8,1*%
%TO.N,P*%
X82891800Y-80060000D03*
%TO.P,C8,2*%
%TO.N,GND*%
X79941800Y-80060000D03*
%TD*%
D10*
%TO.P,D29,1,VSS*%
%TO.N,GND*%
X83966201Y-255806401D03*
%TO.P,D29,2,DIN*%
%TO.N,Net-(D29-Pad2)*%
X83966201Y-252606401D03*
%TO.P,D29,3,VDD*%
%TO.N,P*%
X79066201Y-252606401D03*
%TO.P,D29,4,DOUT*%
%TO.N,Net-(D28-Pad2)*%
X79066201Y-255806401D03*
%TD*%
D12*
%TO.P,C9,1*%
%TO.N,P*%
X104891800Y-80060000D03*
%TO.P,C9,2*%
%TO.N,GND*%
X101941800Y-80060000D03*
%TD*%
%TO.P,C19,1*%
%TO.N,P*%
X60891800Y-174860000D03*
%TO.P,C19,2*%
%TO.N,GND*%
X57941800Y-174860000D03*
%TD*%
%TO.P,C7,1*%
%TO.N,P*%
X60891800Y-80060000D03*
%TO.P,C7,2*%
%TO.N,GND*%
X57941800Y-80060000D03*
%TD*%
D13*
%TO.P,C4,1*%
%TO.N,P*%
X57941800Y-56360000D03*
%TO.P,C4,2*%
%TO.N,GND*%
X60891800Y-56360000D03*
%TD*%
D11*
%TO.P,U28,1,VCC*%
%TO.N,PQ10*%
X58590000Y-250660000D03*
%TO.P,U28,2,OUT*%
%TO.N,HallOut1*%
X60490000Y-250660000D03*
%TO.P,U28,3,GND*%
%TO.N,AGND*%
X59540000Y-248660000D03*
%TD*%
%TO.P,U26,1,VCC*%
%TO.N,PQ9*%
X80590000Y-226960000D03*
%TO.P,U26,2,OUT*%
%TO.N,HallOut2*%
X82490000Y-226960000D03*
%TO.P,U26,3,GND*%
%TO.N,AGND*%
X81540000Y-224960000D03*
%TD*%
D13*
%TO.P,C25,1*%
%TO.N,P*%
X57941800Y-222260000D03*
%TO.P,C25,2*%
%TO.N,GND*%
X60891800Y-222260000D03*
%TD*%
D11*
%TO.P,U32,1,VCC*%
%TO.N,PQ11*%
X80590000Y-274360000D03*
%TO.P,U32,2,OUT*%
%TO.N,HallOut2*%
X82490000Y-274360000D03*
%TO.P,U32,3,GND*%
%TO.N,AGND*%
X81540000Y-272360000D03*
%TD*%
D13*
%TO.P,C23,1*%
%TO.N,P*%
X79941800Y-198560000D03*
%TO.P,C23,2*%
%TO.N,GND*%
X82891800Y-198560000D03*
%TD*%
D12*
%TO.P,C13,1*%
%TO.N,P*%
X60891800Y-127460000D03*
%TO.P,C13,2*%
%TO.N,GND*%
X57941800Y-127460000D03*
%TD*%
D10*
%TO.P,D26,1,VSS*%
%TO.N,GND*%
X79066201Y-228906401D03*
%TO.P,D26,2,DIN*%
%TO.N,Net-(D25-Pad4)*%
X79066201Y-232106401D03*
%TO.P,D26,3,VDD*%
%TO.N,P*%
X83966201Y-232106401D03*
%TO.P,D26,4,DOUT*%
%TO.N,Net-(D26-Pad4)*%
X83966201Y-228906401D03*
%TD*%
D11*
%TO.P,U30,1,VCC*%
%TO.N,PQ10*%
X102590000Y-250660000D03*
%TO.P,U30,2,OUT*%
%TO.N,HallOut3*%
X104490000Y-250660000D03*
%TO.P,U30,3,GND*%
%TO.N,AGND*%
X103540000Y-248660000D03*
%TD*%
D13*
%TO.P,C30,1*%
%TO.N,P*%
X101941800Y-245960000D03*
%TO.P,C30,2*%
%TO.N,GND*%
X104891800Y-245960000D03*
%TD*%
D12*
%TO.P,C32,1*%
%TO.N,P*%
X82891800Y-269660000D03*
%TO.P,C32,2*%
%TO.N,GND*%
X79941800Y-269660000D03*
%TD*%
D10*
%TO.P,D30,1,VSS*%
%TO.N,GND*%
X105966201Y-255806401D03*
%TO.P,D30,2,DIN*%
%TO.N,Net-(D30-Pad2)*%
X105966201Y-252606401D03*
%TO.P,D30,3,VDD*%
%TO.N,P*%
X101066201Y-252606401D03*
%TO.P,D30,4,DOUT*%
%TO.N,Net-(D29-Pad2)*%
X101066201Y-255806401D03*
%TD*%
D13*
%TO.P,C27,1*%
%TO.N,P*%
X101941800Y-222260000D03*
%TO.P,C27,2*%
%TO.N,GND*%
X104891800Y-222260000D03*
%TD*%
%TO.P,C22,1*%
%TO.N,P*%
X57941800Y-198560000D03*
%TO.P,C22,2*%
%TO.N,GND*%
X60891800Y-198560000D03*
%TD*%
D10*
%TO.P,D28,1,VSS*%
%TO.N,GND*%
X61966201Y-255806401D03*
%TO.P,D28,2,DIN*%
%TO.N,Net-(D28-Pad2)*%
X61966201Y-252606401D03*
%TO.P,D28,3,VDD*%
%TO.N,P*%
X57066201Y-252606401D03*
%TO.P,D28,4,DOUT*%
%TO.N,Net-(D25-Pad2)*%
X57066201Y-255806401D03*
%TD*%
%TO.P,D25,1,VSS*%
%TO.N,GND*%
X57066201Y-228906401D03*
%TO.P,D25,2,DIN*%
%TO.N,Net-(D25-Pad2)*%
X57066201Y-232106401D03*
%TO.P,D25,3,VDD*%
%TO.N,P*%
X61966201Y-232106401D03*
%TO.P,D25,4,DOUT*%
%TO.N,Net-(D25-Pad4)*%
X61966201Y-228906401D03*
%TD*%
D11*
%TO.P,U33,1,VCC*%
%TO.N,PQ11*%
X102590000Y-274360000D03*
%TO.P,U33,2,OUT*%
%TO.N,HallOut3*%
X104490000Y-274360000D03*
%TO.P,U33,3,GND*%
%TO.N,AGND*%
X103540000Y-272360000D03*
%TD*%
D13*
%TO.P,C12,1*%
%TO.N,P*%
X101941800Y-103760000D03*
%TO.P,C12,2*%
%TO.N,GND*%
X104891800Y-103760000D03*
%TD*%
%TO.P,C11,1*%
%TO.N,P*%
X79941800Y-103760000D03*
%TO.P,C11,2*%
%TO.N,GND*%
X82891800Y-103760000D03*
%TD*%
D12*
%TO.P,C33,1*%
%TO.N,P*%
X104891800Y-269660000D03*
%TO.P,C33,2*%
%TO.N,GND*%
X101941800Y-269660000D03*
%TD*%
D11*
%TO.P,U25,1,VCC*%
%TO.N,PQ9*%
X58590000Y-226960000D03*
%TO.P,U25,2,OUT*%
%TO.N,HallOut1*%
X60490000Y-226960000D03*
%TO.P,U25,3,GND*%
%TO.N,AGND*%
X59540000Y-224960000D03*
%TD*%
D13*
%TO.P,C17,1*%
%TO.N,P*%
X79941800Y-151160000D03*
%TO.P,C17,2*%
%TO.N,GND*%
X82891800Y-151160000D03*
%TD*%
D12*
%TO.P,C15,1*%
%TO.N,P*%
X104891800Y-127460000D03*
%TO.P,C15,2*%
%TO.N,GND*%
X101941800Y-127460000D03*
%TD*%
D13*
%TO.P,C10,1*%
%TO.N,P*%
X57941800Y-103760000D03*
%TO.P,C10,2*%
%TO.N,GND*%
X60891800Y-103760000D03*
%TD*%
%TO.P,C5,1*%
%TO.N,P*%
X79941800Y-56360000D03*
%TO.P,C5,2*%
%TO.N,GND*%
X82891800Y-56360000D03*
%TD*%
%TO.P,C24,1*%
%TO.N,P*%
X101941800Y-198560000D03*
%TO.P,C24,2*%
%TO.N,GND*%
X104891800Y-198560000D03*
%TD*%
D12*
%TO.P,C3,1*%
%TO.N,P*%
X104891800Y-32660000D03*
%TO.P,C3,2*%
%TO.N,GND*%
X101941800Y-32660000D03*
%TD*%
D13*
%TO.P,C6,1*%
%TO.N,P*%
X101941800Y-56360000D03*
%TO.P,C6,2*%
%TO.N,GND*%
X104891800Y-56360000D03*
%TD*%
D11*
%TO.P,U27,1,VCC*%
%TO.N,PQ9*%
X102590000Y-226960000D03*
%TO.P,U27,2,OUT*%
%TO.N,HallOut3*%
X104490000Y-226960000D03*
%TO.P,U27,3,GND*%
%TO.N,AGND*%
X103540000Y-224960000D03*
%TD*%
D12*
%TO.P,C2,1*%
%TO.N,P*%
X82891800Y-32660000D03*
%TO.P,C2,2*%
%TO.N,GND*%
X79941800Y-32660000D03*
%TD*%
D13*
%TO.P,C18,1*%
%TO.N,P*%
X101941800Y-151160000D03*
%TO.P,C18,2*%
%TO.N,GND*%
X104891800Y-151160000D03*
%TD*%
D12*
%TO.P,C21,1*%
%TO.N,P*%
X104891800Y-174860000D03*
%TO.P,C21,2*%
%TO.N,GND*%
X101941800Y-174860000D03*
%TD*%
D13*
%TO.P,C29,1*%
%TO.N,P*%
X79941800Y-245960000D03*
%TO.P,C29,2*%
%TO.N,GND*%
X82891800Y-245960000D03*
%TD*%
D10*
%TO.P,D33,1,VSS*%
%TO.N,GND*%
X101066201Y-276306401D03*
%TO.P,D33,2,DIN*%
%TO.N,Net-(D32-Pad4)*%
X101066201Y-279506401D03*
%TO.P,D33,3,VDD*%
%TO.N,P*%
X105966201Y-279506401D03*
%TO.P,D33,4,DOUT*%
%TO.N,Net-(D30-Pad2)*%
X105966201Y-276306401D03*
%TD*%
D13*
%TO.P,C28,1*%
%TO.N,P*%
X57941800Y-245960000D03*
%TO.P,C28,2*%
%TO.N,GND*%
X60891800Y-245960000D03*
%TD*%
%TO.P,C16,1*%
%TO.N,P*%
X57941800Y-151160000D03*
%TO.P,C16,2*%
%TO.N,GND*%
X60891800Y-151160000D03*
%TD*%
D12*
%TO.P,C31,1*%
%TO.N,P*%
X60891800Y-269660000D03*
%TO.P,C31,2*%
%TO.N,GND*%
X57941800Y-269660000D03*
%TD*%
D10*
%TO.P,D32,1,VSS*%
%TO.N,GND*%
X79066201Y-276306401D03*
%TO.P,D32,2,DIN*%
%TO.N,Net-(D31-Pad4)*%
X79066201Y-279506401D03*
%TO.P,D32,3,VDD*%
%TO.N,P*%
X83966201Y-279506401D03*
%TO.P,D32,4,DOUT*%
%TO.N,Net-(D32-Pad4)*%
X83966201Y-276306401D03*
%TD*%
D12*
%TO.P,C20,1*%
%TO.N,P*%
X82891800Y-174860000D03*
%TO.P,C20,2*%
%TO.N,GND*%
X79941800Y-174860000D03*
%TD*%
D11*
%TO.P,U31,1,VCC*%
%TO.N,PQ11*%
X58590000Y-274360000D03*
%TO.P,U31,2,OUT*%
%TO.N,HallOut1*%
X60490000Y-274360000D03*
%TO.P,U31,3,GND*%
%TO.N,AGND*%
X59540000Y-272360000D03*
%TD*%
D14*
%TO.N,P*%
X97200000Y-118000000D03*
%TO.N,GND*%
X90900000Y-116850000D03*
D15*
%TO.N,P*%
X94000000Y-88280000D03*
X62520000Y-269640000D03*
X77660000Y-221340000D03*
X104040000Y-89890000D03*
D16*
X92790000Y-165960000D03*
D15*
X103040000Y-205160000D03*
X59900000Y-184700000D03*
X109360000Y-32560000D03*
X62350000Y-32660000D03*
X60220000Y-89900000D03*
X99550000Y-109470000D03*
X103620000Y-271140000D03*
X80930000Y-110360000D03*
X58390000Y-206470000D03*
X82380000Y-42490000D03*
X81470000Y-80060000D03*
X54490000Y-222200000D03*
X82050000Y-137350000D03*
X84410000Y-271150000D03*
X57930000Y-196340000D03*
X57520000Y-34740000D03*
X103920000Y-279530000D03*
X57210000Y-247730000D03*
X104160000Y-137300000D03*
X55280000Y-42270000D03*
X100400000Y-56360000D03*
X80930000Y-205150000D03*
X84488500Y-230539312D03*
X99260000Y-156190000D03*
X82170000Y-125520000D03*
X98630000Y-33880000D03*
X53880000Y-221150000D03*
X111670000Y-279590000D03*
X110990000Y-43320000D03*
X58860000Y-210810000D03*
X80800000Y-63010000D03*
X79940000Y-148770000D03*
X60170000Y-42490000D03*
X60080000Y-137280000D03*
X100330000Y-246380000D03*
X58700000Y-110380000D03*
X54730000Y-215950000D03*
X51820000Y-279700000D03*
X57950000Y-149210000D03*
X80870000Y-157780000D03*
X59370000Y-103750000D03*
X60110000Y-279540000D03*
X81490000Y-32670000D03*
X105080000Y-176740000D03*
X77580000Y-251650000D03*
X59410000Y-56360000D03*
X103390000Y-127440000D03*
X105950000Y-267730000D03*
X58660000Y-63020000D03*
X101950000Y-253970000D03*
X59070000Y-205190000D03*
X82840000Y-172590000D03*
X79960000Y-196260000D03*
X105664000Y-233934000D03*
X82010000Y-279490000D03*
X104370000Y-42530000D03*
X59870000Y-252550000D03*
X101854000Y-219964000D03*
X101940000Y-196010000D03*
X78410000Y-56330000D03*
X60870000Y-172730000D03*
X62560000Y-127450000D03*
X103420000Y-32670000D03*
X100090000Y-151160000D03*
X78310000Y-103780000D03*
X82040000Y-184690000D03*
X103420000Y-80060000D03*
X60060000Y-232090000D03*
X93810000Y-150470000D03*
X58870000Y-157820000D03*
X78740000Y-247396000D03*
X82320000Y-89900000D03*
X59480000Y-80100000D03*
X98120000Y-93690000D03*
X103410000Y-103710000D03*
X104080000Y-184700000D03*
X94110000Y-90950000D03*
X102670000Y-62990000D03*
%TO.N,LedIn*%
X57070000Y-278270000D03*
%TO.N,P3.3*%
X62550000Y-194430000D03*
X88010000Y-192250000D03*
X62950000Y-51930000D03*
X62150000Y-146740000D03*
X59436000Y-241808000D03*
X87870000Y-50090000D03*
X88000000Y-143280000D03*
X62390000Y-95810000D03*
X62340000Y-190370000D03*
X63030000Y-47920000D03*
X87430000Y-235630000D03*
X87870000Y-95660000D03*
X62500000Y-143030000D03*
X62170000Y-99460000D03*
X62110000Y-238100000D03*
%TO.N,GND*%
X104120000Y-113600000D03*
X57900000Y-172480000D03*
X58920000Y-86710000D03*
X100370000Y-80080000D03*
X81000000Y-276300000D03*
X51940000Y-274600000D03*
X82150000Y-113590000D03*
X104160000Y-66220000D03*
X98830000Y-228490000D03*
X106650000Y-103760000D03*
X56000000Y-269620000D03*
X56230000Y-127500000D03*
X82880000Y-148810000D03*
X60060000Y-160980000D03*
X105170000Y-159620000D03*
X78370000Y-32680000D03*
X60470000Y-66180000D03*
X60120000Y-113590000D03*
X103460000Y-56330000D03*
X60170000Y-255800000D03*
X84582000Y-222250000D03*
X98080000Y-98280000D03*
X78330000Y-127450000D03*
X59290000Y-39310000D03*
X80790000Y-181520000D03*
X57060000Y-37330000D03*
X78400000Y-80060000D03*
X80840000Y-39320000D03*
X104820000Y-196010000D03*
X59360000Y-134070000D03*
X100000000Y-127510000D03*
X106550000Y-222250000D03*
X106172000Y-254254000D03*
X62360000Y-103740000D03*
X81470000Y-56370000D03*
X80720000Y-86730000D03*
X111910000Y-32530000D03*
X106520000Y-245980000D03*
X59390000Y-223280000D03*
X62790000Y-198500000D03*
X50660000Y-28600000D03*
X100460000Y-174860000D03*
X81950000Y-161020000D03*
X78070000Y-270920000D03*
X110650000Y-38250000D03*
X90130000Y-100180000D03*
X66200000Y-227100000D03*
X58890000Y-276310000D03*
X99050000Y-39220000D03*
X82290000Y-66210000D03*
X59320000Y-32670000D03*
X79940000Y-172710000D03*
X82070000Y-208400000D03*
X106810000Y-151120000D03*
X59130000Y-229930000D03*
X83100000Y-254550000D03*
X97170000Y-88260000D03*
X50038000Y-218440000D03*
X58780000Y-181440000D03*
X100340000Y-32660000D03*
X84240500Y-245872000D03*
X103900000Y-208400000D03*
X102362000Y-277368000D03*
X107220000Y-35310000D03*
X102740000Y-86690000D03*
X59990000Y-206360000D03*
X77724000Y-228092000D03*
X82830000Y-196330000D03*
X62340000Y-247320000D03*
X98620000Y-148220000D03*
X61260000Y-206770000D03*
X97160000Y-90960000D03*
X81400000Y-103750000D03*
X62620000Y-151120000D03*
X53860000Y-225050000D03*
X100584000Y-269240000D03*
X111600000Y-274500000D03*
D16*
X104220000Y-165620000D03*
D15*
X80700000Y-134120000D03*
X102850000Y-181480000D03*
X103050000Y-134090000D03*
X56490000Y-80060000D03*
X92920000Y-100050000D03*
X103650000Y-276570000D03*
X62440000Y-56380000D03*
%TO.N,Net-(D12-Pad2)*%
X105900000Y-135740000D03*
X107140000Y-130180000D03*
%TO.N,Net-(D6-Pad2)*%
X105980000Y-64510000D03*
X106010000Y-88050000D03*
%TO.N,Net-(D18-Pad2)*%
X107020000Y-177840000D03*
X106190000Y-182810000D03*
%TO.N,Net-(D24-Pad2)*%
X107640000Y-228210000D03*
X107620000Y-225710000D03*
%TO.N,A2*%
X81280000Y-214630000D03*
X68270000Y-27950000D03*
X54650000Y-214640000D03*
%TO.N,E*%
X83566000Y-217678000D03*
X65420000Y-26520000D03*
X54790000Y-217280000D03*
%TO.N,A0*%
X54360000Y-212060000D03*
X74500000Y-30830000D03*
X78232000Y-212090000D03*
%TO.N,A1*%
X54770000Y-213370000D03*
X71260000Y-29300000D03*
X80264000Y-213360000D03*
%TO.N,LedOut*%
X102730000Y-39290000D03*
%TO.N,PQ1*%
X58360000Y-36220000D03*
X97020001Y-36459999D03*
%TO.N,PQ2*%
X58130000Y-59600000D03*
X101689999Y-60159999D03*
%TO.N,PQ3*%
X101689999Y-83859999D03*
X58060000Y-83370000D03*
%TO.N,PQ4*%
X58250000Y-107000000D03*
X99170001Y-107559999D03*
%TO.N,PQ5*%
X58190000Y-130970000D03*
X101630001Y-131259999D03*
%TO.N,PQ6*%
X58280000Y-154320000D03*
X89670001Y-154959999D03*
%TO.N,PQ7*%
X101689999Y-178659999D03*
X58080000Y-177920000D03*
%TO.N,PQ8*%
X101689999Y-202359999D03*
X58210000Y-201830000D03*
%TO.N,HallOut1*%
X64382000Y-61007400D03*
X64382000Y-84781800D03*
X72898000Y-228600000D03*
X64382000Y-132152800D03*
X64382000Y-155901800D03*
X64370000Y-274290000D03*
X64382000Y-250638000D03*
X64382000Y-108556200D03*
X64382000Y-179625400D03*
X64382000Y-226948000D03*
X64382000Y-203196600D03*
X64382000Y-37360000D03*
%TO.N,HallOut2*%
X86226000Y-108480000D03*
X86187500Y-233746663D03*
X86187500Y-226924243D03*
X86226000Y-250624000D03*
X86226000Y-155876400D03*
X77724000Y-233934000D03*
X86226000Y-203272800D03*
X86226000Y-84781800D03*
X86226000Y-61058200D03*
X86226000Y-179549200D03*
X86226000Y-132127400D03*
X86226000Y-37360000D03*
X86220000Y-274370000D03*
%TO.N,HallOut3*%
X98520000Y-251540000D03*
X88890000Y-40390000D03*
%TO.N,AGND*%
X89700000Y-35360000D03*
X84360000Y-153770000D03*
X102390000Y-105590000D03*
X85338000Y-248660000D03*
X92960000Y-248660000D03*
X60790000Y-224960000D03*
X84360000Y-82730000D03*
X78668000Y-272360000D03*
X84360000Y-106420000D03*
X84410000Y-59060000D03*
X84666000Y-224960000D03*
X92372000Y-224960000D03*
X92210000Y-272360000D03*
X84360000Y-201260000D03*
X84360000Y-130120000D03*
X91070000Y-59060000D03*
X61530000Y-130160000D03*
X92040000Y-201260000D03*
X106172000Y-225044000D03*
X84360000Y-177540000D03*
%TO.N,Net-(D30-Pad2)*%
X107520000Y-273110000D03*
X107500000Y-269660000D03*
%TO.N,PQ11*%
X106170000Y-271080000D03*
X58200000Y-273150000D03*
%TO.N,PQ10*%
X56940000Y-249390000D03*
X110540000Y-241650000D03*
%TO.N,PQ9*%
X57780000Y-225860000D03*
X103440000Y-228670000D03*
%TO.N,HallOut4*%
X87680000Y-259790000D03*
X57540000Y-259800000D03*
%TO.N,HallOut5*%
X88529500Y-257250462D03*
X57760000Y-257280000D03*
%TO.N,S1*%
X105664000Y-266192000D03*
X52020000Y-266190000D03*
%TO.N,S0*%
X105664000Y-263652000D03*
X52160000Y-263650000D03*
%TO.N,First_LedIn_3V*%
X52450000Y-220080000D03*
X89940000Y-261860000D03*
%TO.N,A3*%
X82296000Y-215900000D03*
X59182000Y-215900000D03*
%TO.N,Q9*%
X64516000Y-223520000D03*
X61634500Y-223774000D03*
%TO.N,Q10*%
X62484000Y-222250000D03*
X64516000Y-222250000D03*
%TO.N,Q11*%
X66802000Y-242824000D03*
X62738000Y-242824000D03*
%TD*%
D17*
%TO.N,P*%
X79941800Y-222260000D02*
X78580000Y-222260000D01*
X103410000Y-127460000D02*
X103390000Y-127440000D01*
X104056401Y-89906401D02*
X104040000Y-89890000D01*
X80873599Y-205206401D02*
X80930000Y-205150000D01*
X104891800Y-176551800D02*
X105080000Y-176740000D01*
X61966201Y-184706401D02*
X59906401Y-184706401D01*
X60891800Y-127460000D02*
X62550000Y-127460000D01*
X79066201Y-205206401D02*
X80873599Y-205206401D01*
X80843599Y-157806401D02*
X80870000Y-157780000D01*
X105966201Y-137306401D02*
X104166401Y-137306401D01*
X82891800Y-172641800D02*
X82840000Y-172590000D01*
X104166401Y-137306401D02*
X104160000Y-137300000D01*
X60226401Y-89906401D02*
X60220000Y-89900000D01*
X104891800Y-32660000D02*
X103430000Y-32660000D01*
X62500000Y-269660000D02*
X62520000Y-269640000D01*
X83966201Y-137306401D02*
X82093599Y-137306401D01*
X57941800Y-246998200D02*
X57210000Y-247730000D01*
X57066201Y-110406401D02*
X58673599Y-110406401D01*
X100486401Y-110406401D02*
X99550000Y-109470000D01*
X60143599Y-279506401D02*
X60110000Y-279540000D01*
X60891800Y-269660000D02*
X62500000Y-269660000D01*
X60891800Y-172751800D02*
X60870000Y-172730000D01*
X105966201Y-232106401D02*
X105966201Y-233631799D01*
X102993599Y-205206401D02*
X103040000Y-205160000D01*
X79941800Y-151160000D02*
X79941800Y-148771800D01*
X101066201Y-252606401D02*
X101066201Y-253086201D01*
X61966201Y-89906401D02*
X60226401Y-89906401D01*
X82396401Y-42506401D02*
X82380000Y-42490000D01*
X57941800Y-198560000D02*
X57941800Y-196351800D01*
X82326401Y-89906401D02*
X82320000Y-89900000D01*
X57066201Y-205206401D02*
X59053599Y-205206401D01*
X82920000Y-269660000D02*
X84410000Y-271150000D01*
X104891800Y-268788200D02*
X105950000Y-267730000D01*
X105966201Y-279506401D02*
X103943599Y-279506401D01*
X61966201Y-232106401D02*
X60076401Y-232106401D01*
X59520000Y-80060000D02*
X59480000Y-80100000D01*
X104393599Y-42506401D02*
X104370000Y-42530000D01*
X104891800Y-174860000D02*
X104891800Y-176551800D01*
X57941800Y-56360000D02*
X59410000Y-56360000D01*
X101941800Y-222260000D02*
X101941800Y-220051800D01*
X57066201Y-157806401D02*
X58856401Y-157806401D01*
X78330000Y-103760000D02*
X78310000Y-103780000D01*
X81500000Y-32660000D02*
X81490000Y-32670000D01*
X57066201Y-252606401D02*
X59813599Y-252606401D01*
X101066201Y-205206401D02*
X102993599Y-205206401D01*
X79941800Y-148771800D02*
X79940000Y-148770000D01*
X82056401Y-184706401D02*
X82040000Y-184690000D01*
X82093599Y-137306401D02*
X82050000Y-137350000D01*
X105966201Y-42506401D02*
X104393599Y-42506401D01*
X58673599Y-110406401D02*
X58700000Y-110380000D01*
X78440000Y-56360000D02*
X78410000Y-56330000D01*
X103943599Y-279506401D02*
X103920000Y-279530000D01*
X79066201Y-252606401D02*
X78536401Y-252606401D01*
X59053599Y-205206401D02*
X59070000Y-205190000D01*
X100750000Y-245960000D02*
X100330000Y-246380000D01*
X59906401Y-184706401D02*
X59900000Y-184700000D01*
X104891800Y-80060000D02*
X103420000Y-80060000D01*
X105966201Y-184706401D02*
X104086401Y-184706401D01*
X101941800Y-245960000D02*
X100750000Y-245960000D01*
X79941800Y-103760000D02*
X78330000Y-103760000D01*
X101941800Y-151160000D02*
X100090000Y-151160000D01*
X60106401Y-137306401D02*
X60080000Y-137280000D01*
X58646401Y-63006401D02*
X58660000Y-63020000D01*
X105966201Y-89906401D02*
X104056401Y-89906401D01*
X61966201Y-42506401D02*
X60186401Y-42506401D01*
X103430000Y-32660000D02*
X103420000Y-32670000D01*
X57941800Y-151160000D02*
X57941800Y-149218200D01*
X99209846Y-156240154D02*
X99260000Y-156190000D01*
X104086401Y-184706401D02*
X104080000Y-184700000D01*
X80796401Y-63006401D02*
X80800000Y-63010000D01*
X101941800Y-103760000D02*
X103360000Y-103760000D01*
X60891800Y-32660000D02*
X62350000Y-32660000D01*
X101941800Y-198560000D02*
X101941800Y-196011800D01*
X101941800Y-56360000D02*
X100400000Y-56360000D01*
X57941800Y-103760000D02*
X59360000Y-103760000D01*
X54550000Y-222260000D02*
X54490000Y-222200000D01*
X83966201Y-232106401D02*
X83966201Y-231061611D01*
X60891800Y-174860000D02*
X60891800Y-172751800D01*
X58856401Y-157806401D02*
X58870000Y-157820000D01*
X79941800Y-56360000D02*
X78440000Y-56360000D01*
X101941800Y-196011800D02*
X101940000Y-196010000D01*
X57941800Y-196351800D02*
X57930000Y-196340000D01*
X80883599Y-110406401D02*
X80930000Y-110360000D01*
X104891800Y-127460000D02*
X103410000Y-127460000D01*
X82891800Y-174860000D02*
X82891800Y-172641800D01*
X101066201Y-63006401D02*
X102653599Y-63006401D01*
X57066201Y-63006401D02*
X58646401Y-63006401D01*
X79941800Y-246194200D02*
X78740000Y-247396000D01*
X60186401Y-42506401D02*
X60170000Y-42490000D01*
X101941800Y-220051800D02*
X101854000Y-219964000D01*
X79066201Y-157806401D02*
X80843599Y-157806401D01*
X78580000Y-222260000D02*
X77660000Y-221340000D01*
X99180154Y-156240154D02*
X99209846Y-156240154D01*
X57941800Y-149218200D02*
X57950000Y-149210000D01*
X103360000Y-103760000D02*
X103410000Y-103710000D01*
X79066201Y-63006401D02*
X80796401Y-63006401D01*
X60891800Y-80060000D02*
X59520000Y-80060000D01*
X59813599Y-252606401D02*
X59870000Y-252550000D01*
X62550000Y-127460000D02*
X62560000Y-127450000D01*
X101066201Y-253086201D02*
X101950000Y-253970000D01*
X102653599Y-63006401D02*
X102670000Y-62990000D01*
X82891800Y-126241800D02*
X82170000Y-125520000D01*
X61966201Y-137306401D02*
X60106401Y-137306401D01*
X79941800Y-196278200D02*
X79960000Y-196260000D01*
X82891800Y-32660000D02*
X81500000Y-32660000D01*
X83966201Y-89906401D02*
X82326401Y-89906401D01*
X105966201Y-233631799D02*
X105664000Y-233934000D01*
X83966201Y-231061611D02*
X84488500Y-230539312D01*
X79066201Y-110406401D02*
X80883599Y-110406401D01*
X83966201Y-42506401D02*
X82396401Y-42506401D01*
X78536401Y-252606401D02*
X77580000Y-251650000D01*
X59360000Y-103760000D02*
X59370000Y-103750000D01*
X82026401Y-279506401D02*
X82010000Y-279490000D01*
X82891800Y-127460000D02*
X82891800Y-126241800D01*
X57941800Y-245960000D02*
X57941800Y-246998200D01*
X104891800Y-269660000D02*
X104891800Y-268788200D01*
X79941800Y-198560000D02*
X79941800Y-196278200D01*
X101066201Y-110406401D02*
X100486401Y-110406401D01*
X61966201Y-279506401D02*
X60143599Y-279506401D01*
X100746401Y-157806401D02*
X99180154Y-156240154D01*
X60076401Y-232106401D02*
X60060000Y-232090000D01*
X83966201Y-184706401D02*
X82056401Y-184706401D01*
X83966201Y-279506401D02*
X82026401Y-279506401D01*
X82891800Y-80060000D02*
X81470000Y-80060000D01*
X57941800Y-222260000D02*
X54550000Y-222260000D01*
%TO.N,LedIn*%
X57066201Y-279506401D02*
X57066201Y-278273799D01*
X57066201Y-278273799D02*
X57070000Y-278270000D01*
%TO.N,Net-(D1-Pad4)*%
X75866201Y-39306401D02*
X79066201Y-42506401D01*
X61966201Y-39306401D02*
X75866201Y-39306401D01*
%TO.N,Net-(D2-Pad4)*%
X87166201Y-42506401D02*
X83966201Y-39306401D01*
X101066201Y-42506401D02*
X87166201Y-42506401D01*
%TO.N,P3.3*%
X64790000Y-50090000D02*
X62950000Y-51930000D01*
X62540000Y-95660000D02*
X62390000Y-95810000D01*
X65400000Y-50090000D02*
X64790000Y-50090000D01*
X62150000Y-146740000D02*
X63550000Y-145340000D01*
X63550000Y-145340000D02*
X63550000Y-144080000D01*
X64220000Y-192760000D02*
X64220000Y-192250000D01*
X70495000Y-238155000D02*
X66800000Y-241850000D01*
X62110000Y-238100000D02*
X70440000Y-238100000D01*
X88000000Y-143280000D02*
X87200000Y-144080000D01*
X87870000Y-95660000D02*
X62540000Y-95660000D01*
X62550000Y-194430000D02*
X64220000Y-192760000D01*
X65200000Y-50090000D02*
X65400000Y-50090000D01*
X59478000Y-241850000D02*
X66800000Y-241850000D01*
X73020000Y-235630000D02*
X70495000Y-238155000D01*
X59478000Y-241850000D02*
X59436000Y-241808000D01*
X87430000Y-235630000D02*
X73020000Y-235630000D01*
X63550000Y-144080000D02*
X62500000Y-143030000D01*
X88010000Y-192250000D02*
X64220000Y-192250000D01*
X62390000Y-95810000D02*
X62390000Y-99240000D01*
X64220000Y-192250000D02*
X62340000Y-190370000D01*
X62390000Y-99240000D02*
X62170000Y-99460000D01*
X70440000Y-238100000D02*
X70495000Y-238155000D01*
X87870000Y-50090000D02*
X65400000Y-50090000D01*
X87200000Y-144080000D02*
X63550000Y-144080000D01*
X63030000Y-47920000D02*
X65200000Y-50090000D01*
%TO.N,Net-(D1-Pad2)*%
X55360000Y-45470000D02*
X57066201Y-43763799D01*
X57066201Y-66206401D02*
X55360000Y-64500200D01*
X55360000Y-64500200D02*
X55360000Y-45470000D01*
X57066201Y-43763799D02*
X57066201Y-42506401D01*
%TO.N,Net-(D4-Pad2)*%
X75866201Y-63006401D02*
X79066201Y-66206401D01*
X61966201Y-63006401D02*
X75866201Y-63006401D01*
%TO.N,Net-(D5-Pad2)*%
X101066201Y-66206401D02*
X87166201Y-66206401D01*
X87166201Y-66206401D02*
X83966201Y-63006401D01*
%TO.N,Net-(D7-Pad4)*%
X79066201Y-89906401D02*
X65166201Y-89906401D01*
X65166201Y-89906401D02*
X61966201Y-86706401D01*
%TO.N,GND*%
X80993599Y-276306401D02*
X81000000Y-276300000D01*
X101004000Y-269660000D02*
X100584000Y-269240000D01*
X104126401Y-113606401D02*
X104120000Y-113600000D01*
X80686401Y-134106401D02*
X80700000Y-134120000D01*
X101066201Y-181506401D02*
X102823599Y-181506401D01*
X57941800Y-174860000D02*
X57941800Y-172521800D01*
X58713599Y-181506401D02*
X58780000Y-181440000D01*
X60980000Y-245960000D02*
X62340000Y-247320000D01*
X61966201Y-66206401D02*
X60496401Y-66206401D01*
X58886401Y-276306401D02*
X58890000Y-276310000D01*
X59310000Y-32660000D02*
X59320000Y-32670000D01*
X61966201Y-161006401D02*
X60086401Y-161006401D01*
X82891800Y-56360000D02*
X81480000Y-56360000D01*
X79941800Y-32660000D02*
X78390000Y-32660000D01*
X101066201Y-86706401D02*
X102723599Y-86706401D01*
X62420000Y-56360000D02*
X62440000Y-56380000D01*
X79941800Y-269660000D02*
X79330000Y-269660000D01*
X79066201Y-39306401D02*
X80826401Y-39306401D01*
X101066201Y-228906401D02*
X99246401Y-228906401D01*
X79066201Y-134106401D02*
X80686401Y-134106401D01*
X102823599Y-181506401D02*
X102850000Y-181480000D01*
X57941800Y-32660000D02*
X59310000Y-32660000D01*
X106770000Y-151160000D02*
X106810000Y-151120000D01*
X105966201Y-160416201D02*
X105170000Y-159620000D01*
X79941800Y-174860000D02*
X79941800Y-172711800D01*
X79066201Y-228906401D02*
X78538401Y-228906401D01*
X61966201Y-207476201D02*
X61260000Y-206770000D01*
X57941800Y-127460000D02*
X56270000Y-127460000D01*
X83966201Y-161006401D02*
X81963599Y-161006401D01*
X83966201Y-113606401D02*
X82166401Y-113606401D01*
X82891800Y-103760000D02*
X81410000Y-103760000D01*
X80826401Y-39306401D02*
X80840000Y-39320000D01*
X82166401Y-113606401D02*
X82150000Y-113590000D01*
X103490000Y-56360000D02*
X103460000Y-56330000D01*
X105966201Y-113606401D02*
X104126401Y-113606401D01*
X62730000Y-198560000D02*
X62790000Y-198500000D01*
X99136401Y-39306401D02*
X99050000Y-39220000D01*
X56040000Y-269660000D02*
X56000000Y-269620000D01*
X57066201Y-228906401D02*
X58106401Y-228906401D01*
X101941800Y-127460000D02*
X100050000Y-127460000D01*
X60496401Y-66206401D02*
X60470000Y-66180000D01*
X61966201Y-255806401D02*
X60176401Y-255806401D01*
X100390000Y-80060000D02*
X100370000Y-80080000D01*
X105966201Y-208406401D02*
X103906401Y-208406401D01*
X104891800Y-103760000D02*
X106650000Y-103760000D01*
X82293599Y-66206401D02*
X82290000Y-66210000D01*
X82891800Y-222260000D02*
X84572000Y-222260000D01*
X62580000Y-151160000D02*
X62620000Y-151120000D01*
X57066201Y-134106401D02*
X59323599Y-134106401D01*
X59286401Y-39306401D02*
X59290000Y-39310000D01*
X79330000Y-269660000D02*
X78070000Y-270920000D01*
X58106401Y-228906401D02*
X59130000Y-229930000D01*
X60891800Y-151160000D02*
X62580000Y-151160000D01*
X103906401Y-208406401D02*
X103900000Y-208400000D01*
X81410000Y-103760000D02*
X81400000Y-103750000D01*
X83966201Y-208406401D02*
X82076401Y-208406401D01*
X80776401Y-181506401D02*
X80790000Y-181520000D01*
X83966201Y-255806401D02*
X83966201Y-255416201D01*
X79941800Y-172711800D02*
X79940000Y-172710000D01*
X78538401Y-228906401D02*
X77724000Y-228092000D01*
X57066201Y-86706401D02*
X58916401Y-86706401D01*
X62340000Y-103760000D02*
X62360000Y-103740000D01*
X101941800Y-32660000D02*
X100340000Y-32660000D01*
X61966201Y-208406401D02*
X61966201Y-207476201D01*
X80696401Y-86706401D02*
X80720000Y-86730000D01*
X78390000Y-32660000D02*
X78370000Y-32680000D01*
X60891800Y-222260000D02*
X60410000Y-222260000D01*
X58916401Y-86706401D02*
X58920000Y-86710000D01*
X57066201Y-181506401D02*
X58713599Y-181506401D01*
X106500000Y-245960000D02*
X106520000Y-245980000D01*
X57066201Y-39306401D02*
X59286401Y-39306401D01*
X101066201Y-134106401D02*
X103033599Y-134106401D01*
X79941800Y-127460000D02*
X78340000Y-127460000D01*
X60410000Y-222260000D02*
X59390000Y-223280000D01*
X79066201Y-276306401D02*
X80993599Y-276306401D01*
X84152500Y-245960000D02*
X84240500Y-245872000D01*
X61966201Y-113606401D02*
X60136401Y-113606401D01*
X105966201Y-255806401D02*
X105966201Y-254459799D01*
X101941800Y-174860000D02*
X100460000Y-174860000D01*
X104891800Y-196081800D02*
X104820000Y-196010000D01*
X99246401Y-228906401D02*
X98830000Y-228490000D01*
X101300401Y-276306401D02*
X102362000Y-277368000D01*
X60136401Y-113606401D02*
X60120000Y-113590000D01*
X59323599Y-134106401D02*
X59360000Y-134070000D01*
X106540000Y-222260000D02*
X106550000Y-222250000D01*
X104891800Y-151160000D02*
X106770000Y-151160000D01*
X57941800Y-80060000D02*
X56490000Y-80060000D01*
X101941800Y-80060000D02*
X100390000Y-80060000D01*
X104173599Y-66206401D02*
X104160000Y-66220000D01*
X60891800Y-198560000D02*
X62730000Y-198560000D01*
X60891800Y-56360000D02*
X62420000Y-56360000D01*
X101941800Y-269660000D02*
X101004000Y-269660000D01*
X105966201Y-254459799D02*
X106172000Y-254254000D01*
X105966201Y-161006401D02*
X105966201Y-160416201D01*
X82891800Y-198560000D02*
X82891800Y-196391800D01*
X104891800Y-56360000D02*
X103490000Y-56360000D01*
X82891800Y-151160000D02*
X82891800Y-148821800D01*
X57941800Y-172521800D02*
X57900000Y-172480000D01*
X60176401Y-255806401D02*
X60170000Y-255800000D01*
X81480000Y-56360000D02*
X81470000Y-56370000D01*
X83966201Y-255416201D02*
X83100000Y-254550000D01*
X82891800Y-148821800D02*
X82880000Y-148810000D01*
X104891800Y-198560000D02*
X104891800Y-196081800D01*
X104891800Y-222260000D02*
X106540000Y-222260000D01*
X83966201Y-66206401D02*
X82293599Y-66206401D01*
X56270000Y-127460000D02*
X56230000Y-127500000D01*
X82891800Y-196391800D02*
X82830000Y-196330000D01*
X81963599Y-161006401D02*
X81950000Y-161020000D01*
X101066201Y-39306401D02*
X99136401Y-39306401D01*
X100050000Y-127460000D02*
X100000000Y-127510000D01*
X82076401Y-208406401D02*
X82070000Y-208400000D01*
X79066201Y-86706401D02*
X80696401Y-86706401D01*
X84572000Y-222260000D02*
X84582000Y-222250000D01*
X103033599Y-134106401D02*
X103050000Y-134090000D01*
X105966201Y-66206401D02*
X104173599Y-66206401D01*
X82891800Y-245960000D02*
X84152500Y-245960000D01*
X79941800Y-80060000D02*
X78400000Y-80060000D01*
X57941800Y-269660000D02*
X56040000Y-269660000D01*
X60086401Y-161006401D02*
X60060000Y-160980000D01*
X104891800Y-245960000D02*
X106500000Y-245960000D01*
X79066201Y-181506401D02*
X80776401Y-181506401D01*
X78340000Y-127460000D02*
X78330000Y-127450000D01*
X102723599Y-86706401D02*
X102740000Y-86690000D01*
X60891800Y-103760000D02*
X62340000Y-103760000D01*
X57066201Y-276306401D02*
X58886401Y-276306401D01*
%TO.N,Net-(D10-Pad2)*%
X61966201Y-110406401D02*
X75866201Y-110406401D01*
X75866201Y-110406401D02*
X79066201Y-113606401D01*
%TO.N,Net-(D10-Pad4)*%
X57066201Y-113606401D02*
X55430000Y-111970200D01*
X55430000Y-111970200D02*
X55430000Y-91542602D01*
X55430000Y-91542602D02*
X57066201Y-89906401D01*
%TO.N,Net-(D11-Pad2)*%
X83966201Y-110406401D02*
X97866201Y-110406401D01*
X97866201Y-110406401D02*
X101066201Y-113606401D01*
%TO.N,Net-(D12-Pad2)*%
X107570000Y-112270000D02*
X107570000Y-129750000D01*
X105966201Y-110666201D02*
X107570000Y-112270000D01*
X105966201Y-110406401D02*
X105966201Y-110666201D01*
X107570000Y-129750000D02*
X107140000Y-130180000D01*
X105900000Y-135740000D02*
X105900000Y-134172602D01*
%TO.N,Net-(D13-Pad2)*%
X55866201Y-159806401D02*
X55866201Y-138506401D01*
X57066201Y-161006401D02*
X55866201Y-159806401D01*
X55866201Y-138506401D02*
X57066201Y-137306401D01*
%TO.N,Net-(D6-Pad2)*%
X106010000Y-88050000D02*
X106010000Y-86750200D01*
X105966201Y-64496201D02*
X105980000Y-64510000D01*
X105966201Y-63006401D02*
X105966201Y-64496201D01*
%TO.N,Net-(D8-Pad4)*%
X97866201Y-86706401D02*
X101066201Y-89906401D01*
X83966201Y-86706401D02*
X97866201Y-86706401D01*
%TO.N,Net-(D16-Pad2)*%
X65166201Y-161006401D02*
X61966201Y-157806401D01*
X79066201Y-161006401D02*
X65166201Y-161006401D01*
%TO.N,Net-(D17-Pad2)*%
X97866201Y-157806401D02*
X101066201Y-161006401D01*
X83966201Y-157806401D02*
X97866201Y-157806401D01*
%TO.N,Net-(D19-Pad4)*%
X61966201Y-181506401D02*
X75866201Y-181506401D01*
X75866201Y-181506401D02*
X79066201Y-184706401D01*
%TO.N,Net-(D20-Pad4)*%
X97866201Y-181506401D02*
X101066201Y-184706401D01*
X83966201Y-181506401D02*
X97866201Y-181506401D01*
%TO.N,Net-(D13-Pad4)*%
X79066201Y-137306401D02*
X65166201Y-137306401D01*
X65166201Y-137306401D02*
X61966201Y-134106401D01*
%TO.N,Net-(D14-Pad4)*%
X97866201Y-134106401D02*
X101066201Y-137306401D01*
X83966201Y-134106401D02*
X97866201Y-134106401D01*
%TO.N,Net-(D18-Pad2)*%
X107020000Y-177840000D02*
X107020000Y-168710000D01*
X106190000Y-182810000D02*
X106190000Y-181730200D01*
X107020000Y-168710000D02*
X108180000Y-167550000D01*
X108180000Y-167550000D02*
X108180000Y-160020200D01*
X108180000Y-160020200D02*
X105966201Y-157806401D01*
%TO.N,Net-(D19-Pad2)*%
X55866201Y-207206401D02*
X55866201Y-185906401D01*
X55866201Y-185906401D02*
X57066201Y-184706401D01*
X57066201Y-208406401D02*
X55866201Y-207206401D01*
%TO.N,Net-(D22-Pad2)*%
X61966201Y-205206401D02*
X75866201Y-205206401D01*
X75866201Y-205206401D02*
X79066201Y-208406401D01*
%TO.N,Net-(D23-Pad2)*%
X87166201Y-208406401D02*
X83966201Y-205206401D01*
X101066201Y-208406401D02*
X87166201Y-208406401D01*
%TO.N,Net-(D24-Pad2)*%
X107620000Y-225710000D02*
X108020000Y-225310000D01*
X105966201Y-205206401D02*
X107426401Y-205206401D01*
X107426401Y-205206401D02*
X108020000Y-205800000D01*
X106943599Y-228906401D02*
X107640000Y-228210000D01*
X105966201Y-228906401D02*
X106943599Y-228906401D01*
X108020000Y-225310000D02*
X108020000Y-205800000D01*
%TO.N,Net-(D25-Pad2)*%
X57066201Y-232106401D02*
X55866201Y-233306401D01*
X55866201Y-254606401D02*
X57066201Y-255806401D01*
X55866201Y-233306401D02*
X55866201Y-254606401D01*
%TO.N,Net-(D25-Pad4)*%
X65166201Y-232106401D02*
X79066201Y-232106401D01*
X61966201Y-228906401D02*
X65166201Y-232106401D01*
%TO.N,Net-(D26-Pad4)*%
X83966201Y-228906401D02*
X97866201Y-228906401D01*
X97866201Y-228906401D02*
X101066201Y-232106401D01*
%TO.N,Net-(D28-Pad2)*%
X61966201Y-252606401D02*
X75866201Y-252606401D01*
X75866201Y-252606401D02*
X79066201Y-255806401D01*
%TO.N,A2*%
X50870000Y-32720000D02*
X50870000Y-212590000D01*
X68170000Y-27850000D02*
X68270000Y-27950000D01*
X54660000Y-214630000D02*
X54650000Y-214640000D01*
X52920000Y-214640000D02*
X54650000Y-214640000D01*
X55740000Y-27850000D02*
X50870000Y-32720000D01*
X55740000Y-27850000D02*
X68170000Y-27850000D01*
X50870000Y-212590000D02*
X52920000Y-214640000D01*
X81280000Y-214630000D02*
X54660000Y-214630000D01*
%TO.N,E*%
X54790000Y-217280000D02*
X55188000Y-217678000D01*
X83566000Y-217678000D02*
X82550000Y-217678000D01*
X49760000Y-31580000D02*
X49600000Y-31740000D01*
X65420000Y-26520000D02*
X54820000Y-26520000D01*
X52280000Y-217330000D02*
X54740000Y-217330000D01*
X82550000Y-217678000D02*
X83130075Y-217678000D01*
X49600000Y-31740000D02*
X49600000Y-214650000D01*
X83130075Y-217678000D02*
X83145500Y-217662575D01*
X54740000Y-217330000D02*
X54790000Y-217280000D01*
X49600000Y-214650000D02*
X52280000Y-217330000D01*
X55188000Y-217678000D02*
X82550000Y-217678000D01*
X54820000Y-26520000D02*
X49760000Y-31580000D01*
%TO.N,A0*%
X78232000Y-212090000D02*
X54390000Y-212090000D01*
X54390000Y-212090000D02*
X54360000Y-212060000D01*
X61350000Y-30560000D02*
X74230000Y-30560000D01*
X61330000Y-30580000D02*
X57430000Y-30580000D01*
X57430000Y-30580000D02*
X54290000Y-33720000D01*
X74230000Y-30560000D02*
X74500000Y-30830000D01*
X54290000Y-33720000D02*
X54290000Y-211990000D01*
X61350000Y-30560000D02*
X61330000Y-30580000D01*
X54290000Y-211990000D02*
X54360000Y-212060000D01*
%TO.N,A1*%
X54770000Y-213370000D02*
X53700000Y-213370000D01*
X56440000Y-29300000D02*
X52550000Y-33190000D01*
X53700000Y-213370000D02*
X52550000Y-212220000D01*
X54780000Y-213360000D02*
X54770000Y-213370000D01*
X80264000Y-213360000D02*
X54780000Y-213360000D01*
X52550000Y-33190000D02*
X52550000Y-212220000D01*
X71260000Y-29300000D02*
X56440000Y-29300000D01*
%TO.N,LedOut*%
X102746401Y-39306401D02*
X102730000Y-39290000D01*
X105966201Y-39306401D02*
X102746401Y-39306401D01*
%TO.N,PQ1*%
X58360000Y-36220000D02*
X58360000Y-37130000D01*
X80590000Y-37360000D02*
X81490001Y-36459999D01*
X80590000Y-37360000D02*
X79689999Y-36459999D01*
X79689999Y-36459999D02*
X58599999Y-36459999D01*
X97020001Y-36459999D02*
X101689999Y-36459999D01*
X58360000Y-37130000D02*
X58590000Y-37360000D01*
X101689999Y-36459999D02*
X102590000Y-37360000D01*
X58599999Y-36459999D02*
X58360000Y-36220000D01*
X81490001Y-36459999D02*
X97020001Y-36459999D01*
X81490001Y-36459999D02*
X91590001Y-36459999D01*
X91590001Y-36459999D02*
X101689999Y-36459999D01*
%TO.N,PQ2*%
X58590000Y-61060000D02*
X59492601Y-60157399D01*
X96129999Y-60159999D02*
X101689999Y-60159999D01*
X80590000Y-61060000D02*
X81490001Y-60159999D01*
X79687399Y-60157399D02*
X80590000Y-61060000D01*
X58590000Y-60060000D02*
X58130000Y-59600000D01*
X59492601Y-60157399D02*
X79687399Y-60157399D01*
X101689999Y-60159999D02*
X102590000Y-61060000D01*
X81490001Y-60159999D02*
X101689999Y-60159999D01*
X58590000Y-61060000D02*
X58590000Y-60060000D01*
X81490001Y-60159999D02*
X96129999Y-60159999D01*
%TO.N,PQ3*%
X59490001Y-83859999D02*
X79689999Y-83859999D01*
X58060000Y-83370000D02*
X58060000Y-84230000D01*
X101689999Y-83859999D02*
X81490001Y-83859999D01*
X58060000Y-84230000D02*
X58590000Y-84760000D01*
X95829999Y-83859999D02*
X81490001Y-83859999D01*
X59490001Y-83859999D02*
X58590000Y-84760000D01*
X102590000Y-84760000D02*
X101689999Y-83859999D01*
X101689999Y-83859999D02*
X95829999Y-83859999D01*
X81490001Y-83859999D02*
X80590000Y-84760000D01*
X80590000Y-84760000D02*
X79689999Y-83859999D01*
%TO.N,PQ4*%
X59490001Y-107559999D02*
X79689999Y-107559999D01*
X99170001Y-107559999D02*
X101689999Y-107559999D01*
X102590000Y-108460000D02*
X101689999Y-107559999D01*
X58250000Y-108120000D02*
X58590000Y-108460000D01*
X80590000Y-108460000D02*
X81490001Y-107559999D01*
X80590000Y-108460000D02*
X79689999Y-107559999D01*
X58250000Y-107000000D02*
X58250000Y-108120000D01*
X81490001Y-107559999D02*
X99170001Y-107559999D01*
X59490001Y-107559999D02*
X58590000Y-108460000D01*
%TO.N,PQ5*%
X101630001Y-131259999D02*
X81490001Y-131259999D01*
X59490001Y-131259999D02*
X58590000Y-132160000D01*
X80590000Y-132160000D02*
X79689999Y-131259999D01*
X81490001Y-131259999D02*
X80590000Y-132160000D01*
X96930001Y-131259999D02*
X81490001Y-131259999D01*
X102590000Y-132160000D02*
X101689999Y-131259999D01*
X58190000Y-131760000D02*
X58590000Y-132160000D01*
X58190000Y-130970000D02*
X58190000Y-131760000D01*
X101689999Y-131259999D02*
X96930001Y-131259999D01*
X101689999Y-131259999D02*
X101630001Y-131259999D01*
X79689999Y-131259999D02*
X59490001Y-131259999D01*
%TO.N,PQ6*%
X80590000Y-155860000D02*
X79689999Y-154959999D01*
X59490001Y-154959999D02*
X58590000Y-155860000D01*
X58280000Y-154320000D02*
X58280000Y-155550000D01*
X80590000Y-155860000D02*
X81490001Y-154959999D01*
X101689999Y-154959999D02*
X97090001Y-154959999D01*
X97090001Y-154959999D02*
X89670001Y-154959999D01*
X58280000Y-155550000D02*
X58590000Y-155860000D01*
X89670001Y-154959999D02*
X81490001Y-154959999D01*
X79689999Y-154959999D02*
X59490001Y-154959999D01*
X102590000Y-155860000D02*
X101689999Y-154959999D01*
X81490001Y-154959999D02*
X101689999Y-154959999D01*
%TO.N,PQ7*%
X81490001Y-178659999D02*
X97310001Y-178659999D01*
X79689999Y-178659999D02*
X80590000Y-179560000D01*
X97310001Y-178659999D02*
X101689999Y-178659999D01*
X81490001Y-178659999D02*
X101689999Y-178659999D01*
X80590000Y-179560000D02*
X81490001Y-178659999D01*
X58590000Y-178430000D02*
X58080000Y-177920000D01*
X58590000Y-179560000D02*
X59490001Y-178659999D01*
X58590000Y-179560000D02*
X58590000Y-178430000D01*
X59490001Y-178659999D02*
X79689999Y-178659999D01*
X101689999Y-178659999D02*
X102590000Y-179560000D01*
%TO.N,PQ8*%
X81490001Y-202359999D02*
X101689999Y-202359999D01*
X58590000Y-203260000D02*
X59540193Y-202309807D01*
X80590000Y-203260000D02*
X81490001Y-202359999D01*
X58590000Y-202210000D02*
X58210000Y-201830000D01*
X80590000Y-203260000D02*
X79690000Y-203260000D01*
X78766874Y-202336874D02*
X62879973Y-202336874D01*
X101689999Y-202359999D02*
X102590000Y-203260000D01*
X79690000Y-203260000D02*
X78766874Y-202336874D01*
X59540193Y-202309807D02*
X62852906Y-202309807D01*
X58590000Y-203260000D02*
X58590000Y-202210000D01*
X62852906Y-202309807D02*
X62879973Y-202336874D01*
%TO.N,HallOut1*%
X60490000Y-108460000D02*
X64285800Y-108460000D01*
X60490000Y-84760000D02*
X64360200Y-84760000D01*
X64370000Y-226960000D02*
X64382000Y-226948000D01*
X60490000Y-61060000D02*
X64329400Y-61060000D01*
X64360000Y-250660000D02*
X64382000Y-250638000D01*
X66034000Y-228600000D02*
X64382000Y-226948000D01*
X64340200Y-155860000D02*
X64382000Y-155901800D01*
X60490000Y-250660000D02*
X64360000Y-250660000D01*
X64318600Y-203260000D02*
X64382000Y-203196600D01*
X60490000Y-37360000D02*
X64382000Y-37360000D01*
X64360200Y-84760000D02*
X64382000Y-84781800D01*
X64285800Y-108460000D02*
X64382000Y-108556200D01*
X60490000Y-203260000D02*
X64318600Y-203260000D01*
X60490000Y-226960000D02*
X64370000Y-226960000D01*
X64370000Y-274290000D02*
X60560000Y-274290000D01*
X60490000Y-179560000D02*
X64316600Y-179560000D01*
X64316600Y-179560000D02*
X64382000Y-179625400D01*
X60490000Y-132160000D02*
X64374800Y-132160000D01*
X72898000Y-228600000D02*
X66034000Y-228600000D01*
X64329400Y-61060000D02*
X64382000Y-61007400D01*
X64374800Y-132160000D02*
X64382000Y-132152800D01*
X60490000Y-155860000D02*
X64340200Y-155860000D01*
%TO.N,HallOut2*%
X86204200Y-84760000D02*
X86226000Y-84781800D01*
X82490000Y-226960000D02*
X86151743Y-226960000D01*
X86209600Y-155860000D02*
X86226000Y-155876400D01*
X86193400Y-132160000D02*
X86226000Y-132127400D01*
X82490000Y-179560000D02*
X86215200Y-179560000D01*
X77724000Y-233934000D02*
X86000163Y-233934000D01*
X82490000Y-250660000D02*
X86190000Y-250660000D01*
X86000163Y-233934000D02*
X86187500Y-233746663D01*
X82490000Y-155860000D02*
X86209600Y-155860000D01*
X82490000Y-203260000D02*
X86213200Y-203260000D01*
X86206000Y-108460000D02*
X86226000Y-108480000D01*
X86213200Y-203260000D02*
X86226000Y-203272800D01*
X82490000Y-37360000D02*
X86226000Y-37360000D01*
X86190000Y-250660000D02*
X86226000Y-250624000D01*
X86220000Y-274370000D02*
X82500000Y-274370000D01*
X86226000Y-61058200D02*
X82491800Y-61058200D01*
X82490000Y-84760000D02*
X86204200Y-84760000D01*
X82490000Y-132160000D02*
X86193400Y-132160000D01*
X86215200Y-179560000D02*
X86226000Y-179549200D01*
X82490000Y-108460000D02*
X86206000Y-108460000D01*
X86151743Y-226960000D02*
X86187500Y-226924243D01*
%TO.N,HallOut3*%
X109430000Y-203000000D02*
X109430000Y-226860000D01*
X108920000Y-37360000D02*
X108930000Y-37370000D01*
X98540000Y-251560000D02*
X103590000Y-251560000D01*
X109430000Y-84680000D02*
X109430000Y-108280000D01*
X111389500Y-248400500D02*
X109430000Y-250360000D01*
X109330000Y-226960000D02*
X109430000Y-226860000D01*
X111389500Y-228819500D02*
X111389500Y-248400500D01*
X109270000Y-132160000D02*
X109430000Y-132000000D01*
X109430000Y-132000000D02*
X109430000Y-156060000D01*
X104490000Y-132160000D02*
X109270000Y-132160000D01*
X109350000Y-84760000D02*
X109430000Y-84680000D01*
X109190000Y-179560000D02*
X109430000Y-179320000D01*
X109430000Y-250360000D02*
X109430000Y-269420000D01*
X109430000Y-58830000D02*
X109430000Y-60830000D01*
X109430000Y-156060000D02*
X109430000Y-179320000D01*
X103590000Y-251560000D02*
X104490000Y-250660000D01*
X109130000Y-250660000D02*
X109430000Y-250360000D01*
X109430000Y-179320000D02*
X109430000Y-203000000D01*
X109430000Y-108280000D02*
X109430000Y-132000000D01*
X109430000Y-37900000D02*
X109430000Y-37870000D01*
X104490000Y-250660000D02*
X109130000Y-250660000D01*
X109170000Y-203260000D02*
X109430000Y-203000000D01*
X104490000Y-274360000D02*
X109430000Y-269420000D01*
X109430000Y-226860000D02*
X111389500Y-228819500D01*
X109430000Y-40410000D02*
X109430000Y-58830000D01*
X98520000Y-251540000D02*
X98540000Y-251560000D01*
X104490000Y-203260000D02*
X109170000Y-203260000D01*
X104490000Y-84760000D02*
X109350000Y-84760000D01*
X109250000Y-108460000D02*
X109430000Y-108280000D01*
X104490000Y-179560000D02*
X109190000Y-179560000D01*
X88890000Y-40390000D02*
X109410000Y-40390000D01*
X104490000Y-155860000D02*
X109230000Y-155860000D01*
X109430000Y-37900000D02*
X109430000Y-40410000D01*
X104490000Y-37360000D02*
X108920000Y-37360000D01*
X109430000Y-59890000D02*
X109420000Y-59900000D01*
X109430000Y-58830000D02*
X109430000Y-59890000D01*
X109200000Y-61060000D02*
X109430000Y-60830000D01*
X104490000Y-226960000D02*
X109330000Y-226960000D01*
X109430000Y-60830000D02*
X109430000Y-84680000D01*
X109410000Y-40390000D02*
X109430000Y-40410000D01*
X104490000Y-108460000D02*
X109250000Y-108460000D01*
X104490000Y-61060000D02*
X109200000Y-61060000D01*
X109430000Y-37870000D02*
X108930000Y-37370000D01*
X109230000Y-155860000D02*
X109430000Y-156060000D01*
%TO.N,AGND*%
X59540000Y-224960000D02*
X84666000Y-224960000D01*
X91070000Y-59060000D02*
X84410000Y-59060000D01*
X97450000Y-130160000D02*
X103540000Y-130160000D01*
X89700000Y-35360000D02*
X103540000Y-35360000D01*
X59540000Y-35360000D02*
X81540000Y-35360000D01*
X81540000Y-59060000D02*
X59540000Y-59060000D01*
X59540000Y-248660000D02*
X103540000Y-248660000D01*
X59540000Y-153860000D02*
X81540000Y-153860000D01*
X59540000Y-106460000D02*
X81540000Y-106460000D01*
X59540000Y-177560000D02*
X81540000Y-177560000D01*
X81540000Y-35360000D02*
X89700000Y-35360000D01*
X81540000Y-177560000D02*
X103540000Y-177560000D01*
X102390000Y-106330000D02*
X102390000Y-105590000D01*
X59540000Y-82760000D02*
X81540000Y-82760000D01*
X84410000Y-59060000D02*
X81540000Y-59060000D01*
X81540000Y-201260000D02*
X59540000Y-201260000D01*
X92210000Y-272360000D02*
X103540000Y-272360000D01*
X78668000Y-272360000D02*
X92210000Y-272360000D01*
X102260000Y-106460000D02*
X102390000Y-106330000D01*
X81540000Y-130160000D02*
X97450000Y-130160000D01*
X59540000Y-272360000D02*
X78668000Y-272360000D01*
X92372000Y-224960000D02*
X103540000Y-224960000D01*
X81540000Y-82760000D02*
X103540000Y-82760000D01*
X81540000Y-106460000D02*
X102260000Y-106460000D01*
X84666000Y-224960000D02*
X92372000Y-224960000D01*
X103540000Y-59060000D02*
X91070000Y-59060000D01*
X59540000Y-130160000D02*
X61530000Y-130160000D01*
X81540000Y-130160000D02*
X103540000Y-130160000D01*
X106172000Y-225044000D02*
X103624000Y-225044000D01*
X102260000Y-106460000D02*
X103540000Y-106460000D01*
X81540000Y-201260000D02*
X103540000Y-201260000D01*
X61530000Y-130160000D02*
X81540000Y-130160000D01*
X81540000Y-153860000D02*
X103540000Y-153860000D01*
%TO.N,Net-(D29-Pad2)*%
X83966201Y-252606401D02*
X97866201Y-252606401D01*
X97866201Y-252606401D02*
X101066201Y-255806401D01*
%TO.N,Net-(D30-Pad2)*%
X105966201Y-276306401D02*
X105966201Y-274663799D01*
X107500000Y-269660000D02*
X107550000Y-269610000D01*
X107550000Y-269610000D02*
X107550000Y-254040000D01*
X106116401Y-252606401D02*
X107550000Y-254040000D01*
X105966201Y-274663799D02*
X107520000Y-273110000D01*
%TO.N,Net-(D31-Pad4)*%
X61966201Y-276306401D02*
X75866201Y-276306401D01*
X75866201Y-276306401D02*
X79066201Y-279506401D01*
%TO.N,Net-(D32-Pad4)*%
X83966201Y-276306401D02*
X97866201Y-276306401D01*
X97866201Y-276306401D02*
X101066201Y-279506401D01*
%TO.N,PQ11*%
X59690000Y-273260000D02*
X79490000Y-273260000D01*
X58200000Y-273970000D02*
X58590000Y-274360000D01*
X101690000Y-273460000D02*
X102590000Y-274360000D01*
X104190000Y-273460000D02*
X103490000Y-273460000D01*
X106170000Y-271480000D02*
X104190000Y-273460000D01*
X58200000Y-273150000D02*
X58200000Y-273970000D01*
X79490000Y-273260000D02*
X80590000Y-274360000D01*
X106170000Y-271080000D02*
X106170000Y-271480000D01*
X103490000Y-273460000D02*
X102590000Y-274360000D01*
X81490000Y-273460000D02*
X101690000Y-273460000D01*
X58590000Y-274360000D02*
X59690000Y-273260000D01*
X80590000Y-274360000D02*
X81490000Y-273460000D01*
%TO.N,PQ10*%
X58590000Y-250660000D02*
X59490000Y-249760000D01*
X59490000Y-249760000D02*
X79690000Y-249760000D01*
X81490000Y-249760000D02*
X101690000Y-249760000D01*
X103980000Y-249760000D02*
X110540000Y-243200000D01*
X79690000Y-249760000D02*
X80590000Y-250660000D01*
X103490000Y-249760000D02*
X102590000Y-250660000D01*
X103980000Y-249760000D02*
X103490000Y-249760000D01*
X56940000Y-249390000D02*
X57320000Y-249390000D01*
X57320000Y-249390000D02*
X58590000Y-250660000D01*
X80590000Y-250660000D02*
X81490000Y-249760000D01*
X101690000Y-249760000D02*
X102590000Y-250660000D01*
X110540000Y-243200000D02*
X110540000Y-241650000D01*
%TO.N,PQ9*%
X79690000Y-226060000D02*
X80590000Y-226960000D01*
X57780000Y-226150000D02*
X58590000Y-226960000D01*
X103440000Y-227810000D02*
X102590000Y-226960000D01*
X81490000Y-226060000D02*
X101690000Y-226060000D01*
X101690000Y-226060000D02*
X102590000Y-226960000D01*
X57780000Y-225860000D02*
X57780000Y-226150000D01*
X80590000Y-226960000D02*
X81490000Y-226060000D01*
X103440000Y-228670000D02*
X103440000Y-227810000D01*
X59490000Y-226060000D02*
X79690000Y-226060000D01*
X58590000Y-226960000D02*
X59490000Y-226060000D01*
%TO.N,HallOut4*%
X57550000Y-259790000D02*
X57540000Y-259800000D01*
X87680000Y-259790000D02*
X57550000Y-259790000D01*
%TO.N,HallOut5*%
X57930000Y-257010000D02*
X88289038Y-257010000D01*
X88289038Y-257010000D02*
X88529500Y-257250462D01*
X57930000Y-257010000D02*
X57930000Y-257110000D01*
X57930000Y-257110000D02*
X57760000Y-257280000D01*
%TO.N,S1*%
X105300000Y-266260000D02*
X105596000Y-266260000D01*
X105596000Y-266260000D02*
X105664000Y-266192000D01*
X52020000Y-266190000D02*
X62960000Y-266190000D01*
X63030000Y-266260000D02*
X62960000Y-266190000D01*
X63030000Y-266260000D02*
X105300000Y-266260000D01*
%TO.N,S0*%
X105190000Y-263670000D02*
X105208000Y-263652000D01*
X52160000Y-263650000D02*
X105170000Y-263650000D01*
X105170000Y-263650000D02*
X105190000Y-263670000D01*
X105208000Y-263652000D02*
X105664000Y-263652000D01*
%TO.N,First_LedIn_3V*%
X51920000Y-259230000D02*
X51920000Y-220610000D01*
X51920000Y-220610000D02*
X52450000Y-220080000D01*
X54550000Y-261860000D02*
X51920000Y-259230000D01*
X89940000Y-261860000D02*
X54550000Y-261860000D01*
%TO.N,A3*%
X82296000Y-215900000D02*
X59182000Y-215900000D01*
%TO.N,Q9*%
X64516000Y-223520000D02*
X61888500Y-223520000D01*
X61888500Y-223520000D02*
X61634500Y-223774000D01*
%TO.N,Q10*%
X62484000Y-222250000D02*
X64516000Y-222250000D01*
%TO.N,Q11*%
X62738000Y-242824000D02*
X66802000Y-242824000D01*
%TD*%
M02*
