%TF.GenerationSoftware,KiCad,Pcbnew,(6.0.7-1)-1*%
%TF.CreationDate,2023-12-02T14:15:26+01:00*%
%TF.ProjectId,11x3,31317833-2e6b-4696-9361-645f70636258,rev?*%
%TF.SameCoordinates,Original*%
%TF.FileFunction,Copper,L4,Bot*%
%TF.FilePolarity,Positive*%
%FSLAX46Y46*%
G04 Gerber Fmt 4.6, Leading zero omitted, Abs format (unit mm)*
G04 Created by KiCad (PCBNEW (6.0.7-1)-1) date 2023-12-02 14:15:26*
%MOMM*%
%LPD*%
G01*
G04 APERTURE LIST*
G04 Aperture macros list*
%AMRoundRect*
0 Rectangle with rounded corners*
0 $1 Rounding radius*
0 $2 $3 $4 $5 $6 $7 $8 $9 X,Y pos of 4 corners*
0 Add a 4 corners polygon primitive as box body*
4,1,4,$2,$3,$4,$5,$6,$7,$8,$9,$2,$3,0*
0 Add four circle primitives for the rounded corners*
1,1,$1+$1,$2,$3*
1,1,$1+$1,$4,$5*
1,1,$1+$1,$6,$7*
1,1,$1+$1,$8,$9*
0 Add four rect primitives between the rounded corners*
20,1,$1+$1,$2,$3,$4,$5,0*
20,1,$1+$1,$4,$5,$6,$7,0*
20,1,$1+$1,$6,$7,$8,$9,0*
20,1,$1+$1,$8,$9,$2,$3,0*%
G04 Aperture macros list end*
%TA.AperFunction,SMDPad,CuDef*%
%ADD10R,2.400000X4.500000*%
%TD*%
%TA.AperFunction,SMDPad,CuDef*%
%ADD11R,2.100000X6.500000*%
%TD*%
%TA.AperFunction,SMDPad,CuDef*%
%ADD12RoundRect,0.250000X-0.625000X0.312500X-0.625000X-0.312500X0.625000X-0.312500X0.625000X0.312500X0*%
%TD*%
%TA.AperFunction,SMDPad,CuDef*%
%ADD13RoundRect,0.250000X0.312500X0.625000X-0.312500X0.625000X-0.312500X-0.625000X0.312500X-0.625000X0*%
%TD*%
%TA.AperFunction,SMDPad,CuDef*%
%ADD14RoundRect,0.250000X-0.650000X0.325000X-0.650000X-0.325000X0.650000X-0.325000X0.650000X0.325000X0*%
%TD*%
%TA.AperFunction,SMDPad,CuDef*%
%ADD15RoundRect,0.250000X0.325000X0.650000X-0.325000X0.650000X-0.325000X-0.650000X0.325000X-0.650000X0*%
%TD*%
%TA.AperFunction,SMDPad,CuDef*%
%ADD16R,3.200000X1.020000*%
%TD*%
%TA.AperFunction,SMDPad,CuDef*%
%ADD17RoundRect,0.250000X-1.950000X-1.000000X1.950000X-1.000000X1.950000X1.000000X-1.950000X1.000000X0*%
%TD*%
%TA.AperFunction,SMDPad,CuDef*%
%ADD18RoundRect,0.250000X0.650000X-0.325000X0.650000X0.325000X-0.650000X0.325000X-0.650000X-0.325000X0*%
%TD*%
%TA.AperFunction,SMDPad,CuDef*%
%ADD19R,0.900000X0.800000*%
%TD*%
%TA.AperFunction,SMDPad,CuDef*%
%ADD20R,1.020000X2.600000*%
%TD*%
%TA.AperFunction,SMDPad,CuDef*%
%ADD21RoundRect,0.150000X0.150000X-0.512500X0.150000X0.512500X-0.150000X0.512500X-0.150000X-0.512500X0*%
%TD*%
%TA.AperFunction,SMDPad,CuDef*%
%ADD22R,3.000000X1.000000*%
%TD*%
%TA.AperFunction,SMDPad,CuDef*%
%ADD23RoundRect,0.137500X0.862500X0.137500X-0.862500X0.137500X-0.862500X-0.137500X0.862500X-0.137500X0*%
%TD*%
%TA.AperFunction,SMDPad,CuDef*%
%ADD24RoundRect,0.250000X0.625000X-0.312500X0.625000X0.312500X-0.625000X0.312500X-0.625000X-0.312500X0*%
%TD*%
%TA.AperFunction,SMDPad,CuDef*%
%ADD25R,2.000000X1.500000*%
%TD*%
%TA.AperFunction,SMDPad,CuDef*%
%ADD26R,2.000000X3.800000*%
%TD*%
%TA.AperFunction,ViaPad*%
%ADD27C,4.000000*%
%TD*%
%TA.AperFunction,ViaPad*%
%ADD28C,0.800000*%
%TD*%
%TA.AperFunction,ViaPad*%
%ADD29C,5.000000*%
%TD*%
%TA.AperFunction,Conductor*%
%ADD30C,3.000000*%
%TD*%
%TA.AperFunction,Conductor*%
%ADD31C,1.200000*%
%TD*%
%TA.AperFunction,Conductor*%
%ADD32C,4.000000*%
%TD*%
%TA.AperFunction,Conductor*%
%ADD33C,0.500000*%
%TD*%
G04 APERTURE END LIST*
D10*
%TO.P,J33,1,Pin_1*%
%TO.N,P*%
X96900000Y-134480000D03*
D11*
X96900000Y-122980000D03*
%TO.P,J33,2,Pin_2*%
%TO.N,GND*%
X90900000Y-122980000D03*
D10*
X90900000Y-134480000D03*
%TD*%
D12*
%TO.P,R9,1*%
%TO.N,Q9*%
X61860000Y-231127500D03*
%TO.P,R9,2*%
%TO.N,Net-(Q9-Pad1)*%
X61860000Y-234052500D03*
%TD*%
D13*
%TO.P,R4,1*%
%TO.N,Q4*%
X65712500Y-97780000D03*
%TO.P,R4,2*%
%TO.N,Net-(Q4-Pad1)*%
X62787500Y-97780000D03*
%TD*%
%TO.P,R1,1*%
%TO.N,Q1*%
X66022500Y-46064000D03*
%TO.P,R1,2*%
%TO.N,Net-(Q1-Pad1)*%
X63097500Y-46064000D03*
%TD*%
D14*
%TO.P,CI6,1*%
%TO.N,P*%
X51960000Y-222105000D03*
%TO.P,CI6,2*%
%TO.N,GND*%
X51960000Y-225055000D03*
%TD*%
D15*
%TO.P,CI2,1*%
%TO.N,GND*%
X98645000Y-90960000D03*
%TO.P,CI2,2*%
%TO.N,P*%
X95695000Y-90960000D03*
%TD*%
D16*
%TO.P,J26,1,Pin_1*%
%TO.N,PQ9*%
X108130000Y-237995000D03*
%TO.P,J26,2,Pin_2*%
%TO.N,PQ10*%
X108130000Y-240535000D03*
%TO.P,J26,3,Pin_3*%
%TO.N,PQ11*%
X108130000Y-243075000D03*
%TD*%
D17*
%TO.P,CP1,1*%
%TO.N,P*%
X93797500Y-148220000D03*
%TO.P,CP1,2*%
%TO.N,GND*%
X102197500Y-148220000D03*
%TD*%
D16*
%TO.P,J19,1,Pin_1*%
%TO.N,GND*%
X108130000Y-38235000D03*
%TO.P,J19,2,Pin_2*%
%TO.N,unconnected-(J19-Pad2)*%
X108130000Y-40775000D03*
%TO.P,J19,3,Pin_3*%
%TO.N,P*%
X108130000Y-43315000D03*
%TD*%
D18*
%TO.P,CI5,1*%
%TO.N,GND*%
X90150000Y-98585000D03*
%TO.P,CI5,2*%
%TO.N,P3.3*%
X90150000Y-95635000D03*
%TD*%
D13*
%TO.P,R8,1*%
%TO.N,Q8*%
X65602500Y-192700000D03*
%TO.P,R8,2*%
%TO.N,Net-(Q8-Pad1)*%
X62677500Y-192700000D03*
%TD*%
D16*
%TO.P,J22,1,Pin_1*%
%TO.N,unconnected-(J22-Pad1)*%
X108130000Y-119740000D03*
%TO.P,J22,2,Pin_2*%
%TO.N,AGND*%
X108130000Y-122280000D03*
%TD*%
D19*
%TO.P,Q7,1,B*%
%TO.N,Net-(Q7-Pad1)*%
X60480000Y-188116000D03*
%TO.P,Q7,2,E*%
%TO.N,P3.3*%
X60480000Y-190016000D03*
%TO.P,Q7,3,C*%
%TO.N,PQ7*%
X58480000Y-189066000D03*
%TD*%
%TO.P,Q2,1,B*%
%TO.N,Net-(Q2-Pad1)*%
X60988000Y-49686000D03*
%TO.P,Q2,2,E*%
%TO.N,P3.3*%
X60988000Y-51586000D03*
%TO.P,Q2,3,C*%
%TO.N,PQ2*%
X58988000Y-50636000D03*
%TD*%
D20*
%TO.P,J2,1,Pin_1*%
%TO.N,E*%
X65750000Y-35330000D03*
%TO.P,J2,2,Pin_2*%
%TO.N,A2*%
X68290000Y-35330000D03*
%TD*%
D16*
%TO.P,J21,1,Pin_1*%
%TO.N,PQ3*%
X108130000Y-94620000D03*
%TO.P,J21,2,Pin_2*%
%TO.N,PQ4*%
X108130000Y-97160000D03*
%TD*%
D21*
%TO.P,UI3,1,NC*%
%TO.N,unconnected-(UI3-Pad1)*%
X53390000Y-218417500D03*
%TO.P,UI3,2,A*%
%TO.N,First_LedIn_3V*%
X52440000Y-218417500D03*
%TO.P,UI3,3,GND*%
%TO.N,GND*%
X51490000Y-218417500D03*
%TO.P,UI3,4,Y*%
%TO.N,Net-(RI1-Pad1)*%
X51490000Y-216142500D03*
%TO.P,UI3,5,VCC*%
%TO.N,P*%
X53390000Y-216142500D03*
%TD*%
D19*
%TO.P,Q3,1,B*%
%TO.N,Net-(Q3-Pad1)*%
X60734000Y-93628000D03*
%TO.P,Q3,2,E*%
%TO.N,P3.3*%
X60734000Y-95528000D03*
%TO.P,Q3,3,C*%
%TO.N,PQ3*%
X58734000Y-94578000D03*
%TD*%
D13*
%TO.P,R7,1*%
%TO.N,Q7*%
X65702500Y-187790000D03*
%TO.P,R7,2*%
%TO.N,Net-(Q7-Pad1)*%
X62777500Y-187790000D03*
%TD*%
D16*
%TO.P,J9,1,Pin_1*%
%TO.N,PQ2*%
X54950000Y-49760000D03*
%TO.P,J9,2,Pin_2*%
%TO.N,PQ1*%
X54950000Y-47220000D03*
%TD*%
D12*
%TO.P,R10,1*%
%TO.N,Q10*%
X63246000Y-236281500D03*
%TO.P,R10,2*%
%TO.N,Net-(Q10-Pad1)*%
X63246000Y-239206500D03*
%TD*%
D19*
%TO.P,Q9,1,B*%
%TO.N,Net-(Q9-Pad1)*%
X60750000Y-235950000D03*
%TO.P,Q9,2,E*%
%TO.N,P3.3*%
X60750000Y-237850000D03*
%TO.P,Q9,3,C*%
%TO.N,PQ9*%
X58750000Y-236900000D03*
%TD*%
D16*
%TO.P,J15,1,Pin_1*%
%TO.N,PQ11*%
X54950000Y-243175000D03*
%TO.P,J15,2,Pin_2*%
%TO.N,PQ10*%
X54950000Y-240635000D03*
%TO.P,J15,3,Pin_3*%
%TO.N,PQ9*%
X54950000Y-238095000D03*
%TD*%
D19*
%TO.P,Q8,1,B*%
%TO.N,Net-(Q8-Pad1)*%
X60480000Y-192434000D03*
%TO.P,Q8,2,E*%
%TO.N,P3.3*%
X60480000Y-194334000D03*
%TO.P,Q8,3,C*%
%TO.N,PQ8*%
X58480000Y-193384000D03*
%TD*%
D16*
%TO.P,J23,1,Pin_1*%
%TO.N,PQ5*%
X108130000Y-142020000D03*
%TO.P,J23,2,Pin_2*%
%TO.N,PQ6*%
X108130000Y-144560000D03*
%TD*%
%TO.P,J10,1,Pin_1*%
%TO.N,PQ4*%
X54950000Y-97160000D03*
%TO.P,J10,2,Pin_2*%
%TO.N,PQ3*%
X54950000Y-94620000D03*
%TD*%
D20*
%TO.P,J5,1,Pin_1*%
%TO.N,AGND*%
X91170000Y-35400000D03*
%TO.P,J5,2,Pin_2*%
%TO.N,unconnected-(J5-Pad2)*%
X93710000Y-35400000D03*
%TD*%
D16*
%TO.P,J17,1,Pin_1*%
%TO.N,S1*%
X54950000Y-266230000D03*
%TO.P,J17,2,Pin_2*%
%TO.N,S0*%
X54950000Y-263690000D03*
%TD*%
D19*
%TO.P,Q5,1,B*%
%TO.N,Net-(Q5-Pad1)*%
X60734000Y-140364000D03*
%TO.P,Q5,2,E*%
%TO.N,P3.3*%
X60734000Y-142264000D03*
%TO.P,Q5,3,C*%
%TO.N,PQ5*%
X58734000Y-141314000D03*
%TD*%
D13*
%TO.P,R2,1*%
%TO.N,Q2*%
X66022500Y-50128000D03*
%TO.P,R2,2*%
%TO.N,Net-(Q2-Pad1)*%
X63097500Y-50128000D03*
%TD*%
D20*
%TO.P,J3,1,Pin_1*%
%TO.N,A1*%
X71990000Y-35330000D03*
%TO.P,J3,2,Pin_2*%
%TO.N,A0*%
X74530000Y-35330000D03*
%TD*%
D16*
%TO.P,J11,1,Pin_1*%
%TO.N,AGND*%
X54950000Y-122280000D03*
%TO.P,J11,2,Pin_2*%
%TO.N,unconnected-(J11-Pad2)*%
X54950000Y-119740000D03*
%TD*%
D15*
%TO.P,CI1,1*%
%TO.N,GND*%
X59815000Y-208240000D03*
%TO.P,CI1,2*%
%TO.N,P*%
X56865000Y-208240000D03*
%TD*%
D13*
%TO.P,R3,1*%
%TO.N,Q3*%
X65822500Y-93970000D03*
%TO.P,R3,2*%
%TO.N,Net-(Q3-Pad1)*%
X62897500Y-93970000D03*
%TD*%
%TO.P,R6,1*%
%TO.N,Q6*%
X65692500Y-145000000D03*
%TO.P,R6,2*%
%TO.N,Net-(Q6-Pad1)*%
X62767500Y-145000000D03*
%TD*%
D18*
%TO.P,CI4,1*%
%TO.N,GND*%
X92920000Y-98565000D03*
%TO.P,CI4,2*%
%TO.N,P3.3*%
X92920000Y-95615000D03*
%TD*%
D16*
%TO.P,J24,1,Pin_1*%
%TO.N,PQ7*%
X108130000Y-189420000D03*
%TO.P,J24,2,Pin_2*%
%TO.N,PQ8*%
X108130000Y-191960000D03*
%TD*%
D12*
%TO.P,R11,1*%
%TO.N,Q11*%
X63246000Y-241361500D03*
%TO.P,R11,2*%
%TO.N,Net-(Q11-Pad1)*%
X63246000Y-244286500D03*
%TD*%
D16*
%TO.P,J8,1,Pin_1*%
%TO.N,P*%
X54950000Y-43415000D03*
%TO.P,J8,2,Pin_2*%
%TO.N,unconnected-(J8-Pad2)*%
X54950000Y-40875000D03*
%TO.P,J8,3,Pin_3*%
%TO.N,GND*%
X54950000Y-38335000D03*
%TD*%
%TO.P,J18,1,Pin_1*%
%TO.N,P*%
X54950000Y-279700000D03*
%TO.P,J18,2,Pin_2*%
%TO.N,LedIn*%
X54950000Y-277160000D03*
%TO.P,J18,3,Pin_3*%
%TO.N,GND*%
X54950000Y-274620000D03*
%TD*%
D10*
%TO.P,J32,1,Pin_1*%
%TO.N,P*%
X95610000Y-160440000D03*
D11*
X95610000Y-171940000D03*
D10*
%TO.P,J32,2,Pin_2*%
%TO.N,GND*%
X101610000Y-160440000D03*
D11*
X101610000Y-171940000D03*
%TD*%
D16*
%TO.P,J12,1,Pin_1*%
%TO.N,PQ6*%
X54950000Y-144560000D03*
%TO.P,J12,2,Pin_2*%
%TO.N,PQ5*%
X54950000Y-142020000D03*
%TD*%
%TO.P,J28,1,Pin_1*%
%TO.N,S0*%
X108130000Y-263690000D03*
%TO.P,J28,2,Pin_2*%
%TO.N,S1*%
X108130000Y-266230000D03*
%TD*%
%TO.P,J25,1,Pin_1*%
%TO.N,AGND*%
X108130000Y-230550000D03*
%TO.P,J25,2,Pin_2*%
%TO.N,unconnected-(J25-Pad2)*%
X108130000Y-233090000D03*
%TD*%
D22*
%TO.P,J31,1,Pin_1*%
%TO.N,Additional13*%
X70323000Y-222250000D03*
%TO.P,J31,2,Pin_2*%
X75363000Y-222250000D03*
%TO.P,J31,3,Pin_3*%
%TO.N,Additional14*%
X70323000Y-224790000D03*
%TO.P,J31,4,Pin_4*%
X75363000Y-224790000D03*
%TO.P,J31,5,Pin_5*%
%TO.N,Additional15*%
X70323000Y-227330000D03*
%TO.P,J31,6,Pin_6*%
X75363000Y-227330000D03*
%TO.P,J31,7,Pin_7*%
%TO.N,HallOut1*%
X70323000Y-229870000D03*
%TO.P,J31,8,Pin_8*%
X75363000Y-229870000D03*
%TO.P,J31,9,Pin_9*%
%TO.N,HallOut2*%
X70323000Y-232410000D03*
%TO.P,J31,10,Pin_10*%
X75363000Y-232410000D03*
%TO.P,J31,11,Pin_11*%
%TO.N,Additional16*%
X70323000Y-234950000D03*
%TO.P,J31,12,Pin_12*%
X75363000Y-234950000D03*
%TO.P,J31,13,Pin_13*%
%TO.N,A0*%
X70323000Y-237490000D03*
%TO.P,J31,14,Pin_14*%
X75363000Y-237490000D03*
%TO.P,J31,15,Pin_15*%
%TO.N,A1*%
X70323000Y-240030000D03*
%TO.P,J31,16,Pin_16*%
X75363000Y-240030000D03*
%TO.P,J31,17,Pin_17*%
%TO.N,A2*%
X70323000Y-242570000D03*
%TO.P,J31,18,Pin_18*%
X75363000Y-242570000D03*
%TO.P,J31,19,Pin_19*%
%TO.N,A3*%
X70323000Y-245110000D03*
%TO.P,J31,20,Pin_20*%
X75363000Y-245110000D03*
%TO.P,J31,21,Pin_21*%
%TO.N,E*%
X70323000Y-247650000D03*
%TO.P,J31,22,Pin_22*%
X75363000Y-247650000D03*
%TO.P,J31,23,Pin_23*%
%TO.N,Additional17*%
X70323000Y-250190000D03*
%TO.P,J31,24,Pin_24*%
X75363000Y-250190000D03*
%TO.P,J31,25,Pin_25*%
%TO.N,Additional18*%
X70323000Y-252730000D03*
%TO.P,J31,26,Pin_26*%
X75363000Y-252730000D03*
%TO.P,J31,27,Pin_27*%
%TO.N,Additional19*%
X70323000Y-255270000D03*
%TO.P,J31,28,Pin_28*%
X75363000Y-255270000D03*
%TO.P,J31,29,Pin_29*%
%TO.N,Additional20*%
X70323000Y-257810000D03*
%TO.P,J31,30,Pin_30*%
X75363000Y-257810000D03*
%TO.P,J31,31,Pin_31*%
%TO.N,Additional21*%
X70323000Y-260350000D03*
%TO.P,J31,32,Pin_32*%
X75363000Y-260350000D03*
%TO.P,J31,33,Pin_33*%
%TO.N,Additional22*%
X70323000Y-262890000D03*
%TO.P,J31,34,Pin_34*%
X75363000Y-262890000D03*
%TO.P,J31,35,Pin_35*%
%TO.N,Additional23*%
X70323000Y-265430000D03*
%TO.P,J31,36,Pin_36*%
X75363000Y-265430000D03*
%TO.P,J31,37,Pin_37*%
%TO.N,Additional24*%
X70323000Y-267970000D03*
%TO.P,J31,38,Pin_38*%
X75363000Y-267970000D03*
%TO.P,J31,39,Pin_39*%
%TO.N,Additional25*%
X70323000Y-270510000D03*
%TO.P,J31,40,Pin_40*%
X75363000Y-270510000D03*
%TO.P,J31,41,Pin_41*%
%TO.N,Additional26*%
X70323000Y-273050000D03*
%TO.P,J31,42,Pin_42*%
X75363000Y-273050000D03*
%TO.P,J31,43,Pin_43*%
%TO.N,AGND*%
X70323000Y-275590000D03*
%TO.P,J31,44,Pin_44*%
X75363000Y-275590000D03*
%TD*%
D16*
%TO.P,J14,1,Pin_1*%
%TO.N,unconnected-(J14-Pad1)*%
X54950000Y-233090000D03*
%TO.P,J14,2,Pin_2*%
%TO.N,AGND*%
X54950000Y-230550000D03*
%TD*%
D23*
%TO.P,UI1,1,Y0*%
%TO.N,Q8*%
X66220000Y-210815000D03*
%TO.P,UI1,2,Y1*%
%TO.N,Q7*%
X66220000Y-212085000D03*
%TO.P,UI1,3,Y2*%
%TO.N,Q6*%
X66220000Y-213355000D03*
%TO.P,UI1,4,Y3*%
%TO.N,Q5*%
X66220000Y-214625000D03*
%TO.P,UI1,5,Y4*%
%TO.N,Q4*%
X66220000Y-215895000D03*
%TO.P,UI1,6,Y5*%
%TO.N,Q3*%
X66220000Y-217165000D03*
%TO.P,UI1,7,Y6*%
%TO.N,Q2*%
X66220000Y-218435000D03*
%TO.P,UI1,8,Y7*%
%TO.N,Q1*%
X66220000Y-219705000D03*
%TO.P,UI1,9,Y8*%
%TO.N,Q11*%
X66220000Y-220975000D03*
%TO.P,UI1,10,Y9*%
%TO.N,Q10*%
X66220000Y-222245000D03*
%TO.P,UI1,11,Y10*%
%TO.N,Q9*%
X66220000Y-223515000D03*
%TO.P,UI1,12,GND*%
%TO.N,GND*%
X66220000Y-224785000D03*
%TO.P,UI1,13,Y11*%
%TO.N,unconnected-(UI1-Pad13)*%
X56920000Y-224785000D03*
%TO.P,UI1,14,Y12*%
%TO.N,unconnected-(UI1-Pad14)*%
X56920000Y-223515000D03*
%TO.P,UI1,15,Y13*%
%TO.N,unconnected-(UI1-Pad15)*%
X56920000Y-222245000D03*
%TO.P,UI1,16,Y14*%
%TO.N,unconnected-(UI1-Pad16)*%
X56920000Y-220975000D03*
%TO.P,UI1,17,Y15*%
%TO.N,unconnected-(UI1-Pad17)*%
X56920000Y-219705000D03*
%TO.P,UI1,18,E0*%
%TO.N,E*%
X56920000Y-218435000D03*
%TO.P,UI1,19,E1*%
X56920000Y-217165000D03*
%TO.P,UI1,20,A3*%
%TO.N,A3*%
X56920000Y-215895000D03*
%TO.P,UI1,21,A2*%
%TO.N,A2*%
X56920000Y-214625000D03*
%TO.P,UI1,22,A1*%
%TO.N,A1*%
X56920000Y-213355000D03*
%TO.P,UI1,23,A0*%
%TO.N,A0*%
X56920000Y-212085000D03*
%TO.P,UI1,24,VCC*%
%TO.N,P*%
X56920000Y-210815000D03*
%TD*%
D15*
%TO.P,CI3,1*%
%TO.N,GND*%
X98675000Y-88280000D03*
%TO.P,CI3,2*%
%TO.N,P*%
X95725000Y-88280000D03*
%TD*%
D16*
%TO.P,J29,1,Pin_1*%
%TO.N,GND*%
X108130000Y-274520000D03*
%TO.P,J29,2,Pin_2*%
%TO.N,unconnected-(J29-Pad2)*%
X108130000Y-277060000D03*
%TO.P,J29,3,Pin_3*%
%TO.N,P*%
X108130000Y-279600000D03*
%TD*%
D24*
%TO.P,RI1,1*%
%TO.N,Net-(RI1-Pad1)*%
X51720000Y-57652500D03*
%TO.P,RI1,2*%
%TO.N,LedIn_top_side_a*%
X51720000Y-54727500D03*
%TD*%
D19*
%TO.P,Q11,1,B*%
%TO.N,Net-(Q11-Pad1)*%
X60700000Y-243330000D03*
%TO.P,Q11,2,E*%
%TO.N,P3.3*%
X60700000Y-245230000D03*
%TO.P,Q11,3,C*%
%TO.N,PQ11*%
X58700000Y-244280000D03*
%TD*%
%TO.P,Q1,1,B*%
%TO.N,Net-(Q1-Pad1)*%
X60988000Y-45622000D03*
%TO.P,Q1,2,E*%
%TO.N,P3.3*%
X60988000Y-47522000D03*
%TO.P,Q1,3,C*%
%TO.N,PQ1*%
X58988000Y-46572000D03*
%TD*%
D20*
%TO.P,J7,1,Pin_1*%
%TO.N,P*%
X109380000Y-35330000D03*
%TO.P,J7,2,Pin_2*%
%TO.N,GND*%
X111920000Y-35330000D03*
%TD*%
D22*
%TO.P,J30,1,Pin_1*%
%TO.N,Additional1*%
X95778000Y-222250000D03*
%TO.P,J30,2,Pin_2*%
X100818000Y-222250000D03*
%TO.P,J30,3,Pin_3*%
%TO.N,Additional2*%
X95778000Y-224790000D03*
%TO.P,J30,4,Pin_4*%
X100818000Y-224790000D03*
%TO.P,J30,5,Pin_5*%
%TO.N,Additional3*%
X95778000Y-227330000D03*
%TO.P,J30,6,Pin_6*%
X100818000Y-227330000D03*
%TO.P,J30,7,Pin_7*%
%TO.N,HallOut4*%
X95778000Y-229870000D03*
%TO.P,J30,8,Pin_8*%
X100818000Y-229870000D03*
%TO.P,J30,9,Pin_9*%
%TO.N,HallOut5*%
X95778000Y-232410000D03*
%TO.P,J30,10,Pin_10*%
X100818000Y-232410000D03*
%TO.P,J30,11,Pin_11*%
%TO.N,HallOut6*%
X95778000Y-234950000D03*
%TO.P,J30,12,Pin_12*%
X100818000Y-234950000D03*
%TO.P,J30,13,Pin_13*%
%TO.N,HallOut7*%
X95778000Y-237490000D03*
%TO.P,J30,14,Pin_14*%
X100818000Y-237490000D03*
%TO.P,J30,15,Pin_15*%
%TO.N,S0*%
X95778000Y-240030000D03*
%TO.P,J30,16,Pin_16*%
X100818000Y-240030000D03*
%TO.P,J30,17,Pin_17*%
%TO.N,S1*%
X95778000Y-242570000D03*
%TO.P,J30,18,Pin_18*%
X100818000Y-242570000D03*
%TO.P,J30,19,Pin_19*%
%TO.N,First_LedIn_3V*%
X95778000Y-245110000D03*
%TO.P,J30,20,Pin_20*%
X100818000Y-245110000D03*
%TO.P,J30,21,Pin_21*%
%TO.N,Additional4*%
X95778000Y-247650000D03*
%TO.P,J30,22,Pin_22*%
X100818000Y-247650000D03*
%TO.P,J30,23,Pin_23*%
%TO.N,Additional5*%
X95778000Y-250190000D03*
%TO.P,J30,24,Pin_24*%
X100818000Y-250190000D03*
%TO.P,J30,25,Pin_25*%
%TO.N,HallOut3*%
X95778000Y-252730000D03*
%TO.P,J30,26,Pin_26*%
X100818000Y-252730000D03*
%TO.P,J30,27,Pin_27*%
%TO.N,Additional6*%
X95778000Y-255270000D03*
%TO.P,J30,28,Pin_28*%
X100818000Y-255270000D03*
%TO.P,J30,29,Pin_29*%
%TO.N,Additional7*%
X95778000Y-257810000D03*
%TO.P,J30,30,Pin_30*%
X100818000Y-257810000D03*
%TO.P,J30,31,Pin_31*%
%TO.N,Additional8*%
X95778000Y-260350000D03*
%TO.P,J30,32,Pin_32*%
X100818000Y-260350000D03*
%TO.P,J30,33,Pin_33*%
%TO.N,Additional9*%
X95778000Y-262890000D03*
%TO.P,J30,34,Pin_34*%
X100818000Y-262890000D03*
%TO.P,J30,35,Pin_35*%
%TO.N,Additional10*%
X95778000Y-265430000D03*
%TO.P,J30,36,Pin_36*%
X100818000Y-265430000D03*
%TO.P,J30,37,Pin_37*%
%TO.N,Additional11*%
X95778000Y-267970000D03*
%TO.P,J30,38,Pin_38*%
X100818000Y-267970000D03*
%TO.P,J30,39,Pin_39*%
%TO.N,Additional12*%
X95778000Y-270510000D03*
%TO.P,J30,40,Pin_40*%
X100818000Y-270510000D03*
%TO.P,J30,41,Pin_41*%
%TO.N,P*%
X95778000Y-273050000D03*
%TO.P,J30,42,Pin_42*%
X100818000Y-273050000D03*
%TO.P,J30,43,Pin_43*%
%TO.N,GND*%
X95778000Y-275590000D03*
%TO.P,J30,44,Pin_44*%
X100818000Y-275590000D03*
%TD*%
D25*
%TO.P,UI2,1,GND*%
%TO.N,GND*%
X96070000Y-98310000D03*
%TO.P,UI2,2,VO*%
%TO.N,P3.3*%
X96070000Y-96010000D03*
%TO.P,UI2,3,VI*%
%TO.N,P*%
X96070000Y-93710000D03*
D26*
%TO.P,UI2,4*%
%TO.N,N/C*%
X102370000Y-96010000D03*
%TD*%
D19*
%TO.P,Q6,1,B*%
%TO.N,Net-(Q6-Pad1)*%
X60734000Y-144682000D03*
%TO.P,Q6,2,E*%
%TO.N,P3.3*%
X60734000Y-146582000D03*
%TO.P,Q6,3,C*%
%TO.N,PQ6*%
X58734000Y-145632000D03*
%TD*%
%TO.P,Q10,1,B*%
%TO.N,Net-(Q10-Pad1)*%
X60710000Y-239690000D03*
%TO.P,Q10,2,E*%
%TO.N,P3.3*%
X60710000Y-241590000D03*
%TO.P,Q10,3,C*%
%TO.N,PQ10*%
X58710000Y-240640000D03*
%TD*%
%TO.P,Q4,1,B*%
%TO.N,Net-(Q4-Pad1)*%
X60734000Y-97438000D03*
%TO.P,Q4,2,E*%
%TO.N,P3.3*%
X60734000Y-99338000D03*
%TO.P,Q4,3,C*%
%TO.N,PQ4*%
X58734000Y-98388000D03*
%TD*%
D16*
%TO.P,J20,1,Pin_1*%
%TO.N,PQ1*%
X108130000Y-47220000D03*
%TO.P,J20,2,Pin_2*%
%TO.N,PQ2*%
X108130000Y-49760000D03*
%TD*%
%TO.P,J27,1,Pin_1*%
%TO.N,HallOut7*%
X108130000Y-257280000D03*
%TO.P,J27,2,Pin_2*%
%TO.N,HallOut6*%
X108130000Y-259820000D03*
%TD*%
D20*
%TO.P,J4,1,Pin_1*%
%TO.N,HallOut1*%
X82215000Y-35320000D03*
%TO.P,J4,2,Pin_2*%
%TO.N,HallOut2*%
X84755000Y-35320000D03*
%TO.P,J4,3,Pin_3*%
%TO.N,HallOut3*%
X87295000Y-35320000D03*
%TD*%
%TO.P,J1,1,Pin_1*%
%TO.N,GND*%
X50660000Y-35320000D03*
%TO.P,J1,2,Pin_2*%
%TO.N,LedIn_top_side_a*%
X53200000Y-35320000D03*
%TO.P,J1,3,Pin_3*%
%TO.N,P*%
X55740000Y-35320000D03*
%TD*%
D16*
%TO.P,J16,1,Pin_1*%
%TO.N,HallOut4*%
X54950000Y-259820000D03*
%TO.P,J16,2,Pin_2*%
%TO.N,HallOut5*%
X54950000Y-257280000D03*
%TD*%
%TO.P,J13,1,Pin_1*%
%TO.N,PQ8*%
X54950000Y-191960000D03*
%TO.P,J13,2,Pin_2*%
%TO.N,PQ7*%
X54950000Y-189420000D03*
%TD*%
D20*
%TO.P,J6,1,Pin_1*%
%TO.N,P*%
X100190000Y-35320000D03*
%TO.P,J6,2,Pin_2*%
%TO.N,LedOut*%
X102730000Y-35320000D03*
%TO.P,J6,3,Pin_3*%
%TO.N,GND*%
X105270000Y-35320000D03*
%TD*%
D13*
%TO.P,R5,1*%
%TO.N,Q5*%
X65692500Y-140440000D03*
%TO.P,R5,2*%
%TO.N,Net-(Q5-Pad1)*%
X62767500Y-140440000D03*
%TD*%
D27*
%TO.N,P*%
X97200000Y-118000000D03*
%TO.N,GND*%
X90900000Y-116850000D03*
D28*
%TO.N,P*%
X94000000Y-88280000D03*
X62520000Y-269640000D03*
X77660000Y-221340000D03*
X104040000Y-89890000D03*
D29*
X92790000Y-165960000D03*
D28*
X103040000Y-205160000D03*
X59900000Y-184700000D03*
X109360000Y-32560000D03*
X62350000Y-32660000D03*
X60220000Y-89900000D03*
X99550000Y-109470000D03*
X103620000Y-271140000D03*
X80930000Y-110360000D03*
X58390000Y-206470000D03*
X82380000Y-42490000D03*
X81470000Y-80060000D03*
X54490000Y-222200000D03*
X82050000Y-137350000D03*
X84410000Y-271150000D03*
X57930000Y-196340000D03*
X57520000Y-34740000D03*
X103920000Y-279530000D03*
X57210000Y-247730000D03*
X104160000Y-137300000D03*
X55280000Y-42270000D03*
X100400000Y-56360000D03*
X80930000Y-205150000D03*
X84488500Y-230539312D03*
X99260000Y-156190000D03*
X82170000Y-125520000D03*
X98630000Y-33880000D03*
X53880000Y-221150000D03*
X111670000Y-279590000D03*
X110990000Y-43320000D03*
X58860000Y-210810000D03*
X80800000Y-63010000D03*
X79940000Y-148770000D03*
X60170000Y-42490000D03*
X60080000Y-137280000D03*
X100330000Y-246380000D03*
X58700000Y-110380000D03*
X54730000Y-215950000D03*
X51820000Y-279700000D03*
X57950000Y-149210000D03*
X80870000Y-157780000D03*
X59370000Y-103750000D03*
X60110000Y-279540000D03*
X81490000Y-32670000D03*
X105080000Y-176740000D03*
X77580000Y-251650000D03*
X59410000Y-56360000D03*
X103390000Y-127440000D03*
X105950000Y-267730000D03*
X58660000Y-63020000D03*
X101950000Y-253970000D03*
X59070000Y-205190000D03*
X82840000Y-172590000D03*
X79960000Y-196260000D03*
X105664000Y-233934000D03*
X82010000Y-279490000D03*
X104370000Y-42530000D03*
X59870000Y-252550000D03*
X101854000Y-219964000D03*
X101940000Y-196010000D03*
X78410000Y-56330000D03*
X60870000Y-172730000D03*
X62560000Y-127450000D03*
X103420000Y-32670000D03*
X100090000Y-151160000D03*
X78310000Y-103780000D03*
X82040000Y-184690000D03*
X103420000Y-80060000D03*
X60060000Y-232090000D03*
X93810000Y-150470000D03*
X58870000Y-157820000D03*
X78740000Y-247396000D03*
X82320000Y-89900000D03*
X59480000Y-80100000D03*
X98120000Y-93690000D03*
X103410000Y-103710000D03*
X104080000Y-184700000D03*
X94110000Y-90950000D03*
X102670000Y-62990000D03*
%TO.N,LedIn*%
X57070000Y-278270000D03*
%TO.N,P3.3*%
X62550000Y-194430000D03*
X88010000Y-192250000D03*
X62950000Y-51930000D03*
X62150000Y-146740000D03*
X59436000Y-241808000D03*
X87870000Y-50090000D03*
X88000000Y-143280000D03*
X62390000Y-95810000D03*
X62340000Y-190370000D03*
X63030000Y-47920000D03*
X87430000Y-235630000D03*
X87870000Y-95660000D03*
X62500000Y-143030000D03*
X62170000Y-99460000D03*
X62110000Y-238100000D03*
%TO.N,GND*%
X104120000Y-113600000D03*
X57900000Y-172480000D03*
X58920000Y-86710000D03*
X100370000Y-80080000D03*
X81000000Y-276300000D03*
X51940000Y-274600000D03*
X82150000Y-113590000D03*
X104160000Y-66220000D03*
X98830000Y-228490000D03*
X106650000Y-103760000D03*
X56000000Y-269620000D03*
X56230000Y-127500000D03*
X82880000Y-148810000D03*
X60060000Y-160980000D03*
X105170000Y-159620000D03*
X78370000Y-32680000D03*
X60470000Y-66180000D03*
X60120000Y-113590000D03*
X103460000Y-56330000D03*
X60170000Y-255800000D03*
X84582000Y-222250000D03*
X98080000Y-98280000D03*
X78330000Y-127450000D03*
X59290000Y-39310000D03*
X80790000Y-181520000D03*
X57060000Y-37330000D03*
X78400000Y-80060000D03*
X80840000Y-39320000D03*
X104820000Y-196010000D03*
X59360000Y-134070000D03*
X100000000Y-127510000D03*
X106550000Y-222250000D03*
X106172000Y-254254000D03*
X62360000Y-103740000D03*
X81470000Y-56370000D03*
X80720000Y-86730000D03*
X111910000Y-32530000D03*
X106520000Y-245980000D03*
X59390000Y-223280000D03*
X62790000Y-198500000D03*
X50660000Y-28600000D03*
X100460000Y-174860000D03*
X81950000Y-161020000D03*
X78070000Y-270920000D03*
X110650000Y-38250000D03*
X90130000Y-100180000D03*
X66200000Y-227100000D03*
X58890000Y-276310000D03*
X99050000Y-39220000D03*
X82290000Y-66210000D03*
X59320000Y-32670000D03*
X79940000Y-172710000D03*
X82070000Y-208400000D03*
X106810000Y-151120000D03*
X59130000Y-229930000D03*
X83100000Y-254550000D03*
X97170000Y-88260000D03*
X50038000Y-218440000D03*
X58780000Y-181440000D03*
X100340000Y-32660000D03*
X84240500Y-245872000D03*
X103900000Y-208400000D03*
X102362000Y-277368000D03*
X107220000Y-35310000D03*
X102740000Y-86690000D03*
X59990000Y-206360000D03*
X77724000Y-228092000D03*
X82830000Y-196330000D03*
X62340000Y-247320000D03*
X98620000Y-148220000D03*
X61260000Y-206770000D03*
X97160000Y-90960000D03*
X81400000Y-103750000D03*
X62620000Y-151120000D03*
X53860000Y-225050000D03*
X100584000Y-269240000D03*
X111600000Y-274500000D03*
D29*
X104220000Y-165620000D03*
D28*
X80700000Y-134120000D03*
X102850000Y-181480000D03*
X103050000Y-134090000D03*
X56490000Y-80060000D03*
X92920000Y-100050000D03*
X103650000Y-276570000D03*
X62440000Y-56380000D03*
%TO.N,Net-(D12-Pad2)*%
X105900000Y-135740000D03*
X107140000Y-130180000D03*
%TO.N,Net-(D6-Pad2)*%
X105980000Y-64510000D03*
X106010000Y-88050000D03*
%TO.N,Net-(D18-Pad2)*%
X107020000Y-177840000D03*
X106190000Y-182810000D03*
%TO.N,Net-(D24-Pad2)*%
X107640000Y-228210000D03*
X107620000Y-225710000D03*
%TO.N,A2*%
X81280000Y-214630000D03*
X68270000Y-27950000D03*
X54650000Y-214640000D03*
%TO.N,E*%
X83566000Y-217678000D03*
X65420000Y-26520000D03*
X54790000Y-217280000D03*
%TO.N,A0*%
X54360000Y-212060000D03*
X74500000Y-30830000D03*
X78232000Y-212090000D03*
%TO.N,A1*%
X54770000Y-213370000D03*
X71260000Y-29300000D03*
X80264000Y-213360000D03*
%TO.N,LedOut*%
X102730000Y-39290000D03*
%TO.N,PQ1*%
X58360000Y-36220000D03*
X97020001Y-36459999D03*
%TO.N,PQ2*%
X58130000Y-59600000D03*
X101689999Y-60159999D03*
%TO.N,PQ3*%
X101689999Y-83859999D03*
X58060000Y-83370000D03*
%TO.N,PQ4*%
X58250000Y-107000000D03*
X99170001Y-107559999D03*
%TO.N,PQ5*%
X58190000Y-130970000D03*
X101630001Y-131259999D03*
%TO.N,PQ6*%
X58280000Y-154320000D03*
X89670001Y-154959999D03*
%TO.N,PQ7*%
X101689999Y-178659999D03*
X58080000Y-177920000D03*
%TO.N,PQ8*%
X101689999Y-202359999D03*
X58210000Y-201830000D03*
%TO.N,HallOut1*%
X64382000Y-61007400D03*
X64382000Y-84781800D03*
X72898000Y-228600000D03*
X64382000Y-132152800D03*
X64382000Y-155901800D03*
X64370000Y-274290000D03*
X64382000Y-250638000D03*
X64382000Y-108556200D03*
X64382000Y-179625400D03*
X64382000Y-226948000D03*
X64382000Y-203196600D03*
X64382000Y-37360000D03*
%TO.N,HallOut2*%
X86226000Y-108480000D03*
X86187500Y-233746663D03*
X86187500Y-226924243D03*
X86226000Y-250624000D03*
X86226000Y-155876400D03*
X77724000Y-233934000D03*
X86226000Y-203272800D03*
X86226000Y-84781800D03*
X86226000Y-61058200D03*
X86226000Y-179549200D03*
X86226000Y-132127400D03*
X86226000Y-37360000D03*
X86220000Y-274370000D03*
%TO.N,HallOut3*%
X98520000Y-251540000D03*
X88890000Y-40390000D03*
%TO.N,AGND*%
X89700000Y-35360000D03*
X84360000Y-153770000D03*
X102390000Y-105590000D03*
X85338000Y-248660000D03*
X92960000Y-248660000D03*
X60790000Y-224960000D03*
X84360000Y-82730000D03*
X78668000Y-272360000D03*
X84360000Y-106420000D03*
X84410000Y-59060000D03*
X84666000Y-224960000D03*
X92372000Y-224960000D03*
X92210000Y-272360000D03*
X84360000Y-201260000D03*
X84360000Y-130120000D03*
X91070000Y-59060000D03*
X61530000Y-130160000D03*
X92040000Y-201260000D03*
X106172000Y-225044000D03*
X84360000Y-177540000D03*
%TO.N,Net-(D30-Pad2)*%
X107520000Y-273110000D03*
X107500000Y-269660000D03*
%TO.N,PQ11*%
X106170000Y-271080000D03*
X58200000Y-273150000D03*
%TO.N,PQ10*%
X56940000Y-249390000D03*
X110540000Y-241650000D03*
%TO.N,PQ9*%
X57780000Y-225860000D03*
X103440000Y-228670000D03*
%TO.N,HallOut4*%
X87680000Y-259790000D03*
X57540000Y-259800000D03*
%TO.N,HallOut5*%
X88529500Y-257250462D03*
X57760000Y-257280000D03*
%TO.N,S1*%
X105664000Y-266192000D03*
X52020000Y-266190000D03*
%TO.N,S0*%
X105664000Y-263652000D03*
X52160000Y-263650000D03*
%TO.N,First_LedIn_3V*%
X52450000Y-220080000D03*
X89940000Y-261860000D03*
%TO.N,A3*%
X82296000Y-215900000D03*
X59182000Y-215900000D03*
%TO.N,Q9*%
X64516000Y-223520000D03*
X61634500Y-223774000D03*
%TO.N,Q10*%
X62484000Y-222250000D03*
X64516000Y-222250000D03*
%TO.N,Q11*%
X66802000Y-242824000D03*
X62738000Y-242824000D03*
%TD*%
D30*
%TO.N,P*%
X96900000Y-122980000D02*
X96900000Y-118300000D01*
X96900000Y-118300000D02*
X97200000Y-118000000D01*
%TO.N,GND*%
X90900000Y-122980000D02*
X90900000Y-116850000D01*
%TO.N,P*%
X96900000Y-134480000D02*
X96900000Y-122980000D01*
%TO.N,GND*%
X90900000Y-134480000D02*
X90900000Y-122980000D01*
D31*
%TO.N,P*%
X54950000Y-279700000D02*
X51820000Y-279700000D01*
X56940000Y-35320000D02*
X57520000Y-34740000D01*
D32*
X95610000Y-168780000D02*
X92790000Y-165960000D01*
D33*
X51960000Y-222105000D02*
X52925000Y-222105000D01*
X53390000Y-216142500D02*
X54537500Y-216142500D01*
X98100000Y-93710000D02*
X98120000Y-93690000D01*
D31*
X54950000Y-42600000D02*
X55280000Y-42270000D01*
D33*
X56920000Y-210815000D02*
X58855000Y-210815000D01*
X95725000Y-88280000D02*
X94000000Y-88280000D01*
X58855000Y-210815000D02*
X58860000Y-210810000D01*
D31*
X100070000Y-35320000D02*
X98630000Y-33880000D01*
D33*
X96070000Y-93710000D02*
X98100000Y-93710000D01*
D31*
X55740000Y-35320000D02*
X56940000Y-35320000D01*
X109380000Y-35330000D02*
X109380000Y-32580000D01*
D33*
X94120000Y-90960000D02*
X94110000Y-90950000D01*
D31*
X100190000Y-35320000D02*
X100070000Y-35320000D01*
X54950000Y-43415000D02*
X54950000Y-42600000D01*
X108130000Y-43315000D02*
X110985000Y-43315000D01*
D33*
X101710000Y-273050000D02*
X103620000Y-271140000D01*
X54537500Y-216142500D02*
X54730000Y-215950000D01*
D32*
X95610000Y-171940000D02*
X95610000Y-168780000D01*
D33*
X56865000Y-207995000D02*
X58390000Y-206470000D01*
D31*
X110985000Y-43315000D02*
X110990000Y-43320000D01*
X108130000Y-279600000D02*
X111660000Y-279600000D01*
X109380000Y-32580000D02*
X109360000Y-32560000D01*
D33*
X52925000Y-222105000D02*
X53880000Y-221150000D01*
X95695000Y-90960000D02*
X94120000Y-90960000D01*
X95778000Y-273050000D02*
X100818000Y-273050000D01*
D32*
X95610000Y-160440000D02*
X95610000Y-163140000D01*
D31*
X93797500Y-150457500D02*
X93810000Y-150470000D01*
X93797500Y-148220000D02*
X93797500Y-150457500D01*
X111660000Y-279600000D02*
X111670000Y-279590000D01*
D32*
X95610000Y-163140000D02*
X92790000Y-165960000D01*
D33*
%TO.N,LedIn*%
X56060000Y-278270000D02*
X54950000Y-277160000D01*
X57070000Y-278270000D02*
X56060000Y-278270000D01*
%TO.N,P3.3*%
X90150000Y-95635000D02*
X87895000Y-95635000D01*
X87870000Y-95660000D02*
X87870000Y-50090000D01*
X62340000Y-190370000D02*
X60771500Y-190370000D01*
X60771500Y-190370000D02*
X60417500Y-190016000D01*
X60671500Y-146582000D02*
X61992000Y-146582000D01*
X60925500Y-47522000D02*
X62632000Y-47522000D01*
X87870000Y-95660000D02*
X87870000Y-143150000D01*
X60417500Y-194334000D02*
X62454000Y-194334000D01*
X59600000Y-244130000D02*
X60700000Y-245230000D01*
X87895000Y-95635000D02*
X87870000Y-95660000D01*
X93315000Y-96010000D02*
X92920000Y-95615000D01*
X60750000Y-237850000D02*
X61860000Y-237850000D01*
X88000000Y-192240000D02*
X88010000Y-192250000D01*
X92920000Y-95615000D02*
X90170000Y-95615000D01*
X62950000Y-51930000D02*
X61269500Y-51930000D01*
X96070000Y-96010000D02*
X93315000Y-96010000D01*
X62632000Y-47522000D02*
X63030000Y-47920000D01*
X62390000Y-95810000D02*
X60953500Y-95810000D01*
X88010000Y-192250000D02*
X88010000Y-218070000D01*
X87870000Y-143150000D02*
X88000000Y-143280000D01*
X59436000Y-241808000D02*
X60492000Y-241808000D01*
X60953500Y-95810000D02*
X60671500Y-95528000D01*
X59436000Y-241808000D02*
X59600000Y-241972000D01*
X59600000Y-241972000D02*
X59600000Y-244130000D01*
X88000000Y-143280000D02*
X88000000Y-192240000D01*
X62500000Y-143030000D02*
X61437500Y-143030000D01*
X87430000Y-235630000D02*
X87430000Y-218650000D01*
X62454000Y-194334000D02*
X62550000Y-194430000D01*
X62170000Y-99460000D02*
X60793500Y-99460000D01*
X61437500Y-143030000D02*
X60671500Y-142264000D01*
X87430000Y-218650000D02*
X88010000Y-218070000D01*
X61992000Y-146582000D02*
X62150000Y-146740000D01*
X61860000Y-237850000D02*
X62110000Y-238100000D01*
X61269500Y-51930000D02*
X60925500Y-51586000D01*
X60492000Y-241808000D02*
X60710000Y-241590000D01*
D31*
%TO.N,GND*%
X111920000Y-35330000D02*
X111920000Y-32540000D01*
X54950000Y-38335000D02*
X56055000Y-38335000D01*
D33*
X59815000Y-206535000D02*
X59990000Y-206360000D01*
D31*
X54950000Y-274620000D02*
X51960000Y-274620000D01*
D33*
X98050000Y-98310000D02*
X98080000Y-98280000D01*
D32*
X101630000Y-168130000D02*
X104140000Y-165620000D01*
D33*
X97190000Y-88280000D02*
X97170000Y-88260000D01*
D31*
X102197500Y-148220000D02*
X98620000Y-148220000D01*
D33*
X92920000Y-98565000D02*
X92920000Y-100050000D01*
D32*
X101610000Y-160440000D02*
X101610000Y-163010000D01*
D33*
X59815000Y-208240000D02*
X59815000Y-206535000D01*
X98645000Y-90960000D02*
X97160000Y-90960000D01*
X102670000Y-275590000D02*
X103650000Y-276570000D01*
D32*
X101610000Y-163010000D02*
X104220000Y-165620000D01*
D33*
X96070000Y-98310000D02*
X98050000Y-98310000D01*
X66220000Y-227080000D02*
X66200000Y-227100000D01*
X90150000Y-100160000D02*
X90130000Y-100180000D01*
X66220000Y-224785000D02*
X66220000Y-227080000D01*
D31*
X110635000Y-38235000D02*
X110650000Y-38250000D01*
D33*
X95778000Y-275590000D02*
X100818000Y-275590000D01*
D31*
X107210000Y-35320000D02*
X107220000Y-35310000D01*
X108130000Y-274520000D02*
X111580000Y-274520000D01*
D33*
X98675000Y-88280000D02*
X97190000Y-88280000D01*
X51960000Y-225055000D02*
X53855000Y-225055000D01*
X51490000Y-218417500D02*
X50060500Y-218417500D01*
D31*
X111580000Y-274520000D02*
X111600000Y-274500000D01*
X51960000Y-274620000D02*
X51940000Y-274600000D01*
X105270000Y-35320000D02*
X107210000Y-35320000D01*
D33*
X50060500Y-218417500D02*
X50038000Y-218440000D01*
D32*
X104140000Y-165620000D02*
X104220000Y-165620000D01*
D33*
X53855000Y-225055000D02*
X53860000Y-225050000D01*
D31*
X56055000Y-38335000D02*
X57060000Y-37330000D01*
D32*
X101610000Y-174050000D02*
X101630000Y-174070000D01*
D31*
X108130000Y-38235000D02*
X110635000Y-38235000D01*
D33*
X100818000Y-275590000D02*
X102670000Y-275590000D01*
D32*
X101630000Y-174070000D02*
X101630000Y-168130000D01*
D31*
X111920000Y-32540000D02*
X111910000Y-32530000D01*
X50660000Y-35320000D02*
X50660000Y-28600000D01*
D32*
X101610000Y-171940000D02*
X101610000Y-174050000D01*
D33*
X90150000Y-98585000D02*
X90150000Y-100160000D01*
%TO.N,Net-(D12-Pad2)*%
X105900000Y-131420000D02*
X105900000Y-135740000D01*
X107140000Y-130180000D02*
X105900000Y-131420000D01*
%TO.N,Net-(D6-Pad2)*%
X105980000Y-64510000D02*
X105980000Y-88020000D01*
X105980000Y-88020000D02*
X106010000Y-88050000D01*
%TO.N,Net-(D18-Pad2)*%
X107020000Y-181980000D02*
X106190000Y-182810000D01*
X107020000Y-177840000D02*
X107020000Y-181980000D01*
%TO.N,Net-(D24-Pad2)*%
X107640000Y-228210000D02*
X107640000Y-225730000D01*
X107640000Y-225730000D02*
X107620000Y-225710000D01*
%TO.N,A2*%
X77216000Y-242570000D02*
X81280000Y-238506000D01*
X68290000Y-27970000D02*
X68290000Y-35330000D01*
X54650000Y-214640000D02*
X56905000Y-214640000D01*
X75363000Y-242570000D02*
X70323000Y-242570000D01*
X75363000Y-242570000D02*
X77216000Y-242570000D01*
X81280000Y-238506000D02*
X81280000Y-214630000D01*
X68270000Y-27950000D02*
X68290000Y-27970000D01*
%TO.N,E*%
X83566000Y-218440000D02*
X83566000Y-217678000D01*
X83566000Y-240447000D02*
X83566000Y-218440000D01*
X75363000Y-247650000D02*
X70323000Y-247650000D01*
X54790000Y-217280000D02*
X56805000Y-217280000D01*
X65750000Y-26850000D02*
X65420000Y-26520000D01*
X83566000Y-218440000D02*
X83566000Y-218083075D01*
X76363000Y-247650000D02*
X83566000Y-240447000D01*
X65750000Y-35330000D02*
X65750000Y-26850000D01*
X56920000Y-217165000D02*
X56920000Y-218435000D01*
X56805000Y-217280000D02*
X56920000Y-217165000D01*
%TO.N,A0*%
X75363000Y-237490000D02*
X70323000Y-237490000D01*
X79310499Y-213168499D02*
X78232000Y-212090000D01*
X76363000Y-237490000D02*
X79310499Y-234542501D01*
X79310499Y-234542501D02*
X79310499Y-213168499D01*
X74500000Y-30830000D02*
X74500000Y-35300000D01*
X54360000Y-212060000D02*
X56895000Y-212060000D01*
%TO.N,A1*%
X75363000Y-240030000D02*
X70323000Y-240030000D01*
X80264000Y-236220000D02*
X80264000Y-213360000D01*
X76454000Y-240030000D02*
X80264000Y-236220000D01*
X54770000Y-213370000D02*
X56905000Y-213370000D01*
X71990000Y-35330000D02*
X71990000Y-30030000D01*
X71990000Y-30030000D02*
X71260000Y-29300000D01*
%TO.N,Net-(Q1-Pad1)*%
X61367500Y-46064000D02*
X60925500Y-45622000D01*
X63097500Y-46064000D02*
X61367500Y-46064000D01*
%TO.N,Net-(Q2-Pad1)*%
X63097500Y-50128000D02*
X61367500Y-50128000D01*
X61367500Y-50128000D02*
X60925500Y-49686000D01*
%TO.N,Net-(Q3-Pad1)*%
X62897500Y-93970000D02*
X61013500Y-93970000D01*
X61013500Y-93970000D02*
X60671500Y-93628000D01*
%TO.N,LedOut*%
X102730000Y-39290000D02*
X102730000Y-35320000D01*
%TO.N,PQ1*%
X97020001Y-36640001D02*
X97020001Y-36459999D01*
X98290000Y-37910000D02*
X99690000Y-37910000D01*
X99690000Y-37910000D02*
X102189502Y-40409502D01*
X55598000Y-46572000D02*
X54950000Y-47220000D01*
X102189502Y-40409502D02*
X102189502Y-43379502D01*
X106030000Y-47220000D02*
X102189502Y-43379502D01*
X58360000Y-43810000D02*
X58360000Y-36220000D01*
X59050500Y-46572000D02*
X55598000Y-46572000D01*
X98290000Y-37910000D02*
X97020001Y-36640001D01*
X108130000Y-47220000D02*
X106030000Y-47220000D01*
X54950000Y-47220000D02*
X58360000Y-43810000D01*
%TO.N,PQ2*%
X58130000Y-59600000D02*
X57710000Y-59180000D01*
X58174500Y-49760000D02*
X54950000Y-49760000D01*
X59050500Y-50636000D02*
X58174500Y-49760000D01*
X57710000Y-51390000D02*
X56080000Y-49760000D01*
X105870000Y-49760000D02*
X101689999Y-53940001D01*
X57710000Y-59180000D02*
X57710000Y-51390000D01*
X101689999Y-53940001D02*
X101689999Y-60159999D01*
X108130000Y-49760000D02*
X105870000Y-49760000D01*
%TO.N,PQ3*%
X57790000Y-91780000D02*
X57790000Y-83640000D01*
X105770000Y-94620000D02*
X101689999Y-90539999D01*
X101689999Y-90539999D02*
X101689999Y-83859999D01*
X108130000Y-94620000D02*
X105770000Y-94620000D01*
X54950000Y-94620000D02*
X57790000Y-91780000D01*
X58796500Y-94578000D02*
X54992000Y-94578000D01*
X57790000Y-83640000D02*
X58060000Y-83370000D01*
%TO.N,PQ4*%
X58796500Y-98388000D02*
X56178000Y-98388000D01*
X99170001Y-105029999D02*
X99170001Y-107559999D01*
X107040000Y-97160000D02*
X99170001Y-105029999D01*
X54950000Y-97160000D02*
X54950000Y-103700000D01*
X56178000Y-98388000D02*
X54950000Y-97160000D01*
X54950000Y-103700000D02*
X58250000Y-107000000D01*
%TO.N,PQ5*%
X58230000Y-139980000D02*
X58230000Y-131010000D01*
X58796500Y-141314000D02*
X56896000Y-141314000D01*
X58230000Y-131010000D02*
X58190000Y-130970000D01*
X56680000Y-141530000D02*
X58230000Y-139980000D01*
X101630001Y-139190001D02*
X101630001Y-131259999D01*
X56896000Y-141314000D02*
X56680000Y-141530000D01*
X56190000Y-142020000D02*
X56680000Y-141530000D01*
X108130000Y-142020000D02*
X104460000Y-142020000D01*
X104460000Y-142020000D02*
X101630001Y-139190001D01*
%TO.N,PQ6*%
X56022000Y-145632000D02*
X54950000Y-144560000D01*
X90670000Y-144560000D02*
X89520000Y-145710000D01*
X54950000Y-144560000D02*
X54950000Y-150990000D01*
X54950000Y-150990000D02*
X58280000Y-154320000D01*
X108130000Y-144560000D02*
X90670000Y-144560000D01*
X89520000Y-145710000D02*
X89520000Y-154809998D01*
X58796500Y-145632000D02*
X56022000Y-145632000D01*
X89520000Y-154809998D02*
X89670001Y-154959999D01*
%TO.N,PQ7*%
X54950000Y-181050000D02*
X54950000Y-189420000D01*
X58188500Y-189420000D02*
X58542500Y-189066000D01*
X104260000Y-189420000D02*
X101689999Y-186849999D01*
X54950000Y-189420000D02*
X58188500Y-189420000D01*
X58080000Y-177920000D02*
X54950000Y-181050000D01*
X101689999Y-186849999D02*
X101689999Y-178659999D01*
X108130000Y-189420000D02*
X104260000Y-189420000D01*
%TO.N,PQ8*%
X108130000Y-195919998D02*
X101689999Y-202359999D01*
X54950000Y-198570000D02*
X54950000Y-191960000D01*
X108130000Y-191960000D02*
X108130000Y-195919998D01*
X58210000Y-201830000D02*
X54950000Y-198570000D01*
X58542500Y-193384000D02*
X56374000Y-193384000D01*
X56374000Y-193384000D02*
X54950000Y-191960000D01*
%TO.N,HallOut1*%
X64382000Y-179625400D02*
X64382000Y-203196600D01*
X64382000Y-155901800D02*
X64382000Y-179625400D01*
X64382000Y-132152800D02*
X64382000Y-155901800D01*
X64382000Y-108556200D02*
X64382000Y-132152800D01*
X64382000Y-84781800D02*
X64382000Y-108556200D01*
X64382000Y-61007400D02*
X64382000Y-84781800D01*
X72898000Y-229870000D02*
X70323000Y-229870000D01*
X63666500Y-226232500D02*
X63666500Y-226226500D01*
X63666500Y-226232500D02*
X64382000Y-226948000D01*
X64434000Y-40170000D02*
X64382000Y-40118000D01*
X63500000Y-221742000D02*
X63500000Y-226060000D01*
X72898000Y-229870000D02*
X72898000Y-228600000D01*
X63666500Y-203912100D02*
X63666500Y-221575500D01*
X64382000Y-274278000D02*
X64370000Y-274290000D01*
X65278000Y-227844000D02*
X64382000Y-226948000D01*
X64382000Y-250324000D02*
X65278000Y-249428000D01*
X63666500Y-221575500D02*
X63500000Y-221742000D01*
X64382000Y-40118000D02*
X64382000Y-61007400D01*
X64382000Y-250638000D02*
X64382000Y-250324000D01*
X77900000Y-40170000D02*
X64434000Y-40170000D01*
X75363000Y-229870000D02*
X72898000Y-229870000D01*
X64382000Y-203196600D02*
X63666500Y-203912100D01*
X65278000Y-249428000D02*
X65278000Y-227844000D01*
X64382000Y-250638000D02*
X64382000Y-274278000D01*
X82215000Y-35855000D02*
X77900000Y-40170000D01*
X64382000Y-37360000D02*
X64382000Y-40118000D01*
X63666500Y-226226500D02*
X63500000Y-226060000D01*
%TO.N,HallOut2*%
X86226000Y-61058200D02*
X86226000Y-84781800D01*
X86226000Y-84781800D02*
X86226000Y-108480000D01*
X86226000Y-108480000D02*
X86226000Y-132127400D01*
X86226000Y-132127400D02*
X86226000Y-155876400D01*
X86226000Y-155876400D02*
X86226000Y-179549200D01*
X86226000Y-37360000D02*
X86226000Y-61058200D01*
X86226000Y-179549200D02*
X86226000Y-203272800D01*
X86037501Y-203461299D02*
X86037501Y-226774244D01*
X86363171Y-233922334D02*
X86187500Y-233746663D01*
X84755000Y-35889000D02*
X86226000Y-37360000D01*
X86226000Y-274364000D02*
X86220000Y-274370000D01*
X75363000Y-232410000D02*
X70323000Y-232410000D01*
X86187500Y-233746663D02*
X86187500Y-226924243D01*
X86226000Y-250624000D02*
X86363171Y-250486829D01*
X86226000Y-203272800D02*
X86037501Y-203461299D01*
X86363171Y-250486829D02*
X86363171Y-233922334D01*
X86226000Y-250624000D02*
X86226000Y-274364000D01*
X76200000Y-232410000D02*
X77724000Y-233934000D01*
X86037501Y-226774244D02*
X86187500Y-226924243D01*
%TO.N,HallOut3*%
X100818000Y-252730000D02*
X95778000Y-252730000D01*
X95778000Y-252730000D02*
X97330000Y-252730000D01*
X87295000Y-38795000D02*
X88890000Y-40390000D01*
X97330000Y-252730000D02*
X98520000Y-251540000D01*
X87295000Y-35320000D02*
X87295000Y-38795000D01*
%TO.N,Net-(Q4-Pad1)*%
X62787500Y-97780000D02*
X61013500Y-97780000D01*
X61013500Y-97780000D02*
X60671500Y-97438000D01*
%TO.N,Net-(Q5-Pad1)*%
X62767500Y-140440000D02*
X60747500Y-140440000D01*
%TO.N,Net-(Q6-Pad1)*%
X62767500Y-145000000D02*
X60989500Y-145000000D01*
X60989500Y-145000000D02*
X60671500Y-144682000D01*
%TO.N,Net-(Q7-Pad1)*%
X60417500Y-188116000D02*
X62451500Y-188116000D01*
X62451500Y-188116000D02*
X62777500Y-187790000D01*
%TO.N,Net-(Q8-Pad1)*%
X60417500Y-192434000D02*
X62411500Y-192434000D01*
%TO.N,AGND*%
X78668000Y-273630000D02*
X78668000Y-272360000D01*
X92210000Y-249410000D02*
X92960000Y-248660000D01*
X102390000Y-105590000D02*
X102390000Y-117630000D01*
X76708000Y-275590000D02*
X78668000Y-273630000D01*
X91170000Y-35400000D02*
X89740000Y-35400000D01*
X102390000Y-117630000D02*
X107040000Y-122280000D01*
X92210000Y-272360000D02*
X92210000Y-249410000D01*
X75363000Y-275590000D02*
X70323000Y-275590000D01*
X92372000Y-224960000D02*
X92040000Y-224628000D01*
X54950000Y-123580000D02*
X61530000Y-130160000D01*
X89740000Y-35400000D02*
X89700000Y-35360000D01*
X91170000Y-35400000D02*
X91170000Y-58960000D01*
X54950000Y-230550000D02*
X54950000Y-230038000D01*
X106172000Y-229108000D02*
X106172000Y-225044000D01*
X60028000Y-224960000D02*
X60790000Y-224960000D01*
X85338000Y-248660000D02*
X85338000Y-225632000D01*
X75363000Y-275590000D02*
X76708000Y-275590000D01*
X107614000Y-230550000D02*
X106172000Y-229108000D01*
X85338000Y-225632000D02*
X84666000Y-224960000D01*
X54950000Y-122280000D02*
X54950000Y-123580000D01*
X92040000Y-224628000D02*
X92040000Y-201260000D01*
X84360000Y-201260000D02*
X84360000Y-59110000D01*
X84360000Y-59110000D02*
X84410000Y-59060000D01*
X91170000Y-58960000D02*
X91070000Y-59060000D01*
X54950000Y-230038000D02*
X60028000Y-224960000D01*
%TO.N,Q1*%
X76530000Y-58810000D02*
X76530000Y-217830000D01*
X66022500Y-46422500D02*
X76660000Y-57060000D01*
X76530000Y-217830000D02*
X74655000Y-219705000D01*
X76660000Y-57060000D02*
X76660000Y-58680000D01*
X74655000Y-219705000D02*
X66220000Y-219705000D01*
X76660000Y-58680000D02*
X76530000Y-58810000D01*
%TO.N,Q2*%
X66948000Y-50128000D02*
X66022500Y-50128000D01*
X75040000Y-58220000D02*
X66948000Y-50128000D01*
X72325000Y-218435000D02*
X75040000Y-215720000D01*
X75040000Y-215720000D02*
X75040000Y-58220000D01*
X66220000Y-218435000D02*
X72325000Y-218435000D01*
%TO.N,Q3*%
X73720000Y-101580000D02*
X73720000Y-214500000D01*
X73720000Y-214500000D02*
X71055000Y-217165000D01*
X66110000Y-93970000D02*
X73720000Y-101580000D01*
X71055000Y-217165000D02*
X66220000Y-217165000D01*
%TO.N,Q4*%
X66220000Y-215895000D02*
X69885000Y-215895000D01*
X72200000Y-104267500D02*
X65712500Y-97780000D01*
X72200000Y-213580000D02*
X72200000Y-104267500D01*
X69885000Y-215895000D02*
X72200000Y-213580000D01*
%TO.N,Q5*%
X68645000Y-214625000D02*
X66220000Y-214625000D01*
X65692500Y-140440000D02*
X70950000Y-145697500D01*
X70950000Y-212320000D02*
X68645000Y-214625000D01*
X70950000Y-145697500D02*
X70950000Y-212320000D01*
%TO.N,Q6*%
X68055000Y-213355000D02*
X69650000Y-211760000D01*
X66220000Y-213355000D02*
X68055000Y-213355000D01*
X69650000Y-148957500D02*
X65692500Y-145000000D01*
X69650000Y-211760000D02*
X69650000Y-148957500D01*
%TO.N,Q7*%
X66220000Y-212085000D02*
X67565000Y-212085000D01*
X68110000Y-190197500D02*
X65702500Y-187790000D01*
X68110000Y-211540000D02*
X68110000Y-190197500D01*
X67565000Y-212085000D02*
X68110000Y-211540000D01*
%TO.N,Q8*%
X66220000Y-193317500D02*
X65602500Y-192700000D01*
X66220000Y-210815000D02*
X66220000Y-193317500D01*
%TO.N,Net-(D30-Pad2)*%
X107520000Y-269680000D02*
X107500000Y-269660000D01*
X107520000Y-273110000D02*
X107520000Y-269680000D01*
%TO.N,LedIn_top_side_a*%
X51720000Y-54727500D02*
X51720000Y-38190000D01*
X53200000Y-36710000D02*
X53200000Y-35320000D01*
X51720000Y-38190000D02*
X53200000Y-36710000D01*
%TO.N,PQ11*%
X106170000Y-269360000D02*
X106170000Y-271080000D01*
X58700000Y-272650000D02*
X58200000Y-273150000D01*
X57595000Y-243175000D02*
X58700000Y-244280000D01*
X109770000Y-268550000D02*
X106980000Y-268550000D01*
X54950000Y-243175000D02*
X57595000Y-243175000D01*
X111450000Y-266870000D02*
X109770000Y-268550000D01*
X108130000Y-243075000D02*
X111450000Y-246395000D01*
X106980000Y-268550000D02*
X106170000Y-269360000D01*
X111450000Y-246395000D02*
X111450000Y-266870000D01*
X58700000Y-244280000D02*
X58700000Y-272650000D01*
%TO.N,PQ10*%
X108130000Y-240535000D02*
X109735000Y-240535000D01*
X52480000Y-246830000D02*
X55040000Y-249390000D01*
X53860000Y-240635000D02*
X52480000Y-242015000D01*
X55040000Y-249390000D02*
X56940000Y-249390000D01*
X110540000Y-241340000D02*
X109735000Y-240535000D01*
X54950000Y-240635000D02*
X58705000Y-240635000D01*
X52480000Y-242015000D02*
X52480000Y-246830000D01*
X110540000Y-241650000D02*
X110540000Y-241340000D01*
%TO.N,PQ9*%
X52000000Y-235145000D02*
X54950000Y-238095000D01*
X103440000Y-234040000D02*
X103440000Y-228670000D01*
X52000000Y-229390000D02*
X52000000Y-235145000D01*
X57555000Y-238095000D02*
X58750000Y-236900000D01*
X55530000Y-225860000D02*
X52000000Y-229390000D01*
X57780000Y-225860000D02*
X55530000Y-225860000D01*
X103440000Y-234040000D02*
X107395000Y-237995000D01*
X54950000Y-238095000D02*
X57555000Y-238095000D01*
%TO.N,HallOut4*%
X87680000Y-236968000D02*
X87680000Y-259790000D01*
X57540000Y-259800000D02*
X54970000Y-259800000D01*
X95778000Y-229870000D02*
X100818000Y-229870000D01*
X94778000Y-229870000D02*
X87680000Y-236968000D01*
%TO.N,HallOut5*%
X94778000Y-232410000D02*
X88529500Y-238658500D01*
X88529500Y-238658500D02*
X88529500Y-257250462D01*
X57760000Y-257280000D02*
X54950000Y-257280000D01*
X95778000Y-232410000D02*
X100818000Y-232410000D01*
%TO.N,S1*%
X103140000Y-242570000D02*
X103360000Y-242790000D01*
X95778000Y-242570000D02*
X100818000Y-242570000D01*
X54950000Y-266230000D02*
X52060000Y-266230000D01*
X100818000Y-242570000D02*
X103140000Y-242570000D01*
X105664000Y-266192000D02*
X108092000Y-266192000D01*
X103360000Y-263888000D02*
X105664000Y-266192000D01*
X52060000Y-266230000D02*
X52020000Y-266190000D01*
X103360000Y-242790000D02*
X103360000Y-263888000D01*
%TO.N,S0*%
X52200000Y-263690000D02*
X52160000Y-263650000D01*
X95778000Y-240030000D02*
X100818000Y-240030000D01*
X104160000Y-262400000D02*
X104160000Y-241840000D01*
X104160000Y-241840000D02*
X102350000Y-240030000D01*
X54950000Y-263690000D02*
X52200000Y-263690000D01*
X105664000Y-263652000D02*
X108092000Y-263652000D01*
X102350000Y-240030000D02*
X100818000Y-240030000D01*
X105412000Y-263652000D02*
X104160000Y-262400000D01*
X105664000Y-263652000D02*
X105412000Y-263652000D01*
%TO.N,HallOut7*%
X103040000Y-237490000D02*
X100818000Y-237490000D01*
X108130000Y-250920000D02*
X104980000Y-247770000D01*
X104980000Y-247770000D02*
X104980000Y-239430000D01*
X95778000Y-237490000D02*
X100818000Y-237490000D01*
X104980000Y-239430000D02*
X103040000Y-237490000D01*
X108130000Y-257280000D02*
X108130000Y-250920000D01*
%TO.N,HallOut6*%
X105790000Y-243970000D02*
X105790000Y-238530000D01*
X110650000Y-248830000D02*
X105790000Y-243970000D01*
X105790000Y-238530000D02*
X102210000Y-234950000D01*
X95778000Y-234950000D02*
X100818000Y-234950000D01*
X109220000Y-259820000D02*
X110650000Y-258390000D01*
X108130000Y-259820000D02*
X109530000Y-259820000D01*
X110650000Y-258390000D02*
X110650000Y-248830000D01*
X102210000Y-234950000D02*
X100818000Y-234950000D01*
%TO.N,Additional1*%
X95778000Y-222250000D02*
X100818000Y-222250000D01*
%TO.N,Additional2*%
X95778000Y-224790000D02*
X100818000Y-224790000D01*
%TO.N,Additional3*%
X95778000Y-227330000D02*
X100818000Y-227330000D01*
%TO.N,Additional4*%
X95778000Y-247650000D02*
X100818000Y-247650000D01*
%TO.N,First_LedIn_3V*%
X94778000Y-245110000D02*
X89940000Y-249948000D01*
X89940000Y-249948000D02*
X89940000Y-261860000D01*
X52450000Y-220080000D02*
X52450000Y-218427500D01*
X95778000Y-245110000D02*
X100818000Y-245110000D01*
%TO.N,A3*%
X82296000Y-239177000D02*
X82296000Y-215900000D01*
X76363000Y-245110000D02*
X82296000Y-239177000D01*
X75363000Y-245110000D02*
X70323000Y-245110000D01*
X59182000Y-215900000D02*
X56925000Y-215900000D01*
%TO.N,Additional5*%
X95778000Y-250190000D02*
X100818000Y-250190000D01*
%TO.N,Additional6*%
X95778000Y-255270000D02*
X100818000Y-255270000D01*
%TO.N,Additional7*%
X95778000Y-257810000D02*
X100818000Y-257810000D01*
%TO.N,Additional8*%
X95778000Y-260350000D02*
X100818000Y-260350000D01*
%TO.N,Net-(Q9-Pad1)*%
X61860000Y-234052500D02*
X61860000Y-234840000D01*
X61860000Y-234840000D02*
X60750000Y-235950000D01*
%TO.N,Net-(Q10-Pad1)*%
X63246000Y-239206500D02*
X61193500Y-239206500D01*
X61193500Y-239206500D02*
X60710000Y-239690000D01*
%TO.N,Net-(Q11-Pad1)*%
X61656500Y-244286500D02*
X63246000Y-244286500D01*
X61656500Y-244286500D02*
X60700000Y-243330000D01*
%TO.N,Q9*%
X61722000Y-223861500D02*
X61634500Y-223774000D01*
X61722000Y-230989500D02*
X61722000Y-223861500D01*
X66220000Y-223515000D02*
X64521000Y-223515000D01*
X64521000Y-223515000D02*
X64516000Y-223520000D01*
%TO.N,Q10*%
X63185000Y-236088500D02*
X63185000Y-232095000D01*
X64516000Y-222250000D02*
X66215000Y-222250000D01*
X62484000Y-226568000D02*
X62484000Y-222250000D01*
X62484000Y-226568000D02*
X63185000Y-227269000D01*
X63185000Y-232095000D02*
X63185000Y-227269000D01*
X63185000Y-232095000D02*
X63185000Y-236220500D01*
%TO.N,Q11*%
X62738000Y-241869500D02*
X63246000Y-241361500D01*
X67559000Y-220975000D02*
X66220000Y-220975000D01*
X67564000Y-242062000D02*
X67564000Y-227076000D01*
X66802000Y-242824000D02*
X67564000Y-242062000D01*
X68072000Y-221488000D02*
X67559000Y-220975000D01*
X68072000Y-226568000D02*
X68072000Y-221488000D01*
X67564000Y-227076000D02*
X68072000Y-226568000D01*
X62738000Y-242824000D02*
X62738000Y-241869500D01*
%TO.N,Net-(RI1-Pad1)*%
X51490000Y-216142500D02*
X51490000Y-57882500D01*
%TO.N,Additional9*%
X95778000Y-262890000D02*
X100818000Y-262890000D01*
%TO.N,Additional10*%
X95778000Y-265430000D02*
X100818000Y-265430000D01*
%TO.N,Additional11*%
X95778000Y-267970000D02*
X100818000Y-267970000D01*
%TO.N,Additional12*%
X95778000Y-270510000D02*
X100818000Y-270510000D01*
%TO.N,Additional13*%
X75363000Y-222250000D02*
X70323000Y-222250000D01*
%TO.N,Additional14*%
X75363000Y-224790000D02*
X70323000Y-224790000D01*
%TO.N,Additional15*%
X75363000Y-227330000D02*
X70323000Y-227330000D01*
%TO.N,Additional16*%
X75363000Y-234950000D02*
X70323000Y-234950000D01*
%TO.N,Additional17*%
X75363000Y-250190000D02*
X70323000Y-250190000D01*
%TO.N,Additional18*%
X75363000Y-252730000D02*
X70323000Y-252730000D01*
%TO.N,Additional19*%
X75363000Y-255270000D02*
X70323000Y-255270000D01*
%TO.N,Additional20*%
X75363000Y-257810000D02*
X70323000Y-257810000D01*
%TO.N,Additional21*%
X75363000Y-260350000D02*
X70323000Y-260350000D01*
%TO.N,Additional22*%
X75363000Y-262890000D02*
X70323000Y-262890000D01*
%TO.N,Additional23*%
X75363000Y-265430000D02*
X70323000Y-265430000D01*
%TO.N,Additional24*%
X75363000Y-267970000D02*
X70323000Y-267970000D01*
%TO.N,Additional25*%
X75363000Y-270510000D02*
X70323000Y-270510000D01*
%TO.N,Additional26*%
X75363000Y-273050000D02*
X70323000Y-273050000D01*
%TD*%
M02*
