M48
; DRILL file {KiCad (6.0.7-1)-1} date 2023 December 02, Saturday 14:15:39
; FORMAT={-:-/ absolute / metric / decimal}
; #@! TF.CreationDate,2023-12-02T14:15:39+01:00
; #@! TF.GenerationSoftware,Kicad,Pcbnew,(6.0.7-1)-1
; #@! TF.FileFunction,Plated,1,4,PTH
FMAT,2
METRIC
; #@! TA.AperFunction,Plated,PTH,ViaDrill
T1C0.400
; #@! TA.AperFunction,Plated,PTH,ViaDrill
T2C2.000
; #@! TA.AperFunction,Plated,PTH,ViaDrill
T3C2.500
%
G90
G05
T1
X50.038Y-218.44
X50.66Y-28.6
X51.82Y-279.7
X51.94Y-274.6
X52.02Y-266.19
X52.16Y-263.65
X52.45Y-220.08
X53.86Y-225.05
X53.88Y-221.15
X54.36Y-212.06
X54.49Y-222.2
X54.65Y-214.64
X54.73Y-215.95
X54.77Y-213.37
X54.79Y-217.28
X55.28Y-42.27
X56.0Y-269.62
X56.23Y-127.5
X56.49Y-80.06
X56.94Y-249.39
X57.06Y-37.33
X57.07Y-278.27
X57.21Y-247.73
X57.52Y-34.74
X57.54Y-259.8
X57.76Y-257.28
X57.78Y-225.86
X57.9Y-172.48
X57.93Y-196.34
X57.95Y-149.21
X58.06Y-83.37
X58.08Y-177.92
X58.13Y-59.6
X58.19Y-130.97
X58.2Y-273.15
X58.21Y-201.83
X58.25Y-107.0
X58.28Y-154.32
X58.36Y-36.22
X58.39Y-206.47
X58.66Y-63.02
X58.7Y-110.38
X58.78Y-181.44
X58.86Y-210.81
X58.87Y-157.82
X58.89Y-276.31
X58.92Y-86.71
X59.07Y-205.19
X59.13Y-229.93
X59.182Y-215.9
X59.29Y-39.31
X59.32Y-32.67
X59.36Y-134.07
X59.37Y-103.75
X59.39Y-223.28
X59.41Y-56.36
X59.436Y-241.808
X59.48Y-80.1
X59.87Y-252.55
X59.9Y-184.7
X59.99Y-206.36
X60.06Y-160.98
X60.06Y-232.09
X60.08Y-137.28
X60.11Y-279.54
X60.12Y-113.59
X60.17Y-42.49
X60.17Y-255.8
X60.22Y-89.9
X60.47Y-66.18
X60.79Y-224.96
X60.87Y-172.73
X61.26Y-206.77
X61.53Y-130.16
X61.634Y-223.774
X62.11Y-238.1
X62.15Y-146.74
X62.17Y-99.46
X62.34Y-190.37
X62.34Y-247.32
X62.35Y-32.66
X62.36Y-103.74
X62.39Y-95.81
X62.44Y-56.38
X62.484Y-222.25
X62.5Y-143.03
X62.52Y-269.64
X62.55Y-194.43
X62.56Y-127.45
X62.62Y-151.12
X62.738Y-242.824
X62.79Y-198.5
X62.95Y-51.93
X63.03Y-47.92
X64.37Y-274.29
X64.382Y-37.36
X64.382Y-61.007
X64.382Y-84.782
X64.382Y-108.556
X64.382Y-132.153
X64.382Y-155.902
X64.382Y-179.625
X64.382Y-203.197
X64.382Y-226.948
X64.382Y-250.638
X64.516Y-222.25
X64.516Y-223.52
X65.42Y-26.52
X66.2Y-227.1
X66.802Y-242.824
X68.27Y-27.95
X71.26Y-29.3
X72.898Y-228.6
X74.5Y-30.83
X77.58Y-251.65
X77.66Y-221.34
X77.724Y-228.092
X77.724Y-233.934
X78.07Y-270.92
X78.232Y-212.09
X78.31Y-103.78
X78.33Y-127.45
X78.37Y-32.68
X78.4Y-80.06
X78.41Y-56.33
X78.668Y-272.36
X78.74Y-247.396
X79.94Y-148.77
X79.94Y-172.71
X79.96Y-196.26
X80.264Y-213.36
X80.7Y-134.12
X80.72Y-86.73
X80.79Y-181.52
X80.8Y-63.01
X80.84Y-39.32
X80.87Y-157.78
X80.93Y-110.36
X80.93Y-205.15
X81.0Y-276.3
X81.28Y-214.63
X81.4Y-103.75
X81.47Y-56.37
X81.47Y-80.06
X81.49Y-32.67
X81.95Y-161.02
X82.01Y-279.49
X82.04Y-184.69
X82.05Y-137.35
X82.07Y-208.4
X82.15Y-113.59
X82.17Y-125.52
X82.29Y-66.21
X82.296Y-215.9
X82.32Y-89.9
X82.38Y-42.49
X82.83Y-196.33
X82.84Y-172.59
X82.88Y-148.81
X83.1Y-254.55
X83.566Y-217.678
X84.24Y-245.872
X84.36Y-82.73
X84.36Y-106.42
X84.36Y-130.12
X84.36Y-153.77
X84.36Y-177.54
X84.36Y-201.26
X84.41Y-59.06
X84.41Y-271.15
X84.489Y-230.539
X84.582Y-222.25
X84.666Y-224.96
X85.338Y-248.66
X86.188Y-226.924
X86.188Y-233.747
X86.22Y-274.37
X86.226Y-37.36
X86.226Y-61.058
X86.226Y-84.782
X86.226Y-108.48
X86.226Y-132.127
X86.226Y-155.876
X86.226Y-179.549
X86.226Y-203.273
X86.226Y-250.624
X87.43Y-235.63
X87.68Y-259.79
X87.87Y-50.09
X87.87Y-95.66
X88.0Y-143.28
X88.01Y-192.25
X88.529Y-257.25
X88.89Y-40.39
X89.67Y-154.96
X89.7Y-35.36
X89.94Y-261.86
X90.13Y-100.18
X91.07Y-59.06
X92.04Y-201.26
X92.21Y-272.36
X92.372Y-224.96
X92.92Y-100.05
X92.96Y-248.66
X93.81Y-150.47
X94.0Y-88.28
X94.11Y-90.95
X97.02Y-36.46
X97.16Y-90.96
X97.17Y-88.26
X98.08Y-98.28
X98.12Y-93.69
X98.52Y-251.54
X98.62Y-148.22
X98.63Y-33.88
X98.83Y-228.49
X99.05Y-39.22
X99.17Y-107.56
X99.26Y-156.19
X99.55Y-109.47
X100.0Y-127.51
X100.09Y-151.16
X100.33Y-246.38
X100.34Y-32.66
X100.37Y-80.08
X100.4Y-56.36
X100.46Y-174.86
X100.584Y-269.24
X101.63Y-131.26
X101.69Y-60.16
X101.69Y-83.86
X101.69Y-178.66
X101.69Y-202.36
X101.854Y-219.964
X101.94Y-196.01
X101.95Y-253.97
X102.362Y-277.368
X102.39Y-105.59
X102.67Y-62.99
X102.73Y-39.29
X102.74Y-86.69
X102.85Y-181.48
X103.04Y-205.16
X103.05Y-134.09
X103.39Y-127.44
X103.41Y-103.71
X103.42Y-32.67
X103.42Y-80.06
X103.44Y-228.67
X103.46Y-56.33
X103.62Y-271.14
X103.65Y-276.57
X103.9Y-208.4
X103.92Y-279.53
X104.04Y-89.89
X104.08Y-184.7
X104.12Y-113.6
X104.16Y-66.22
X104.16Y-137.3
X104.37Y-42.53
X104.82Y-196.01
X105.08Y-176.74
X105.17Y-159.62
X105.664Y-233.934
X105.664Y-263.652
X105.664Y-266.192
X105.9Y-135.74
X105.95Y-267.73
X105.98Y-64.51
X106.01Y-88.05
X106.17Y-271.08
X106.172Y-225.044
X106.172Y-254.254
X106.19Y-182.81
X106.52Y-245.98
X106.55Y-222.25
X106.65Y-103.76
X106.81Y-151.12
X107.02Y-177.84
X107.14Y-130.18
X107.22Y-35.31
X107.5Y-269.66
X107.52Y-273.11
X107.62Y-225.71
X107.64Y-228.21
X109.36Y-32.56
X110.54Y-241.65
X110.65Y-38.25
X110.99Y-43.32
X111.6Y-274.5
X111.67Y-279.59
X111.91Y-32.53
T2
X90.9Y-116.85
X97.2Y-118.0
T3
X92.79Y-165.96
X104.22Y-165.62
T0
M30
