%TF.GenerationSoftware,KiCad,Pcbnew,(6.0.7-1)-1*%
%TF.CreationDate,2022-12-02T15:50:45+01:00*%
%TF.ProjectId,3x8,3378382e-6b69-4636-9164-5f7063625858,rev?*%
%TF.SameCoordinates,Original*%
%TF.FileFunction,Soldermask,Top*%
%TF.FilePolarity,Negative*%
%FSLAX46Y46*%
G04 Gerber Fmt 4.6, Leading zero omitted, Abs format (unit mm)*
G04 Created by KiCad (PCBNEW (6.0.7-1)-1) date 2022-12-02 15:50:45*
%MOMM*%
%LPD*%
G01*
G04 APERTURE LIST*
G04 Aperture macros list*
%AMRoundRect*
0 Rectangle with rounded corners*
0 $1 Rounding radius*
0 $2 $3 $4 $5 $6 $7 $8 $9 X,Y pos of 4 corners*
0 Add a 4 corners polygon primitive as box body*
4,1,4,$2,$3,$4,$5,$6,$7,$8,$9,$2,$3,0*
0 Add four circle primitives for the rounded corners*
1,1,$1+$1,$2,$3*
1,1,$1+$1,$4,$5*
1,1,$1+$1,$6,$7*
1,1,$1+$1,$8,$9*
0 Add four rect primitives between the rounded corners*
20,1,$1+$1,$2,$3,$4,$5,0*
20,1,$1+$1,$4,$5,$6,$7,0*
20,1,$1+$1,$6,$7,$8,$9,0*
20,1,$1+$1,$8,$9,$2,$3,0*%
G04 Aperture macros list end*
%ADD10RoundRect,0.050000X0.750000X0.500000X-0.750000X0.500000X-0.750000X-0.500000X0.750000X-0.500000X0*%
%ADD11RoundRect,0.050000X-0.750000X-0.500000X0.750000X-0.500000X0.750000X0.500000X-0.750000X0.500000X0*%
%ADD12RoundRect,0.050000X0.400000X-0.450000X0.400000X0.450000X-0.400000X0.450000X-0.400000X-0.450000X0*%
%ADD13RoundRect,0.300000X0.325000X0.650000X-0.325000X0.650000X-0.325000X-0.650000X0.325000X-0.650000X0*%
%ADD14C,3.100000*%
%ADD15RoundRect,0.300000X-0.325000X-0.650000X0.325000X-0.650000X0.325000X0.650000X-0.325000X0.650000X0*%
G04 APERTURE END LIST*
D10*
%TO.C,D1*%
X25526201Y-44296401D03*
X25526201Y-47496401D03*
X30426201Y-47496401D03*
X30426201Y-44296401D03*
%TD*%
%TO.C,D2*%
X47526201Y-44296401D03*
X47526201Y-47496401D03*
X52426201Y-47496401D03*
X52426201Y-44296401D03*
%TD*%
%TO.C,D3*%
X69526201Y-44296401D03*
X69526201Y-47496401D03*
X74426201Y-47496401D03*
X74426201Y-44296401D03*
%TD*%
%TO.C,D4*%
X91526201Y-44296401D03*
X91526201Y-47496401D03*
X96426201Y-47496401D03*
X96426201Y-44296401D03*
%TD*%
%TO.C,D5*%
X113526201Y-44296401D03*
X113526201Y-47496401D03*
X118426201Y-47496401D03*
X118426201Y-44296401D03*
%TD*%
%TO.C,D6*%
X135526201Y-44296401D03*
X135526201Y-47496401D03*
X140426201Y-47496401D03*
X140426201Y-44296401D03*
%TD*%
%TO.C,D7*%
X157526201Y-44296401D03*
X157526201Y-47496401D03*
X162426201Y-47496401D03*
X162426201Y-44296401D03*
%TD*%
%TO.C,D8*%
X179526201Y-44296401D03*
X179526201Y-47496401D03*
X184426201Y-47496401D03*
X184426201Y-44296401D03*
%TD*%
D11*
%TO.C,D9*%
X30426201Y-71196401D03*
X30426201Y-67996401D03*
X25526201Y-67996401D03*
X25526201Y-71196401D03*
%TD*%
%TO.C,D10*%
X52426201Y-71196401D03*
X52426201Y-67996401D03*
X47526201Y-67996401D03*
X47526201Y-71196401D03*
%TD*%
%TO.C,D11*%
X74426201Y-71196401D03*
X74426201Y-67996401D03*
X69526201Y-67996401D03*
X69526201Y-71196401D03*
%TD*%
%TO.C,D12*%
X96426201Y-71196401D03*
X96426201Y-67996401D03*
X91526201Y-67996401D03*
X91526201Y-71196401D03*
%TD*%
%TO.C,D13*%
X118426201Y-71196401D03*
X118426201Y-67996401D03*
X113526201Y-67996401D03*
X113526201Y-71196401D03*
%TD*%
%TO.C,D14*%
X140426201Y-71196401D03*
X140426201Y-67996401D03*
X135526201Y-67996401D03*
X135526201Y-71196401D03*
%TD*%
%TO.C,D15*%
X162426201Y-71196401D03*
X162426201Y-67996401D03*
X157526201Y-67996401D03*
X157526201Y-71196401D03*
%TD*%
%TO.C,D16*%
X184426201Y-71196401D03*
X184426201Y-67996401D03*
X179526201Y-67996401D03*
X179526201Y-71196401D03*
%TD*%
D10*
%TO.C,D17*%
X25526201Y-91696401D03*
X25526201Y-94896401D03*
X30426201Y-94896401D03*
X30426201Y-91696401D03*
%TD*%
%TO.C,D18*%
X47526201Y-91696401D03*
X47526201Y-94896401D03*
X52426201Y-94896401D03*
X52426201Y-91696401D03*
%TD*%
%TO.C,D19*%
X69526201Y-91696401D03*
X69526201Y-94896401D03*
X74426201Y-94896401D03*
X74426201Y-91696401D03*
%TD*%
%TO.C,D20*%
X91526201Y-91696401D03*
X91526201Y-94896401D03*
X96426201Y-94896401D03*
X96426201Y-91696401D03*
%TD*%
%TO.C,D21*%
X113526201Y-91696401D03*
X113526201Y-94896401D03*
X118426201Y-94896401D03*
X118426201Y-91696401D03*
%TD*%
%TO.C,D22*%
X135526201Y-91696401D03*
X135526201Y-94896401D03*
X140426201Y-94896401D03*
X140426201Y-91696401D03*
%TD*%
%TO.C,D23*%
X157526201Y-91696401D03*
X157526201Y-94896401D03*
X162426201Y-94896401D03*
X162426201Y-91696401D03*
%TD*%
%TO.C,D24*%
X179526201Y-91696401D03*
X179526201Y-94896401D03*
X184426201Y-94896401D03*
X184426201Y-91696401D03*
%TD*%
D12*
%TO.C,U1*%
X27050000Y-42350000D03*
X28950000Y-42350000D03*
X28000000Y-40350000D03*
%TD*%
%TO.C,U2*%
X49050000Y-42350000D03*
X50950000Y-42350000D03*
X50000000Y-40350000D03*
%TD*%
%TO.C,U3*%
X71050000Y-42350000D03*
X72950000Y-42350000D03*
X72000000Y-40350000D03*
%TD*%
%TO.C,U4*%
X93050000Y-42350000D03*
X94950000Y-42350000D03*
X94000000Y-40350000D03*
%TD*%
%TO.C,U5*%
X115050000Y-42350000D03*
X116950000Y-42350000D03*
X116000000Y-40350000D03*
%TD*%
%TO.C,U6*%
X137050000Y-42350000D03*
X138950000Y-42350000D03*
X138000000Y-40350000D03*
%TD*%
%TO.C,U7*%
X159050000Y-42350000D03*
X160950000Y-42350000D03*
X160000000Y-40350000D03*
%TD*%
%TO.C,U8*%
X181050000Y-42350000D03*
X182950000Y-42350000D03*
X182000000Y-40350000D03*
%TD*%
%TO.C,U9*%
X27050000Y-66050000D03*
X28950000Y-66050000D03*
X28000000Y-64050000D03*
%TD*%
%TO.C,U10*%
X49050000Y-66050000D03*
X50950000Y-66050000D03*
X50000000Y-64050000D03*
%TD*%
%TO.C,U11*%
X71050000Y-66050000D03*
X72950000Y-66050000D03*
X72000000Y-64050000D03*
%TD*%
%TO.C,U12*%
X93050000Y-66050000D03*
X94950000Y-66050000D03*
X94000000Y-64050000D03*
%TD*%
%TO.C,U13*%
X115050000Y-66050000D03*
X116950000Y-66050000D03*
X116000000Y-64050000D03*
%TD*%
%TO.C,U14*%
X137050000Y-66050000D03*
X138950000Y-66050000D03*
X138000000Y-64050000D03*
%TD*%
%TO.C,U15*%
X159050000Y-66050000D03*
X160950000Y-66050000D03*
X160000000Y-64050000D03*
%TD*%
%TO.C,U16*%
X181050000Y-66050000D03*
X182950000Y-66050000D03*
X182000000Y-64050000D03*
%TD*%
%TO.C,U17*%
X27050000Y-89750000D03*
X28950000Y-89750000D03*
X28000000Y-87750000D03*
%TD*%
%TO.C,U18*%
X49050000Y-89750000D03*
X50950000Y-89750000D03*
X50000000Y-87750000D03*
%TD*%
%TO.C,U19*%
X71050000Y-89750000D03*
X72950000Y-89750000D03*
X72000000Y-87750000D03*
%TD*%
%TO.C,U20*%
X93050000Y-89750000D03*
X94950000Y-89750000D03*
X94000000Y-87750000D03*
%TD*%
%TO.C,U21*%
X115050000Y-89750000D03*
X116950000Y-89750000D03*
X116000000Y-87750000D03*
%TD*%
%TO.C,U22*%
X137050000Y-89750000D03*
X138950000Y-89750000D03*
X138000000Y-87750000D03*
%TD*%
%TO.C,U23*%
X159050000Y-89750000D03*
X160950000Y-89750000D03*
X160000000Y-87750000D03*
%TD*%
%TO.C,U24*%
X181050000Y-89750000D03*
X182950000Y-89750000D03*
X182000000Y-87750000D03*
%TD*%
D13*
%TO.C,C1*%
X29351800Y-37650000D03*
X26401800Y-37650000D03*
%TD*%
%TO.C,C5*%
X117351800Y-37650000D03*
X114401800Y-37650000D03*
%TD*%
%TO.C,C6*%
X139351800Y-37650000D03*
X136401800Y-37650000D03*
%TD*%
D14*
%TO.C,M2*%
X105980000Y-53920000D03*
%TD*%
D13*
%TO.C,C22*%
X139351800Y-85050000D03*
X136401800Y-85050000D03*
%TD*%
%TO.C,C19*%
X73351800Y-85050000D03*
X70401800Y-85050000D03*
%TD*%
%TO.C,C20*%
X95351800Y-85050000D03*
X92401800Y-85050000D03*
%TD*%
%TO.C,C18*%
X51351800Y-85050000D03*
X48401800Y-85050000D03*
%TD*%
%TO.C,C24*%
X183351800Y-85050000D03*
X180401800Y-85050000D03*
%TD*%
%TO.C,C17*%
X29351800Y-85050000D03*
X26401800Y-85050000D03*
%TD*%
%TO.C,C7*%
X161351800Y-37650000D03*
X158401800Y-37650000D03*
%TD*%
D15*
%TO.C,C9*%
X26401800Y-61350000D03*
X29351800Y-61350000D03*
%TD*%
%TO.C,C14*%
X136401800Y-61350000D03*
X139351800Y-61350000D03*
%TD*%
D13*
%TO.C,C3*%
X73351800Y-37650000D03*
X70401800Y-37650000D03*
%TD*%
%TO.C,C23*%
X161351800Y-85050000D03*
X158401800Y-85050000D03*
%TD*%
D15*
%TO.C,C15*%
X158401800Y-61350000D03*
X161351800Y-61350000D03*
%TD*%
D14*
%TO.C,M3*%
X170850000Y-54720000D03*
%TD*%
D13*
%TO.C,C4*%
X95351800Y-37650000D03*
X92401800Y-37650000D03*
%TD*%
D15*
%TO.C,C10*%
X48401800Y-61350000D03*
X51351800Y-61350000D03*
%TD*%
D13*
%TO.C,C8*%
X183351800Y-37650000D03*
X180401800Y-37650000D03*
%TD*%
D15*
%TO.C,C16*%
X180401800Y-61350000D03*
X183351800Y-61350000D03*
%TD*%
%TO.C,C13*%
X114401800Y-61350000D03*
X117351800Y-61350000D03*
%TD*%
D13*
%TO.C,C2*%
X51351800Y-37650000D03*
X48401800Y-37650000D03*
%TD*%
D15*
%TO.C,C11*%
X70401800Y-61350000D03*
X73351800Y-61350000D03*
%TD*%
%TO.C,C12*%
X92401800Y-61350000D03*
X95351800Y-61350000D03*
%TD*%
D14*
%TO.C,M1*%
X39540000Y-54160000D03*
%TD*%
D13*
%TO.C,C21*%
X117351800Y-85050000D03*
X114401800Y-85050000D03*
%TD*%
M02*
