M48
; DRILL file {KiCad (6.0.7-1)-1} date 2022 December 02, Friday 15:50:48
; FORMAT={-:-/ absolute / metric / decimal}
; #@! TF.CreationDate,2022-12-02T15:50:48+01:00
; #@! TF.GenerationSoftware,Kicad,Pcbnew,(6.0.7-1)-1
; #@! TF.FileFunction,Plated,1,2,PTH
FMAT,2
METRIC
; #@! TA.AperFunction,Plated,PTH,ViaDrill
T1C0.400
%
G90
G05
T1
X22.62Y-40.14
X25.526Y-89.886
X25.86Y-98.22
X27.86Y-61.39
X27.95Y-41.45
X28.87Y-71.13
X30.01Y-88.85
X30.17Y-40.35
X30.76Y-81.6
X30.79Y-74.24
X30.81Y-79.11
X30.883Y-65.147
X31.01Y-76.66
X31.25Y-85.02
X31.56Y-37.7
X31.664Y-48.446
X31.934Y-94.896
X32.842Y-42.35
X32.842Y-65.997
X32.842Y-78.732
X32.842Y-89.772
X46.48Y-43.25
X46.48Y-90.65
X46.54Y-37.7
X46.576Y-67.046
X46.64Y-85.11
X46.65Y-61.36
X49.9Y-61.42
X49.92Y-85.05
X50.03Y-37.7
X51.284Y-48.446
X51.476Y-72.146
X51.476Y-95.846
X54.686Y-42.35
X54.686Y-66.048
X54.686Y-73.586
X54.686Y-89.772
X61.05Y-87.75
X61.16Y-40.35
X61.16Y-64.07
X68.48Y-43.25
X68.48Y-90.65
X68.54Y-37.7
X68.576Y-67.046
X68.64Y-85.11
X68.65Y-61.36
X71.9Y-61.42
X71.92Y-85.05
X72.03Y-37.7
X73.284Y-48.446
X73.476Y-72.146
X73.476Y-95.846
X77.16Y-89.81
X77.17Y-42.36
X77.17Y-66.02
X77.17Y-76.18
X90.48Y-43.25
X90.48Y-90.65
X90.54Y-37.7
X90.576Y-67.046
X90.64Y-85.11
X90.65Y-61.36
X93.9Y-61.42
X93.92Y-85.05
X94.03Y-37.7
X95.284Y-48.446
X95.476Y-72.146
X95.476Y-95.846
X98.545Y-42.35
X98.545Y-66.004
X98.545Y-79.925
X98.545Y-89.753
X101.64Y-77.44
X102.29Y-66.95
X102.65Y-81.25
X102.72Y-82.79
X102.82Y-76.17
X102.86Y-78.72
X106.69Y-74.91
X106.69Y-81.26
X107.2Y-82.98
X107.34Y-77.44
X107.67Y-78.71
X107.81Y-79.96
X107.84Y-76.21
X108.14Y-73.65
X111.87Y-76.16
X111.92Y-74.93
X112.48Y-43.25
X112.48Y-90.65
X112.54Y-37.7
X112.576Y-67.046
X112.62Y-78.75
X112.64Y-85.11
X112.65Y-61.36
X115.9Y-61.42
X115.92Y-85.05
X116.03Y-37.7
X117.284Y-48.446
X117.476Y-72.146
X117.476Y-95.846
X120.75Y-89.7
X120.777Y-42.35
X120.777Y-66.074
X120.777Y-73.493
X134.48Y-43.25
X134.48Y-90.65
X134.54Y-37.7
X134.576Y-67.046
X134.64Y-85.11
X134.65Y-61.36
X137.9Y-61.42
X137.92Y-85.05
X138.03Y-37.7
X139.284Y-48.446
X139.476Y-72.146
X139.476Y-95.846
X143.459Y-42.35
X143.459Y-66.074
X143.459Y-74.891
X143.459Y-89.797
X146.314Y-43.346
X146.396Y-72.104
X146.396Y-90.746
X150.574Y-95.846
X150.586Y-48.446
X150.586Y-66.994
X156.48Y-43.25
X156.48Y-90.65
X156.54Y-37.7
X156.576Y-67.046
X156.64Y-85.11
X156.65Y-61.36
X159.9Y-61.42
X159.92Y-85.05
X160.03Y-37.7
X161.284Y-48.446
X161.476Y-72.146
X161.476Y-95.846
X165.12Y-89.76
X165.125Y-42.35
X165.125Y-66.15
X165.125Y-79.995
X174.67Y-65.15
X174.84Y-41.45
X176.03Y-88.85
X177.944Y-95.846
X178.23Y-82.98
X178.29Y-73.65
X178.48Y-43.25
X178.48Y-90.65
X178.54Y-37.7
X178.576Y-67.046
X178.64Y-85.11
X178.65Y-61.36
X178.75Y-79.3
X179.03Y-75.23
X180.03Y-40.35
X181.9Y-61.42
X182.981Y-71.391
X184.201Y-93.25
X184.42Y-39.8
X184.44Y-46.06
X184.97Y-96.58
X185.05Y-85.06
X186.639Y-42.35
X186.639Y-66.074
X186.639Y-77.241
X186.639Y-89.848
T0
M30
