%TF.GenerationSoftware,KiCad,Pcbnew,(6.0.7-1)-1*%
%TF.CreationDate,2022-12-02T15:50:45+01:00*%
%TF.ProjectId,3x8,3378382e-6b69-4636-9164-5f7063625858,rev?*%
%TF.SameCoordinates,Original*%
%TF.FileFunction,Legend,Bot*%
%TF.FilePolarity,Positive*%
%FSLAX46Y46*%
G04 Gerber Fmt 4.6, Leading zero omitted, Abs format (unit mm)*
G04 Created by KiCad (PCBNEW (6.0.7-1)-1) date 2022-12-02 15:50:45*
%MOMM*%
%LPD*%
G01*
G04 APERTURE LIST*
%ADD10C,0.150000*%
%ADD11C,0.120000*%
G04 APERTURE END LIST*
D10*
%TO.C,J19*%
X189289523Y-78632380D02*
X189289523Y-79346666D01*
X189337142Y-79489523D01*
X189432380Y-79584761D01*
X189575238Y-79632380D01*
X189670476Y-79632380D01*
X188289523Y-79632380D02*
X188860952Y-79632380D01*
X188575238Y-79632380D02*
X188575238Y-78632380D01*
X188670476Y-78775238D01*
X188765714Y-78870476D01*
X188860952Y-78918095D01*
X187813333Y-79632380D02*
X187622857Y-79632380D01*
X187527619Y-79584761D01*
X187480000Y-79537142D01*
X187384761Y-79394285D01*
X187337142Y-79203809D01*
X187337142Y-78822857D01*
X187384761Y-78727619D01*
X187432380Y-78680000D01*
X187527619Y-78632380D01*
X187718095Y-78632380D01*
X187813333Y-78680000D01*
X187860952Y-78727619D01*
X187908571Y-78822857D01*
X187908571Y-79060952D01*
X187860952Y-79156190D01*
X187813333Y-79203809D01*
X187718095Y-79251428D01*
X187527619Y-79251428D01*
X187432380Y-79203809D01*
X187384761Y-79156190D01*
X187337142Y-79060952D01*
%TO.C,J16*%
X22599523Y-91922380D02*
X22599523Y-92636666D01*
X22647142Y-92779523D01*
X22742380Y-92874761D01*
X22885238Y-92922380D01*
X22980476Y-92922380D01*
X21599523Y-92922380D02*
X22170952Y-92922380D01*
X21885238Y-92922380D02*
X21885238Y-91922380D01*
X21980476Y-92065238D01*
X22075714Y-92160476D01*
X22170952Y-92208095D01*
X20742380Y-91922380D02*
X20932857Y-91922380D01*
X21028095Y-91970000D01*
X21075714Y-92017619D01*
X21170952Y-92160476D01*
X21218571Y-92350952D01*
X21218571Y-92731904D01*
X21170952Y-92827142D01*
X21123333Y-92874761D01*
X21028095Y-92922380D01*
X20837619Y-92922380D01*
X20742380Y-92874761D01*
X20694761Y-92827142D01*
X20647142Y-92731904D01*
X20647142Y-92493809D01*
X20694761Y-92398571D01*
X20742380Y-92350952D01*
X20837619Y-92303333D01*
X21028095Y-92303333D01*
X21123333Y-92350952D01*
X21170952Y-92398571D01*
X21218571Y-92493809D01*
%TO.C,J2*%
X45182380Y-33216666D02*
X45896666Y-33216666D01*
X46039523Y-33169047D01*
X46134761Y-33073809D01*
X46182380Y-32930952D01*
X46182380Y-32835714D01*
X45277619Y-33645238D02*
X45230000Y-33692857D01*
X45182380Y-33788095D01*
X45182380Y-34026190D01*
X45230000Y-34121428D01*
X45277619Y-34169047D01*
X45372857Y-34216666D01*
X45468095Y-34216666D01*
X45610952Y-34169047D01*
X46182380Y-33597619D01*
X46182380Y-34216666D01*
%TO.C,J13*%
X189019523Y-55457380D02*
X189019523Y-56171666D01*
X189067142Y-56314523D01*
X189162380Y-56409761D01*
X189305238Y-56457380D01*
X189400476Y-56457380D01*
X188019523Y-56457380D02*
X188590952Y-56457380D01*
X188305238Y-56457380D02*
X188305238Y-55457380D01*
X188400476Y-55600238D01*
X188495714Y-55695476D01*
X188590952Y-55743095D01*
X187686190Y-55457380D02*
X187067142Y-55457380D01*
X187400476Y-55838333D01*
X187257619Y-55838333D01*
X187162380Y-55885952D01*
X187114761Y-55933571D01*
X187067142Y-56028809D01*
X187067142Y-56266904D01*
X187114761Y-56362142D01*
X187162380Y-56409761D01*
X187257619Y-56457380D01*
X187543333Y-56457380D01*
X187638571Y-56409761D01*
X187686190Y-56362142D01*
%TO.C,UI1*%
X106764284Y-76260000D02*
X107573808Y-76260000D01*
X107669046Y-76307619D01*
X107716665Y-76355238D01*
X107764284Y-76450476D01*
X107764284Y-76640952D01*
X107716665Y-76736190D01*
X107669046Y-76783809D01*
X107573808Y-76831428D01*
X106764284Y-76831428D01*
X107764284Y-77307619D02*
X106764284Y-77307619D01*
X107764284Y-78307619D02*
X107764284Y-77736190D01*
X107764284Y-78021904D02*
X106764284Y-78021904D01*
X106907142Y-77926666D01*
X107002380Y-77831428D01*
X107049999Y-77736190D01*
%TO.C,J14*%
X22329523Y-47832380D02*
X22329523Y-48546666D01*
X22377142Y-48689523D01*
X22472380Y-48784761D01*
X22615238Y-48832380D01*
X22710476Y-48832380D01*
X21329523Y-48832380D02*
X21900952Y-48832380D01*
X21615238Y-48832380D02*
X21615238Y-47832380D01*
X21710476Y-47975238D01*
X21805714Y-48070476D01*
X21900952Y-48118095D01*
X20472380Y-48165714D02*
X20472380Y-48832380D01*
X20710476Y-47784761D02*
X20948571Y-48499047D01*
X20329523Y-48499047D01*
%TO.C,J17*%
X189019523Y-91982380D02*
X189019523Y-92696666D01*
X189067142Y-92839523D01*
X189162380Y-92934761D01*
X189305238Y-92982380D01*
X189400476Y-92982380D01*
X188019523Y-92982380D02*
X188590952Y-92982380D01*
X188305238Y-92982380D02*
X188305238Y-91982380D01*
X188400476Y-92125238D01*
X188495714Y-92220476D01*
X188590952Y-92268095D01*
X187686190Y-91982380D02*
X187019523Y-91982380D01*
X187448095Y-92982380D01*
%TO.C,J3*%
X89182380Y-33216666D02*
X89896666Y-33216666D01*
X90039523Y-33169047D01*
X90134761Y-33073809D01*
X90182380Y-32930952D01*
X90182380Y-32835714D01*
X89182380Y-33597619D02*
X89182380Y-34216666D01*
X89563333Y-33883333D01*
X89563333Y-34026190D01*
X89610952Y-34121428D01*
X89658571Y-34169047D01*
X89753809Y-34216666D01*
X89991904Y-34216666D01*
X90087142Y-34169047D01*
X90134761Y-34121428D01*
X90182380Y-34026190D01*
X90182380Y-33740476D01*
X90134761Y-33645238D01*
X90087142Y-33597619D01*
%TO.C,CI1*%
X106494761Y-69877142D02*
X106542380Y-69924761D01*
X106685238Y-69972380D01*
X106780476Y-69972380D01*
X106923333Y-69924761D01*
X107018571Y-69829523D01*
X107066190Y-69734285D01*
X107113809Y-69543809D01*
X107113809Y-69400952D01*
X107066190Y-69210476D01*
X107018571Y-69115238D01*
X106923333Y-69020000D01*
X106780476Y-68972380D01*
X106685238Y-68972380D01*
X106542380Y-69020000D01*
X106494761Y-69067619D01*
X106066190Y-69972380D02*
X106066190Y-68972380D01*
X105066190Y-69972380D02*
X105637619Y-69972380D01*
X105351904Y-69972380D02*
X105351904Y-68972380D01*
X105447142Y-69115238D01*
X105542380Y-69210476D01*
X105637619Y-69258095D01*
%TO.C,J20*%
X22329523Y-74562380D02*
X22329523Y-75276666D01*
X22377142Y-75419523D01*
X22472380Y-75514761D01*
X22615238Y-75562380D01*
X22710476Y-75562380D01*
X21900952Y-74657619D02*
X21853333Y-74610000D01*
X21758095Y-74562380D01*
X21520000Y-74562380D01*
X21424761Y-74610000D01*
X21377142Y-74657619D01*
X21329523Y-74752857D01*
X21329523Y-74848095D01*
X21377142Y-74990952D01*
X21948571Y-75562380D01*
X21329523Y-75562380D01*
X20710476Y-74562380D02*
X20615238Y-74562380D01*
X20520000Y-74610000D01*
X20472380Y-74657619D01*
X20424761Y-74752857D01*
X20377142Y-74943333D01*
X20377142Y-75181428D01*
X20424761Y-75371904D01*
X20472380Y-75467142D01*
X20520000Y-75514761D01*
X20615238Y-75562380D01*
X20710476Y-75562380D01*
X20805714Y-75514761D01*
X20853333Y-75467142D01*
X20900952Y-75371904D01*
X20948571Y-75181428D01*
X20948571Y-74943333D01*
X20900952Y-74752857D01*
X20853333Y-74657619D01*
X20805714Y-74610000D01*
X20710476Y-74562380D01*
%TO.C,J18*%
X22329523Y-80972380D02*
X22329523Y-81686666D01*
X22377142Y-81829523D01*
X22472380Y-81924761D01*
X22615238Y-81972380D01*
X22710476Y-81972380D01*
X21329523Y-81972380D02*
X21900952Y-81972380D01*
X21615238Y-81972380D02*
X21615238Y-80972380D01*
X21710476Y-81115238D01*
X21805714Y-81210476D01*
X21900952Y-81258095D01*
X20758095Y-81400952D02*
X20853333Y-81353333D01*
X20900952Y-81305714D01*
X20948571Y-81210476D01*
X20948571Y-81162857D01*
X20900952Y-81067619D01*
X20853333Y-81020000D01*
X20758095Y-80972380D01*
X20567619Y-80972380D01*
X20472380Y-81020000D01*
X20424761Y-81067619D01*
X20377142Y-81162857D01*
X20377142Y-81210476D01*
X20424761Y-81305714D01*
X20472380Y-81353333D01*
X20567619Y-81400952D01*
X20758095Y-81400952D01*
X20853333Y-81448571D01*
X20900952Y-81496190D01*
X20948571Y-81591428D01*
X20948571Y-81781904D01*
X20900952Y-81877142D01*
X20853333Y-81924761D01*
X20758095Y-81972380D01*
X20567619Y-81972380D01*
X20472380Y-81924761D01*
X20424761Y-81877142D01*
X20377142Y-81781904D01*
X20377142Y-81591428D01*
X20424761Y-81496190D01*
X20472380Y-81448571D01*
X20567619Y-81400952D01*
%TO.C,J10*%
X24982380Y-32740476D02*
X25696666Y-32740476D01*
X25839523Y-32692857D01*
X25934761Y-32597619D01*
X25982380Y-32454761D01*
X25982380Y-32359523D01*
X25982380Y-33740476D02*
X25982380Y-33169047D01*
X25982380Y-33454761D02*
X24982380Y-33454761D01*
X25125238Y-33359523D01*
X25220476Y-33264285D01*
X25268095Y-33169047D01*
X24982380Y-34359523D02*
X24982380Y-34454761D01*
X25030000Y-34550000D01*
X25077619Y-34597619D01*
X25172857Y-34645238D01*
X25363333Y-34692857D01*
X25601428Y-34692857D01*
X25791904Y-34645238D01*
X25887142Y-34597619D01*
X25934761Y-34550000D01*
X25982380Y-34454761D01*
X25982380Y-34359523D01*
X25934761Y-34264285D01*
X25887142Y-34216666D01*
X25791904Y-34169047D01*
X25601428Y-34121428D01*
X25363333Y-34121428D01*
X25172857Y-34169047D01*
X25077619Y-34216666D01*
X25030000Y-34264285D01*
X24982380Y-34359523D01*
%TO.C,J21*%
X189289523Y-72222380D02*
X189289523Y-72936666D01*
X189337142Y-73079523D01*
X189432380Y-73174761D01*
X189575238Y-73222380D01*
X189670476Y-73222380D01*
X188860952Y-72317619D02*
X188813333Y-72270000D01*
X188718095Y-72222380D01*
X188480000Y-72222380D01*
X188384761Y-72270000D01*
X188337142Y-72317619D01*
X188289523Y-72412857D01*
X188289523Y-72508095D01*
X188337142Y-72650952D01*
X188908571Y-73222380D01*
X188289523Y-73222380D01*
X187337142Y-73222380D02*
X187908571Y-73222380D01*
X187622857Y-73222380D02*
X187622857Y-72222380D01*
X187718095Y-72365238D01*
X187813333Y-72460476D01*
X187908571Y-72508095D01*
%TO.C,J15*%
X189289523Y-45492380D02*
X189289523Y-46206666D01*
X189337142Y-46349523D01*
X189432380Y-46444761D01*
X189575238Y-46492380D01*
X189670476Y-46492380D01*
X188289523Y-46492380D02*
X188860952Y-46492380D01*
X188575238Y-46492380D02*
X188575238Y-45492380D01*
X188670476Y-45635238D01*
X188765714Y-45730476D01*
X188860952Y-45778095D01*
X187384761Y-45492380D02*
X187860952Y-45492380D01*
X187908571Y-45968571D01*
X187860952Y-45920952D01*
X187765714Y-45873333D01*
X187527619Y-45873333D01*
X187432380Y-45920952D01*
X187384761Y-45968571D01*
X187337142Y-46063809D01*
X187337142Y-46301904D01*
X187384761Y-46397142D01*
X187432380Y-46444761D01*
X187527619Y-46492380D01*
X187765714Y-46492380D01*
X187860952Y-46444761D01*
X187908571Y-46397142D01*
%TO.C,J12*%
X22599523Y-55397380D02*
X22599523Y-56111666D01*
X22647142Y-56254523D01*
X22742380Y-56349761D01*
X22885238Y-56397380D01*
X22980476Y-56397380D01*
X21599523Y-56397380D02*
X22170952Y-56397380D01*
X21885238Y-56397380D02*
X21885238Y-55397380D01*
X21980476Y-55540238D01*
X22075714Y-55635476D01*
X22170952Y-55683095D01*
X21218571Y-55492619D02*
X21170952Y-55445000D01*
X21075714Y-55397380D01*
X20837619Y-55397380D01*
X20742380Y-55445000D01*
X20694761Y-55492619D01*
X20647142Y-55587857D01*
X20647142Y-55683095D01*
X20694761Y-55825952D01*
X21266190Y-56397380D01*
X20647142Y-56397380D01*
%TO.C,J5*%
X177182380Y-33216666D02*
X177896666Y-33216666D01*
X178039523Y-33169047D01*
X178134761Y-33073809D01*
X178182380Y-32930952D01*
X178182380Y-32835714D01*
X177182380Y-34169047D02*
X177182380Y-33692857D01*
X177658571Y-33645238D01*
X177610952Y-33692857D01*
X177563333Y-33788095D01*
X177563333Y-34026190D01*
X177610952Y-34121428D01*
X177658571Y-34169047D01*
X177753809Y-34216666D01*
X177991904Y-34216666D01*
X178087142Y-34169047D01*
X178134761Y-34121428D01*
X178182380Y-34026190D01*
X178182380Y-33788095D01*
X178134761Y-33692857D01*
X178087142Y-33645238D01*
%TO.C,J4*%
X133182380Y-33216666D02*
X133896666Y-33216666D01*
X134039523Y-33169047D01*
X134134761Y-33073809D01*
X134182380Y-32930952D01*
X134182380Y-32835714D01*
X133515714Y-34121428D02*
X134182380Y-34121428D01*
X133134761Y-33883333D02*
X133849047Y-33645238D01*
X133849047Y-34264285D01*
D11*
%TO.C,J19*%
X192500000Y-82980000D02*
X183870000Y-82980000D01*
X183870000Y-77780000D02*
X183870000Y-82980000D01*
X192500000Y-77780000D02*
X183870000Y-77780000D01*
X192500000Y-77780000D02*
X192500000Y-82980000D01*
X192500000Y-80380000D02*
X183870000Y-80380000D01*
%TO.C,J16*%
X17490000Y-96330000D02*
X26120000Y-96330000D01*
X17490000Y-88590000D02*
X26120000Y-88590000D01*
X17490000Y-96330000D02*
X17490000Y-88590000D01*
X17490000Y-91190000D02*
X26120000Y-91190000D01*
X26120000Y-96330000D02*
X26120000Y-88590000D01*
X17490000Y-93730000D02*
X26120000Y-93730000D01*
%TO.C,J2*%
X44150000Y-29710000D02*
X44150000Y-32370000D01*
X38950000Y-32370000D02*
X38950000Y-29710000D01*
X38950000Y-29710000D02*
X44150000Y-29710000D01*
X41550000Y-32370000D02*
X41550000Y-29710000D01*
X44150000Y-32370000D02*
X38950000Y-32370000D01*
%TO.C,J13*%
X192510000Y-52145000D02*
X192510000Y-59885000D01*
X183880000Y-52145000D02*
X183880000Y-59885000D01*
X192510000Y-54745000D02*
X183880000Y-54745000D01*
X192510000Y-59885000D02*
X183880000Y-59885000D01*
X192510000Y-52145000D02*
X183880000Y-52145000D01*
X192510000Y-57285000D02*
X183880000Y-57285000D01*
%TO.C,UI1*%
X107361904Y-83140000D02*
X105411904Y-83140000D01*
X107361904Y-73020000D02*
X110811904Y-73020000D01*
X107361904Y-83140000D02*
X109311904Y-83140000D01*
X107361904Y-73020000D02*
X105411904Y-73020000D01*
%TO.C,J14*%
X17500000Y-49780000D02*
X17500000Y-44580000D01*
X17500000Y-49780000D02*
X26130000Y-49780000D01*
X17500000Y-44580000D02*
X26130000Y-44580000D01*
X26130000Y-49780000D02*
X26130000Y-44580000D01*
X17500000Y-47180000D02*
X26130000Y-47180000D01*
%TO.C,J17*%
X192510000Y-88670000D02*
X192510000Y-96410000D01*
X192510000Y-96410000D02*
X183880000Y-96410000D01*
X192510000Y-93810000D02*
X183880000Y-93810000D01*
X183880000Y-88670000D02*
X183880000Y-96410000D01*
X192510000Y-91270000D02*
X183880000Y-91270000D01*
X192510000Y-88670000D02*
X183880000Y-88670000D01*
%TO.C,J3*%
X88150000Y-29710000D02*
X88150000Y-32370000D01*
X82950000Y-32370000D02*
X82950000Y-29710000D01*
X88150000Y-32370000D02*
X82950000Y-32370000D01*
X82950000Y-29710000D02*
X88150000Y-29710000D01*
X85550000Y-32370000D02*
X85550000Y-29710000D01*
%TO.C,CI1*%
X105248748Y-70530000D02*
X106671252Y-70530000D01*
X105248748Y-72350000D02*
X106671252Y-72350000D01*
%TO.C,J20*%
X17500000Y-76510000D02*
X17500000Y-71310000D01*
X17500000Y-73910000D02*
X26130000Y-73910000D01*
X17500000Y-71310000D02*
X26130000Y-71310000D01*
X26130000Y-76510000D02*
X26130000Y-71310000D01*
X17500000Y-76510000D02*
X26130000Y-76510000D01*
%TO.C,J18*%
X17500000Y-80320000D02*
X26130000Y-80320000D01*
X26130000Y-82920000D02*
X26130000Y-77720000D01*
X17500000Y-82920000D02*
X17500000Y-77720000D01*
X17500000Y-77720000D02*
X26130000Y-77720000D01*
X17500000Y-82920000D02*
X26130000Y-82920000D01*
%TO.C,J10*%
X18750000Y-32370000D02*
X18750000Y-29710000D01*
X23950000Y-29710000D02*
X23950000Y-32370000D01*
X18750000Y-29710000D02*
X23950000Y-29710000D01*
X23950000Y-32370000D02*
X18750000Y-32370000D01*
X21350000Y-32370000D02*
X21350000Y-29710000D01*
%TO.C,J21*%
X192500000Y-71370000D02*
X183870000Y-71370000D01*
X192500000Y-73970000D02*
X183870000Y-73970000D01*
X192500000Y-71370000D02*
X192500000Y-76570000D01*
X183870000Y-71370000D02*
X183870000Y-76570000D01*
X192500000Y-76570000D02*
X183870000Y-76570000D01*
%TO.C,J15*%
X192500000Y-44640000D02*
X183870000Y-44640000D01*
X183870000Y-44640000D02*
X183870000Y-49840000D01*
X192500000Y-47240000D02*
X183870000Y-47240000D01*
X192500000Y-49840000D02*
X183870000Y-49840000D01*
X192500000Y-44640000D02*
X192500000Y-49840000D01*
%TO.C,J12*%
X17490000Y-59805000D02*
X17490000Y-52065000D01*
X17490000Y-57205000D02*
X26120000Y-57205000D01*
X17490000Y-54665000D02*
X26120000Y-54665000D01*
X17490000Y-59805000D02*
X26120000Y-59805000D01*
X26120000Y-59805000D02*
X26120000Y-52065000D01*
X17490000Y-52065000D02*
X26120000Y-52065000D01*
%TO.C,J5*%
X170950000Y-32370000D02*
X170950000Y-29710000D01*
X170950000Y-29710000D02*
X176150000Y-29710000D01*
X176150000Y-32370000D02*
X170950000Y-32370000D01*
X173550000Y-32370000D02*
X173550000Y-29710000D01*
X176150000Y-29710000D02*
X176150000Y-32370000D01*
%TO.C,J4*%
X132150000Y-29710000D02*
X132150000Y-32370000D01*
X129550000Y-32370000D02*
X129550000Y-29710000D01*
X132150000Y-32370000D02*
X126950000Y-32370000D01*
X126950000Y-29710000D02*
X132150000Y-29710000D01*
X126950000Y-32370000D02*
X126950000Y-29710000D01*
%TD*%
M02*
