%TF.GenerationSoftware,KiCad,Pcbnew,(6.0.7-1)-1*%
%TF.CreationDate,2022-12-02T15:50:44+01:00*%
%TF.ProjectId,3x8,3378382e-6b69-4636-9164-5f7063625858,rev?*%
%TF.SameCoordinates,Original*%
%TF.FileFunction,Copper,L1,Top*%
%TF.FilePolarity,Positive*%
%FSLAX46Y46*%
G04 Gerber Fmt 4.6, Leading zero omitted, Abs format (unit mm)*
G04 Created by KiCad (PCBNEW (6.0.7-1)-1) date 2022-12-02 15:50:44*
%MOMM*%
%LPD*%
G01*
G04 APERTURE LIST*
G04 Aperture macros list*
%AMRoundRect*
0 Rectangle with rounded corners*
0 $1 Rounding radius*
0 $2 $3 $4 $5 $6 $7 $8 $9 X,Y pos of 4 corners*
0 Add a 4 corners polygon primitive as box body*
4,1,4,$2,$3,$4,$5,$6,$7,$8,$9,$2,$3,0*
0 Add four circle primitives for the rounded corners*
1,1,$1+$1,$2,$3*
1,1,$1+$1,$4,$5*
1,1,$1+$1,$6,$7*
1,1,$1+$1,$8,$9*
0 Add four rect primitives between the rounded corners*
20,1,$1+$1,$2,$3,$4,$5,0*
20,1,$1+$1,$4,$5,$6,$7,0*
20,1,$1+$1,$6,$7,$8,$9,0*
20,1,$1+$1,$8,$9,$2,$3,0*%
G04 Aperture macros list end*
%TA.AperFunction,SMDPad,CuDef*%
%ADD10R,1.500000X1.000000*%
%TD*%
%TA.AperFunction,SMDPad,CuDef*%
%ADD11R,0.800000X0.900000*%
%TD*%
%TA.AperFunction,SMDPad,CuDef*%
%ADD12RoundRect,0.250000X0.325000X0.650000X-0.325000X0.650000X-0.325000X-0.650000X0.325000X-0.650000X0*%
%TD*%
%TA.AperFunction,SMDPad,CuDef*%
%ADD13RoundRect,0.250000X-0.325000X-0.650000X0.325000X-0.650000X0.325000X0.650000X-0.325000X0.650000X0*%
%TD*%
%TA.AperFunction,ViaPad*%
%ADD14C,0.800000*%
%TD*%
%TA.AperFunction,Conductor*%
%ADD15C,0.500000*%
%TD*%
G04 APERTURE END LIST*
D10*
%TO.P,D1,1,VSS*%
%TO.N,GND*%
X25526201Y-44296401D03*
%TO.P,D1,2,DIN*%
%TO.N,LedIn*%
X25526201Y-47496401D03*
%TO.P,D1,3,VDD*%
%TO.N,P*%
X30426201Y-47496401D03*
%TO.P,D1,4,DOUT*%
%TO.N,Net-(D1-Pad4)*%
X30426201Y-44296401D03*
%TD*%
%TO.P,D2,1,VSS*%
%TO.N,GND*%
X47526201Y-44296401D03*
%TO.P,D2,2,DIN*%
%TO.N,Net-(D1-Pad4)*%
X47526201Y-47496401D03*
%TO.P,D2,3,VDD*%
%TO.N,P*%
X52426201Y-47496401D03*
%TO.P,D2,4,DOUT*%
%TO.N,Net-(D2-Pad4)*%
X52426201Y-44296401D03*
%TD*%
%TO.P,D3,1,VSS*%
%TO.N,GND*%
X69526201Y-44296401D03*
%TO.P,D3,2,DIN*%
%TO.N,Net-(D2-Pad4)*%
X69526201Y-47496401D03*
%TO.P,D3,3,VDD*%
%TO.N,P*%
X74426201Y-47496401D03*
%TO.P,D3,4,DOUT*%
%TO.N,Net-(D3-Pad4)*%
X74426201Y-44296401D03*
%TD*%
%TO.P,D4,1,VSS*%
%TO.N,GND*%
X91526201Y-44296401D03*
%TO.P,D4,2,DIN*%
%TO.N,Net-(D3-Pad4)*%
X91526201Y-47496401D03*
%TO.P,D4,3,VDD*%
%TO.N,P*%
X96426201Y-47496401D03*
%TO.P,D4,4,DOUT*%
%TO.N,Net-(D4-Pad4)*%
X96426201Y-44296401D03*
%TD*%
%TO.P,D5,1,VSS*%
%TO.N,GND*%
X113526201Y-44296401D03*
%TO.P,D5,2,DIN*%
%TO.N,Net-(D4-Pad4)*%
X113526201Y-47496401D03*
%TO.P,D5,3,VDD*%
%TO.N,P*%
X118426201Y-47496401D03*
%TO.P,D5,4,DOUT*%
%TO.N,Net-(D5-Pad4)*%
X118426201Y-44296401D03*
%TD*%
%TO.P,D6,1,VSS*%
%TO.N,GND*%
X135526201Y-44296401D03*
%TO.P,D6,2,DIN*%
%TO.N,Net-(D5-Pad4)*%
X135526201Y-47496401D03*
%TO.P,D6,3,VDD*%
%TO.N,P*%
X140426201Y-47496401D03*
%TO.P,D6,4,DOUT*%
%TO.N,Net-(D6-Pad4)*%
X140426201Y-44296401D03*
%TD*%
%TO.P,D7,1,VSS*%
%TO.N,GND*%
X157526201Y-44296401D03*
%TO.P,D7,2,DIN*%
%TO.N,Net-(D6-Pad4)*%
X157526201Y-47496401D03*
%TO.P,D7,3,VDD*%
%TO.N,P*%
X162426201Y-47496401D03*
%TO.P,D7,4,DOUT*%
%TO.N,Net-(D7-Pad4)*%
X162426201Y-44296401D03*
%TD*%
%TO.P,D8,1,VSS*%
%TO.N,GND*%
X179526201Y-44296401D03*
%TO.P,D8,2,DIN*%
%TO.N,Net-(D7-Pad4)*%
X179526201Y-47496401D03*
%TO.P,D8,3,VDD*%
%TO.N,P*%
X184426201Y-47496401D03*
%TO.P,D8,4,DOUT*%
%TO.N,Net-(D16-Pad2)*%
X184426201Y-44296401D03*
%TD*%
%TO.P,D9,1,VSS*%
%TO.N,GND*%
X30426201Y-71196401D03*
%TO.P,D9,2,DIN*%
%TO.N,Net-(D10-Pad4)*%
X30426201Y-67996401D03*
%TO.P,D9,3,VDD*%
%TO.N,P*%
X25526201Y-67996401D03*
%TO.P,D9,4,DOUT*%
%TO.N,Net-(D17-Pad2)*%
X25526201Y-71196401D03*
%TD*%
%TO.P,D10,1,VSS*%
%TO.N,GND*%
X52426201Y-71196401D03*
%TO.P,D10,2,DIN*%
%TO.N,Net-(D10-Pad2)*%
X52426201Y-67996401D03*
%TO.P,D10,3,VDD*%
%TO.N,P*%
X47526201Y-67996401D03*
%TO.P,D10,4,DOUT*%
%TO.N,Net-(D10-Pad4)*%
X47526201Y-71196401D03*
%TD*%
%TO.P,D11,1,VSS*%
%TO.N,GND*%
X74426201Y-71196401D03*
%TO.P,D11,2,DIN*%
%TO.N,Net-(D11-Pad2)*%
X74426201Y-67996401D03*
%TO.P,D11,3,VDD*%
%TO.N,P*%
X69526201Y-67996401D03*
%TO.P,D11,4,DOUT*%
%TO.N,Net-(D10-Pad2)*%
X69526201Y-71196401D03*
%TD*%
%TO.P,D12,1,VSS*%
%TO.N,GND*%
X96426201Y-71196401D03*
%TO.P,D12,2,DIN*%
%TO.N,Net-(D12-Pad2)*%
X96426201Y-67996401D03*
%TO.P,D12,3,VDD*%
%TO.N,P*%
X91526201Y-67996401D03*
%TO.P,D12,4,DOUT*%
%TO.N,Net-(D11-Pad2)*%
X91526201Y-71196401D03*
%TD*%
%TO.P,D13,1,VSS*%
%TO.N,GND*%
X118426201Y-71196401D03*
%TO.P,D13,2,DIN*%
%TO.N,Net-(D13-Pad2)*%
X118426201Y-67996401D03*
%TO.P,D13,3,VDD*%
%TO.N,P*%
X113526201Y-67996401D03*
%TO.P,D13,4,DOUT*%
%TO.N,Net-(D12-Pad2)*%
X113526201Y-71196401D03*
%TD*%
%TO.P,D14,1,VSS*%
%TO.N,GND*%
X140426201Y-71196401D03*
%TO.P,D14,2,DIN*%
%TO.N,Net-(D14-Pad2)*%
X140426201Y-67996401D03*
%TO.P,D14,3,VDD*%
%TO.N,P*%
X135526201Y-67996401D03*
%TO.P,D14,4,DOUT*%
%TO.N,Net-(D13-Pad2)*%
X135526201Y-71196401D03*
%TD*%
%TO.P,D15,1,VSS*%
%TO.N,GND*%
X162426201Y-71196401D03*
%TO.P,D15,2,DIN*%
%TO.N,Net-(D15-Pad2)*%
X162426201Y-67996401D03*
%TO.P,D15,3,VDD*%
%TO.N,P*%
X157526201Y-67996401D03*
%TO.P,D15,4,DOUT*%
%TO.N,Net-(D14-Pad2)*%
X157526201Y-71196401D03*
%TD*%
%TO.P,D16,1,VSS*%
%TO.N,GND*%
X184426201Y-71196401D03*
%TO.P,D16,2,DIN*%
%TO.N,Net-(D16-Pad2)*%
X184426201Y-67996401D03*
%TO.P,D16,3,VDD*%
%TO.N,P*%
X179526201Y-67996401D03*
%TO.P,D16,4,DOUT*%
%TO.N,Net-(D15-Pad2)*%
X179526201Y-71196401D03*
%TD*%
%TO.P,D17,1,VSS*%
%TO.N,GND*%
X25526201Y-91696401D03*
%TO.P,D17,2,DIN*%
%TO.N,Net-(D17-Pad2)*%
X25526201Y-94896401D03*
%TO.P,D17,3,VDD*%
%TO.N,P*%
X30426201Y-94896401D03*
%TO.P,D17,4,DOUT*%
%TO.N,Net-(D17-Pad4)*%
X30426201Y-91696401D03*
%TD*%
%TO.P,D18,1,VSS*%
%TO.N,GND*%
X47526201Y-91696401D03*
%TO.P,D18,2,DIN*%
%TO.N,Net-(D17-Pad4)*%
X47526201Y-94896401D03*
%TO.P,D18,3,VDD*%
%TO.N,P*%
X52426201Y-94896401D03*
%TO.P,D18,4,DOUT*%
%TO.N,Net-(D18-Pad4)*%
X52426201Y-91696401D03*
%TD*%
%TO.P,D19,1,VSS*%
%TO.N,GND*%
X69526201Y-91696401D03*
%TO.P,D19,2,DIN*%
%TO.N,Net-(D18-Pad4)*%
X69526201Y-94896401D03*
%TO.P,D19,3,VDD*%
%TO.N,P*%
X74426201Y-94896401D03*
%TO.P,D19,4,DOUT*%
%TO.N,Net-(D19-Pad4)*%
X74426201Y-91696401D03*
%TD*%
%TO.P,D20,1,VSS*%
%TO.N,GND*%
X91526201Y-91696401D03*
%TO.P,D20,2,DIN*%
%TO.N,Net-(D19-Pad4)*%
X91526201Y-94896401D03*
%TO.P,D20,3,VDD*%
%TO.N,P*%
X96426201Y-94896401D03*
%TO.P,D20,4,DOUT*%
%TO.N,Net-(D20-Pad4)*%
X96426201Y-91696401D03*
%TD*%
%TO.P,D21,1,VSS*%
%TO.N,GND*%
X113526201Y-91696401D03*
%TO.P,D21,2,DIN*%
%TO.N,Net-(D20-Pad4)*%
X113526201Y-94896401D03*
%TO.P,D21,3,VDD*%
%TO.N,P*%
X118426201Y-94896401D03*
%TO.P,D21,4,DOUT*%
%TO.N,Net-(D21-Pad4)*%
X118426201Y-91696401D03*
%TD*%
%TO.P,D22,1,VSS*%
%TO.N,GND*%
X135526201Y-91696401D03*
%TO.P,D22,2,DIN*%
%TO.N,Net-(D21-Pad4)*%
X135526201Y-94896401D03*
%TO.P,D22,3,VDD*%
%TO.N,P*%
X140426201Y-94896401D03*
%TO.P,D22,4,DOUT*%
%TO.N,Net-(D22-Pad4)*%
X140426201Y-91696401D03*
%TD*%
%TO.P,D23,1,VSS*%
%TO.N,GND*%
X157526201Y-91696401D03*
%TO.P,D23,2,DIN*%
%TO.N,Net-(D22-Pad4)*%
X157526201Y-94896401D03*
%TO.P,D23,3,VDD*%
%TO.N,P*%
X162426201Y-94896401D03*
%TO.P,D23,4,DOUT*%
%TO.N,Net-(D23-Pad4)*%
X162426201Y-91696401D03*
%TD*%
%TO.P,D24,1,VSS*%
%TO.N,GND*%
X179526201Y-91696401D03*
%TO.P,D24,2,DIN*%
%TO.N,Net-(D23-Pad4)*%
X179526201Y-94896401D03*
%TO.P,D24,3,VDD*%
%TO.N,P*%
X184426201Y-94896401D03*
%TO.P,D24,4,DOUT*%
%TO.N,LedOut*%
X184426201Y-91696401D03*
%TD*%
D11*
%TO.P,U1,1,VCC*%
%TO.N,PQ1*%
X27050000Y-42350000D03*
%TO.P,U1,2,OUT*%
%TO.N,HallOut1*%
X28950000Y-42350000D03*
%TO.P,U1,3,GND*%
%TO.N,AGND*%
X28000000Y-40350000D03*
%TD*%
%TO.P,U2,1,VCC*%
%TO.N,PQ1*%
X49050000Y-42350000D03*
%TO.P,U2,2,OUT*%
%TO.N,HallOut2*%
X50950000Y-42350000D03*
%TO.P,U2,3,GND*%
%TO.N,AGND*%
X50000000Y-40350000D03*
%TD*%
%TO.P,U3,1,VCC*%
%TO.N,PQ1*%
X71050000Y-42350000D03*
%TO.P,U3,2,OUT*%
%TO.N,HallOut3*%
X72950000Y-42350000D03*
%TO.P,U3,3,GND*%
%TO.N,AGND*%
X72000000Y-40350000D03*
%TD*%
%TO.P,U4,1,VCC*%
%TO.N,PQ1*%
X93050000Y-42350000D03*
%TO.P,U4,2,OUT*%
%TO.N,HallOut4*%
X94950000Y-42350000D03*
%TO.P,U4,3,GND*%
%TO.N,AGND*%
X94000000Y-40350000D03*
%TD*%
%TO.P,U5,1,VCC*%
%TO.N,PQ1*%
X115050000Y-42350000D03*
%TO.P,U5,2,OUT*%
%TO.N,HallOut5*%
X116950000Y-42350000D03*
%TO.P,U5,3,GND*%
%TO.N,AGND*%
X116000000Y-40350000D03*
%TD*%
%TO.P,U6,1,VCC*%
%TO.N,PQ1*%
X137050000Y-42350000D03*
%TO.P,U6,2,OUT*%
%TO.N,HallOut6*%
X138950000Y-42350000D03*
%TO.P,U6,3,GND*%
%TO.N,AGND*%
X138000000Y-40350000D03*
%TD*%
%TO.P,U7,1,VCC*%
%TO.N,PQ1*%
X159050000Y-42350000D03*
%TO.P,U7,2,OUT*%
%TO.N,HallOut7*%
X160950000Y-42350000D03*
%TO.P,U7,3,GND*%
%TO.N,AGND*%
X160000000Y-40350000D03*
%TD*%
%TO.P,U8,1,VCC*%
%TO.N,PQ1*%
X181050000Y-42350000D03*
%TO.P,U8,2,OUT*%
%TO.N,HallOut8*%
X182950000Y-42350000D03*
%TO.P,U8,3,GND*%
%TO.N,AGND*%
X182000000Y-40350000D03*
%TD*%
%TO.P,U9,1,VCC*%
%TO.N,PQ2*%
X27050000Y-66050000D03*
%TO.P,U9,2,OUT*%
%TO.N,HallOut1*%
X28950000Y-66050000D03*
%TO.P,U9,3,GND*%
%TO.N,AGND*%
X28000000Y-64050000D03*
%TD*%
%TO.P,U10,1,VCC*%
%TO.N,PQ2*%
X49050000Y-66050000D03*
%TO.P,U10,2,OUT*%
%TO.N,HallOut2*%
X50950000Y-66050000D03*
%TO.P,U10,3,GND*%
%TO.N,AGND*%
X50000000Y-64050000D03*
%TD*%
%TO.P,U11,1,VCC*%
%TO.N,PQ2*%
X71050000Y-66050000D03*
%TO.P,U11,2,OUT*%
%TO.N,HallOut3*%
X72950000Y-66050000D03*
%TO.P,U11,3,GND*%
%TO.N,AGND*%
X72000000Y-64050000D03*
%TD*%
%TO.P,U12,1,VCC*%
%TO.N,PQ2*%
X93050000Y-66050000D03*
%TO.P,U12,2,OUT*%
%TO.N,HallOut4*%
X94950000Y-66050000D03*
%TO.P,U12,3,GND*%
%TO.N,AGND*%
X94000000Y-64050000D03*
%TD*%
%TO.P,U13,1,VCC*%
%TO.N,PQ2*%
X115050000Y-66050000D03*
%TO.P,U13,2,OUT*%
%TO.N,HallOut5*%
X116950000Y-66050000D03*
%TO.P,U13,3,GND*%
%TO.N,AGND*%
X116000000Y-64050000D03*
%TD*%
%TO.P,U14,1,VCC*%
%TO.N,PQ2*%
X137050000Y-66050000D03*
%TO.P,U14,2,OUT*%
%TO.N,HallOut6*%
X138950000Y-66050000D03*
%TO.P,U14,3,GND*%
%TO.N,AGND*%
X138000000Y-64050000D03*
%TD*%
%TO.P,U15,1,VCC*%
%TO.N,PQ2*%
X159050000Y-66050000D03*
%TO.P,U15,2,OUT*%
%TO.N,HallOut7*%
X160950000Y-66050000D03*
%TO.P,U15,3,GND*%
%TO.N,AGND*%
X160000000Y-64050000D03*
%TD*%
%TO.P,U16,1,VCC*%
%TO.N,PQ2*%
X181050000Y-66050000D03*
%TO.P,U16,2,OUT*%
%TO.N,HallOut8*%
X182950000Y-66050000D03*
%TO.P,U16,3,GND*%
%TO.N,AGND*%
X182000000Y-64050000D03*
%TD*%
%TO.P,U17,1,VCC*%
%TO.N,PQ3*%
X27050000Y-89750000D03*
%TO.P,U17,2,OUT*%
%TO.N,HallOut1*%
X28950000Y-89750000D03*
%TO.P,U17,3,GND*%
%TO.N,AGND*%
X28000000Y-87750000D03*
%TD*%
%TO.P,U18,1,VCC*%
%TO.N,PQ3*%
X49050000Y-89750000D03*
%TO.P,U18,2,OUT*%
%TO.N,HallOut2*%
X50950000Y-89750000D03*
%TO.P,U18,3,GND*%
%TO.N,AGND*%
X50000000Y-87750000D03*
%TD*%
%TO.P,U19,1,VCC*%
%TO.N,PQ3*%
X71050000Y-89750000D03*
%TO.P,U19,2,OUT*%
%TO.N,HallOut3*%
X72950000Y-89750000D03*
%TO.P,U19,3,GND*%
%TO.N,AGND*%
X72000000Y-87750000D03*
%TD*%
%TO.P,U20,1,VCC*%
%TO.N,PQ3*%
X93050000Y-89750000D03*
%TO.P,U20,2,OUT*%
%TO.N,HallOut4*%
X94950000Y-89750000D03*
%TO.P,U20,3,GND*%
%TO.N,AGND*%
X94000000Y-87750000D03*
%TD*%
%TO.P,U21,1,VCC*%
%TO.N,PQ3*%
X115050000Y-89750000D03*
%TO.P,U21,2,OUT*%
%TO.N,HallOut5*%
X116950000Y-89750000D03*
%TO.P,U21,3,GND*%
%TO.N,AGND*%
X116000000Y-87750000D03*
%TD*%
%TO.P,U22,1,VCC*%
%TO.N,PQ3*%
X137050000Y-89750000D03*
%TO.P,U22,2,OUT*%
%TO.N,HallOut6*%
X138950000Y-89750000D03*
%TO.P,U22,3,GND*%
%TO.N,AGND*%
X138000000Y-87750000D03*
%TD*%
%TO.P,U23,1,VCC*%
%TO.N,PQ3*%
X159050000Y-89750000D03*
%TO.P,U23,2,OUT*%
%TO.N,HallOut7*%
X160950000Y-89750000D03*
%TO.P,U23,3,GND*%
%TO.N,AGND*%
X160000000Y-87750000D03*
%TD*%
%TO.P,U24,1,VCC*%
%TO.N,PQ3*%
X181050000Y-89750000D03*
%TO.P,U24,2,OUT*%
%TO.N,HallOut8*%
X182950000Y-89750000D03*
%TO.P,U24,3,GND*%
%TO.N,AGND*%
X182000000Y-87750000D03*
%TD*%
D12*
%TO.P,C1,1*%
%TO.N,P*%
X29351800Y-37650000D03*
%TO.P,C1,2*%
%TO.N,GND*%
X26401800Y-37650000D03*
%TD*%
%TO.P,C5,1*%
%TO.N,P*%
X117351800Y-37650000D03*
%TO.P,C5,2*%
%TO.N,GND*%
X114401800Y-37650000D03*
%TD*%
%TO.P,C6,1*%
%TO.N,P*%
X139351800Y-37650000D03*
%TO.P,C6,2*%
%TO.N,GND*%
X136401800Y-37650000D03*
%TD*%
%TO.P,C22,1*%
%TO.N,P*%
X139351800Y-85050000D03*
%TO.P,C22,2*%
%TO.N,GND*%
X136401800Y-85050000D03*
%TD*%
%TO.P,C19,1*%
%TO.N,P*%
X73351800Y-85050000D03*
%TO.P,C19,2*%
%TO.N,GND*%
X70401800Y-85050000D03*
%TD*%
%TO.P,C20,1*%
%TO.N,P*%
X95351800Y-85050000D03*
%TO.P,C20,2*%
%TO.N,GND*%
X92401800Y-85050000D03*
%TD*%
%TO.P,C18,1*%
%TO.N,P*%
X51351800Y-85050000D03*
%TO.P,C18,2*%
%TO.N,GND*%
X48401800Y-85050000D03*
%TD*%
%TO.P,C24,1*%
%TO.N,P*%
X183351800Y-85050000D03*
%TO.P,C24,2*%
%TO.N,GND*%
X180401800Y-85050000D03*
%TD*%
%TO.P,C17,1*%
%TO.N,P*%
X29351800Y-85050000D03*
%TO.P,C17,2*%
%TO.N,GND*%
X26401800Y-85050000D03*
%TD*%
%TO.P,C7,1*%
%TO.N,P*%
X161351800Y-37650000D03*
%TO.P,C7,2*%
%TO.N,GND*%
X158401800Y-37650000D03*
%TD*%
D13*
%TO.P,C9,1*%
%TO.N,P*%
X26401800Y-61350000D03*
%TO.P,C9,2*%
%TO.N,GND*%
X29351800Y-61350000D03*
%TD*%
%TO.P,C14,1*%
%TO.N,P*%
X136401800Y-61350000D03*
%TO.P,C14,2*%
%TO.N,GND*%
X139351800Y-61350000D03*
%TD*%
D12*
%TO.P,C3,1*%
%TO.N,P*%
X73351800Y-37650000D03*
%TO.P,C3,2*%
%TO.N,GND*%
X70401800Y-37650000D03*
%TD*%
%TO.P,C23,1*%
%TO.N,P*%
X161351800Y-85050000D03*
%TO.P,C23,2*%
%TO.N,GND*%
X158401800Y-85050000D03*
%TD*%
D13*
%TO.P,C15,1*%
%TO.N,P*%
X158401800Y-61350000D03*
%TO.P,C15,2*%
%TO.N,GND*%
X161351800Y-61350000D03*
%TD*%
D12*
%TO.P,C4,1*%
%TO.N,P*%
X95351800Y-37650000D03*
%TO.P,C4,2*%
%TO.N,GND*%
X92401800Y-37650000D03*
%TD*%
D13*
%TO.P,C10,1*%
%TO.N,P*%
X48401800Y-61350000D03*
%TO.P,C10,2*%
%TO.N,GND*%
X51351800Y-61350000D03*
%TD*%
D12*
%TO.P,C8,1*%
%TO.N,P*%
X183351800Y-37650000D03*
%TO.P,C8,2*%
%TO.N,GND*%
X180401800Y-37650000D03*
%TD*%
D13*
%TO.P,C16,1*%
%TO.N,P*%
X180401800Y-61350000D03*
%TO.P,C16,2*%
%TO.N,GND*%
X183351800Y-61350000D03*
%TD*%
%TO.P,C13,1*%
%TO.N,P*%
X114401800Y-61350000D03*
%TO.P,C13,2*%
%TO.N,GND*%
X117351800Y-61350000D03*
%TD*%
D12*
%TO.P,C2,1*%
%TO.N,P*%
X51351800Y-37650000D03*
%TO.P,C2,2*%
%TO.N,GND*%
X48401800Y-37650000D03*
%TD*%
D13*
%TO.P,C11,1*%
%TO.N,P*%
X70401800Y-61350000D03*
%TO.P,C11,2*%
%TO.N,GND*%
X73351800Y-61350000D03*
%TD*%
%TO.P,C12,1*%
%TO.N,P*%
X92401800Y-61350000D03*
%TO.P,C12,2*%
%TO.N,GND*%
X95351800Y-61350000D03*
%TD*%
D12*
%TO.P,C21,1*%
%TO.N,P*%
X117351800Y-85050000D03*
%TO.P,C21,2*%
%TO.N,GND*%
X114401800Y-85050000D03*
%TD*%
D14*
%TO.N,P*%
X93920000Y-85050000D03*
X150586402Y-66993598D03*
X184970000Y-96580000D03*
X90576200Y-67046400D03*
X139476200Y-95846402D03*
X139283598Y-48446402D03*
X49920000Y-85050000D03*
X90650000Y-61360000D03*
X137920000Y-85050000D03*
X72030000Y-37700000D03*
X159920000Y-85050000D03*
X178650000Y-61360000D03*
X94030000Y-37700000D03*
X112650000Y-61360000D03*
X31560000Y-37700000D03*
X73283598Y-48446402D03*
X31933599Y-94896401D03*
X51283598Y-48446402D03*
X117476200Y-95846402D03*
X68650000Y-61360000D03*
X112576200Y-67046400D03*
X31663598Y-48446402D03*
X177943598Y-95846402D03*
X161476200Y-95846402D03*
X116030000Y-37700000D03*
X161283598Y-48446402D03*
X31250000Y-85020000D03*
X102289999Y-66950001D03*
X185050000Y-85060000D03*
X50030000Y-37700000D03*
X160030000Y-37700000D03*
X150573598Y-95846402D03*
X73476200Y-95846402D03*
X156576200Y-67046400D03*
X46576200Y-67046400D03*
X71920000Y-85050000D03*
X115920000Y-85050000D03*
X184420000Y-39800000D03*
X95283598Y-48446402D03*
X117283598Y-48446402D03*
X156650000Y-61360000D03*
X134650000Y-61360000D03*
X46650000Y-61360000D03*
X51476200Y-95846402D03*
X68576200Y-67046400D03*
X138030000Y-37700000D03*
X184440000Y-46060000D03*
X150586402Y-48446402D03*
X95476200Y-95846402D03*
X178576200Y-67046400D03*
X134576200Y-67046400D03*
%TO.N,LedIn*%
X22620000Y-40140000D03*
%TO.N,GND*%
X28870000Y-71130000D03*
X134640000Y-85110000D03*
X90640000Y-85110000D03*
X156540000Y-37700000D03*
X137900000Y-61420000D03*
X46540000Y-37700000D03*
X73476200Y-72146402D03*
X146396400Y-72103600D03*
X112640000Y-85110000D03*
X182981301Y-71391301D03*
X95476200Y-72146402D03*
X134479801Y-43250001D03*
X112540000Y-37700000D03*
X181900000Y-61420000D03*
X68640000Y-85110000D03*
X46479801Y-90650001D03*
X90540000Y-37700000D03*
X68479801Y-43250001D03*
X178479801Y-43250001D03*
X49900000Y-61420000D03*
X139476200Y-72146402D03*
X112479801Y-90650001D03*
X159900000Y-61420000D03*
X90479801Y-43250001D03*
X156640000Y-85110000D03*
X178479801Y-90650001D03*
X178640000Y-85110000D03*
X178540000Y-37700000D03*
X51476200Y-72146402D03*
X90479801Y-90650001D03*
X71900000Y-61420000D03*
X46479801Y-43250001D03*
X46640000Y-85110000D03*
X112479801Y-43250001D03*
X27860000Y-61390000D03*
X117476200Y-72146402D03*
X156479801Y-43250001D03*
X25526201Y-89886201D03*
X68479801Y-90650001D03*
X68540000Y-37700000D03*
X146396400Y-90746400D03*
X115900000Y-61420000D03*
X161476200Y-72146402D03*
X93900000Y-61420000D03*
X156479801Y-90650001D03*
X146313600Y-43346400D03*
X134479801Y-90650001D03*
X134540000Y-37700000D03*
%TO.N,S1*%
X30760000Y-81600000D03*
X102720000Y-82790000D03*
X107200000Y-82980000D03*
X178230000Y-82980000D03*
%TO.N,S0*%
X102650000Y-81250000D03*
X30810000Y-79110000D03*
X178750000Y-79300000D03*
X106690000Y-81260000D03*
%TO.N,Hall2*%
X111870000Y-76160000D03*
X30790000Y-74240000D03*
X178290000Y-73650000D03*
X107840000Y-76210000D03*
%TO.N,Hall1*%
X101640000Y-77440000D03*
X31010000Y-76660000D03*
X179030000Y-75230000D03*
X107340000Y-77440000D03*
%TO.N,LedOut*%
X25860000Y-98220000D03*
X184200500Y-93250000D03*
%TO.N,PQ1*%
X174840001Y-41449999D03*
X27950001Y-41449999D03*
%TO.N,PQ2*%
X174670001Y-65149999D03*
X30882601Y-65147399D03*
%TO.N,PQ3*%
X176030001Y-88849999D03*
X30010001Y-88849999D03*
%TO.N,HallOut1*%
X32842000Y-65997400D03*
X32842000Y-89771800D03*
X32842000Y-78732000D03*
X102860000Y-78720000D03*
X32842000Y-42350000D03*
%TO.N,HallOut2*%
X108140000Y-73650000D03*
X54686000Y-73586000D03*
X54686000Y-89771800D03*
X54686000Y-66048200D03*
X54686000Y-42350000D03*
%TO.N,HallOut3*%
X77170000Y-76180000D03*
X102820000Y-76170000D03*
X77170000Y-66020000D03*
X77160000Y-89810000D03*
X77170000Y-42360000D03*
%TO.N,HallOut4*%
X98545200Y-66004000D03*
X107670000Y-78710000D03*
X98545200Y-79924800D03*
X98545200Y-89753000D03*
X98545200Y-42350000D03*
%TO.N,HallOut5*%
X120776800Y-66073600D03*
X120776800Y-73493200D03*
X120776800Y-42350000D03*
X120750000Y-89700000D03*
X106690000Y-74910000D03*
%TO.N,HallOut6*%
X143459000Y-66073600D03*
X143459000Y-74891000D03*
X111920000Y-74930000D03*
X143459000Y-89797200D03*
X143459000Y-42350000D03*
%TO.N,HallOut7*%
X165125200Y-66149800D03*
X165125200Y-79994800D03*
X165120000Y-89760000D03*
X165125200Y-42350000D03*
X107810000Y-79960000D03*
%TO.N,HallOut8*%
X186639000Y-89848000D03*
X186639000Y-66073600D03*
X186639000Y-77241000D03*
X112620000Y-78750000D03*
X186639000Y-42350000D03*
%TO.N,AGND*%
X180030000Y-40350000D03*
X30170000Y-40350000D03*
X61160000Y-40350000D03*
X61160000Y-64070000D03*
X61050000Y-87750000D03*
%TD*%
D15*
%TO.N,P*%
X53376202Y-48446402D02*
X73476200Y-48446402D01*
X48476202Y-67046400D02*
X68576200Y-67046400D01*
X53376202Y-95846402D02*
X73476200Y-95846402D01*
X90576200Y-67046400D02*
X70476202Y-67046400D01*
X136476202Y-67046400D02*
X135526201Y-67996401D01*
X117351800Y-85050000D02*
X115920000Y-85050000D01*
X73476200Y-48446402D02*
X74426201Y-47496401D01*
X114476202Y-67046400D02*
X113526201Y-67996401D01*
X134576200Y-67046400D02*
X114476202Y-67046400D01*
X162426201Y-47496401D02*
X163376202Y-48446402D01*
X121586240Y-95846402D02*
X139476200Y-95846402D01*
X156576200Y-67046400D02*
X136476202Y-67046400D01*
X95476200Y-48446402D02*
X96426201Y-47496401D01*
X139351800Y-85050000D02*
X137920000Y-85050000D01*
X178576200Y-67046400D02*
X179526201Y-67996401D01*
X29351800Y-85050000D02*
X31220000Y-85050000D01*
X26401800Y-61350000D02*
X25526201Y-62225599D01*
X96426201Y-94896401D02*
X98636239Y-94896401D01*
X177943598Y-95846402D02*
X183476200Y-95846402D01*
X32636239Y-94896401D02*
X33586240Y-95846402D01*
X31933599Y-94896401D02*
X32636239Y-94896401D01*
X51351800Y-37650000D02*
X50080000Y-37650000D01*
X92401800Y-61350000D02*
X90660000Y-61350000D01*
X46576200Y-67046400D02*
X26476202Y-67046400D01*
X184426201Y-46073799D02*
X184440000Y-46060000D01*
X92572601Y-66950001D02*
X91526201Y-67996401D01*
X143586240Y-95846402D02*
X161476200Y-95846402D01*
X74426201Y-94896401D02*
X76636239Y-94896401D01*
X91526201Y-67996401D02*
X90576200Y-67046400D01*
X102289999Y-66950001D02*
X92572601Y-66950001D01*
X165586240Y-95846402D02*
X177943598Y-95846402D01*
X47526201Y-67996401D02*
X46576200Y-67046400D01*
X95351800Y-37650000D02*
X94080000Y-37650000D01*
X136401800Y-61350000D02*
X134660000Y-61350000D01*
X50080000Y-37650000D02*
X50030000Y-37700000D01*
X140426201Y-47496401D02*
X141376202Y-48446402D01*
X30426201Y-94896401D02*
X31933599Y-94896401D01*
X73351800Y-37650000D02*
X72080000Y-37650000D01*
X26476202Y-67046400D02*
X25526201Y-67996401D01*
X184970000Y-95440200D02*
X184426201Y-94896401D01*
X77586240Y-95846402D02*
X95476200Y-95846402D01*
X31220000Y-85050000D02*
X31250000Y-85020000D01*
X31510000Y-37650000D02*
X31560000Y-37700000D01*
X51476200Y-95846402D02*
X52426201Y-94896401D01*
X118426201Y-47496401D02*
X119376202Y-48446402D01*
X51351800Y-85050000D02*
X49920000Y-85050000D01*
X118426201Y-94896401D02*
X120636239Y-94896401D01*
X97376202Y-48446402D02*
X117476200Y-48446402D01*
X185040000Y-85050000D02*
X185050000Y-85060000D01*
X48401800Y-61350000D02*
X46660000Y-61350000D01*
X163376202Y-48446402D02*
X183476200Y-48446402D01*
X117476200Y-95846402D02*
X118426201Y-94896401D01*
X70401800Y-61350000D02*
X68660000Y-61350000D01*
X46660000Y-61350000D02*
X46650000Y-61360000D01*
X139351800Y-37650000D02*
X138080000Y-37650000D01*
X161476200Y-95846402D02*
X162426201Y-94896401D01*
X96426201Y-47496401D02*
X97376202Y-48446402D01*
X29351800Y-37650000D02*
X31510000Y-37650000D01*
X52426201Y-94896401D02*
X53376202Y-95846402D01*
X183476200Y-48446402D02*
X184426201Y-47496401D01*
X95476200Y-95846402D02*
X96426201Y-94896401D01*
X184420000Y-38718200D02*
X183351800Y-37650000D01*
X119376202Y-48446402D02*
X139476200Y-48446402D01*
X117476200Y-48446402D02*
X118426201Y-47496401D01*
X184426201Y-47496401D02*
X184426201Y-46073799D01*
X73351800Y-85050000D02*
X71920000Y-85050000D01*
X135526201Y-67996401D02*
X134576200Y-67046400D01*
X31376202Y-48446402D02*
X31663598Y-48446402D01*
X184420000Y-39800000D02*
X184420000Y-38718200D01*
X142636239Y-94896401D02*
X143586240Y-95846402D01*
X70476202Y-67046400D02*
X69526201Y-67996401D01*
X99586240Y-95846402D02*
X117476200Y-95846402D01*
X161351800Y-37650000D02*
X160080000Y-37650000D01*
X48476202Y-67046400D02*
X47526201Y-67996401D01*
X113526201Y-67996401D02*
X112479801Y-66950001D01*
X180401800Y-61350000D02*
X178660000Y-61350000D01*
X69526201Y-67996401D02*
X68576200Y-67046400D01*
X161476200Y-48446402D02*
X162426201Y-47496401D01*
X139476200Y-95846402D02*
X140426201Y-94896401D01*
X184970000Y-96580000D02*
X184970000Y-95440200D01*
X183351800Y-85050000D02*
X185040000Y-85050000D01*
X183476200Y-95846402D02*
X184426201Y-94896401D01*
X157526201Y-67996401D02*
X156576200Y-67046400D01*
X30426201Y-47496401D02*
X31376202Y-48446402D01*
X73476200Y-95846402D02*
X74426201Y-94896401D01*
X117351800Y-37650000D02*
X116080000Y-37650000D01*
X140426201Y-94896401D02*
X142636239Y-94896401D01*
X158476202Y-67046400D02*
X178576200Y-67046400D01*
X33586240Y-95846402D02*
X51476200Y-95846402D01*
X164636239Y-94896401D02*
X165586240Y-95846402D01*
X161351800Y-85050000D02*
X159920000Y-85050000D01*
X75376202Y-48446402D02*
X95476200Y-48446402D01*
X162426201Y-94896401D02*
X164636239Y-94896401D01*
X141376202Y-48446402D02*
X161476200Y-48446402D01*
X95351800Y-85050000D02*
X93920000Y-85050000D01*
X157526201Y-67996401D02*
X158476202Y-67046400D01*
X74426201Y-47496401D02*
X75376202Y-48446402D01*
X139476200Y-48446402D02*
X140426201Y-47496401D01*
X31663598Y-48446402D02*
X51476200Y-48446402D01*
X120636239Y-94896401D02*
X121586240Y-95846402D01*
X51476200Y-48446402D02*
X52426201Y-47496401D01*
X52426201Y-47496401D02*
X53376202Y-48446402D01*
X76636239Y-94896401D02*
X77586240Y-95846402D01*
X158401800Y-61350000D02*
X156660000Y-61350000D01*
X114401800Y-61350000D02*
X112660000Y-61350000D01*
X25526201Y-62225599D02*
X25526201Y-67996401D01*
X98636239Y-94896401D02*
X99586240Y-95846402D01*
X112479801Y-66950001D02*
X102289999Y-66950001D01*
%TO.N,LedIn*%
X22580000Y-40180000D02*
X22620000Y-40140000D01*
X25066401Y-47496401D02*
X22580000Y-45010000D01*
X22580000Y-45010000D02*
X22580000Y-40180000D01*
%TO.N,Net-(D1-Pad4)*%
X44326201Y-44296401D02*
X47526201Y-47496401D01*
X30426201Y-44296401D02*
X44326201Y-44296401D01*
%TO.N,Net-(D2-Pad4)*%
X66326201Y-44296401D02*
X69526201Y-47496401D01*
X52426201Y-44296401D02*
X66326201Y-44296401D01*
%TO.N,Net-(D3-Pad4)*%
X74426201Y-44296401D02*
X88326201Y-44296401D01*
X88326201Y-44296401D02*
X91526201Y-47496401D01*
%TO.N,Net-(D4-Pad4)*%
X110326201Y-44296401D02*
X113526201Y-47496401D01*
X96426201Y-44296401D02*
X110326201Y-44296401D01*
%TO.N,Net-(D5-Pad4)*%
X132326201Y-44296401D02*
X135526201Y-47496401D01*
X118426201Y-44296401D02*
X132326201Y-44296401D01*
%TO.N,Net-(D6-Pad4)*%
X140426201Y-44296401D02*
X154326201Y-44296401D01*
X154326201Y-44296401D02*
X157526201Y-47496401D01*
%TO.N,Net-(D7-Pad4)*%
X162426201Y-44296401D02*
X176326201Y-44296401D01*
X176326201Y-44296401D02*
X179526201Y-47496401D01*
%TO.N,GND*%
X48572601Y-90650001D02*
X68479801Y-90650001D01*
X114776201Y-44296401D02*
X115726202Y-43346400D01*
X49970000Y-61350000D02*
X49900000Y-61420000D01*
X163376202Y-72146402D02*
X162426201Y-71196401D01*
X161351800Y-61350000D02*
X159970000Y-61350000D01*
X69526201Y-91696401D02*
X70476202Y-90746400D01*
X136476202Y-43346400D02*
X156576200Y-43346400D01*
X182731301Y-71641301D02*
X182226200Y-72146402D01*
X182226200Y-72146402D02*
X163376202Y-72146402D01*
X156576200Y-43346400D02*
X157526201Y-44296401D01*
X30426201Y-71196401D02*
X31376202Y-72146402D01*
X25526201Y-85925599D02*
X25526201Y-89886201D01*
X118426201Y-71196401D02*
X119376202Y-72146402D01*
X113526201Y-91696401D02*
X114572601Y-90650001D01*
X26572601Y-90650001D02*
X46479801Y-90650001D01*
X134479801Y-90650001D02*
X135526201Y-91696401D01*
X28870000Y-71130000D02*
X30359800Y-71130000D01*
X46479801Y-90650001D02*
X47526201Y-91696401D01*
X73351800Y-61350000D02*
X71970000Y-61350000D01*
X91526201Y-91696401D02*
X92476202Y-90746400D01*
X184426201Y-71196401D02*
X183176201Y-71196401D01*
X92401800Y-85050000D02*
X90700000Y-85050000D01*
X48476202Y-43346400D02*
X68576200Y-43346400D01*
X47526201Y-44296401D02*
X48476202Y-43346400D01*
X27900000Y-61350000D02*
X27860000Y-61390000D01*
X26401800Y-37650000D02*
X25526201Y-38525599D01*
X90576200Y-43346400D02*
X91526201Y-44296401D01*
X141376202Y-72146402D02*
X140426201Y-71196401D01*
X113526201Y-44296401D02*
X114776201Y-44296401D01*
X114401800Y-85050000D02*
X112700000Y-85050000D01*
X119376202Y-72146402D02*
X139476200Y-72146402D01*
X25526201Y-38525599D02*
X25526201Y-44296401D01*
X112576200Y-43346400D02*
X113526201Y-44296401D01*
X92476202Y-43346400D02*
X112576200Y-43346400D01*
X68479801Y-90650001D02*
X69526201Y-91696401D01*
X158401800Y-85050000D02*
X156700000Y-85050000D01*
X178576200Y-43346400D02*
X179526201Y-44296401D01*
X139476200Y-72146402D02*
X140426201Y-71196401D01*
X68576200Y-43346400D02*
X69526201Y-44296401D01*
X26401800Y-85050000D02*
X25526201Y-85925599D01*
X115726202Y-43346400D02*
X134576200Y-43346400D01*
X112576200Y-90746400D02*
X113526201Y-91696401D01*
X26572601Y-43250001D02*
X46479801Y-43250001D01*
X92401800Y-37650000D02*
X90590000Y-37650000D01*
X161476200Y-72146402D02*
X141376202Y-72146402D01*
X183176201Y-71196401D02*
X182981301Y-71391301D01*
X92476202Y-90746400D02*
X112576200Y-90746400D01*
X70401800Y-37650000D02*
X68590000Y-37650000D01*
X178576200Y-90746400D02*
X179526201Y-91696401D01*
X70401800Y-85050000D02*
X68700000Y-85050000D01*
X46479801Y-43250001D02*
X47526201Y-44296401D01*
X114401800Y-37650000D02*
X112590000Y-37650000D01*
X136401800Y-85050000D02*
X134700000Y-85050000D01*
X47526201Y-91696401D02*
X48572601Y-90650001D01*
X136476202Y-90746400D02*
X156576200Y-90746400D01*
X97376202Y-72146402D02*
X117476200Y-72146402D01*
X25526201Y-91696401D02*
X26572601Y-90650001D01*
X74426201Y-71196401D02*
X75376202Y-72146402D01*
X25526201Y-89886201D02*
X25526201Y-91696401D01*
X182981301Y-71391301D02*
X182731301Y-71641301D01*
X95476200Y-72146402D02*
X96426201Y-71196401D01*
X25526201Y-44296401D02*
X26572601Y-43250001D01*
X91526201Y-44296401D02*
X92476202Y-43346400D01*
X51351800Y-61350000D02*
X49970000Y-61350000D01*
X46700000Y-85050000D02*
X46640000Y-85110000D01*
X183351800Y-61350000D02*
X181970000Y-61350000D01*
X158476202Y-43346400D02*
X178576200Y-43346400D01*
X158476202Y-90746400D02*
X178576200Y-90746400D01*
X134576200Y-43346400D02*
X135526201Y-44296401D01*
X117476200Y-72146402D02*
X118426201Y-71196401D01*
X52426201Y-71196401D02*
X53376202Y-72146402D01*
X117351800Y-61350000D02*
X115970000Y-61350000D01*
X180401800Y-85050000D02*
X178700000Y-85050000D01*
X157526201Y-91696401D02*
X158476202Y-90746400D01*
X73476200Y-72146402D02*
X74426201Y-71196401D01*
X135526201Y-91696401D02*
X136476202Y-90746400D01*
X90576200Y-90746400D02*
X91526201Y-91696401D01*
X70476202Y-90746400D02*
X90576200Y-90746400D01*
X162426201Y-71196401D02*
X161476200Y-72146402D01*
X95351800Y-61350000D02*
X93970000Y-61350000D01*
X135526201Y-44296401D02*
X136476202Y-43346400D01*
X31376202Y-72146402D02*
X51476200Y-72146402D01*
X180401800Y-37650000D02*
X178590000Y-37650000D01*
X156576200Y-90746400D02*
X157526201Y-91696401D01*
X96426201Y-71196401D02*
X97376202Y-72146402D01*
X139351800Y-61350000D02*
X137970000Y-61350000D01*
X158401800Y-37650000D02*
X156590000Y-37650000D01*
X70476202Y-43346400D02*
X90576200Y-43346400D01*
X69526201Y-44296401D02*
X70476202Y-43346400D01*
X29351800Y-61350000D02*
X27900000Y-61350000D01*
X75376202Y-72146402D02*
X95476200Y-72146402D01*
X53376202Y-72146402D02*
X73476200Y-72146402D01*
X136401800Y-37650000D02*
X134590000Y-37650000D01*
X157526201Y-44296401D02*
X158476202Y-43346400D01*
X51476200Y-72146402D02*
X52426201Y-71196401D01*
X46590000Y-37650000D02*
X46540000Y-37700000D01*
X48401800Y-85050000D02*
X46700000Y-85050000D01*
X48401800Y-37650000D02*
X46590000Y-37650000D01*
X114572601Y-90650001D02*
X134479801Y-90650001D01*
%TO.N,Net-(D10-Pad2)*%
X69526201Y-71196401D02*
X55626201Y-71196401D01*
X55626201Y-71196401D02*
X52426201Y-67996401D01*
%TO.N,Net-(D10-Pad4)*%
X44326201Y-67996401D02*
X47526201Y-71196401D01*
X30426201Y-67996401D02*
X44326201Y-67996401D01*
%TO.N,Net-(D11-Pad2)*%
X77626201Y-71196401D02*
X74426201Y-67996401D01*
X91526201Y-71196401D02*
X77626201Y-71196401D01*
%TO.N,Net-(D12-Pad2)*%
X113526201Y-71196401D02*
X99626201Y-71196401D01*
X99626201Y-71196401D02*
X96426201Y-67996401D01*
%TO.N,Net-(D13-Pad2)*%
X135526201Y-71196401D02*
X121626201Y-71196401D01*
X121626201Y-71196401D02*
X118426201Y-67996401D01*
%TO.N,Net-(D14-Pad2)*%
X157526201Y-71196401D02*
X143626201Y-71196401D01*
X143626201Y-71196401D02*
X140426201Y-67996401D01*
%TO.N,Net-(D15-Pad2)*%
X179526201Y-71196401D02*
X165626201Y-71196401D01*
X165626201Y-71196401D02*
X162426201Y-67996401D01*
%TO.N,Net-(D16-Pad2)*%
X187700000Y-47200000D02*
X187700000Y-66600000D01*
X186303599Y-67996401D02*
X184426201Y-67996401D01*
X187700000Y-66600000D02*
X186303599Y-67996401D01*
X184796401Y-44296401D02*
X187700000Y-47200000D01*
%TO.N,Net-(D17-Pad2)*%
X25526201Y-71196401D02*
X24326201Y-72396401D01*
X24326201Y-72396401D02*
X24326201Y-93696401D01*
X24326201Y-93696401D02*
X25526201Y-94896401D01*
%TO.N,Net-(D19-Pad4)*%
X91526201Y-94896401D02*
X77626201Y-94896401D01*
X77626201Y-94896401D02*
X74426201Y-91696401D01*
%TO.N,Net-(D20-Pad4)*%
X113526201Y-94896401D02*
X99626201Y-94896401D01*
X99626201Y-94896401D02*
X96426201Y-91696401D01*
%TO.N,Net-(D21-Pad4)*%
X135526201Y-94896401D02*
X121626201Y-94896401D01*
X121626201Y-94896401D02*
X118426201Y-91696401D01*
%TO.N,Net-(D22-Pad4)*%
X157526201Y-94896401D02*
X143626201Y-94896401D01*
X143626201Y-94896401D02*
X140426201Y-91696401D01*
%TO.N,Net-(D23-Pad4)*%
X179526201Y-94896401D02*
X165626201Y-94896401D01*
X165626201Y-94896401D02*
X162426201Y-91696401D01*
%TO.N,S1*%
X30760000Y-81600000D02*
X30920000Y-81600000D01*
X178230000Y-82980000D02*
X107200000Y-82980000D01*
X32110000Y-82790000D02*
X102720000Y-82790000D01*
X30920000Y-81600000D02*
X32110000Y-82790000D01*
%TO.N,S0*%
X176320000Y-81260000D02*
X178280000Y-79300000D01*
X30870000Y-79110000D02*
X30810000Y-79110000D01*
X30870000Y-79110000D02*
X33010000Y-81250000D01*
X106690000Y-81260000D02*
X176320000Y-81260000D01*
X102650000Y-81250000D02*
X33010000Y-81250000D01*
X178280000Y-79300000D02*
X178750000Y-79300000D01*
%TO.N,Hall2*%
X30790000Y-74240000D02*
X32180000Y-75630000D01*
X178280000Y-73660000D02*
X178290000Y-73650000D01*
X32180000Y-75630000D02*
X72790000Y-75630000D01*
X72790000Y-75630000D02*
X73410000Y-75010000D01*
X145890000Y-76160000D02*
X148390000Y-73660000D01*
X73560000Y-74860000D02*
X104530000Y-74860000D01*
X148390000Y-73660000D02*
X178280000Y-73660000D01*
X111870000Y-76160000D02*
X145890000Y-76160000D01*
X104530000Y-74860000D02*
X105880000Y-76210000D01*
X105880000Y-76210000D02*
X107840000Y-76210000D01*
X73410000Y-75010000D02*
X73560000Y-74860000D01*
%TO.N,Hall1*%
X151250000Y-75230000D02*
X179030000Y-75230000D01*
X107340000Y-77440000D02*
X149040000Y-77440000D01*
X31910000Y-77560000D02*
X31010000Y-76660000D01*
X31910000Y-77560000D02*
X101520000Y-77560000D01*
X101640000Y-77440000D02*
X101520000Y-77560000D01*
X149040000Y-77440000D02*
X151250000Y-75230000D01*
%TO.N,LedOut*%
X185336401Y-91696401D02*
X184426201Y-91696401D01*
X184426201Y-93024299D02*
X184200500Y-93250000D01*
X186340000Y-97150000D02*
X186340000Y-92700000D01*
X185270000Y-98220000D02*
X186340000Y-97150000D01*
X186340000Y-92700000D02*
X185336401Y-91696401D01*
X25860000Y-98220000D02*
X185270000Y-98220000D01*
X184426201Y-91696401D02*
X184426201Y-93024299D01*
%TO.N,PQ1*%
X49050000Y-42350000D02*
X49950001Y-41449999D01*
X49950001Y-41449999D02*
X70149999Y-41449999D01*
X92149999Y-41449999D02*
X93050000Y-42350000D01*
X27050000Y-42350000D02*
X27950001Y-41449999D01*
X159950001Y-41449999D02*
X174840001Y-41449999D01*
X159050000Y-42350000D02*
X159950001Y-41449999D01*
X136149999Y-41449999D02*
X137050000Y-42350000D01*
X93950001Y-41449999D02*
X114149999Y-41449999D01*
X115050000Y-42350000D02*
X115950001Y-41449999D01*
X27950001Y-41449999D02*
X48149999Y-41449999D01*
X93050000Y-42350000D02*
X93950001Y-41449999D01*
X158149999Y-41449999D02*
X159050000Y-42350000D01*
X115950001Y-41449999D02*
X136149999Y-41449999D01*
X174840001Y-41449999D02*
X180149999Y-41449999D01*
X71050000Y-42350000D02*
X71950001Y-41449999D01*
X49050000Y-42350000D02*
X48149999Y-41449999D01*
X180149999Y-41449999D02*
X181050000Y-42350000D01*
X71950001Y-41449999D02*
X92149999Y-41449999D01*
X137050000Y-42350000D02*
X137950001Y-41449999D01*
X114149999Y-41449999D02*
X115050000Y-42350000D01*
X70149999Y-41449999D02*
X71050000Y-42350000D01*
X137950001Y-41449999D02*
X158149999Y-41449999D01*
%TO.N,PQ2*%
X137950001Y-65149999D02*
X158149999Y-65149999D01*
X70149999Y-65149999D02*
X71050000Y-66050000D01*
X27952601Y-65147399D02*
X30882601Y-65147399D01*
X27050000Y-66050000D02*
X27952601Y-65147399D01*
X49050000Y-66050000D02*
X49950001Y-65149999D01*
X48147399Y-65147399D02*
X49050000Y-66050000D01*
X91970500Y-64970500D02*
X93050000Y-66050000D01*
X115950001Y-65149999D02*
X136149999Y-65149999D01*
X159050000Y-66050000D02*
X159950001Y-65149999D01*
X174670001Y-65149999D02*
X180149999Y-65149999D01*
X159950001Y-65149999D02*
X174670001Y-65149999D01*
X115050000Y-66050000D02*
X115950001Y-65149999D01*
X136149999Y-65149999D02*
X137050000Y-66050000D01*
X30882601Y-65147399D02*
X48147399Y-65147399D01*
X94149999Y-64950001D02*
X113950001Y-64950001D01*
X180149999Y-65149999D02*
X181050000Y-66050000D01*
X49950001Y-65149999D02*
X70149999Y-65149999D01*
X71050000Y-66050000D02*
X72129500Y-64970500D01*
X113950001Y-64950001D02*
X115050000Y-66050000D01*
X137050000Y-66050000D02*
X137950001Y-65149999D01*
X158149999Y-65149999D02*
X159050000Y-66050000D01*
X72129500Y-64970500D02*
X91970500Y-64970500D01*
X93050000Y-66050000D02*
X94149999Y-64950001D01*
%TO.N,PQ3*%
X30010001Y-88849999D02*
X48149999Y-88849999D01*
X176030001Y-88849999D02*
X180149999Y-88849999D01*
X159950001Y-88849999D02*
X159050000Y-89750000D01*
X159950001Y-88849999D02*
X176030001Y-88849999D01*
X93950001Y-88849999D02*
X93050000Y-89750000D01*
X92149999Y-88849999D02*
X71950001Y-88849999D01*
X70149999Y-88849999D02*
X49950001Y-88849999D01*
X114149999Y-88849999D02*
X93950001Y-88849999D01*
X71050000Y-89750000D02*
X70149999Y-88849999D01*
X137050000Y-89750000D02*
X136149999Y-88849999D01*
X27950001Y-88849999D02*
X27050000Y-89750000D01*
X71950001Y-88849999D02*
X71050000Y-89750000D01*
X115050000Y-89750000D02*
X114149999Y-88849999D01*
X158149999Y-88849999D02*
X137950001Y-88849999D01*
X181050000Y-89750000D02*
X180149999Y-88849999D01*
X115950001Y-88849999D02*
X115050000Y-89750000D01*
X136149999Y-88849999D02*
X115950001Y-88849999D01*
X137950001Y-88849999D02*
X137050000Y-89750000D01*
X93050000Y-89750000D02*
X92149999Y-88849999D01*
X49950001Y-88849999D02*
X49050000Y-89750000D01*
X49050000Y-89750000D02*
X48149999Y-88849999D01*
X159050000Y-89750000D02*
X158149999Y-88849999D01*
X27950001Y-88849999D02*
X30010001Y-88849999D01*
%TO.N,HallOut1*%
X28950000Y-89750000D02*
X32820200Y-89750000D01*
X28950000Y-66050000D02*
X32789400Y-66050000D01*
X32854000Y-78720000D02*
X32842000Y-78732000D01*
X28950000Y-42350000D02*
X32842000Y-42350000D01*
X32820200Y-89750000D02*
X32842000Y-89771800D01*
X102860000Y-78720000D02*
X32854000Y-78720000D01*
X32789400Y-66050000D02*
X32842000Y-65997400D01*
%TO.N,HallOut2*%
X54664200Y-89750000D02*
X54686000Y-89771800D01*
X50950000Y-42350000D02*
X54686000Y-42350000D01*
X54686000Y-66048200D02*
X50951800Y-66048200D01*
X50950000Y-89750000D02*
X54664200Y-89750000D01*
X54750000Y-73650000D02*
X54686000Y-73586000D01*
X108140000Y-73650000D02*
X54750000Y-73650000D01*
%TO.N,HallOut3*%
X72950000Y-66050000D02*
X76940000Y-66050000D01*
X102820000Y-76170000D02*
X102810000Y-76180000D01*
X102810000Y-76180000D02*
X77170000Y-76180000D01*
X77160000Y-42350000D02*
X77170000Y-42360000D01*
X72950000Y-42350000D02*
X77160000Y-42350000D01*
X77160000Y-89810000D02*
X73010000Y-89810000D01*
%TO.N,HallOut4*%
X106020000Y-79960000D02*
X98580400Y-79960000D01*
X98542200Y-89750000D02*
X98545200Y-89753000D01*
X98580400Y-79960000D02*
X98545200Y-79924800D01*
X94950000Y-89750000D02*
X98542200Y-89750000D01*
X107670000Y-78710000D02*
X107270000Y-78710000D01*
X98545200Y-66004000D02*
X94996000Y-66004000D01*
X94950000Y-42350000D02*
X98545200Y-42350000D01*
X107270000Y-78710000D02*
X106020000Y-79960000D01*
%TO.N,HallOut5*%
X106690000Y-74910000D02*
X109830000Y-74910000D01*
X116950000Y-42350000D02*
X120776800Y-42350000D01*
X109830000Y-74910000D02*
X111246800Y-73493200D01*
X120776800Y-66073600D02*
X116973600Y-66073600D01*
X120750000Y-89700000D02*
X117000000Y-89700000D01*
X111246800Y-73493200D02*
X120776800Y-73493200D01*
%TO.N,HallOut6*%
X111920000Y-74930000D02*
X143420000Y-74930000D01*
X138950000Y-42350000D02*
X143459000Y-42350000D01*
X143459000Y-66073600D02*
X138973600Y-66073600D01*
X143411800Y-89750000D02*
X143459000Y-89797200D01*
X143420000Y-74930000D02*
X143459000Y-74891000D01*
X138950000Y-89750000D02*
X143411800Y-89750000D01*
%TO.N,HallOut7*%
X107810000Y-79960000D02*
X165090400Y-79960000D01*
X165120000Y-89760000D02*
X160960000Y-89760000D01*
X165090400Y-79960000D02*
X165125200Y-79994800D01*
X160950000Y-42350000D02*
X165125200Y-42350000D01*
X165125200Y-66149800D02*
X161049800Y-66149800D01*
%TO.N,HallOut8*%
X176879000Y-77241000D02*
X186639000Y-77241000D01*
X112620000Y-78750000D02*
X175370000Y-78750000D01*
X175370000Y-78750000D02*
X176879000Y-77241000D01*
X182950000Y-89750000D02*
X186541000Y-89750000D01*
X186639000Y-66073600D02*
X182973600Y-66073600D01*
X186541000Y-89750000D02*
X186639000Y-89848000D01*
X182950000Y-42350000D02*
X186639000Y-42350000D01*
%TO.N,AGND*%
X116000000Y-40350000D02*
X138000000Y-40350000D01*
X116000000Y-87750000D02*
X138000000Y-87750000D01*
X116000000Y-64050000D02*
X138000000Y-64050000D01*
X116000000Y-64050000D02*
X94000000Y-64050000D01*
X180030000Y-40350000D02*
X182000000Y-40350000D01*
X160000000Y-40350000D02*
X180030000Y-40350000D01*
X94000000Y-64050000D02*
X72000000Y-64050000D01*
X50000000Y-40350000D02*
X72000000Y-40350000D01*
X50000000Y-64050000D02*
X28000000Y-64050000D01*
X94000000Y-87750000D02*
X116000000Y-87750000D01*
X72000000Y-87750000D02*
X94000000Y-87750000D01*
X94000000Y-40350000D02*
X116000000Y-40350000D01*
X50000000Y-87750000D02*
X72000000Y-87750000D01*
X28000000Y-87750000D02*
X50000000Y-87750000D01*
X160000000Y-64050000D02*
X182000000Y-64050000D01*
X160000000Y-64050000D02*
X138000000Y-64050000D01*
X30170000Y-40350000D02*
X50000000Y-40350000D01*
X138000000Y-87750000D02*
X160000000Y-87750000D01*
X160000000Y-87750000D02*
X182000000Y-87750000D01*
X138000000Y-40350000D02*
X160000000Y-40350000D01*
X72000000Y-64050000D02*
X50000000Y-64050000D01*
X28000000Y-40350000D02*
X30170000Y-40350000D01*
X72000000Y-40350000D02*
X94000000Y-40350000D01*
%TO.N,Net-(D17-Pad4)*%
X47526201Y-94896401D02*
X33626201Y-94896401D01*
X33626201Y-94896401D02*
X30426201Y-91696401D01*
%TO.N,Net-(D18-Pad4)*%
X69526201Y-94896401D02*
X55626201Y-94896401D01*
X55626201Y-94896401D02*
X52426201Y-91696401D01*
%TD*%
M02*
