%TF.GenerationSoftware,KiCad,Pcbnew,(6.0.7-1)-1*%
%TF.CreationDate,2022-12-02T15:50:44+01:00*%
%TF.ProjectId,3x8,3378382e-6b69-4636-9164-5f7063625858,rev?*%
%TF.SameCoordinates,Original*%
%TF.FileFunction,Paste,Bot*%
%TF.FilePolarity,Positive*%
%FSLAX46Y46*%
G04 Gerber Fmt 4.6, Leading zero omitted, Abs format (unit mm)*
G04 Created by KiCad (PCBNEW (6.0.7-1)-1) date 2022-12-02 15:50:44*
%MOMM*%
%LPD*%
G01*
G04 APERTURE LIST*
G04 Aperture macros list*
%AMRoundRect*
0 Rectangle with rounded corners*
0 $1 Rounding radius*
0 $2 $3 $4 $5 $6 $7 $8 $9 X,Y pos of 4 corners*
0 Add a 4 corners polygon primitive as box body*
4,1,4,$2,$3,$4,$5,$6,$7,$8,$9,$2,$3,0*
0 Add four circle primitives for the rounded corners*
1,1,$1+$1,$2,$3*
1,1,$1+$1,$4,$5*
1,1,$1+$1,$6,$7*
1,1,$1+$1,$8,$9*
0 Add four rect primitives between the rounded corners*
20,1,$1+$1,$2,$3,$4,$5,0*
20,1,$1+$1,$4,$5,$6,$7,0*
20,1,$1+$1,$6,$7,$8,$9,0*
20,1,$1+$1,$8,$9,$2,$3,0*%
G04 Aperture macros list end*
%ADD10R,2.600000X1.020000*%
%ADD11R,1.020000X3.200000*%
%ADD12RoundRect,0.150000X0.725000X0.150000X-0.725000X0.150000X-0.725000X-0.150000X0.725000X-0.150000X0*%
%ADD13RoundRect,0.250000X-0.325000X-0.650000X0.325000X-0.650000X0.325000X0.650000X-0.325000X0.650000X0*%
G04 APERTURE END LIST*
D10*
%TO.C,J19*%
X182020000Y-79110000D03*
X182020000Y-81650000D03*
%TD*%
%TO.C,J16*%
X27970000Y-95000000D03*
X27970000Y-92460000D03*
X27970000Y-89920000D03*
%TD*%
D11*
%TO.C,J2*%
X40280000Y-35810000D03*
X42820000Y-35810000D03*
%TD*%
D10*
%TO.C,J13*%
X182030000Y-53475000D03*
X182030000Y-56015000D03*
X182030000Y-58555000D03*
%TD*%
D12*
%TO.C,UI1*%
X109936904Y-73635000D03*
X109936904Y-74905000D03*
X109936904Y-76175000D03*
X109936904Y-77445000D03*
X109936904Y-78715000D03*
X109936904Y-79985000D03*
X109936904Y-81255000D03*
X109936904Y-82525000D03*
X104786904Y-82525000D03*
X104786904Y-81255000D03*
X104786904Y-79985000D03*
X104786904Y-78715000D03*
X104786904Y-77445000D03*
X104786904Y-76175000D03*
X104786904Y-74905000D03*
X104786904Y-73635000D03*
%TD*%
D10*
%TO.C,J14*%
X27980000Y-48450000D03*
X27980000Y-45910000D03*
%TD*%
%TO.C,J17*%
X182030000Y-90000000D03*
X182030000Y-92540000D03*
X182030000Y-95080000D03*
%TD*%
D11*
%TO.C,J3*%
X84280000Y-35810000D03*
X86820000Y-35810000D03*
%TD*%
D13*
%TO.C,CI1*%
X104485000Y-71440000D03*
X107435000Y-71440000D03*
%TD*%
D10*
%TO.C,J20*%
X27980000Y-75180000D03*
X27980000Y-72640000D03*
%TD*%
%TO.C,J18*%
X27980000Y-81590000D03*
X27980000Y-79050000D03*
%TD*%
D11*
%TO.C,J10*%
X20080000Y-35810000D03*
X22620000Y-35810000D03*
%TD*%
D10*
%TO.C,J21*%
X182020000Y-72700000D03*
X182020000Y-75240000D03*
%TD*%
%TO.C,J15*%
X182020000Y-45970000D03*
X182020000Y-48510000D03*
%TD*%
%TO.C,J12*%
X27970000Y-58475000D03*
X27970000Y-55935000D03*
X27970000Y-53395000D03*
%TD*%
D11*
%TO.C,J5*%
X172280000Y-35810000D03*
X174820000Y-35810000D03*
%TD*%
%TO.C,J4*%
X128280000Y-35810000D03*
X130820000Y-35810000D03*
%TD*%
M02*
