%TF.GenerationSoftware,KiCad,Pcbnew,(6.0.7-1)-1*%
%TF.CreationDate,2022-12-02T15:50:45+01:00*%
%TF.ProjectId,3x8,3378382e-6b69-4636-9164-5f7063625858,rev?*%
%TF.SameCoordinates,Original*%
%TF.FileFunction,Legend,Top*%
%TF.FilePolarity,Positive*%
%FSLAX46Y46*%
G04 Gerber Fmt 4.6, Leading zero omitted, Abs format (unit mm)*
G04 Created by KiCad (PCBNEW (6.0.7-1)-1) date 2022-12-02 15:50:45*
%MOMM*%
%LPD*%
G01*
G04 APERTURE LIST*
%ADD10C,0.150000*%
%ADD11C,0.120000*%
G04 APERTURE END LIST*
D10*
%TO.C,D1*%
X27238105Y-46348781D02*
X27238105Y-45348781D01*
X27476201Y-45348781D01*
X27619058Y-45396401D01*
X27714296Y-45491639D01*
X27761915Y-45586877D01*
X27809534Y-45777353D01*
X27809534Y-45920210D01*
X27761915Y-46110686D01*
X27714296Y-46205924D01*
X27619058Y-46301162D01*
X27476201Y-46348781D01*
X27238105Y-46348781D01*
X28761915Y-46348781D02*
X28190486Y-46348781D01*
X28476201Y-46348781D02*
X28476201Y-45348781D01*
X28380962Y-45491639D01*
X28285724Y-45586877D01*
X28190486Y-45634496D01*
%TO.C,D2*%
X49238105Y-46348781D02*
X49238105Y-45348781D01*
X49476201Y-45348781D01*
X49619058Y-45396401D01*
X49714296Y-45491639D01*
X49761915Y-45586877D01*
X49809534Y-45777353D01*
X49809534Y-45920210D01*
X49761915Y-46110686D01*
X49714296Y-46205924D01*
X49619058Y-46301162D01*
X49476201Y-46348781D01*
X49238105Y-46348781D01*
X50190486Y-45444020D02*
X50238105Y-45396401D01*
X50333343Y-45348781D01*
X50571439Y-45348781D01*
X50666677Y-45396401D01*
X50714296Y-45444020D01*
X50761915Y-45539258D01*
X50761915Y-45634496D01*
X50714296Y-45777353D01*
X50142867Y-46348781D01*
X50761915Y-46348781D01*
%TO.C,D3*%
X71238105Y-46348781D02*
X71238105Y-45348781D01*
X71476201Y-45348781D01*
X71619058Y-45396401D01*
X71714296Y-45491639D01*
X71761915Y-45586877D01*
X71809534Y-45777353D01*
X71809534Y-45920210D01*
X71761915Y-46110686D01*
X71714296Y-46205924D01*
X71619058Y-46301162D01*
X71476201Y-46348781D01*
X71238105Y-46348781D01*
X72142867Y-45348781D02*
X72761915Y-45348781D01*
X72428581Y-45729734D01*
X72571439Y-45729734D01*
X72666677Y-45777353D01*
X72714296Y-45824972D01*
X72761915Y-45920210D01*
X72761915Y-46158305D01*
X72714296Y-46253543D01*
X72666677Y-46301162D01*
X72571439Y-46348781D01*
X72285724Y-46348781D01*
X72190486Y-46301162D01*
X72142867Y-46253543D01*
%TO.C,D4*%
X93238105Y-46348781D02*
X93238105Y-45348781D01*
X93476201Y-45348781D01*
X93619058Y-45396401D01*
X93714296Y-45491639D01*
X93761915Y-45586877D01*
X93809534Y-45777353D01*
X93809534Y-45920210D01*
X93761915Y-46110686D01*
X93714296Y-46205924D01*
X93619058Y-46301162D01*
X93476201Y-46348781D01*
X93238105Y-46348781D01*
X94666677Y-45682115D02*
X94666677Y-46348781D01*
X94428581Y-45301162D02*
X94190486Y-46015448D01*
X94809534Y-46015448D01*
%TO.C,D5*%
X115238105Y-46348781D02*
X115238105Y-45348781D01*
X115476201Y-45348781D01*
X115619058Y-45396401D01*
X115714296Y-45491639D01*
X115761915Y-45586877D01*
X115809534Y-45777353D01*
X115809534Y-45920210D01*
X115761915Y-46110686D01*
X115714296Y-46205924D01*
X115619058Y-46301162D01*
X115476201Y-46348781D01*
X115238105Y-46348781D01*
X116714296Y-45348781D02*
X116238105Y-45348781D01*
X116190486Y-45824972D01*
X116238105Y-45777353D01*
X116333343Y-45729734D01*
X116571439Y-45729734D01*
X116666677Y-45777353D01*
X116714296Y-45824972D01*
X116761915Y-45920210D01*
X116761915Y-46158305D01*
X116714296Y-46253543D01*
X116666677Y-46301162D01*
X116571439Y-46348781D01*
X116333343Y-46348781D01*
X116238105Y-46301162D01*
X116190486Y-46253543D01*
%TO.C,D6*%
X137238105Y-46348781D02*
X137238105Y-45348781D01*
X137476201Y-45348781D01*
X137619058Y-45396401D01*
X137714296Y-45491639D01*
X137761915Y-45586877D01*
X137809534Y-45777353D01*
X137809534Y-45920210D01*
X137761915Y-46110686D01*
X137714296Y-46205924D01*
X137619058Y-46301162D01*
X137476201Y-46348781D01*
X137238105Y-46348781D01*
X138666677Y-45348781D02*
X138476201Y-45348781D01*
X138380962Y-45396401D01*
X138333343Y-45444020D01*
X138238105Y-45586877D01*
X138190486Y-45777353D01*
X138190486Y-46158305D01*
X138238105Y-46253543D01*
X138285724Y-46301162D01*
X138380962Y-46348781D01*
X138571439Y-46348781D01*
X138666677Y-46301162D01*
X138714296Y-46253543D01*
X138761915Y-46158305D01*
X138761915Y-45920210D01*
X138714296Y-45824972D01*
X138666677Y-45777353D01*
X138571439Y-45729734D01*
X138380962Y-45729734D01*
X138285724Y-45777353D01*
X138238105Y-45824972D01*
X138190486Y-45920210D01*
%TO.C,D7*%
X159238105Y-46348781D02*
X159238105Y-45348781D01*
X159476201Y-45348781D01*
X159619058Y-45396401D01*
X159714296Y-45491639D01*
X159761915Y-45586877D01*
X159809534Y-45777353D01*
X159809534Y-45920210D01*
X159761915Y-46110686D01*
X159714296Y-46205924D01*
X159619058Y-46301162D01*
X159476201Y-46348781D01*
X159238105Y-46348781D01*
X160142867Y-45348781D02*
X160809534Y-45348781D01*
X160380962Y-46348781D01*
%TO.C,D8*%
X181238105Y-46348781D02*
X181238105Y-45348781D01*
X181476201Y-45348781D01*
X181619058Y-45396401D01*
X181714296Y-45491639D01*
X181761915Y-45586877D01*
X181809534Y-45777353D01*
X181809534Y-45920210D01*
X181761915Y-46110686D01*
X181714296Y-46205924D01*
X181619058Y-46301162D01*
X181476201Y-46348781D01*
X181238105Y-46348781D01*
X182380962Y-45777353D02*
X182285724Y-45729734D01*
X182238105Y-45682115D01*
X182190486Y-45586877D01*
X182190486Y-45539258D01*
X182238105Y-45444020D01*
X182285724Y-45396401D01*
X182380962Y-45348781D01*
X182571439Y-45348781D01*
X182666677Y-45396401D01*
X182714296Y-45444020D01*
X182761915Y-45539258D01*
X182761915Y-45586877D01*
X182714296Y-45682115D01*
X182666677Y-45729734D01*
X182571439Y-45777353D01*
X182380962Y-45777353D01*
X182285724Y-45824972D01*
X182238105Y-45872591D01*
X182190486Y-45967829D01*
X182190486Y-46158305D01*
X182238105Y-46253543D01*
X182285724Y-46301162D01*
X182380962Y-46348781D01*
X182571439Y-46348781D01*
X182666677Y-46301162D01*
X182714296Y-46253543D01*
X182761915Y-46158305D01*
X182761915Y-45967829D01*
X182714296Y-45872591D01*
X182666677Y-45824972D01*
X182571439Y-45777353D01*
%TO.C,D9*%
X27238105Y-70048781D02*
X27238105Y-69048781D01*
X27476201Y-69048781D01*
X27619058Y-69096401D01*
X27714296Y-69191639D01*
X27761915Y-69286877D01*
X27809534Y-69477353D01*
X27809534Y-69620210D01*
X27761915Y-69810686D01*
X27714296Y-69905924D01*
X27619058Y-70001162D01*
X27476201Y-70048781D01*
X27238105Y-70048781D01*
X28285724Y-70048781D02*
X28476201Y-70048781D01*
X28571439Y-70001162D01*
X28619058Y-69953543D01*
X28714296Y-69810686D01*
X28761915Y-69620210D01*
X28761915Y-69239258D01*
X28714296Y-69144020D01*
X28666677Y-69096401D01*
X28571439Y-69048781D01*
X28380962Y-69048781D01*
X28285724Y-69096401D01*
X28238105Y-69144020D01*
X28190486Y-69239258D01*
X28190486Y-69477353D01*
X28238105Y-69572591D01*
X28285724Y-69620210D01*
X28380962Y-69667829D01*
X28571439Y-69667829D01*
X28666677Y-69620210D01*
X28714296Y-69572591D01*
X28761915Y-69477353D01*
%TO.C,D10*%
X48761915Y-70048781D02*
X48761915Y-69048781D01*
X49000010Y-69048781D01*
X49142867Y-69096401D01*
X49238105Y-69191639D01*
X49285724Y-69286877D01*
X49333343Y-69477353D01*
X49333343Y-69620210D01*
X49285724Y-69810686D01*
X49238105Y-69905924D01*
X49142867Y-70001162D01*
X49000010Y-70048781D01*
X48761915Y-70048781D01*
X50285724Y-70048781D02*
X49714296Y-70048781D01*
X50000010Y-70048781D02*
X50000010Y-69048781D01*
X49904772Y-69191639D01*
X49809534Y-69286877D01*
X49714296Y-69334496D01*
X50904772Y-69048781D02*
X51000010Y-69048781D01*
X51095248Y-69096401D01*
X51142867Y-69144020D01*
X51190486Y-69239258D01*
X51238105Y-69429734D01*
X51238105Y-69667829D01*
X51190486Y-69858305D01*
X51142867Y-69953543D01*
X51095248Y-70001162D01*
X51000010Y-70048781D01*
X50904772Y-70048781D01*
X50809534Y-70001162D01*
X50761915Y-69953543D01*
X50714296Y-69858305D01*
X50666677Y-69667829D01*
X50666677Y-69429734D01*
X50714296Y-69239258D01*
X50761915Y-69144020D01*
X50809534Y-69096401D01*
X50904772Y-69048781D01*
%TO.C,D11*%
X70761915Y-70048781D02*
X70761915Y-69048781D01*
X71000010Y-69048781D01*
X71142867Y-69096401D01*
X71238105Y-69191639D01*
X71285724Y-69286877D01*
X71333343Y-69477353D01*
X71333343Y-69620210D01*
X71285724Y-69810686D01*
X71238105Y-69905924D01*
X71142867Y-70001162D01*
X71000010Y-70048781D01*
X70761915Y-70048781D01*
X72285724Y-70048781D02*
X71714296Y-70048781D01*
X72000010Y-70048781D02*
X72000010Y-69048781D01*
X71904772Y-69191639D01*
X71809534Y-69286877D01*
X71714296Y-69334496D01*
X73238105Y-70048781D02*
X72666677Y-70048781D01*
X72952391Y-70048781D02*
X72952391Y-69048781D01*
X72857153Y-69191639D01*
X72761915Y-69286877D01*
X72666677Y-69334496D01*
%TO.C,D12*%
X92761915Y-70048781D02*
X92761915Y-69048781D01*
X93000010Y-69048781D01*
X93142867Y-69096401D01*
X93238105Y-69191639D01*
X93285724Y-69286877D01*
X93333343Y-69477353D01*
X93333343Y-69620210D01*
X93285724Y-69810686D01*
X93238105Y-69905924D01*
X93142867Y-70001162D01*
X93000010Y-70048781D01*
X92761915Y-70048781D01*
X94285724Y-70048781D02*
X93714296Y-70048781D01*
X94000010Y-70048781D02*
X94000010Y-69048781D01*
X93904772Y-69191639D01*
X93809534Y-69286877D01*
X93714296Y-69334496D01*
X94666677Y-69144020D02*
X94714296Y-69096401D01*
X94809534Y-69048781D01*
X95047629Y-69048781D01*
X95142867Y-69096401D01*
X95190486Y-69144020D01*
X95238105Y-69239258D01*
X95238105Y-69334496D01*
X95190486Y-69477353D01*
X94619058Y-70048781D01*
X95238105Y-70048781D01*
%TO.C,D13*%
X114761915Y-70048781D02*
X114761915Y-69048781D01*
X115000010Y-69048781D01*
X115142867Y-69096401D01*
X115238105Y-69191639D01*
X115285724Y-69286877D01*
X115333343Y-69477353D01*
X115333343Y-69620210D01*
X115285724Y-69810686D01*
X115238105Y-69905924D01*
X115142867Y-70001162D01*
X115000010Y-70048781D01*
X114761915Y-70048781D01*
X116285724Y-70048781D02*
X115714296Y-70048781D01*
X116000010Y-70048781D02*
X116000010Y-69048781D01*
X115904772Y-69191639D01*
X115809534Y-69286877D01*
X115714296Y-69334496D01*
X116619058Y-69048781D02*
X117238105Y-69048781D01*
X116904772Y-69429734D01*
X117047629Y-69429734D01*
X117142867Y-69477353D01*
X117190486Y-69524972D01*
X117238105Y-69620210D01*
X117238105Y-69858305D01*
X117190486Y-69953543D01*
X117142867Y-70001162D01*
X117047629Y-70048781D01*
X116761915Y-70048781D01*
X116666677Y-70001162D01*
X116619058Y-69953543D01*
%TO.C,D14*%
X136761915Y-70048781D02*
X136761915Y-69048781D01*
X137000010Y-69048781D01*
X137142867Y-69096401D01*
X137238105Y-69191639D01*
X137285724Y-69286877D01*
X137333343Y-69477353D01*
X137333343Y-69620210D01*
X137285724Y-69810686D01*
X137238105Y-69905924D01*
X137142867Y-70001162D01*
X137000010Y-70048781D01*
X136761915Y-70048781D01*
X138285724Y-70048781D02*
X137714296Y-70048781D01*
X138000010Y-70048781D02*
X138000010Y-69048781D01*
X137904772Y-69191639D01*
X137809534Y-69286877D01*
X137714296Y-69334496D01*
X139142867Y-69382115D02*
X139142867Y-70048781D01*
X138904772Y-69001162D02*
X138666677Y-69715448D01*
X139285724Y-69715448D01*
%TO.C,D15*%
X158761915Y-70048781D02*
X158761915Y-69048781D01*
X159000010Y-69048781D01*
X159142867Y-69096401D01*
X159238105Y-69191639D01*
X159285724Y-69286877D01*
X159333343Y-69477353D01*
X159333343Y-69620210D01*
X159285724Y-69810686D01*
X159238105Y-69905924D01*
X159142867Y-70001162D01*
X159000010Y-70048781D01*
X158761915Y-70048781D01*
X160285724Y-70048781D02*
X159714296Y-70048781D01*
X160000010Y-70048781D02*
X160000010Y-69048781D01*
X159904772Y-69191639D01*
X159809534Y-69286877D01*
X159714296Y-69334496D01*
X161190486Y-69048781D02*
X160714296Y-69048781D01*
X160666677Y-69524972D01*
X160714296Y-69477353D01*
X160809534Y-69429734D01*
X161047629Y-69429734D01*
X161142867Y-69477353D01*
X161190486Y-69524972D01*
X161238105Y-69620210D01*
X161238105Y-69858305D01*
X161190486Y-69953543D01*
X161142867Y-70001162D01*
X161047629Y-70048781D01*
X160809534Y-70048781D01*
X160714296Y-70001162D01*
X160666677Y-69953543D01*
%TO.C,D16*%
X180761915Y-70048781D02*
X180761915Y-69048781D01*
X181000010Y-69048781D01*
X181142867Y-69096401D01*
X181238105Y-69191639D01*
X181285724Y-69286877D01*
X181333343Y-69477353D01*
X181333343Y-69620210D01*
X181285724Y-69810686D01*
X181238105Y-69905924D01*
X181142867Y-70001162D01*
X181000010Y-70048781D01*
X180761915Y-70048781D01*
X182285724Y-70048781D02*
X181714296Y-70048781D01*
X182000010Y-70048781D02*
X182000010Y-69048781D01*
X181904772Y-69191639D01*
X181809534Y-69286877D01*
X181714296Y-69334496D01*
X183142867Y-69048781D02*
X182952391Y-69048781D01*
X182857153Y-69096401D01*
X182809534Y-69144020D01*
X182714296Y-69286877D01*
X182666677Y-69477353D01*
X182666677Y-69858305D01*
X182714296Y-69953543D01*
X182761915Y-70001162D01*
X182857153Y-70048781D01*
X183047629Y-70048781D01*
X183142867Y-70001162D01*
X183190486Y-69953543D01*
X183238105Y-69858305D01*
X183238105Y-69620210D01*
X183190486Y-69524972D01*
X183142867Y-69477353D01*
X183047629Y-69429734D01*
X182857153Y-69429734D01*
X182761915Y-69477353D01*
X182714296Y-69524972D01*
X182666677Y-69620210D01*
%TO.C,D17*%
X26761915Y-93748781D02*
X26761915Y-92748781D01*
X27000010Y-92748781D01*
X27142867Y-92796401D01*
X27238105Y-92891639D01*
X27285724Y-92986877D01*
X27333343Y-93177353D01*
X27333343Y-93320210D01*
X27285724Y-93510686D01*
X27238105Y-93605924D01*
X27142867Y-93701162D01*
X27000010Y-93748781D01*
X26761915Y-93748781D01*
X28285724Y-93748781D02*
X27714296Y-93748781D01*
X28000010Y-93748781D02*
X28000010Y-92748781D01*
X27904772Y-92891639D01*
X27809534Y-92986877D01*
X27714296Y-93034496D01*
X28619058Y-92748781D02*
X29285724Y-92748781D01*
X28857153Y-93748781D01*
%TO.C,D18*%
X48761915Y-93748781D02*
X48761915Y-92748781D01*
X49000010Y-92748781D01*
X49142867Y-92796401D01*
X49238105Y-92891639D01*
X49285724Y-92986877D01*
X49333343Y-93177353D01*
X49333343Y-93320210D01*
X49285724Y-93510686D01*
X49238105Y-93605924D01*
X49142867Y-93701162D01*
X49000010Y-93748781D01*
X48761915Y-93748781D01*
X50285724Y-93748781D02*
X49714296Y-93748781D01*
X50000010Y-93748781D02*
X50000010Y-92748781D01*
X49904772Y-92891639D01*
X49809534Y-92986877D01*
X49714296Y-93034496D01*
X50857153Y-93177353D02*
X50761915Y-93129734D01*
X50714296Y-93082115D01*
X50666677Y-92986877D01*
X50666677Y-92939258D01*
X50714296Y-92844020D01*
X50761915Y-92796401D01*
X50857153Y-92748781D01*
X51047629Y-92748781D01*
X51142867Y-92796401D01*
X51190486Y-92844020D01*
X51238105Y-92939258D01*
X51238105Y-92986877D01*
X51190486Y-93082115D01*
X51142867Y-93129734D01*
X51047629Y-93177353D01*
X50857153Y-93177353D01*
X50761915Y-93224972D01*
X50714296Y-93272591D01*
X50666677Y-93367829D01*
X50666677Y-93558305D01*
X50714296Y-93653543D01*
X50761915Y-93701162D01*
X50857153Y-93748781D01*
X51047629Y-93748781D01*
X51142867Y-93701162D01*
X51190486Y-93653543D01*
X51238105Y-93558305D01*
X51238105Y-93367829D01*
X51190486Y-93272591D01*
X51142867Y-93224972D01*
X51047629Y-93177353D01*
%TO.C,D19*%
X70761915Y-93748781D02*
X70761915Y-92748781D01*
X71000010Y-92748781D01*
X71142867Y-92796401D01*
X71238105Y-92891639D01*
X71285724Y-92986877D01*
X71333343Y-93177353D01*
X71333343Y-93320210D01*
X71285724Y-93510686D01*
X71238105Y-93605924D01*
X71142867Y-93701162D01*
X71000010Y-93748781D01*
X70761915Y-93748781D01*
X72285724Y-93748781D02*
X71714296Y-93748781D01*
X72000010Y-93748781D02*
X72000010Y-92748781D01*
X71904772Y-92891639D01*
X71809534Y-92986877D01*
X71714296Y-93034496D01*
X72761915Y-93748781D02*
X72952391Y-93748781D01*
X73047629Y-93701162D01*
X73095248Y-93653543D01*
X73190486Y-93510686D01*
X73238105Y-93320210D01*
X73238105Y-92939258D01*
X73190486Y-92844020D01*
X73142867Y-92796401D01*
X73047629Y-92748781D01*
X72857153Y-92748781D01*
X72761915Y-92796401D01*
X72714296Y-92844020D01*
X72666677Y-92939258D01*
X72666677Y-93177353D01*
X72714296Y-93272591D01*
X72761915Y-93320210D01*
X72857153Y-93367829D01*
X73047629Y-93367829D01*
X73142867Y-93320210D01*
X73190486Y-93272591D01*
X73238105Y-93177353D01*
%TO.C,D20*%
X92761915Y-93748781D02*
X92761915Y-92748781D01*
X93000010Y-92748781D01*
X93142867Y-92796401D01*
X93238105Y-92891639D01*
X93285724Y-92986877D01*
X93333343Y-93177353D01*
X93333343Y-93320210D01*
X93285724Y-93510686D01*
X93238105Y-93605924D01*
X93142867Y-93701162D01*
X93000010Y-93748781D01*
X92761915Y-93748781D01*
X93714296Y-92844020D02*
X93761915Y-92796401D01*
X93857153Y-92748781D01*
X94095248Y-92748781D01*
X94190486Y-92796401D01*
X94238105Y-92844020D01*
X94285724Y-92939258D01*
X94285724Y-93034496D01*
X94238105Y-93177353D01*
X93666677Y-93748781D01*
X94285724Y-93748781D01*
X94904772Y-92748781D02*
X95000010Y-92748781D01*
X95095248Y-92796401D01*
X95142867Y-92844020D01*
X95190486Y-92939258D01*
X95238105Y-93129734D01*
X95238105Y-93367829D01*
X95190486Y-93558305D01*
X95142867Y-93653543D01*
X95095248Y-93701162D01*
X95000010Y-93748781D01*
X94904772Y-93748781D01*
X94809534Y-93701162D01*
X94761915Y-93653543D01*
X94714296Y-93558305D01*
X94666677Y-93367829D01*
X94666677Y-93129734D01*
X94714296Y-92939258D01*
X94761915Y-92844020D01*
X94809534Y-92796401D01*
X94904772Y-92748781D01*
%TO.C,D21*%
X114761915Y-93748781D02*
X114761915Y-92748781D01*
X115000010Y-92748781D01*
X115142867Y-92796401D01*
X115238105Y-92891639D01*
X115285724Y-92986877D01*
X115333343Y-93177353D01*
X115333343Y-93320210D01*
X115285724Y-93510686D01*
X115238105Y-93605924D01*
X115142867Y-93701162D01*
X115000010Y-93748781D01*
X114761915Y-93748781D01*
X115714296Y-92844020D02*
X115761915Y-92796401D01*
X115857153Y-92748781D01*
X116095248Y-92748781D01*
X116190486Y-92796401D01*
X116238105Y-92844020D01*
X116285724Y-92939258D01*
X116285724Y-93034496D01*
X116238105Y-93177353D01*
X115666677Y-93748781D01*
X116285724Y-93748781D01*
X117238105Y-93748781D02*
X116666677Y-93748781D01*
X116952391Y-93748781D02*
X116952391Y-92748781D01*
X116857153Y-92891639D01*
X116761915Y-92986877D01*
X116666677Y-93034496D01*
%TO.C,D22*%
X136761915Y-93748781D02*
X136761915Y-92748781D01*
X137000010Y-92748781D01*
X137142867Y-92796401D01*
X137238105Y-92891639D01*
X137285724Y-92986877D01*
X137333343Y-93177353D01*
X137333343Y-93320210D01*
X137285724Y-93510686D01*
X137238105Y-93605924D01*
X137142867Y-93701162D01*
X137000010Y-93748781D01*
X136761915Y-93748781D01*
X137714296Y-92844020D02*
X137761915Y-92796401D01*
X137857153Y-92748781D01*
X138095248Y-92748781D01*
X138190486Y-92796401D01*
X138238105Y-92844020D01*
X138285724Y-92939258D01*
X138285724Y-93034496D01*
X138238105Y-93177353D01*
X137666677Y-93748781D01*
X138285724Y-93748781D01*
X138666677Y-92844020D02*
X138714296Y-92796401D01*
X138809534Y-92748781D01*
X139047629Y-92748781D01*
X139142867Y-92796401D01*
X139190486Y-92844020D01*
X139238105Y-92939258D01*
X139238105Y-93034496D01*
X139190486Y-93177353D01*
X138619058Y-93748781D01*
X139238105Y-93748781D01*
%TO.C,D23*%
X158761915Y-93748781D02*
X158761915Y-92748781D01*
X159000010Y-92748781D01*
X159142867Y-92796401D01*
X159238105Y-92891639D01*
X159285724Y-92986877D01*
X159333343Y-93177353D01*
X159333343Y-93320210D01*
X159285724Y-93510686D01*
X159238105Y-93605924D01*
X159142867Y-93701162D01*
X159000010Y-93748781D01*
X158761915Y-93748781D01*
X159714296Y-92844020D02*
X159761915Y-92796401D01*
X159857153Y-92748781D01*
X160095248Y-92748781D01*
X160190486Y-92796401D01*
X160238105Y-92844020D01*
X160285724Y-92939258D01*
X160285724Y-93034496D01*
X160238105Y-93177353D01*
X159666677Y-93748781D01*
X160285724Y-93748781D01*
X160619058Y-92748781D02*
X161238105Y-92748781D01*
X160904772Y-93129734D01*
X161047629Y-93129734D01*
X161142867Y-93177353D01*
X161190486Y-93224972D01*
X161238105Y-93320210D01*
X161238105Y-93558305D01*
X161190486Y-93653543D01*
X161142867Y-93701162D01*
X161047629Y-93748781D01*
X160761915Y-93748781D01*
X160666677Y-93701162D01*
X160619058Y-93653543D01*
%TO.C,D24*%
X180761915Y-93748781D02*
X180761915Y-92748781D01*
X181000010Y-92748781D01*
X181142867Y-92796401D01*
X181238105Y-92891639D01*
X181285724Y-92986877D01*
X181333343Y-93177353D01*
X181333343Y-93320210D01*
X181285724Y-93510686D01*
X181238105Y-93605924D01*
X181142867Y-93701162D01*
X181000010Y-93748781D01*
X180761915Y-93748781D01*
X181714296Y-92844020D02*
X181761915Y-92796401D01*
X181857153Y-92748781D01*
X182095248Y-92748781D01*
X182190486Y-92796401D01*
X182238105Y-92844020D01*
X182285724Y-92939258D01*
X182285724Y-93034496D01*
X182238105Y-93177353D01*
X181666677Y-93748781D01*
X182285724Y-93748781D01*
X183142867Y-93082115D02*
X183142867Y-93748781D01*
X182904772Y-92701162D02*
X182666677Y-93415448D01*
X183285724Y-93415448D01*
%TO.C,U1*%
X24952380Y-42111904D02*
X25761904Y-42111904D01*
X25857142Y-42064285D01*
X25904761Y-42016666D01*
X25952380Y-41921428D01*
X25952380Y-41730952D01*
X25904761Y-41635714D01*
X25857142Y-41588095D01*
X25761904Y-41540476D01*
X24952380Y-41540476D01*
X25952380Y-40540476D02*
X25952380Y-41111904D01*
X25952380Y-40826190D02*
X24952380Y-40826190D01*
X25095238Y-40921428D01*
X25190476Y-41016666D01*
X25238095Y-41111904D01*
%TO.C,U2*%
X46952380Y-42111904D02*
X47761904Y-42111904D01*
X47857142Y-42064285D01*
X47904761Y-42016666D01*
X47952380Y-41921428D01*
X47952380Y-41730952D01*
X47904761Y-41635714D01*
X47857142Y-41588095D01*
X47761904Y-41540476D01*
X46952380Y-41540476D01*
X47047619Y-41111904D02*
X47000000Y-41064285D01*
X46952380Y-40969047D01*
X46952380Y-40730952D01*
X47000000Y-40635714D01*
X47047619Y-40588095D01*
X47142857Y-40540476D01*
X47238095Y-40540476D01*
X47380952Y-40588095D01*
X47952380Y-41159523D01*
X47952380Y-40540476D01*
%TO.C,U3*%
X68952380Y-42111904D02*
X69761904Y-42111904D01*
X69857142Y-42064285D01*
X69904761Y-42016666D01*
X69952380Y-41921428D01*
X69952380Y-41730952D01*
X69904761Y-41635714D01*
X69857142Y-41588095D01*
X69761904Y-41540476D01*
X68952380Y-41540476D01*
X68952380Y-41159523D02*
X68952380Y-40540476D01*
X69333333Y-40873809D01*
X69333333Y-40730952D01*
X69380952Y-40635714D01*
X69428571Y-40588095D01*
X69523809Y-40540476D01*
X69761904Y-40540476D01*
X69857142Y-40588095D01*
X69904761Y-40635714D01*
X69952380Y-40730952D01*
X69952380Y-41016666D01*
X69904761Y-41111904D01*
X69857142Y-41159523D01*
%TO.C,U4*%
X90952380Y-42111904D02*
X91761904Y-42111904D01*
X91857142Y-42064285D01*
X91904761Y-42016666D01*
X91952380Y-41921428D01*
X91952380Y-41730952D01*
X91904761Y-41635714D01*
X91857142Y-41588095D01*
X91761904Y-41540476D01*
X90952380Y-41540476D01*
X91285714Y-40635714D02*
X91952380Y-40635714D01*
X90904761Y-40873809D02*
X91619047Y-41111904D01*
X91619047Y-40492857D01*
%TO.C,U5*%
X112952380Y-42111904D02*
X113761904Y-42111904D01*
X113857142Y-42064285D01*
X113904761Y-42016666D01*
X113952380Y-41921428D01*
X113952380Y-41730952D01*
X113904761Y-41635714D01*
X113857142Y-41588095D01*
X113761904Y-41540476D01*
X112952380Y-41540476D01*
X112952380Y-40588095D02*
X112952380Y-41064285D01*
X113428571Y-41111904D01*
X113380952Y-41064285D01*
X113333333Y-40969047D01*
X113333333Y-40730952D01*
X113380952Y-40635714D01*
X113428571Y-40588095D01*
X113523809Y-40540476D01*
X113761904Y-40540476D01*
X113857142Y-40588095D01*
X113904761Y-40635714D01*
X113952380Y-40730952D01*
X113952380Y-40969047D01*
X113904761Y-41064285D01*
X113857142Y-41111904D01*
%TO.C,U6*%
X134952380Y-42111904D02*
X135761904Y-42111904D01*
X135857142Y-42064285D01*
X135904761Y-42016666D01*
X135952380Y-41921428D01*
X135952380Y-41730952D01*
X135904761Y-41635714D01*
X135857142Y-41588095D01*
X135761904Y-41540476D01*
X134952380Y-41540476D01*
X134952380Y-40635714D02*
X134952380Y-40826190D01*
X135000000Y-40921428D01*
X135047619Y-40969047D01*
X135190476Y-41064285D01*
X135380952Y-41111904D01*
X135761904Y-41111904D01*
X135857142Y-41064285D01*
X135904761Y-41016666D01*
X135952380Y-40921428D01*
X135952380Y-40730952D01*
X135904761Y-40635714D01*
X135857142Y-40588095D01*
X135761904Y-40540476D01*
X135523809Y-40540476D01*
X135428571Y-40588095D01*
X135380952Y-40635714D01*
X135333333Y-40730952D01*
X135333333Y-40921428D01*
X135380952Y-41016666D01*
X135428571Y-41064285D01*
X135523809Y-41111904D01*
%TO.C,U7*%
X156952380Y-42111904D02*
X157761904Y-42111904D01*
X157857142Y-42064285D01*
X157904761Y-42016666D01*
X157952380Y-41921428D01*
X157952380Y-41730952D01*
X157904761Y-41635714D01*
X157857142Y-41588095D01*
X157761904Y-41540476D01*
X156952380Y-41540476D01*
X156952380Y-41159523D02*
X156952380Y-40492857D01*
X157952380Y-40921428D01*
%TO.C,U8*%
X178952380Y-42111904D02*
X179761904Y-42111904D01*
X179857142Y-42064285D01*
X179904761Y-42016666D01*
X179952380Y-41921428D01*
X179952380Y-41730952D01*
X179904761Y-41635714D01*
X179857142Y-41588095D01*
X179761904Y-41540476D01*
X178952380Y-41540476D01*
X179380952Y-40921428D02*
X179333333Y-41016666D01*
X179285714Y-41064285D01*
X179190476Y-41111904D01*
X179142857Y-41111904D01*
X179047619Y-41064285D01*
X179000000Y-41016666D01*
X178952380Y-40921428D01*
X178952380Y-40730952D01*
X179000000Y-40635714D01*
X179047619Y-40588095D01*
X179142857Y-40540476D01*
X179190476Y-40540476D01*
X179285714Y-40588095D01*
X179333333Y-40635714D01*
X179380952Y-40730952D01*
X179380952Y-40921428D01*
X179428571Y-41016666D01*
X179476190Y-41064285D01*
X179571428Y-41111904D01*
X179761904Y-41111904D01*
X179857142Y-41064285D01*
X179904761Y-41016666D01*
X179952380Y-40921428D01*
X179952380Y-40730952D01*
X179904761Y-40635714D01*
X179857142Y-40588095D01*
X179761904Y-40540476D01*
X179571428Y-40540476D01*
X179476190Y-40588095D01*
X179428571Y-40635714D01*
X179380952Y-40730952D01*
%TO.C,U9*%
X24962380Y-66031904D02*
X25771904Y-66031904D01*
X25867142Y-65984285D01*
X25914761Y-65936666D01*
X25962380Y-65841428D01*
X25962380Y-65650952D01*
X25914761Y-65555714D01*
X25867142Y-65508095D01*
X25771904Y-65460476D01*
X24962380Y-65460476D01*
X25962380Y-64936666D02*
X25962380Y-64746190D01*
X25914761Y-64650952D01*
X25867142Y-64603333D01*
X25724285Y-64508095D01*
X25533809Y-64460476D01*
X25152857Y-64460476D01*
X25057619Y-64508095D01*
X25010000Y-64555714D01*
X24962380Y-64650952D01*
X24962380Y-64841428D01*
X25010000Y-64936666D01*
X25057619Y-64984285D01*
X25152857Y-65031904D01*
X25390952Y-65031904D01*
X25486190Y-64984285D01*
X25533809Y-64936666D01*
X25581428Y-64841428D01*
X25581428Y-64650952D01*
X25533809Y-64555714D01*
X25486190Y-64508095D01*
X25390952Y-64460476D01*
%TO.C,U10*%
X46952380Y-66288095D02*
X47761904Y-66288095D01*
X47857142Y-66240476D01*
X47904761Y-66192857D01*
X47952380Y-66097619D01*
X47952380Y-65907142D01*
X47904761Y-65811904D01*
X47857142Y-65764285D01*
X47761904Y-65716666D01*
X46952380Y-65716666D01*
X47952380Y-64716666D02*
X47952380Y-65288095D01*
X47952380Y-65002380D02*
X46952380Y-65002380D01*
X47095238Y-65097619D01*
X47190476Y-65192857D01*
X47238095Y-65288095D01*
X46952380Y-64097619D02*
X46952380Y-64002380D01*
X47000000Y-63907142D01*
X47047619Y-63859523D01*
X47142857Y-63811904D01*
X47333333Y-63764285D01*
X47571428Y-63764285D01*
X47761904Y-63811904D01*
X47857142Y-63859523D01*
X47904761Y-63907142D01*
X47952380Y-64002380D01*
X47952380Y-64097619D01*
X47904761Y-64192857D01*
X47857142Y-64240476D01*
X47761904Y-64288095D01*
X47571428Y-64335714D01*
X47333333Y-64335714D01*
X47142857Y-64288095D01*
X47047619Y-64240476D01*
X47000000Y-64192857D01*
X46952380Y-64097619D01*
%TO.C,U11*%
X68952380Y-66288095D02*
X69761904Y-66288095D01*
X69857142Y-66240476D01*
X69904761Y-66192857D01*
X69952380Y-66097619D01*
X69952380Y-65907142D01*
X69904761Y-65811904D01*
X69857142Y-65764285D01*
X69761904Y-65716666D01*
X68952380Y-65716666D01*
X69952380Y-64716666D02*
X69952380Y-65288095D01*
X69952380Y-65002380D02*
X68952380Y-65002380D01*
X69095238Y-65097619D01*
X69190476Y-65192857D01*
X69238095Y-65288095D01*
X69952380Y-63764285D02*
X69952380Y-64335714D01*
X69952380Y-64050000D02*
X68952380Y-64050000D01*
X69095238Y-64145238D01*
X69190476Y-64240476D01*
X69238095Y-64335714D01*
%TO.C,U12*%
X90952380Y-66288095D02*
X91761904Y-66288095D01*
X91857142Y-66240476D01*
X91904761Y-66192857D01*
X91952380Y-66097619D01*
X91952380Y-65907142D01*
X91904761Y-65811904D01*
X91857142Y-65764285D01*
X91761904Y-65716666D01*
X90952380Y-65716666D01*
X91952380Y-64716666D02*
X91952380Y-65288095D01*
X91952380Y-65002380D02*
X90952380Y-65002380D01*
X91095238Y-65097619D01*
X91190476Y-65192857D01*
X91238095Y-65288095D01*
X91047619Y-64335714D02*
X91000000Y-64288095D01*
X90952380Y-64192857D01*
X90952380Y-63954761D01*
X91000000Y-63859523D01*
X91047619Y-63811904D01*
X91142857Y-63764285D01*
X91238095Y-63764285D01*
X91380952Y-63811904D01*
X91952380Y-64383333D01*
X91952380Y-63764285D01*
%TO.C,U13*%
X112952380Y-66288095D02*
X113761904Y-66288095D01*
X113857142Y-66240476D01*
X113904761Y-66192857D01*
X113952380Y-66097619D01*
X113952380Y-65907142D01*
X113904761Y-65811904D01*
X113857142Y-65764285D01*
X113761904Y-65716666D01*
X112952380Y-65716666D01*
X113952380Y-64716666D02*
X113952380Y-65288095D01*
X113952380Y-65002380D02*
X112952380Y-65002380D01*
X113095238Y-65097619D01*
X113190476Y-65192857D01*
X113238095Y-65288095D01*
X112952380Y-64383333D02*
X112952380Y-63764285D01*
X113333333Y-64097619D01*
X113333333Y-63954761D01*
X113380952Y-63859523D01*
X113428571Y-63811904D01*
X113523809Y-63764285D01*
X113761904Y-63764285D01*
X113857142Y-63811904D01*
X113904761Y-63859523D01*
X113952380Y-63954761D01*
X113952380Y-64240476D01*
X113904761Y-64335714D01*
X113857142Y-64383333D01*
%TO.C,U14*%
X134952380Y-66288095D02*
X135761904Y-66288095D01*
X135857142Y-66240476D01*
X135904761Y-66192857D01*
X135952380Y-66097619D01*
X135952380Y-65907142D01*
X135904761Y-65811904D01*
X135857142Y-65764285D01*
X135761904Y-65716666D01*
X134952380Y-65716666D01*
X135952380Y-64716666D02*
X135952380Y-65288095D01*
X135952380Y-65002380D02*
X134952380Y-65002380D01*
X135095238Y-65097619D01*
X135190476Y-65192857D01*
X135238095Y-65288095D01*
X135285714Y-63859523D02*
X135952380Y-63859523D01*
X134904761Y-64097619D02*
X135619047Y-64335714D01*
X135619047Y-63716666D01*
%TO.C,U15*%
X156952380Y-66288095D02*
X157761904Y-66288095D01*
X157857142Y-66240476D01*
X157904761Y-66192857D01*
X157952380Y-66097619D01*
X157952380Y-65907142D01*
X157904761Y-65811904D01*
X157857142Y-65764285D01*
X157761904Y-65716666D01*
X156952380Y-65716666D01*
X157952380Y-64716666D02*
X157952380Y-65288095D01*
X157952380Y-65002380D02*
X156952380Y-65002380D01*
X157095238Y-65097619D01*
X157190476Y-65192857D01*
X157238095Y-65288095D01*
X156952380Y-63811904D02*
X156952380Y-64288095D01*
X157428571Y-64335714D01*
X157380952Y-64288095D01*
X157333333Y-64192857D01*
X157333333Y-63954761D01*
X157380952Y-63859523D01*
X157428571Y-63811904D01*
X157523809Y-63764285D01*
X157761904Y-63764285D01*
X157857142Y-63811904D01*
X157904761Y-63859523D01*
X157952380Y-63954761D01*
X157952380Y-64192857D01*
X157904761Y-64288095D01*
X157857142Y-64335714D01*
%TO.C,U16*%
X178952380Y-66288095D02*
X179761904Y-66288095D01*
X179857142Y-66240476D01*
X179904761Y-66192857D01*
X179952380Y-66097619D01*
X179952380Y-65907142D01*
X179904761Y-65811904D01*
X179857142Y-65764285D01*
X179761904Y-65716666D01*
X178952380Y-65716666D01*
X179952380Y-64716666D02*
X179952380Y-65288095D01*
X179952380Y-65002380D02*
X178952380Y-65002380D01*
X179095238Y-65097619D01*
X179190476Y-65192857D01*
X179238095Y-65288095D01*
X178952380Y-63859523D02*
X178952380Y-64050000D01*
X179000000Y-64145238D01*
X179047619Y-64192857D01*
X179190476Y-64288095D01*
X179380952Y-64335714D01*
X179761904Y-64335714D01*
X179857142Y-64288095D01*
X179904761Y-64240476D01*
X179952380Y-64145238D01*
X179952380Y-63954761D01*
X179904761Y-63859523D01*
X179857142Y-63811904D01*
X179761904Y-63764285D01*
X179523809Y-63764285D01*
X179428571Y-63811904D01*
X179380952Y-63859523D01*
X179333333Y-63954761D01*
X179333333Y-64145238D01*
X179380952Y-64240476D01*
X179428571Y-64288095D01*
X179523809Y-64335714D01*
%TO.C,U17*%
X24952380Y-89988095D02*
X25761904Y-89988095D01*
X25857142Y-89940476D01*
X25904761Y-89892857D01*
X25952380Y-89797619D01*
X25952380Y-89607142D01*
X25904761Y-89511904D01*
X25857142Y-89464285D01*
X25761904Y-89416666D01*
X24952380Y-89416666D01*
X25952380Y-88416666D02*
X25952380Y-88988095D01*
X25952380Y-88702380D02*
X24952380Y-88702380D01*
X25095238Y-88797619D01*
X25190476Y-88892857D01*
X25238095Y-88988095D01*
X24952380Y-88083333D02*
X24952380Y-87416666D01*
X25952380Y-87845238D01*
%TO.C,U18*%
X46952380Y-89988095D02*
X47761904Y-89988095D01*
X47857142Y-89940476D01*
X47904761Y-89892857D01*
X47952380Y-89797619D01*
X47952380Y-89607142D01*
X47904761Y-89511904D01*
X47857142Y-89464285D01*
X47761904Y-89416666D01*
X46952380Y-89416666D01*
X47952380Y-88416666D02*
X47952380Y-88988095D01*
X47952380Y-88702380D02*
X46952380Y-88702380D01*
X47095238Y-88797619D01*
X47190476Y-88892857D01*
X47238095Y-88988095D01*
X47380952Y-87845238D02*
X47333333Y-87940476D01*
X47285714Y-87988095D01*
X47190476Y-88035714D01*
X47142857Y-88035714D01*
X47047619Y-87988095D01*
X47000000Y-87940476D01*
X46952380Y-87845238D01*
X46952380Y-87654761D01*
X47000000Y-87559523D01*
X47047619Y-87511904D01*
X47142857Y-87464285D01*
X47190476Y-87464285D01*
X47285714Y-87511904D01*
X47333333Y-87559523D01*
X47380952Y-87654761D01*
X47380952Y-87845238D01*
X47428571Y-87940476D01*
X47476190Y-87988095D01*
X47571428Y-88035714D01*
X47761904Y-88035714D01*
X47857142Y-87988095D01*
X47904761Y-87940476D01*
X47952380Y-87845238D01*
X47952380Y-87654761D01*
X47904761Y-87559523D01*
X47857142Y-87511904D01*
X47761904Y-87464285D01*
X47571428Y-87464285D01*
X47476190Y-87511904D01*
X47428571Y-87559523D01*
X47380952Y-87654761D01*
%TO.C,U19*%
X68952380Y-89988095D02*
X69761904Y-89988095D01*
X69857142Y-89940476D01*
X69904761Y-89892857D01*
X69952380Y-89797619D01*
X69952380Y-89607142D01*
X69904761Y-89511904D01*
X69857142Y-89464285D01*
X69761904Y-89416666D01*
X68952380Y-89416666D01*
X69952380Y-88416666D02*
X69952380Y-88988095D01*
X69952380Y-88702380D02*
X68952380Y-88702380D01*
X69095238Y-88797619D01*
X69190476Y-88892857D01*
X69238095Y-88988095D01*
X69952380Y-87940476D02*
X69952380Y-87750000D01*
X69904761Y-87654761D01*
X69857142Y-87607142D01*
X69714285Y-87511904D01*
X69523809Y-87464285D01*
X69142857Y-87464285D01*
X69047619Y-87511904D01*
X69000000Y-87559523D01*
X68952380Y-87654761D01*
X68952380Y-87845238D01*
X69000000Y-87940476D01*
X69047619Y-87988095D01*
X69142857Y-88035714D01*
X69380952Y-88035714D01*
X69476190Y-87988095D01*
X69523809Y-87940476D01*
X69571428Y-87845238D01*
X69571428Y-87654761D01*
X69523809Y-87559523D01*
X69476190Y-87511904D01*
X69380952Y-87464285D01*
%TO.C,U20*%
X90952380Y-89988095D02*
X91761904Y-89988095D01*
X91857142Y-89940476D01*
X91904761Y-89892857D01*
X91952380Y-89797619D01*
X91952380Y-89607142D01*
X91904761Y-89511904D01*
X91857142Y-89464285D01*
X91761904Y-89416666D01*
X90952380Y-89416666D01*
X91047619Y-88988095D02*
X91000000Y-88940476D01*
X90952380Y-88845238D01*
X90952380Y-88607142D01*
X91000000Y-88511904D01*
X91047619Y-88464285D01*
X91142857Y-88416666D01*
X91238095Y-88416666D01*
X91380952Y-88464285D01*
X91952380Y-89035714D01*
X91952380Y-88416666D01*
X90952380Y-87797619D02*
X90952380Y-87702380D01*
X91000000Y-87607142D01*
X91047619Y-87559523D01*
X91142857Y-87511904D01*
X91333333Y-87464285D01*
X91571428Y-87464285D01*
X91761904Y-87511904D01*
X91857142Y-87559523D01*
X91904761Y-87607142D01*
X91952380Y-87702380D01*
X91952380Y-87797619D01*
X91904761Y-87892857D01*
X91857142Y-87940476D01*
X91761904Y-87988095D01*
X91571428Y-88035714D01*
X91333333Y-88035714D01*
X91142857Y-87988095D01*
X91047619Y-87940476D01*
X91000000Y-87892857D01*
X90952380Y-87797619D01*
%TO.C,U21*%
X112952380Y-89988095D02*
X113761904Y-89988095D01*
X113857142Y-89940476D01*
X113904761Y-89892857D01*
X113952380Y-89797619D01*
X113952380Y-89607142D01*
X113904761Y-89511904D01*
X113857142Y-89464285D01*
X113761904Y-89416666D01*
X112952380Y-89416666D01*
X113047619Y-88988095D02*
X113000000Y-88940476D01*
X112952380Y-88845238D01*
X112952380Y-88607142D01*
X113000000Y-88511904D01*
X113047619Y-88464285D01*
X113142857Y-88416666D01*
X113238095Y-88416666D01*
X113380952Y-88464285D01*
X113952380Y-89035714D01*
X113952380Y-88416666D01*
X113952380Y-87464285D02*
X113952380Y-88035714D01*
X113952380Y-87750000D02*
X112952380Y-87750000D01*
X113095238Y-87845238D01*
X113190476Y-87940476D01*
X113238095Y-88035714D01*
%TO.C,U22*%
X134952380Y-89988095D02*
X135761904Y-89988095D01*
X135857142Y-89940476D01*
X135904761Y-89892857D01*
X135952380Y-89797619D01*
X135952380Y-89607142D01*
X135904761Y-89511904D01*
X135857142Y-89464285D01*
X135761904Y-89416666D01*
X134952380Y-89416666D01*
X135047619Y-88988095D02*
X135000000Y-88940476D01*
X134952380Y-88845238D01*
X134952380Y-88607142D01*
X135000000Y-88511904D01*
X135047619Y-88464285D01*
X135142857Y-88416666D01*
X135238095Y-88416666D01*
X135380952Y-88464285D01*
X135952380Y-89035714D01*
X135952380Y-88416666D01*
X135047619Y-88035714D02*
X135000000Y-87988095D01*
X134952380Y-87892857D01*
X134952380Y-87654761D01*
X135000000Y-87559523D01*
X135047619Y-87511904D01*
X135142857Y-87464285D01*
X135238095Y-87464285D01*
X135380952Y-87511904D01*
X135952380Y-88083333D01*
X135952380Y-87464285D01*
%TO.C,U23*%
X156952380Y-89988095D02*
X157761904Y-89988095D01*
X157857142Y-89940476D01*
X157904761Y-89892857D01*
X157952380Y-89797619D01*
X157952380Y-89607142D01*
X157904761Y-89511904D01*
X157857142Y-89464285D01*
X157761904Y-89416666D01*
X156952380Y-89416666D01*
X157047619Y-88988095D02*
X157000000Y-88940476D01*
X156952380Y-88845238D01*
X156952380Y-88607142D01*
X157000000Y-88511904D01*
X157047619Y-88464285D01*
X157142857Y-88416666D01*
X157238095Y-88416666D01*
X157380952Y-88464285D01*
X157952380Y-89035714D01*
X157952380Y-88416666D01*
X156952380Y-88083333D02*
X156952380Y-87464285D01*
X157333333Y-87797619D01*
X157333333Y-87654761D01*
X157380952Y-87559523D01*
X157428571Y-87511904D01*
X157523809Y-87464285D01*
X157761904Y-87464285D01*
X157857142Y-87511904D01*
X157904761Y-87559523D01*
X157952380Y-87654761D01*
X157952380Y-87940476D01*
X157904761Y-88035714D01*
X157857142Y-88083333D01*
%TO.C,U24*%
X178952380Y-89988095D02*
X179761904Y-89988095D01*
X179857142Y-89940476D01*
X179904761Y-89892857D01*
X179952380Y-89797619D01*
X179952380Y-89607142D01*
X179904761Y-89511904D01*
X179857142Y-89464285D01*
X179761904Y-89416666D01*
X178952380Y-89416666D01*
X179047619Y-88988095D02*
X179000000Y-88940476D01*
X178952380Y-88845238D01*
X178952380Y-88607142D01*
X179000000Y-88511904D01*
X179047619Y-88464285D01*
X179142857Y-88416666D01*
X179238095Y-88416666D01*
X179380952Y-88464285D01*
X179952380Y-89035714D01*
X179952380Y-88416666D01*
X179285714Y-87559523D02*
X179952380Y-87559523D01*
X178904761Y-87797619D02*
X179619047Y-88035714D01*
X179619047Y-87416666D01*
%TO.C,C1*%
X27710133Y-35607142D02*
X27662514Y-35654761D01*
X27519657Y-35702380D01*
X27424419Y-35702380D01*
X27281561Y-35654761D01*
X27186323Y-35559523D01*
X27138704Y-35464285D01*
X27091085Y-35273809D01*
X27091085Y-35130952D01*
X27138704Y-34940476D01*
X27186323Y-34845238D01*
X27281561Y-34750000D01*
X27424419Y-34702380D01*
X27519657Y-34702380D01*
X27662514Y-34750000D01*
X27710133Y-34797619D01*
X28662514Y-35702380D02*
X28091085Y-35702380D01*
X28376800Y-35702380D02*
X28376800Y-34702380D01*
X28281561Y-34845238D01*
X28186323Y-34940476D01*
X28091085Y-34988095D01*
%TO.C,C5*%
X115710133Y-35607142D02*
X115662514Y-35654761D01*
X115519657Y-35702380D01*
X115424419Y-35702380D01*
X115281561Y-35654761D01*
X115186323Y-35559523D01*
X115138704Y-35464285D01*
X115091085Y-35273809D01*
X115091085Y-35130952D01*
X115138704Y-34940476D01*
X115186323Y-34845238D01*
X115281561Y-34750000D01*
X115424419Y-34702380D01*
X115519657Y-34702380D01*
X115662514Y-34750000D01*
X115710133Y-34797619D01*
X116614895Y-34702380D02*
X116138704Y-34702380D01*
X116091085Y-35178571D01*
X116138704Y-35130952D01*
X116233942Y-35083333D01*
X116472038Y-35083333D01*
X116567276Y-35130952D01*
X116614895Y-35178571D01*
X116662514Y-35273809D01*
X116662514Y-35511904D01*
X116614895Y-35607142D01*
X116567276Y-35654761D01*
X116472038Y-35702380D01*
X116233942Y-35702380D01*
X116138704Y-35654761D01*
X116091085Y-35607142D01*
%TO.C,C6*%
X137710133Y-35607142D02*
X137662514Y-35654761D01*
X137519657Y-35702380D01*
X137424419Y-35702380D01*
X137281561Y-35654761D01*
X137186323Y-35559523D01*
X137138704Y-35464285D01*
X137091085Y-35273809D01*
X137091085Y-35130952D01*
X137138704Y-34940476D01*
X137186323Y-34845238D01*
X137281561Y-34750000D01*
X137424419Y-34702380D01*
X137519657Y-34702380D01*
X137662514Y-34750000D01*
X137710133Y-34797619D01*
X138567276Y-34702380D02*
X138376800Y-34702380D01*
X138281561Y-34750000D01*
X138233942Y-34797619D01*
X138138704Y-34940476D01*
X138091085Y-35130952D01*
X138091085Y-35511904D01*
X138138704Y-35607142D01*
X138186323Y-35654761D01*
X138281561Y-35702380D01*
X138472038Y-35702380D01*
X138567276Y-35654761D01*
X138614895Y-35607142D01*
X138662514Y-35511904D01*
X138662514Y-35273809D01*
X138614895Y-35178571D01*
X138567276Y-35130952D01*
X138472038Y-35083333D01*
X138281561Y-35083333D01*
X138186323Y-35130952D01*
X138138704Y-35178571D01*
X138091085Y-35273809D01*
%TO.C,C22*%
X137233942Y-83007142D02*
X137186323Y-83054761D01*
X137043466Y-83102380D01*
X136948228Y-83102380D01*
X136805371Y-83054761D01*
X136710133Y-82959523D01*
X136662514Y-82864285D01*
X136614895Y-82673809D01*
X136614895Y-82530952D01*
X136662514Y-82340476D01*
X136710133Y-82245238D01*
X136805371Y-82150000D01*
X136948228Y-82102380D01*
X137043466Y-82102380D01*
X137186323Y-82150000D01*
X137233942Y-82197619D01*
X137614895Y-82197619D02*
X137662514Y-82150000D01*
X137757752Y-82102380D01*
X137995847Y-82102380D01*
X138091085Y-82150000D01*
X138138704Y-82197619D01*
X138186323Y-82292857D01*
X138186323Y-82388095D01*
X138138704Y-82530952D01*
X137567276Y-83102380D01*
X138186323Y-83102380D01*
X138567276Y-82197619D02*
X138614895Y-82150000D01*
X138710133Y-82102380D01*
X138948228Y-82102380D01*
X139043466Y-82150000D01*
X139091085Y-82197619D01*
X139138704Y-82292857D01*
X139138704Y-82388095D01*
X139091085Y-82530952D01*
X138519657Y-83102380D01*
X139138704Y-83102380D01*
%TO.C,C19*%
X71233942Y-83007142D02*
X71186323Y-83054761D01*
X71043466Y-83102380D01*
X70948228Y-83102380D01*
X70805371Y-83054761D01*
X70710133Y-82959523D01*
X70662514Y-82864285D01*
X70614895Y-82673809D01*
X70614895Y-82530952D01*
X70662514Y-82340476D01*
X70710133Y-82245238D01*
X70805371Y-82150000D01*
X70948228Y-82102380D01*
X71043466Y-82102380D01*
X71186323Y-82150000D01*
X71233942Y-82197619D01*
X72186323Y-83102380D02*
X71614895Y-83102380D01*
X71900609Y-83102380D02*
X71900609Y-82102380D01*
X71805371Y-82245238D01*
X71710133Y-82340476D01*
X71614895Y-82388095D01*
X72662514Y-83102380D02*
X72852990Y-83102380D01*
X72948228Y-83054761D01*
X72995847Y-83007142D01*
X73091085Y-82864285D01*
X73138704Y-82673809D01*
X73138704Y-82292857D01*
X73091085Y-82197619D01*
X73043466Y-82150000D01*
X72948228Y-82102380D01*
X72757752Y-82102380D01*
X72662514Y-82150000D01*
X72614895Y-82197619D01*
X72567276Y-82292857D01*
X72567276Y-82530952D01*
X72614895Y-82626190D01*
X72662514Y-82673809D01*
X72757752Y-82721428D01*
X72948228Y-82721428D01*
X73043466Y-82673809D01*
X73091085Y-82626190D01*
X73138704Y-82530952D01*
%TO.C,C20*%
X93233942Y-83007142D02*
X93186323Y-83054761D01*
X93043466Y-83102380D01*
X92948228Y-83102380D01*
X92805371Y-83054761D01*
X92710133Y-82959523D01*
X92662514Y-82864285D01*
X92614895Y-82673809D01*
X92614895Y-82530952D01*
X92662514Y-82340476D01*
X92710133Y-82245238D01*
X92805371Y-82150000D01*
X92948228Y-82102380D01*
X93043466Y-82102380D01*
X93186323Y-82150000D01*
X93233942Y-82197619D01*
X93614895Y-82197619D02*
X93662514Y-82150000D01*
X93757752Y-82102380D01*
X93995847Y-82102380D01*
X94091085Y-82150000D01*
X94138704Y-82197619D01*
X94186323Y-82292857D01*
X94186323Y-82388095D01*
X94138704Y-82530952D01*
X93567276Y-83102380D01*
X94186323Y-83102380D01*
X94805371Y-82102380D02*
X94900609Y-82102380D01*
X94995847Y-82150000D01*
X95043466Y-82197619D01*
X95091085Y-82292857D01*
X95138704Y-82483333D01*
X95138704Y-82721428D01*
X95091085Y-82911904D01*
X95043466Y-83007142D01*
X94995847Y-83054761D01*
X94900609Y-83102380D01*
X94805371Y-83102380D01*
X94710133Y-83054761D01*
X94662514Y-83007142D01*
X94614895Y-82911904D01*
X94567276Y-82721428D01*
X94567276Y-82483333D01*
X94614895Y-82292857D01*
X94662514Y-82197619D01*
X94710133Y-82150000D01*
X94805371Y-82102380D01*
%TO.C,C18*%
X49233942Y-83007142D02*
X49186323Y-83054761D01*
X49043466Y-83102380D01*
X48948228Y-83102380D01*
X48805371Y-83054761D01*
X48710133Y-82959523D01*
X48662514Y-82864285D01*
X48614895Y-82673809D01*
X48614895Y-82530952D01*
X48662514Y-82340476D01*
X48710133Y-82245238D01*
X48805371Y-82150000D01*
X48948228Y-82102380D01*
X49043466Y-82102380D01*
X49186323Y-82150000D01*
X49233942Y-82197619D01*
X50186323Y-83102380D02*
X49614895Y-83102380D01*
X49900609Y-83102380D02*
X49900609Y-82102380D01*
X49805371Y-82245238D01*
X49710133Y-82340476D01*
X49614895Y-82388095D01*
X50757752Y-82530952D02*
X50662514Y-82483333D01*
X50614895Y-82435714D01*
X50567276Y-82340476D01*
X50567276Y-82292857D01*
X50614895Y-82197619D01*
X50662514Y-82150000D01*
X50757752Y-82102380D01*
X50948228Y-82102380D01*
X51043466Y-82150000D01*
X51091085Y-82197619D01*
X51138704Y-82292857D01*
X51138704Y-82340476D01*
X51091085Y-82435714D01*
X51043466Y-82483333D01*
X50948228Y-82530952D01*
X50757752Y-82530952D01*
X50662514Y-82578571D01*
X50614895Y-82626190D01*
X50567276Y-82721428D01*
X50567276Y-82911904D01*
X50614895Y-83007142D01*
X50662514Y-83054761D01*
X50757752Y-83102380D01*
X50948228Y-83102380D01*
X51043466Y-83054761D01*
X51091085Y-83007142D01*
X51138704Y-82911904D01*
X51138704Y-82721428D01*
X51091085Y-82626190D01*
X51043466Y-82578571D01*
X50948228Y-82530952D01*
%TO.C,C24*%
X181233942Y-83007142D02*
X181186323Y-83054761D01*
X181043466Y-83102380D01*
X180948228Y-83102380D01*
X180805371Y-83054761D01*
X180710133Y-82959523D01*
X180662514Y-82864285D01*
X180614895Y-82673809D01*
X180614895Y-82530952D01*
X180662514Y-82340476D01*
X180710133Y-82245238D01*
X180805371Y-82150000D01*
X180948228Y-82102380D01*
X181043466Y-82102380D01*
X181186323Y-82150000D01*
X181233942Y-82197619D01*
X181614895Y-82197619D02*
X181662514Y-82150000D01*
X181757752Y-82102380D01*
X181995847Y-82102380D01*
X182091085Y-82150000D01*
X182138704Y-82197619D01*
X182186323Y-82292857D01*
X182186323Y-82388095D01*
X182138704Y-82530952D01*
X181567276Y-83102380D01*
X182186323Y-83102380D01*
X183043466Y-82435714D02*
X183043466Y-83102380D01*
X182805371Y-82054761D02*
X182567276Y-82769047D01*
X183186323Y-82769047D01*
%TO.C,C17*%
X27233942Y-83007142D02*
X27186323Y-83054761D01*
X27043466Y-83102380D01*
X26948228Y-83102380D01*
X26805371Y-83054761D01*
X26710133Y-82959523D01*
X26662514Y-82864285D01*
X26614895Y-82673809D01*
X26614895Y-82530952D01*
X26662514Y-82340476D01*
X26710133Y-82245238D01*
X26805371Y-82150000D01*
X26948228Y-82102380D01*
X27043466Y-82102380D01*
X27186323Y-82150000D01*
X27233942Y-82197619D01*
X28186323Y-83102380D02*
X27614895Y-83102380D01*
X27900609Y-83102380D02*
X27900609Y-82102380D01*
X27805371Y-82245238D01*
X27710133Y-82340476D01*
X27614895Y-82388095D01*
X28519657Y-82102380D02*
X29186323Y-82102380D01*
X28757752Y-83102380D01*
%TO.C,C7*%
X159710133Y-35607142D02*
X159662514Y-35654761D01*
X159519657Y-35702380D01*
X159424419Y-35702380D01*
X159281561Y-35654761D01*
X159186323Y-35559523D01*
X159138704Y-35464285D01*
X159091085Y-35273809D01*
X159091085Y-35130952D01*
X159138704Y-34940476D01*
X159186323Y-34845238D01*
X159281561Y-34750000D01*
X159424419Y-34702380D01*
X159519657Y-34702380D01*
X159662514Y-34750000D01*
X159710133Y-34797619D01*
X160043466Y-34702380D02*
X160710133Y-34702380D01*
X160281561Y-35702380D01*
%TO.C,C9*%
X27763333Y-59677142D02*
X27715714Y-59724761D01*
X27572857Y-59772380D01*
X27477619Y-59772380D01*
X27334761Y-59724761D01*
X27239523Y-59629523D01*
X27191904Y-59534285D01*
X27144285Y-59343809D01*
X27144285Y-59200952D01*
X27191904Y-59010476D01*
X27239523Y-58915238D01*
X27334761Y-58820000D01*
X27477619Y-58772380D01*
X27572857Y-58772380D01*
X27715714Y-58820000D01*
X27763333Y-58867619D01*
X28239523Y-59772380D02*
X28430000Y-59772380D01*
X28525238Y-59724761D01*
X28572857Y-59677142D01*
X28668095Y-59534285D01*
X28715714Y-59343809D01*
X28715714Y-58962857D01*
X28668095Y-58867619D01*
X28620476Y-58820000D01*
X28525238Y-58772380D01*
X28334761Y-58772380D01*
X28239523Y-58820000D01*
X28191904Y-58867619D01*
X28144285Y-58962857D01*
X28144285Y-59200952D01*
X28191904Y-59296190D01*
X28239523Y-59343809D01*
X28334761Y-59391428D01*
X28525238Y-59391428D01*
X28620476Y-59343809D01*
X28668095Y-59296190D01*
X28715714Y-59200952D01*
%TO.C,C14*%
X137287142Y-59677142D02*
X137239523Y-59724761D01*
X137096666Y-59772380D01*
X137001428Y-59772380D01*
X136858571Y-59724761D01*
X136763333Y-59629523D01*
X136715714Y-59534285D01*
X136668095Y-59343809D01*
X136668095Y-59200952D01*
X136715714Y-59010476D01*
X136763333Y-58915238D01*
X136858571Y-58820000D01*
X137001428Y-58772380D01*
X137096666Y-58772380D01*
X137239523Y-58820000D01*
X137287142Y-58867619D01*
X138239523Y-59772380D02*
X137668095Y-59772380D01*
X137953809Y-59772380D02*
X137953809Y-58772380D01*
X137858571Y-58915238D01*
X137763333Y-59010476D01*
X137668095Y-59058095D01*
X139096666Y-59105714D02*
X139096666Y-59772380D01*
X138858571Y-58724761D02*
X138620476Y-59439047D01*
X139239523Y-59439047D01*
%TO.C,C3*%
X71710133Y-35607142D02*
X71662514Y-35654761D01*
X71519657Y-35702380D01*
X71424419Y-35702380D01*
X71281561Y-35654761D01*
X71186323Y-35559523D01*
X71138704Y-35464285D01*
X71091085Y-35273809D01*
X71091085Y-35130952D01*
X71138704Y-34940476D01*
X71186323Y-34845238D01*
X71281561Y-34750000D01*
X71424419Y-34702380D01*
X71519657Y-34702380D01*
X71662514Y-34750000D01*
X71710133Y-34797619D01*
X72043466Y-34702380D02*
X72662514Y-34702380D01*
X72329180Y-35083333D01*
X72472038Y-35083333D01*
X72567276Y-35130952D01*
X72614895Y-35178571D01*
X72662514Y-35273809D01*
X72662514Y-35511904D01*
X72614895Y-35607142D01*
X72567276Y-35654761D01*
X72472038Y-35702380D01*
X72186323Y-35702380D01*
X72091085Y-35654761D01*
X72043466Y-35607142D01*
%TO.C,C23*%
X159233942Y-83007142D02*
X159186323Y-83054761D01*
X159043466Y-83102380D01*
X158948228Y-83102380D01*
X158805371Y-83054761D01*
X158710133Y-82959523D01*
X158662514Y-82864285D01*
X158614895Y-82673809D01*
X158614895Y-82530952D01*
X158662514Y-82340476D01*
X158710133Y-82245238D01*
X158805371Y-82150000D01*
X158948228Y-82102380D01*
X159043466Y-82102380D01*
X159186323Y-82150000D01*
X159233942Y-82197619D01*
X159614895Y-82197619D02*
X159662514Y-82150000D01*
X159757752Y-82102380D01*
X159995847Y-82102380D01*
X160091085Y-82150000D01*
X160138704Y-82197619D01*
X160186323Y-82292857D01*
X160186323Y-82388095D01*
X160138704Y-82530952D01*
X159567276Y-83102380D01*
X160186323Y-83102380D01*
X160519657Y-82102380D02*
X161138704Y-82102380D01*
X160805371Y-82483333D01*
X160948228Y-82483333D01*
X161043466Y-82530952D01*
X161091085Y-82578571D01*
X161138704Y-82673809D01*
X161138704Y-82911904D01*
X161091085Y-83007142D01*
X161043466Y-83054761D01*
X160948228Y-83102380D01*
X160662514Y-83102380D01*
X160567276Y-83054761D01*
X160519657Y-83007142D01*
%TO.C,C15*%
X159287142Y-59677142D02*
X159239523Y-59724761D01*
X159096666Y-59772380D01*
X159001428Y-59772380D01*
X158858571Y-59724761D01*
X158763333Y-59629523D01*
X158715714Y-59534285D01*
X158668095Y-59343809D01*
X158668095Y-59200952D01*
X158715714Y-59010476D01*
X158763333Y-58915238D01*
X158858571Y-58820000D01*
X159001428Y-58772380D01*
X159096666Y-58772380D01*
X159239523Y-58820000D01*
X159287142Y-58867619D01*
X160239523Y-59772380D02*
X159668095Y-59772380D01*
X159953809Y-59772380D02*
X159953809Y-58772380D01*
X159858571Y-58915238D01*
X159763333Y-59010476D01*
X159668095Y-59058095D01*
X161144285Y-58772380D02*
X160668095Y-58772380D01*
X160620476Y-59248571D01*
X160668095Y-59200952D01*
X160763333Y-59153333D01*
X161001428Y-59153333D01*
X161096666Y-59200952D01*
X161144285Y-59248571D01*
X161191904Y-59343809D01*
X161191904Y-59581904D01*
X161144285Y-59677142D01*
X161096666Y-59724761D01*
X161001428Y-59772380D01*
X160763333Y-59772380D01*
X160668095Y-59724761D01*
X160620476Y-59677142D01*
%TO.C,C4*%
X93710133Y-35607142D02*
X93662514Y-35654761D01*
X93519657Y-35702380D01*
X93424419Y-35702380D01*
X93281561Y-35654761D01*
X93186323Y-35559523D01*
X93138704Y-35464285D01*
X93091085Y-35273809D01*
X93091085Y-35130952D01*
X93138704Y-34940476D01*
X93186323Y-34845238D01*
X93281561Y-34750000D01*
X93424419Y-34702380D01*
X93519657Y-34702380D01*
X93662514Y-34750000D01*
X93710133Y-34797619D01*
X94567276Y-35035714D02*
X94567276Y-35702380D01*
X94329180Y-34654761D02*
X94091085Y-35369047D01*
X94710133Y-35369047D01*
%TO.C,C10*%
X49287142Y-59677142D02*
X49239523Y-59724761D01*
X49096666Y-59772380D01*
X49001428Y-59772380D01*
X48858571Y-59724761D01*
X48763333Y-59629523D01*
X48715714Y-59534285D01*
X48668095Y-59343809D01*
X48668095Y-59200952D01*
X48715714Y-59010476D01*
X48763333Y-58915238D01*
X48858571Y-58820000D01*
X49001428Y-58772380D01*
X49096666Y-58772380D01*
X49239523Y-58820000D01*
X49287142Y-58867619D01*
X50239523Y-59772380D02*
X49668095Y-59772380D01*
X49953809Y-59772380D02*
X49953809Y-58772380D01*
X49858571Y-58915238D01*
X49763333Y-59010476D01*
X49668095Y-59058095D01*
X50858571Y-58772380D02*
X50953809Y-58772380D01*
X51049047Y-58820000D01*
X51096666Y-58867619D01*
X51144285Y-58962857D01*
X51191904Y-59153333D01*
X51191904Y-59391428D01*
X51144285Y-59581904D01*
X51096666Y-59677142D01*
X51049047Y-59724761D01*
X50953809Y-59772380D01*
X50858571Y-59772380D01*
X50763333Y-59724761D01*
X50715714Y-59677142D01*
X50668095Y-59581904D01*
X50620476Y-59391428D01*
X50620476Y-59153333D01*
X50668095Y-58962857D01*
X50715714Y-58867619D01*
X50763333Y-58820000D01*
X50858571Y-58772380D01*
%TO.C,C8*%
X181710133Y-35607142D02*
X181662514Y-35654761D01*
X181519657Y-35702380D01*
X181424419Y-35702380D01*
X181281561Y-35654761D01*
X181186323Y-35559523D01*
X181138704Y-35464285D01*
X181091085Y-35273809D01*
X181091085Y-35130952D01*
X181138704Y-34940476D01*
X181186323Y-34845238D01*
X181281561Y-34750000D01*
X181424419Y-34702380D01*
X181519657Y-34702380D01*
X181662514Y-34750000D01*
X181710133Y-34797619D01*
X182281561Y-35130952D02*
X182186323Y-35083333D01*
X182138704Y-35035714D01*
X182091085Y-34940476D01*
X182091085Y-34892857D01*
X182138704Y-34797619D01*
X182186323Y-34750000D01*
X182281561Y-34702380D01*
X182472038Y-34702380D01*
X182567276Y-34750000D01*
X182614895Y-34797619D01*
X182662514Y-34892857D01*
X182662514Y-34940476D01*
X182614895Y-35035714D01*
X182567276Y-35083333D01*
X182472038Y-35130952D01*
X182281561Y-35130952D01*
X182186323Y-35178571D01*
X182138704Y-35226190D01*
X182091085Y-35321428D01*
X182091085Y-35511904D01*
X182138704Y-35607142D01*
X182186323Y-35654761D01*
X182281561Y-35702380D01*
X182472038Y-35702380D01*
X182567276Y-35654761D01*
X182614895Y-35607142D01*
X182662514Y-35511904D01*
X182662514Y-35321428D01*
X182614895Y-35226190D01*
X182567276Y-35178571D01*
X182472038Y-35130952D01*
%TO.C,C16*%
X181287142Y-59677142D02*
X181239523Y-59724761D01*
X181096666Y-59772380D01*
X181001428Y-59772380D01*
X180858571Y-59724761D01*
X180763333Y-59629523D01*
X180715714Y-59534285D01*
X180668095Y-59343809D01*
X180668095Y-59200952D01*
X180715714Y-59010476D01*
X180763333Y-58915238D01*
X180858571Y-58820000D01*
X181001428Y-58772380D01*
X181096666Y-58772380D01*
X181239523Y-58820000D01*
X181287142Y-58867619D01*
X182239523Y-59772380D02*
X181668095Y-59772380D01*
X181953809Y-59772380D02*
X181953809Y-58772380D01*
X181858571Y-58915238D01*
X181763333Y-59010476D01*
X181668095Y-59058095D01*
X183096666Y-58772380D02*
X182906190Y-58772380D01*
X182810952Y-58820000D01*
X182763333Y-58867619D01*
X182668095Y-59010476D01*
X182620476Y-59200952D01*
X182620476Y-59581904D01*
X182668095Y-59677142D01*
X182715714Y-59724761D01*
X182810952Y-59772380D01*
X183001428Y-59772380D01*
X183096666Y-59724761D01*
X183144285Y-59677142D01*
X183191904Y-59581904D01*
X183191904Y-59343809D01*
X183144285Y-59248571D01*
X183096666Y-59200952D01*
X183001428Y-59153333D01*
X182810952Y-59153333D01*
X182715714Y-59200952D01*
X182668095Y-59248571D01*
X182620476Y-59343809D01*
%TO.C,C13*%
X115287142Y-59677142D02*
X115239523Y-59724761D01*
X115096666Y-59772380D01*
X115001428Y-59772380D01*
X114858571Y-59724761D01*
X114763333Y-59629523D01*
X114715714Y-59534285D01*
X114668095Y-59343809D01*
X114668095Y-59200952D01*
X114715714Y-59010476D01*
X114763333Y-58915238D01*
X114858571Y-58820000D01*
X115001428Y-58772380D01*
X115096666Y-58772380D01*
X115239523Y-58820000D01*
X115287142Y-58867619D01*
X116239523Y-59772380D02*
X115668095Y-59772380D01*
X115953809Y-59772380D02*
X115953809Y-58772380D01*
X115858571Y-58915238D01*
X115763333Y-59010476D01*
X115668095Y-59058095D01*
X116572857Y-58772380D02*
X117191904Y-58772380D01*
X116858571Y-59153333D01*
X117001428Y-59153333D01*
X117096666Y-59200952D01*
X117144285Y-59248571D01*
X117191904Y-59343809D01*
X117191904Y-59581904D01*
X117144285Y-59677142D01*
X117096666Y-59724761D01*
X117001428Y-59772380D01*
X116715714Y-59772380D01*
X116620476Y-59724761D01*
X116572857Y-59677142D01*
%TO.C,C2*%
X49710133Y-35607142D02*
X49662514Y-35654761D01*
X49519657Y-35702380D01*
X49424419Y-35702380D01*
X49281561Y-35654761D01*
X49186323Y-35559523D01*
X49138704Y-35464285D01*
X49091085Y-35273809D01*
X49091085Y-35130952D01*
X49138704Y-34940476D01*
X49186323Y-34845238D01*
X49281561Y-34750000D01*
X49424419Y-34702380D01*
X49519657Y-34702380D01*
X49662514Y-34750000D01*
X49710133Y-34797619D01*
X50091085Y-34797619D02*
X50138704Y-34750000D01*
X50233942Y-34702380D01*
X50472038Y-34702380D01*
X50567276Y-34750000D01*
X50614895Y-34797619D01*
X50662514Y-34892857D01*
X50662514Y-34988095D01*
X50614895Y-35130952D01*
X50043466Y-35702380D01*
X50662514Y-35702380D01*
%TO.C,C11*%
X71287142Y-59677142D02*
X71239523Y-59724761D01*
X71096666Y-59772380D01*
X71001428Y-59772380D01*
X70858571Y-59724761D01*
X70763333Y-59629523D01*
X70715714Y-59534285D01*
X70668095Y-59343809D01*
X70668095Y-59200952D01*
X70715714Y-59010476D01*
X70763333Y-58915238D01*
X70858571Y-58820000D01*
X71001428Y-58772380D01*
X71096666Y-58772380D01*
X71239523Y-58820000D01*
X71287142Y-58867619D01*
X72239523Y-59772380D02*
X71668095Y-59772380D01*
X71953809Y-59772380D02*
X71953809Y-58772380D01*
X71858571Y-58915238D01*
X71763333Y-59010476D01*
X71668095Y-59058095D01*
X73191904Y-59772380D02*
X72620476Y-59772380D01*
X72906190Y-59772380D02*
X72906190Y-58772380D01*
X72810952Y-58915238D01*
X72715714Y-59010476D01*
X72620476Y-59058095D01*
%TO.C,C12*%
X93287142Y-59677142D02*
X93239523Y-59724761D01*
X93096666Y-59772380D01*
X93001428Y-59772380D01*
X92858571Y-59724761D01*
X92763333Y-59629523D01*
X92715714Y-59534285D01*
X92668095Y-59343809D01*
X92668095Y-59200952D01*
X92715714Y-59010476D01*
X92763333Y-58915238D01*
X92858571Y-58820000D01*
X93001428Y-58772380D01*
X93096666Y-58772380D01*
X93239523Y-58820000D01*
X93287142Y-58867619D01*
X94239523Y-59772380D02*
X93668095Y-59772380D01*
X93953809Y-59772380D02*
X93953809Y-58772380D01*
X93858571Y-58915238D01*
X93763333Y-59010476D01*
X93668095Y-59058095D01*
X94620476Y-58867619D02*
X94668095Y-58820000D01*
X94763333Y-58772380D01*
X95001428Y-58772380D01*
X95096666Y-58820000D01*
X95144285Y-58867619D01*
X95191904Y-58962857D01*
X95191904Y-59058095D01*
X95144285Y-59200952D01*
X94572857Y-59772380D01*
X95191904Y-59772380D01*
%TO.C,C21*%
X115233942Y-83007142D02*
X115186323Y-83054761D01*
X115043466Y-83102380D01*
X114948228Y-83102380D01*
X114805371Y-83054761D01*
X114710133Y-82959523D01*
X114662514Y-82864285D01*
X114614895Y-82673809D01*
X114614895Y-82530952D01*
X114662514Y-82340476D01*
X114710133Y-82245238D01*
X114805371Y-82150000D01*
X114948228Y-82102380D01*
X115043466Y-82102380D01*
X115186323Y-82150000D01*
X115233942Y-82197619D01*
X115614895Y-82197619D02*
X115662514Y-82150000D01*
X115757752Y-82102380D01*
X115995847Y-82102380D01*
X116091085Y-82150000D01*
X116138704Y-82197619D01*
X116186323Y-82292857D01*
X116186323Y-82388095D01*
X116138704Y-82530952D01*
X115567276Y-83102380D01*
X116186323Y-83102380D01*
X117138704Y-83102380D02*
X116567276Y-83102380D01*
X116852990Y-83102380D02*
X116852990Y-82102380D01*
X116757752Y-82245238D01*
X116662514Y-82340476D01*
X116567276Y-82388095D01*
D11*
%TO.C,D1*%
X31626201Y-48646401D02*
X24326201Y-48646401D01*
X24326201Y-43146401D02*
X24326201Y-44296401D01*
X31626201Y-43146401D02*
X24326201Y-43146401D01*
%TO.C,D2*%
X53626201Y-48646401D02*
X46326201Y-48646401D01*
X46326201Y-43146401D02*
X46326201Y-44296401D01*
X53626201Y-43146401D02*
X46326201Y-43146401D01*
%TO.C,D3*%
X75626201Y-43146401D02*
X68326201Y-43146401D01*
X68326201Y-43146401D02*
X68326201Y-44296401D01*
X75626201Y-48646401D02*
X68326201Y-48646401D01*
%TO.C,D4*%
X97626201Y-48646401D02*
X90326201Y-48646401D01*
X90326201Y-43146401D02*
X90326201Y-44296401D01*
X97626201Y-43146401D02*
X90326201Y-43146401D01*
%TO.C,D5*%
X112326201Y-43146401D02*
X112326201Y-44296401D01*
X119626201Y-43146401D02*
X112326201Y-43146401D01*
X119626201Y-48646401D02*
X112326201Y-48646401D01*
%TO.C,D6*%
X134326201Y-43146401D02*
X134326201Y-44296401D01*
X141626201Y-48646401D02*
X134326201Y-48646401D01*
X141626201Y-43146401D02*
X134326201Y-43146401D01*
%TO.C,D7*%
X163626201Y-48646401D02*
X156326201Y-48646401D01*
X163626201Y-43146401D02*
X156326201Y-43146401D01*
X156326201Y-43146401D02*
X156326201Y-44296401D01*
%TO.C,D8*%
X185626201Y-43146401D02*
X178326201Y-43146401D01*
X185626201Y-48646401D02*
X178326201Y-48646401D01*
X178326201Y-43146401D02*
X178326201Y-44296401D01*
%TO.C,D9*%
X31626201Y-72346401D02*
X31626201Y-71196401D01*
X24326201Y-72346401D02*
X31626201Y-72346401D01*
X24326201Y-66846401D02*
X31626201Y-66846401D01*
%TO.C,D10*%
X46326201Y-72346401D02*
X53626201Y-72346401D01*
X53626201Y-72346401D02*
X53626201Y-71196401D01*
X46326201Y-66846401D02*
X53626201Y-66846401D01*
%TO.C,D11*%
X68326201Y-66846401D02*
X75626201Y-66846401D01*
X75626201Y-72346401D02*
X75626201Y-71196401D01*
X68326201Y-72346401D02*
X75626201Y-72346401D01*
%TO.C,D12*%
X97626201Y-72346401D02*
X97626201Y-71196401D01*
X90326201Y-66846401D02*
X97626201Y-66846401D01*
X90326201Y-72346401D02*
X97626201Y-72346401D01*
%TO.C,D13*%
X112326201Y-72346401D02*
X119626201Y-72346401D01*
X119626201Y-72346401D02*
X119626201Y-71196401D01*
X112326201Y-66846401D02*
X119626201Y-66846401D01*
%TO.C,D14*%
X141626201Y-72346401D02*
X141626201Y-71196401D01*
X134326201Y-72346401D02*
X141626201Y-72346401D01*
X134326201Y-66846401D02*
X141626201Y-66846401D01*
%TO.C,D15*%
X156326201Y-66846401D02*
X163626201Y-66846401D01*
X163626201Y-72346401D02*
X163626201Y-71196401D01*
X156326201Y-72346401D02*
X163626201Y-72346401D01*
%TO.C,D16*%
X178326201Y-66846401D02*
X185626201Y-66846401D01*
X178326201Y-72346401D02*
X185626201Y-72346401D01*
X185626201Y-72346401D02*
X185626201Y-71196401D01*
%TO.C,D17*%
X31626201Y-96046401D02*
X24326201Y-96046401D01*
X24326201Y-90546401D02*
X24326201Y-91696401D01*
X31626201Y-90546401D02*
X24326201Y-90546401D01*
%TO.C,D18*%
X53626201Y-90546401D02*
X46326201Y-90546401D01*
X46326201Y-90546401D02*
X46326201Y-91696401D01*
X53626201Y-96046401D02*
X46326201Y-96046401D01*
%TO.C,D19*%
X75626201Y-90546401D02*
X68326201Y-90546401D01*
X68326201Y-90546401D02*
X68326201Y-91696401D01*
X75626201Y-96046401D02*
X68326201Y-96046401D01*
%TO.C,D20*%
X90326201Y-90546401D02*
X90326201Y-91696401D01*
X97626201Y-90546401D02*
X90326201Y-90546401D01*
X97626201Y-96046401D02*
X90326201Y-96046401D01*
%TO.C,D21*%
X119626201Y-96046401D02*
X112326201Y-96046401D01*
X112326201Y-90546401D02*
X112326201Y-91696401D01*
X119626201Y-90546401D02*
X112326201Y-90546401D01*
%TO.C,D22*%
X134326201Y-90546401D02*
X134326201Y-91696401D01*
X141626201Y-96046401D02*
X134326201Y-96046401D01*
X141626201Y-90546401D02*
X134326201Y-90546401D01*
%TO.C,D23*%
X163626201Y-96046401D02*
X156326201Y-96046401D01*
X163626201Y-90546401D02*
X156326201Y-90546401D01*
X156326201Y-90546401D02*
X156326201Y-91696401D01*
%TO.C,D24*%
X185626201Y-96046401D02*
X178326201Y-96046401D01*
X178326201Y-90546401D02*
X178326201Y-91696401D01*
X185626201Y-90546401D02*
X178326201Y-90546401D01*
%TO.C,U1*%
X29580000Y-40590000D02*
X28650000Y-40590000D01*
X29580000Y-40590000D02*
X29580000Y-42050000D01*
X26420000Y-40590000D02*
X27350000Y-40590000D01*
X26420000Y-40590000D02*
X26420000Y-42750000D01*
%TO.C,U2*%
X48420000Y-40590000D02*
X49350000Y-40590000D01*
X48420000Y-40590000D02*
X48420000Y-42750000D01*
X51580000Y-40590000D02*
X50650000Y-40590000D01*
X51580000Y-40590000D02*
X51580000Y-42050000D01*
%TO.C,U3*%
X70420000Y-40590000D02*
X70420000Y-42750000D01*
X70420000Y-40590000D02*
X71350000Y-40590000D01*
X73580000Y-40590000D02*
X73580000Y-42050000D01*
X73580000Y-40590000D02*
X72650000Y-40590000D01*
%TO.C,U4*%
X92420000Y-40590000D02*
X92420000Y-42750000D01*
X92420000Y-40590000D02*
X93350000Y-40590000D01*
X95580000Y-40590000D02*
X95580000Y-42050000D01*
X95580000Y-40590000D02*
X94650000Y-40590000D01*
%TO.C,U5*%
X117580000Y-40590000D02*
X117580000Y-42050000D01*
X117580000Y-40590000D02*
X116650000Y-40590000D01*
X114420000Y-40590000D02*
X114420000Y-42750000D01*
X114420000Y-40590000D02*
X115350000Y-40590000D01*
%TO.C,U6*%
X136420000Y-40590000D02*
X136420000Y-42750000D01*
X139580000Y-40590000D02*
X138650000Y-40590000D01*
X136420000Y-40590000D02*
X137350000Y-40590000D01*
X139580000Y-40590000D02*
X139580000Y-42050000D01*
%TO.C,U7*%
X158420000Y-40590000D02*
X159350000Y-40590000D01*
X161580000Y-40590000D02*
X160650000Y-40590000D01*
X161580000Y-40590000D02*
X161580000Y-42050000D01*
X158420000Y-40590000D02*
X158420000Y-42750000D01*
%TO.C,U8*%
X183580000Y-40590000D02*
X183580000Y-42050000D01*
X180420000Y-40590000D02*
X180420000Y-42750000D01*
X183580000Y-40590000D02*
X182650000Y-40590000D01*
X180420000Y-40590000D02*
X181350000Y-40590000D01*
%TO.C,U9*%
X26420000Y-64290000D02*
X27350000Y-64290000D01*
X29580000Y-64290000D02*
X28650000Y-64290000D01*
X29580000Y-64290000D02*
X29580000Y-65750000D01*
X26420000Y-64290000D02*
X26420000Y-66450000D01*
%TO.C,U10*%
X51580000Y-64290000D02*
X51580000Y-65750000D01*
X48420000Y-64290000D02*
X48420000Y-66450000D01*
X48420000Y-64290000D02*
X49350000Y-64290000D01*
X51580000Y-64290000D02*
X50650000Y-64290000D01*
%TO.C,U11*%
X70420000Y-64290000D02*
X71350000Y-64290000D01*
X73580000Y-64290000D02*
X72650000Y-64290000D01*
X73580000Y-64290000D02*
X73580000Y-65750000D01*
X70420000Y-64290000D02*
X70420000Y-66450000D01*
%TO.C,U12*%
X95580000Y-64290000D02*
X95580000Y-65750000D01*
X92420000Y-64290000D02*
X92420000Y-66450000D01*
X92420000Y-64290000D02*
X93350000Y-64290000D01*
X95580000Y-64290000D02*
X94650000Y-64290000D01*
%TO.C,U13*%
X114420000Y-64290000D02*
X115350000Y-64290000D01*
X114420000Y-64290000D02*
X114420000Y-66450000D01*
X117580000Y-64290000D02*
X116650000Y-64290000D01*
X117580000Y-64290000D02*
X117580000Y-65750000D01*
%TO.C,U14*%
X139580000Y-64290000D02*
X139580000Y-65750000D01*
X136420000Y-64290000D02*
X137350000Y-64290000D01*
X136420000Y-64290000D02*
X136420000Y-66450000D01*
X139580000Y-64290000D02*
X138650000Y-64290000D01*
%TO.C,U15*%
X161580000Y-64290000D02*
X160650000Y-64290000D01*
X158420000Y-64290000D02*
X159350000Y-64290000D01*
X158420000Y-64290000D02*
X158420000Y-66450000D01*
X161580000Y-64290000D02*
X161580000Y-65750000D01*
%TO.C,U16*%
X183580000Y-64290000D02*
X182650000Y-64290000D01*
X180420000Y-64290000D02*
X180420000Y-66450000D01*
X183580000Y-64290000D02*
X183580000Y-65750000D01*
X180420000Y-64290000D02*
X181350000Y-64290000D01*
%TO.C,U17*%
X26420000Y-87990000D02*
X27350000Y-87990000D01*
X29580000Y-87990000D02*
X29580000Y-89450000D01*
X26420000Y-87990000D02*
X26420000Y-90150000D01*
X29580000Y-87990000D02*
X28650000Y-87990000D01*
%TO.C,U18*%
X51580000Y-87990000D02*
X50650000Y-87990000D01*
X51580000Y-87990000D02*
X51580000Y-89450000D01*
X48420000Y-87990000D02*
X48420000Y-90150000D01*
X48420000Y-87990000D02*
X49350000Y-87990000D01*
%TO.C,U19*%
X70420000Y-87990000D02*
X70420000Y-90150000D01*
X70420000Y-87990000D02*
X71350000Y-87990000D01*
X73580000Y-87990000D02*
X72650000Y-87990000D01*
X73580000Y-87990000D02*
X73580000Y-89450000D01*
%TO.C,U20*%
X95580000Y-87990000D02*
X95580000Y-89450000D01*
X92420000Y-87990000D02*
X93350000Y-87990000D01*
X92420000Y-87990000D02*
X92420000Y-90150000D01*
X95580000Y-87990000D02*
X94650000Y-87990000D01*
%TO.C,U21*%
X114420000Y-87990000D02*
X115350000Y-87990000D01*
X114420000Y-87990000D02*
X114420000Y-90150000D01*
X117580000Y-87990000D02*
X117580000Y-89450000D01*
X117580000Y-87990000D02*
X116650000Y-87990000D01*
%TO.C,U22*%
X139580000Y-87990000D02*
X139580000Y-89450000D01*
X139580000Y-87990000D02*
X138650000Y-87990000D01*
X136420000Y-87990000D02*
X137350000Y-87990000D01*
X136420000Y-87990000D02*
X136420000Y-90150000D01*
%TO.C,U23*%
X161580000Y-87990000D02*
X160650000Y-87990000D01*
X161580000Y-87990000D02*
X161580000Y-89450000D01*
X158420000Y-87990000D02*
X159350000Y-87990000D01*
X158420000Y-87990000D02*
X158420000Y-90150000D01*
%TO.C,U24*%
X183580000Y-87990000D02*
X182650000Y-87990000D01*
X183580000Y-87990000D02*
X183580000Y-89450000D01*
X180420000Y-87990000D02*
X181350000Y-87990000D01*
X180420000Y-87990000D02*
X180420000Y-90150000D01*
%TO.C,C1*%
X28588052Y-36740000D02*
X27165548Y-36740000D01*
X28588052Y-38560000D02*
X27165548Y-38560000D01*
%TO.C,C5*%
X116588052Y-36740000D02*
X115165548Y-36740000D01*
X116588052Y-38560000D02*
X115165548Y-38560000D01*
%TO.C,C6*%
X138588052Y-38560000D02*
X137165548Y-38560000D01*
X138588052Y-36740000D02*
X137165548Y-36740000D01*
%TO.C,C22*%
X138588052Y-84140000D02*
X137165548Y-84140000D01*
X138588052Y-85960000D02*
X137165548Y-85960000D01*
%TO.C,C19*%
X72588052Y-84140000D02*
X71165548Y-84140000D01*
X72588052Y-85960000D02*
X71165548Y-85960000D01*
%TO.C,C20*%
X94588052Y-84140000D02*
X93165548Y-84140000D01*
X94588052Y-85960000D02*
X93165548Y-85960000D01*
%TO.C,C18*%
X50588052Y-85960000D02*
X49165548Y-85960000D01*
X50588052Y-84140000D02*
X49165548Y-84140000D01*
%TO.C,C24*%
X182588052Y-84140000D02*
X181165548Y-84140000D01*
X182588052Y-85960000D02*
X181165548Y-85960000D01*
%TO.C,C17*%
X28588052Y-84140000D02*
X27165548Y-84140000D01*
X28588052Y-85960000D02*
X27165548Y-85960000D01*
%TO.C,C7*%
X160588052Y-36740000D02*
X159165548Y-36740000D01*
X160588052Y-38560000D02*
X159165548Y-38560000D01*
%TO.C,C9*%
X27165548Y-62260000D02*
X28588052Y-62260000D01*
X27165548Y-60440000D02*
X28588052Y-60440000D01*
%TO.C,C14*%
X137165548Y-62260000D02*
X138588052Y-62260000D01*
X137165548Y-60440000D02*
X138588052Y-60440000D01*
%TO.C,C3*%
X72588052Y-36740000D02*
X71165548Y-36740000D01*
X72588052Y-38560000D02*
X71165548Y-38560000D01*
%TO.C,C23*%
X160588052Y-84140000D02*
X159165548Y-84140000D01*
X160588052Y-85960000D02*
X159165548Y-85960000D01*
%TO.C,C15*%
X159165548Y-60440000D02*
X160588052Y-60440000D01*
X159165548Y-62260000D02*
X160588052Y-62260000D01*
%TO.C,C4*%
X94588052Y-36740000D02*
X93165548Y-36740000D01*
X94588052Y-38560000D02*
X93165548Y-38560000D01*
%TO.C,C10*%
X49165548Y-60440000D02*
X50588052Y-60440000D01*
X49165548Y-62260000D02*
X50588052Y-62260000D01*
%TO.C,C8*%
X182588052Y-38560000D02*
X181165548Y-38560000D01*
X182588052Y-36740000D02*
X181165548Y-36740000D01*
%TO.C,C16*%
X181165548Y-60440000D02*
X182588052Y-60440000D01*
X181165548Y-62260000D02*
X182588052Y-62260000D01*
%TO.C,C13*%
X115165548Y-62260000D02*
X116588052Y-62260000D01*
X115165548Y-60440000D02*
X116588052Y-60440000D01*
%TO.C,C2*%
X50588052Y-38560000D02*
X49165548Y-38560000D01*
X50588052Y-36740000D02*
X49165548Y-36740000D01*
%TO.C,C11*%
X71165548Y-62260000D02*
X72588052Y-62260000D01*
X71165548Y-60440000D02*
X72588052Y-60440000D01*
%TO.C,C12*%
X93165548Y-62260000D02*
X94588052Y-62260000D01*
X93165548Y-60440000D02*
X94588052Y-60440000D01*
%TO.C,C21*%
X116588052Y-85960000D02*
X115165548Y-85960000D01*
X116588052Y-84140000D02*
X115165548Y-84140000D01*
%TD*%
M02*
